<svg version="1.1" xmlns="http://www.w3.org/2000/svg" style="display: block;" viewBox="0 0 2048 2048" width="1024" height="1024" preserveAspectRatio="none">
<defs>
	<linearGradient id="Gradient1" gradientUnits="userSpaceOnUse" x1="1825.14" y1="1286.54" x2="1807.22" y2="1299.95">
		<stop class="stop0" offset="0" stop-opacity="0" stop-color="rgb(120,142,163)"/>
		<stop class="stop1" offset="1" stop-opacity="0.00784314" stop-color="rgb(161,171,179)"/>
	</linearGradient>
</defs>
<path transform="translate(0,0)" fill="rgb(7,69,132)" d="M 1005.91 1006.33 C 1032.9 1003.39 1043.15 1022.55 1047.28 1045.44 C 1063.8 1026.72 1092.46 1029.51 1105.51 1050.8 C 1113.32 1063.54 1112.43 1074.02 1109.37 1087.72 L 1112.92 1087.63 C 1134.85 1087.2 1133.98 1089.11 1149.05 1103.58 L 1149.98 1103.28 C 1148.62 1096.26 1150.97 1089.86 1152.55 1082.61 C 1146.55 1075.97 1141.38 1071.58 1140.56 1062.77 C 1142.45 1059.47 1165.49 1031.01 1168.8 1028.17 C 1173.69 1029.79 1176.58 1037.24 1181.19 1042.37 L 1181.9 1043.14 C 1186.64 1044.49 1195.06 1046.17 1197.79 1050.14 C 1201.25 1053.63 1199.81 1064.73 1200.88 1067.64 C 1211.7 1097.04 1188.75 1093.37 1174.56 1109.79 C 1170.32 1114.69 1167.48 1138.04 1164.78 1147.81 C 1194.39 1148.99 1207.81 1160.8 1215.29 1188.94 C 1226.94 1182.42 1244.82 1185.96 1254.85 1194.28 C 1262.45 1200.62 1267.21 1209.74 1268.06 1219.6 C 1268.97 1231.09 1264 1241.93 1256.6 1250.41 C 1261.64 1251.57 1268.9 1252.87 1273.34 1254.91 C 1323.35 1277.92 1291.05 1335.24 1249.98 1343.88 C 1236.05 1346.81 1229.53 1344.55 1216.85 1341.14 C 1217.78 1358.76 1214.03 1370.16 1198.13 1379.63 L 1196.97 1380.31 L 1196.91 1381.2 C 1205.64 1382.27 1236.81 1397.93 1226.32 1410.4 C 1208.41 1431.71 1180.86 1438.37 1154.89 1443.59 C 1168.06 1465.18 1161.65 1490.38 1153.19 1512.59 C 1141.93 1542.14 1101.92 1525.02 1082.36 1515.08 C 1102.74 1535.17 1115.96 1554.03 1125.75 1581.2 C 1140.81 1622.96 1097.85 1626.92 1067.93 1622.79 C 1066 1633.63 1065.89 1637.55 1058.41 1645.46 C 1048.85 1652.42 1042.58 1642.15 1035.8 1635.43 C 1032.79 1640.55 1030.5 1645.86 1025.16 1648.48 C 1015.68 1648.66 1017.83 1638.35 1010.58 1634.49 C 1005.66 1635.08 1005.93 1642.65 996.567 1646.26 C 986.25 1645.46 982.962 1630.41 980.742 1622.01 C 960.394 1627.52 937.807 1625.1 921.187 1610.63 C 917.453 1607.39 915.496 1600.19 916.107 1595.44 C 919.612 1568.17 941.706 1532.42 961.249 1514.33 C 945.898 1521.66 916.348 1534.83 898.914 1527.28 C 890.793 1523.77 884.111 1507.68 881.502 1499.12 C 874.311 1475.53 873.252 1464.66 884.769 1442.58 C 860.022 1443.16 819.092 1421.53 807.039 1398.5 C 811.21 1366.08 858.41 1358.94 884.98 1357 C 871.415 1337.77 861.369 1346.97 842.348 1325.79 C 841.426 1326.95 840.468 1328.08 839.476 1329.18 C 833.138 1336.29 826.338 1340.21 816.575 1340.59 C 805.263 1340.91 794.311 1336.59 786.268 1328.63 C 775 1317.43 773.689 1306.68 773.957 1292 C 771.33 1292.05 769.324 1292.07 766.737 1291.46 C 758.414 1289.48 751.311 1284.09 747.181 1276.6 C 737.485 1259.42 741.868 1236.03 755.85 1222.41 C 761.269 1217.13 770.486 1212.7 777.319 1209.03 C 766.477 1191.79 775.38 1163.56 794.503 1155.83 C 813.888 1147.99 824.821 1157.43 841.801 1163.59 C 831.472 1151.99 830.577 1144.52 830.09 1129.36 C 836.882 1117.5 836.262 1116.88 846.926 1107.29 C 856.078 1099.06 867 1101.39 869.45 1098.45 C 864.074 1092.1 862.452 1079.62 864.797 1071.8 C 870.85 1051.62 891.227 1047.02 909.623 1052.41 C 909.584 1048.88 909.217 1043.23 909.684 1039.91 C 914.744 1003.8 958.201 1003.52 976.712 1028.38 C 977.999 1026.28 979.318 1024.19 980.67 1022.13 C 987.594 1011.63 994.305 1008.72 1005.91 1006.33 z"/>
<path transform="translate(0,0)" fill="rgb(249,250,251)" d="M 896.162 1334.12 C 898.415 1335.88 912.341 1357.44 915.447 1361.61 C 933.493 1385.53 951.774 1409.28 970.288 1432.84 C 947.185 1424.65 916.553 1402.39 893.775 1391.03 C 888.818 1388.56 886.055 1386.96 881.141 1388.62 L 880.975 1390.71 C 886.812 1399.73 913.544 1413.19 924.151 1419.17 C 929.096 1422.28 934.795 1425.12 939.992 1427.88 C 921.277 1427.83 915.41 1429.99 896.545 1433.06 C 878.497 1436 824.005 1414.38 819.886 1396.84 C 815.311 1377.35 879.267 1365.64 892.658 1367.74 C 896.13 1368.29 911.505 1368.73 912.578 1368.54 L 913.428 1367.2 C 910.823 1358.86 900.823 1358.18 895.085 1352.37 C 892.366 1349.62 889.13 1343.18 887.214 1339.6 C 890.759 1337.77 892.833 1336.36 896.162 1334.12 z"/>
<path transform="translate(0,0)" fill="rgb(254,222,113)" d="M 1000.62 1129.43 C 1011.74 1128.95 1022.57 1130.12 1031.94 1136.65 C 1040.12 1142.24 1045.71 1150.89 1047.45 1160.64 C 1049.23 1171.18 1046.6 1182 1040.17 1190.54 C 1030.48 1203.67 1017.05 1207.37 1001.85 1209.33 C 964.6 1209.32 936.269 1181 961.202 1143.92 C 969.171 1132.07 987.05 1130.03 1000.62 1129.43 z"/>
<path transform="translate(0,0)" fill="rgb(249,250,251)" d="M 920.655 1438.31 C 947.071 1436.81 967.329 1445.57 992.022 1453.83 L 989.155 1462.56 C 976.743 1462.26 932.065 1463.97 926.237 1475.02 L 926.862 1476.71 C 937.655 1477.26 980.923 1469.47 987.815 1471.96 L 988.002 1475.75 C 988.104 1480.12 988.454 1483.09 987.268 1487.35 C 976.132 1497.17 917.839 1526.56 903.622 1516.95 C 891.573 1508.8 880.722 1463.78 892.173 1451.41 C 900.772 1442.12 908.184 1440.15 920.655 1438.31 z"/>
<path transform="translate(0,0)" fill="rgb(249,250,251)" d="M 1100.05 1438.29 C 1140.25 1434.41 1160.57 1450.2 1148 1492.11 C 1140.15 1518.28 1137.58 1523.06 1109.41 1514.39 C 1090.94 1508.7 1079.22 1503.3 1062.8 1493.26 L 1054.15 1487.5 L 1053.29 1471.92 C 1064.83 1471.98 1111.57 1477 1116.87 1474.03 C 1115.12 1460.18 1059.02 1466.99 1050.83 1459.64 C 1049.86 1449.72 1092.41 1439.7 1100.05 1438.29 z"/>
<path transform="translate(0,0)" fill="rgb(77,145,211)" d="M 1242.67 1261.28 C 1268.61 1257.16 1298.73 1277.25 1283.08 1306.03 C 1274.45 1321.89 1263.25 1328.58 1246.78 1334.12 C 1214.74 1338.58 1212.26 1321.52 1198.32 1297.25 C 1207.84 1287.19 1208.34 1281.64 1208.06 1268.62 C 1218.28 1267.36 1231.59 1263.24 1242.67 1261.28 z"/>
<path transform="translate(0,0)" fill="rgb(36,86,142)" d="M 1235.63 1283.01 C 1241.26 1283.65 1245.13 1285.11 1250.33 1287.19 L 1250.95 1288.94 L 1249.42 1289.33 C 1244.33 1287.29 1240.35 1285.87 1235.63 1283.01 z"/>
<path transform="translate(0,0)" fill="rgb(52,114,179)" d="M 1209.05 1283.72 C 1211.06 1284.04 1210.26 1283.55 1211.45 1285.15 C 1210.42 1285.98 1211.09 1285.61 1209.28 1285.91 L 1209.05 1283.72 z"/>
<path transform="translate(0,0)" fill="rgb(249,250,251)" d="M 991.641 1499.72 C 992.804 1500.5 993.294 1500.51 993.808 1501.63 C 995.298 1504.89 983.217 1597.9 979.923 1606.56 C 978.665 1609.87 975.443 1611.59 972.27 1612.8 C 960.874 1617.13 946.591 1612.9 935.954 1608.08 C 930.973 1604.8 929.463 1602.97 925.487 1598.72 C 932.521 1564.07 962.659 1519.63 991.641 1499.72 z"/>
<path transform="translate(0,0)" fill="rgb(249,250,251)" d="M 927.59 1167.59 L 941.67 1166.72 C 942.156 1178.81 942.587 1181.86 947.746 1192.8 C 928.805 1202.74 911.094 1215.12 892.045 1224.79 C 884.063 1228.85 877.719 1229.62 869.076 1227.43 C 840.087 1212.37 838.66 1176.12 874.027 1170.98 C 891.258 1168.48 910.073 1168.34 927.59 1167.59 z"/>
<path transform="translate(0,0)" fill="rgb(249,250,251)" d="M 1008.33 1016.03 C 1047.68 1014.01 1036.1 1074.54 1028.27 1095.64 C 1026.14 1101.4 1024.08 1114.49 1020.42 1119.01 L 1016.79 1118.94 L 1016.24 1118.86 C 1008.24 1117.71 1001.23 1118.07 993.194 1118.22 C 990.568 1106.33 988.685 1093.18 987.413 1081.05 C 984.799 1056.12 976.413 1024.2 1008.33 1016.03 z"/>
<path transform="translate(0,0)" fill="rgb(249,250,251)" d="M 1052.63 1191.49 C 1075.01 1202 1128.05 1218.33 1116.11 1251.19 C 1112.3 1261.68 1105.87 1267.65 1095.96 1272.28 C 1085.69 1274.99 1073.85 1273.82 1066.95 1265.44 C 1054.05 1249.78 1042.61 1229.47 1031.5 1212.46 C 1041.04 1206.83 1046.49 1200.38 1052.63 1191.49 z"/>
<path transform="translate(0,0)" fill="rgb(249,250,251)" d="M 927.281 1288.06 L 928.743 1287.73 C 930.468 1289.63 932.283 1305.19 935.237 1310.23 C 943.304 1323.98 998.069 1436.22 995.109 1443.2 C 990.246 1442.98 985.767 1437.34 982.116 1433.71 C 975.376 1425.82 963.453 1408.86 956.67 1399.76 C 940.4 1377.93 912.993 1345.45 901.531 1320.86 C 903.866 1311.46 907.473 1301.59 911.039 1292.6 C 917.002 1291.5 921.527 1289.93 927.281 1288.06 z"/>
<path transform="translate(0,0)" fill="rgb(249,250,251)" d="M 1052.34 1502.36 C 1060.68 1505.8 1079.22 1525.58 1086.01 1533.64 C 1098.58 1548.56 1117.53 1577.99 1117.71 1598.41 C 1117.75 1601.96 1114.49 1604.54 1111.95 1606.67 C 1110.08 1607.67 1108.23 1608.58 1106.24 1609.32 C 1098.35 1612.27 1079.37 1615.63 1072.05 1611.03 C 1063.17 1605.46 1055.26 1517.61 1052.34 1502.36 z"/>
<path transform="translate(0,0)" fill="rgb(77,145,211)" d="M 1189.86 1304.06 C 1192.77 1306.24 1196.62 1313.9 1198.78 1317.38 C 1220.83 1352.81 1199.32 1385.68 1157.01 1372.38 C 1145.21 1366.53 1137.28 1358.67 1135.89 1344.94 C 1134.35 1329.74 1144.63 1319.46 1153.81 1308.91 C 1171.06 1310.14 1173.88 1310.26 1189.86 1304.06 z"/>
<path transform="translate(0,0)" fill="rgb(36,86,142)" d="M 1172.29 1314.45 C 1174.52 1315.66 1173.83 1319.12 1173.79 1321.25 C 1172.4 1317.74 1171.42 1317.23 1172.29 1314.45 z"/>
<path transform="translate(0,0)" fill="rgb(249,250,251)" d="M 936.394 1022.1 C 954.803 1021.11 971.79 1028.62 974.862 1048.82 C 978.486 1072.65 979.574 1095.62 985.024 1119.27 C 980.379 1120.82 975.576 1122.69 970.967 1124.4 C 963.008 1113.12 954.745 1102.05 946.187 1091.22 C 938.926 1081.93 926.959 1069.04 922.498 1058.56 C 915.38 1041.84 919.57 1028.36 936.394 1022.1 z"/>
<path transform="translate(0,0)" fill="rgb(249,250,251)" d="M 868.065 1110.19 C 871.122 1109.95 877.716 1109.88 880.396 1110.92 C 901.532 1119.13 928.336 1132.72 948.003 1143.61 L 941.776 1157.95 C 934.988 1158.18 928.047 1158.58 921.248 1158.89 C 900.119 1159.84 848.635 1171.11 842.057 1143.94 C 840.388 1137.22 841.53 1130.11 845.219 1124.25 C 850.87 1115.41 858.387 1112.32 868.065 1110.19 z"/>
<path transform="translate(0,0)" fill="rgb(249,250,251)" d="M 1112.95 1098.28 C 1137.3 1095.77 1157.87 1119.43 1142.26 1140.93 C 1134.87 1151.1 1096.13 1149.84 1081.4 1150.87 C 1073.41 1151.33 1065.44 1152.19 1057.53 1153.44 C 1054.17 1145.81 1051.7 1141.68 1047.32 1134.5 C 1065.05 1122.72 1092.54 1101.86 1112.95 1098.28 z"/>
<path transform="translate(0,0)" fill="rgb(249,250,251)" d="M 1020.61 1216.34 L 1022.02 1216.4 C 1029.32 1221.01 1045.32 1249.71 1051.06 1258.21 C 1063.84 1277.13 1063.6 1298.6 1038.55 1304.95 C 1008.91 1306.08 1008.85 1290.44 1003.94 1265.7 C 1000.96 1250.65 998.822 1235.4 997.614 1220.09 L 1020.61 1216.34 z"/>
<path transform="translate(0,0)" fill="rgb(249,250,251)" d="M 1070.61 1044.13 C 1100.95 1042.13 1111.55 1081.19 1088.9 1097.35 C 1077.66 1105.36 1064.67 1112.81 1052.87 1120.09 L 1051.94 1120.71 L 1050.38 1121.72 C 1044.59 1125.54 1042.29 1127.87 1035.48 1126.8 C 1031.74 1124.16 1033.23 1125.83 1031.21 1121.33 C 1031.95 1111.86 1043.79 1072.57 1046.97 1061.72 C 1049.18 1054.19 1062.42 1046.92 1070.61 1044.13 z"/>
<path transform="translate(0,0)" fill="rgb(249,250,251)" d="M 1105.04 1158.43 C 1112.7 1157.73 1130.06 1157.46 1136.53 1159.85 C 1156.32 1167.17 1140.78 1203.93 1125.15 1208.34 C 1114.38 1211.38 1111.17 1209.24 1102.45 1204.93 C 1086.75 1197.7 1072.34 1190.38 1056.22 1183.79 C 1057.87 1175.85 1058.02 1169.65 1058.44 1161.54 C 1073.51 1159.89 1089.86 1159.1 1105.04 1158.43 z"/>
<path transform="translate(0,0)" fill="rgb(249,250,251)" d="M 950.992 1200.92 C 952.416 1201.81 962.572 1210.39 965.973 1212.82 C 953.593 1231.24 944.727 1255.45 930.569 1272.54 C 924.234 1280.19 913.713 1280.61 904.405 1279.43 C 871.089 1266.1 891.2 1233.38 914.511 1221.7 C 926.275 1215.81 938.42 1207.3 950.992 1200.92 z"/>
<path transform="translate(0,0)" fill="rgb(249,250,251)" d="M 973.958 1216.14 L 988.671 1220.12 C 989.034 1238.28 994.141 1256.55 996.071 1274.54 C 998.588 1297.99 986.408 1305.48 965.629 1306.61 C 916.168 1304.81 961.727 1235.82 973.958 1216.14 z"/>
<path transform="translate(0,0)" fill="rgb(249,250,251)" d="M 886.977 1062.19 C 908.094 1060.31 915.551 1067.22 928.46 1082.79 C 940.404 1097.19 951.775 1111.63 962.737 1126.81 C 959.943 1129.6 954.81 1135.61 951.469 1136.26 C 933.89 1127.12 885.507 1105.96 876.808 1090.14 C 874.406 1085.77 872.841 1080.39 874.402 1075.48 C 876.427 1069.1 881.328 1065.24 886.977 1062.19 z"/>
<path transform="translate(0,0)" fill="rgb(249,250,251)" d="M 1124.44 1344.87 C 1133.56 1367.45 1133.77 1373.36 1158.28 1384.97 C 1153.25 1388.69 1140.34 1395.29 1134.22 1398.58 C 1115.77 1408.57 1097.12 1418.21 1078.3 1427.48 C 1069.76 1431.29 1062.49 1434.32 1053.74 1437.57 C 1060.02 1430.45 1067.45 1419.63 1073.3 1411.84 C 1090.59 1388.78 1105.42 1366.63 1124.44 1344.87 z"/>
<path transform="translate(0,0)" fill="rgb(77,145,211)" d="M 1157.1 1159.02 C 1185.18 1157.67 1209.23 1169.73 1200.07 1203.09 C 1197.73 1211.62 1191.74 1221.53 1187.57 1229.53 C 1182.61 1238 1177.86 1236.28 1169.02 1236.11 C 1162.97 1222.17 1158.81 1212.3 1150.3 1199.53 C 1156.34 1182.77 1157.06 1176.79 1157.1 1159.02 z"/>
<path transform="translate(0,0)" fill="rgb(77,145,211)" d="M 1229.79 1196.23 C 1252.65 1196.79 1264.36 1216.94 1253.1 1237.04 C 1245.28 1250.99 1232.5 1253.64 1218.39 1257.44 L 1206.21 1260.36 C 1203.67 1250.6 1199.48 1246.86 1191.6 1240.35 C 1200.99 1223.07 1209.02 1200.54 1229.79 1196.23 z"/>
<path transform="translate(0,0)" fill="rgb(36,86,142)" d="M 1211.92 1239.21 L 1212.29 1239.41 L 1211.88 1240.87 C 1208.3 1244.15 1208 1244.22 1203.46 1246.19 L 1202.59 1244.54 C 1204.48 1242.18 1208.96 1240.56 1211.92 1239.21 z"/>
<path transform="translate(0,0)" fill="rgb(249,250,251)" d="M 998.913 1306.1 C 997.8 1304.76 999.916 1361.27 1000.06 1364.22 C 1001.16 1387.31 1001.36 1410.66 1004.47 1433.64 C 998.371 1421.89 993.313 1410.21 987.981 1398.11 C 977.441 1373.1 962.108 1341.54 950.622 1316.21 C 954.72 1316.9 958.857 1317.32 963.009 1317.49 C 977.227 1317.97 988.346 1316 998.913 1306.1 z"/>
<path transform="translate(0,0)" fill="rgb(249,250,251)" d="M 1175.77 1389.14 C 1191.34 1389.74 1205.05 1395.39 1217.61 1404.37 C 1200.04 1420.55 1169.82 1432.78 1146.2 1434.16 C 1126.17 1429.38 1123.55 1427.84 1102.54 1427.87 C 1117.69 1416.08 1157.57 1395.6 1175.77 1389.14 z"/>
<path transform="translate(0,0)" fill="rgb(77,145,211)" d="M 1114.25 1276.85 C 1120.68 1276.23 1125.99 1278.32 1131.92 1280.38 C 1136.5 1291.36 1137.44 1293.59 1145.48 1302 C 1130.77 1316.24 1137.8 1328.75 1114.25 1334.27 C 1092.66 1334.63 1076.72 1314.91 1080.68 1293.31 C 1080.88 1292.25 1083.63 1287.01 1084.55 1286.72 C 1095.46 1283.36 1104.2 1282.73 1114.25 1276.85 z"/>
<path transform="translate(0,0)" fill="rgb(77,145,211)" d="M 781.027 1220.12 C 791.965 1219.26 798.945 1224.97 808.55 1230.47 C 804.845 1242.98 805.647 1247.82 808.363 1259.88 C 798.514 1265.62 789.389 1272.39 779.139 1278.29 L 765.904 1282.39 C 760.679 1277.61 755.996 1272.45 754.246 1265.49 C 748.107 1241.06 758.925 1226.63 781.027 1220.12 z"/>
<path transform="translate(0,0)" fill="rgb(249,250,251)" d="M 1073.82 1321.44 C 1074.79 1322.92 1075.79 1324.38 1076.81 1325.82 C 1086.87 1340 1095.55 1342.37 1111.5 1345.03 C 1093.47 1367.35 1075.38 1392.38 1058.12 1415.5 C 1054.65 1420.64 1046.93 1431.63 1042.66 1435.61 L 1041.43 1434.89 C 1040.9 1429.52 1070.83 1329.54 1073.82 1321.44 z"/>
<path transform="translate(0,0)" fill="rgb(77,145,211)" d="M 876.043 1268.71 C 878.329 1269.7 881.6 1274.43 883.623 1276.72 C 889.535 1283.39 894.004 1287.15 901.199 1292.26 C 898.327 1308.94 892.473 1331.92 872.755 1333.93 C 844.134 1328.99 846.296 1308.36 846.646 1285.22 C 855.676 1280.81 867.964 1274.35 876.043 1268.71 z"/>
<path transform="translate(0,0)" fill="rgb(77,145,211)" d="M 814.207 1269.06 C 815.299 1269.51 814.732 1269.18 815.81 1270.26 C 824.541 1279 826.897 1279.43 837.993 1280.98 C 836.34 1288.64 836.907 1307.45 836.956 1315.98 C 828.358 1328.39 824.881 1330.46 810.214 1329.63 C 787.044 1323.76 780.542 1310.05 785.558 1287.94 C 795.02 1278.18 802.344 1275.34 814.207 1269.06 z"/>
<path transform="translate(0,0)" fill="rgb(52,114,179)" d="M 808.835 1279.71 L 809.892 1280.86 C 809.534 1283.95 807.702 1284.84 805.076 1287.71 L 804.342 1287.18 C 804.509 1284.29 806.884 1282.13 808.835 1279.71 z"/>
<path transform="translate(0,0)" fill="rgb(249,250,251)" d="M 1067.87 1300.84 C 1068.47 1307.94 1057.91 1341.92 1054.6 1349.86 C 1047.79 1366.2 1041.77 1407.3 1033.94 1419.46 L 1032.69 1419.18 L 1032.12 1415.25 C 1030.36 1382.05 1027.17 1348.94 1022.57 1316.02 L 1024.71 1316.13 C 1045.12 1317.12 1052.73 1314.56 1067.87 1300.84 z"/>
<path transform="translate(0,0)" fill="rgb(77,145,211)" d="M 803.379 1163.21 C 815.168 1162.43 825.967 1166.72 835.796 1173.31 C 837.105 1173.64 840.931 1179.06 840.352 1180.03 C 834.714 1189.54 836.035 1196.38 837.049 1207.51 C 828.532 1208.75 825.885 1210.6 818.845 1215.06 C 810.503 1220.22 797.035 1211.94 789.224 1207.95 C 777.428 1189.19 782.24 1171.09 803.379 1163.21 z"/>
<path transform="translate(0,0)" fill="rgb(254,222,113)" d="M 1169.52 1246.17 C 1202.93 1244.36 1211.02 1290.01 1171.46 1300.01 C 1135.66 1301.77 1132.18 1257.24 1169.52 1246.17 z"/>
<path transform="translate(0,0)" fill="rgb(254,222,113)" d="M 840.47 1215.05 C 850.637 1230.07 857.172 1236.88 874.927 1240.51 C 871.46 1248.65 871.085 1252.7 869.774 1261.55 C 863.52 1266.22 857.197 1268.59 850.006 1271.33 C 828.529 1274.8 811.596 1260.48 817.333 1237.81 C 820.453 1225.49 829.984 1220.47 840.47 1215.05 z"/>
<path transform="translate(0,0)" fill="rgb(249,250,251)" d="M 1017.22 1448.22 C 1042.19 1446.75 1048.83 1467.65 1041.32 1489.15 C 1038.76 1496.49 1033.04 1499.74 1026.03 1502.51 C 1002.64 1502.33 992.877 1487.19 1000.05 1463.65 C 1002.46 1455.71 1009.69 1451.15 1017.22 1448.22 z"/>
<path transform="translate(0,0)" fill="rgb(249,250,251)" d="M 1041.63 1507.37 L 1043.45 1508.66 C 1046.74 1520.15 1048.4 1547.41 1050.6 1560.73 C 1053.13 1576.07 1056.05 1595.43 1057.48 1611.04 C 1057.95 1616.09 1054.4 1628.68 1052.9 1633.78 L 1050.72 1633.58 C 1045.78 1628.28 1042.49 1618.17 1041.75 1610.94 C 1038.37 1577.99 1037.4 1544.44 1037.04 1511.36 C 1037.02 1510.08 1040.5 1508.16 1041.63 1507.37 z"/>
<path transform="translate(0,0)" fill="rgb(254,222,113)" d="M 1170.56 1039.11 C 1172.48 1044.45 1173.27 1047.2 1176.23 1052.12 C 1194.9 1057.6 1194.45 1061.24 1191.08 1083.02 C 1190.34 1087.76 1176.43 1092.89 1171.62 1096.29 C 1170.29 1099.91 1169.42 1103.53 1166.59 1106.03 L 1164.57 1106.29 C 1160.48 1102.91 1159.91 1092.8 1160.14 1087.71 L 1163.26 1092.5 L 1164.99 1092.73 L 1166.02 1090.92 C 1165.79 1086.93 1165.9 1087.12 1163.83 1083.75 C 1159.13 1077.5 1154.47 1071.22 1149.84 1064.92 C 1160.57 1054.09 1162.86 1051.83 1170.56 1039.11 z"/>
<path transform="translate(0,0)" fill="rgb(249,250,251)" d="M 1003.91 1508.11 L 1011.01 1511.82 C 1009.25 1545.36 1012.23 1605.35 997.655 1633.59 C 996.742 1633.05 996.632 1633.07 995.824 1632.13 C 984.805 1619.36 1000.97 1528.87 1003.91 1508.11 z"/>
<path transform="translate(0,0)" fill="rgb(249,250,251)" d="M 1020.22 1513.27 C 1022.36 1513.42 1023.84 1513.71 1025.96 1514.09 C 1030.1 1521.02 1028.46 1584.92 1030.63 1598.04 C 1032.13 1607.1 1030.4 1623.52 1026.86 1632.38 C 1012.13 1617.73 1017.67 1585.8 1018.67 1566.25 C 1019.46 1548.6 1019.98 1530.94 1020.22 1513.27 z"/>
<path transform="translate(0,0)" fill="rgb(249,250,251)" d="M 1008.25 1308.53 C 1008.49 1308.67 1008.74 1308.78 1008.96 1308.96 C 1018.47 1316.56 1022.56 1420.79 1023.01 1435.82 C 1019.58 1436.72 1017.27 1437.87 1014.28 1435.67 C 1012.02 1427.73 1011.3 1405.73 1010.88 1396.54 C 1009.56 1367.67 1008.12 1337.43 1008.25 1308.53 z"/>
<path transform="translate(0,0)" fill="rgb(77,145,211)" d="M 1142.91 1209.89 C 1144.04 1210.1 1146.69 1211 1147.92 1211.37 C 1152.65 1215.62 1156.27 1230.13 1159.53 1237.97 C 1153.23 1242.82 1151.76 1248.14 1144.94 1243.15 C 1137.76 1235.29 1131.84 1227.26 1124.15 1219.79 C 1132.83 1216.92 1135.73 1214.98 1142.91 1209.89 z"/>
<path transform="translate(0,0)" fill="rgb(77,145,211)" d="M 1129.95 1238.88 C 1132.78 1241.16 1138.28 1246.95 1141.13 1249.79 C 1137.97 1256.72 1134.96 1263.73 1132.1 1270.79 C 1128.59 1269.58 1125.25 1268.69 1121.66 1267.69 C 1125.12 1257.43 1128.32 1249.67 1129.95 1238.88 z"/>
<path transform="translate(0,0)" fill="rgb(7,69,132)" d="M 1689.81 1115.59 C 1688.72 1090.74 1697.99 1070.77 1723.53 1063.72 C 1737.93 1059.77 1753.32 1061.78 1766.22 1069.31 C 1781.54 1078.38 1785.22 1089.19 1789.28 1104.94 C 1802.02 1099.29 1812.54 1096.16 1826.59 1096.9 C 1858 1098.56 1881.56 1127.54 1867.42 1157.99 C 1863.27 1166.92 1859.51 1170.75 1852.03 1176.96 C 1873.62 1181.78 1890.51 1206.26 1884.39 1228.27 C 1876.96 1254.98 1853.21 1265.8 1827.67 1266.17 C 1823.87 1273.82 1822.19 1276.62 1815.93 1282.39 C 1812.92 1284.41 1808.5 1287.59 1805.51 1289.35 L 1799.77 1292.21 C 1794.84 1293.82 1790.3 1295.09 1785.04 1294.11 L 1781.14 1294.84 C 1779.12 1299.19 1781.65 1313.32 1781.42 1320.54 C 1790.94 1316.68 1795.62 1314.22 1805.98 1313.96 C 1807.21 1313.75 1809.99 1313.35 1810.7 1312.45 C 1817.17 1304.15 1821.44 1296.39 1828.53 1288.4 C 1849.41 1265.94 1881.82 1253.47 1911.99 1252.23 C 1944.92 1250.87 1939.37 1274.75 1930.24 1296.06 C 1919.29 1321.63 1903.56 1342.02 1879.51 1356.33 C 1998.95 1410.7 1913.92 1465.33 1845.65 1435.58 C 1852.85 1460 1845.27 1474.03 1827.04 1489.97 C 1840.11 1497.9 1851.21 1508.44 1858.47 1521.97 C 1894.24 1588.63 1812.42 1567.06 1781.06 1551.58 C 1771.24 1544.36 1761.3 1536.74 1755.98 1525.37 C 1754.89 1523.48 1755.67 1524.22 1753.56 1523.23 L 1749.46 1524.85 C 1727.14 1531.05 1714.43 1524.87 1699.32 1508.83 L 1698.19 1511.74 C 1712.22 1525.9 1720.16 1534.66 1728.69 1553.07 C 1734.57 1566.6 1740.76 1579.49 1728.26 1591.04 C 1723.13 1593.04 1700.5 1588.34 1694.06 1586.94 C 1654.71 1578.33 1574.92 1588.18 1590.27 1524.01 C 1584.09 1524.32 1579.73 1523.74 1573.59 1523.09 C 1571.37 1524.92 1569.59 1536.1 1567.69 1539.51 C 1548.42 1574.2 1498.64 1570.35 1485.35 1533.29 C 1433.04 1555.32 1389.57 1505.84 1420.61 1463.5 C 1409.97 1459.83 1400.39 1455.88 1393.04 1446.91 C 1385.8 1437.95 1382.55 1426.41 1384.04 1414.99 C 1385.66 1402.23 1392.42 1392.74 1402.31 1384.99 C 1391.97 1379.15 1382.31 1371.73 1374.83 1362.42 C 1294.01 1261.75 1413.87 1274.92 1457.54 1336.55 C 1462.56 1333.54 1464.24 1332.55 1469.7 1330.41 C 1479.42 1330.87 1486.04 1328.05 1500.19 1329.76 C 1496.07 1320.7 1494.71 1311.78 1485.34 1307.08 C 1481.54 1306.71 1479.94 1307.74 1476.41 1309.17 C 1441.56 1309.67 1416.04 1279.95 1435.86 1246.37 C 1437.77 1243.15 1443.86 1238.93 1447.06 1236.53 C 1385.86 1211.92 1430.31 1116.84 1497.97 1157.17 C 1496.68 1092.62 1606.92 1091.8 1589.73 1167.92 C 1596.66 1167.34 1608.75 1166.4 1615.4 1168.26 C 1620.88 1169.79 1625.1 1172.63 1631.31 1173.6 C 1622.77 1155.85 1627.12 1132.59 1643.42 1120.4 C 1657.78 1109.66 1673.53 1112.91 1689.81 1115.59 z"/>
<path transform="translate(0,0)" fill="rgb(249,250,251)" d="M 1638.91 1478.45 C 1655.26 1492 1672.02 1496.29 1691.76 1486.12 C 1694.07 1495.96 1696.91 1500.43 1699.32 1508.83 L 1698.19 1511.74 C 1669.62 1500.65 1671.19 1494.62 1636.35 1489.88 C 1637.37 1486.3 1638.14 1482.12 1638.91 1478.45 z"/>
<path transform="translate(0,0)" fill="rgb(77,145,211)" d="M 1554.96 1430.64 C 1598.6 1420.84 1620.38 1415.39 1627.8 1464.44 C 1632.8 1497.48 1601.44 1523.95 1573.84 1511.65 C 1570.04 1507.58 1564.49 1496.43 1561.11 1491.17 C 1556.08 1483.35 1551.35 1476.25 1545.54 1468.86 C 1549.53 1462.75 1554.36 1449.15 1556.23 1447.49 L 1556.09 1445.47 C 1554.78 1441.76 1555.04 1434.84 1554.96 1430.64 z"/>
<path transform="translate(0,0)" fill="rgb(36,86,142)" d="M 1556.09 1445.47 C 1559.45 1446.04 1566.09 1446.7 1568.5 1448.54 C 1563.73 1449.03 1560.92 1448.28 1556.23 1447.49 L 1556.09 1445.47 z"/>
<path transform="translate(0,0)" fill="rgb(254,222,113)" d="M 1799.42 1326.12 C 1816.47 1324.21 1831.46 1330.45 1840.95 1345.09 C 1857.66 1370.86 1833.97 1404.46 1804.27 1401.53 C 1792.49 1399.63 1780.72 1397.66 1768.96 1395.61 C 1771.96 1376.13 1766.45 1371.72 1753.47 1358.66 C 1768.59 1341.19 1776.84 1331.56 1799.42 1326.12 z"/>
<path transform="translate(0,0)" fill="rgb(97,90,68)" d="M 1800.99 1361.09 L 1803.32 1361.26 L 1803.33 1361.91 C 1798.72 1364.37 1787.72 1367.27 1782.21 1368.9 L 1779.97 1369.3 C 1783.85 1365.92 1795.74 1362.4 1800.99 1361.09 z"/>
<path transform="translate(0,0)" fill="rgb(77,145,211)" d="M 1725.61 1161.34 C 1711.3 1143.8 1694.62 1121.07 1701.7 1096.81 C 1710.58 1066.35 1762.11 1066.07 1774.9 1093.39 C 1784.02 1112.87 1769.48 1130.84 1762.41 1148.7 C 1754.4 1149.64 1749.8 1150.16 1741.82 1150.03 L 1740.4 1151.26 C 1738.62 1152.7 1728.75 1159.03 1725.61 1161.34 z"/>
<path transform="translate(0,0)" fill="rgb(6,31,75)" d="M 1740.4 1151.26 C 1736.43 1136.51 1731.96 1121.73 1730.32 1106.5 C 1733.75 1115.61 1741.17 1140.51 1741.82 1150.03 L 1740.4 1151.26 z"/>
<path transform="translate(0,0)" fill="rgb(77,145,211)" d="M 1682.06 1196.2 C 1694.69 1195.41 1700.98 1195.79 1713.49 1197.71 C 1715.38 1202.45 1717.29 1207.35 1720.25 1211.55 C 1723.54 1216.95 1734.66 1222.64 1736.76 1228.14 C 1744.31 1247.91 1724.75 1263.13 1709.81 1269.31 C 1698.16 1272.48 1690.56 1273.55 1678.67 1267.79 C 1659.64 1258.58 1647.51 1230.39 1658.08 1211.09 C 1663.05 1202.02 1672.48 1198.71 1682.06 1196.2 z"/>
<path transform="translate(0,0)" fill="rgb(52,114,179)" d="M 1709.47 1212 L 1711.59 1212.41 C 1709.45 1214.87 1707.8 1215.03 1704.54 1216.41 L 1701.97 1214.72 C 1703.14 1212.9 1706.62 1212.71 1709.47 1212 z"/>
<path transform="translate(0,0)" fill="rgb(254,222,113)" d="M 1764.66 1411.26 C 1766.48 1408.77 1767.25 1406.6 1770.48 1406.57 C 1778.91 1406.49 1806.82 1411.95 1813.62 1414.62 C 1818.54 1416.52 1823.08 1419.31 1826.99 1422.85 C 1858.16 1451.55 1818.78 1507.08 1778.99 1476.32 C 1770.84 1456.55 1764.59 1442.82 1750.51 1426.61 C 1755.02 1422.29 1759.52 1418.24 1763.41 1413.35 L 1764.66 1411.26 z"/>
<path transform="translate(0,0)" fill="rgb(179,157,91)" d="M 1764.66 1411.26 C 1766.95 1413.49 1771.28 1417.08 1772.18 1419.88 C 1768.19 1418.05 1766.73 1416.34 1763.41 1413.35 L 1764.66 1411.26 z"/>
<path transform="translate(0,0)" fill="rgb(249,250,251)" d="M 1899.86 1264.36 C 1906.84 1263.76 1920.1 1262.2 1925.21 1266.33 C 1927.6 1272.77 1922.56 1286.42 1919.7 1292.64 C 1905.3 1324.03 1888.69 1341.42 1857.09 1353.91 C 1851.64 1340.6 1849.37 1337.67 1839.21 1327.78 C 1849.56 1316.06 1868.25 1302.56 1881.57 1294.63 C 1886.81 1292.1 1902 1285.57 1904.22 1281.54 C 1899.4 1277 1882.07 1285.24 1876.66 1287.86 C 1859.33 1296.27 1844.92 1308.36 1831.49 1321.96 C 1827.7 1320.18 1823.71 1318.54 1819.86 1316.88 C 1844.48 1286.87 1857.8 1270.89 1899.86 1264.36 z"/>
<path transform="translate(0,0)" fill="rgb(77,145,211)" d="M 1771.05 1154.96 C 1777.83 1137.88 1782.47 1119.66 1801.02 1111.92 C 1820.58 1103.76 1848.66 1106.39 1858.03 1128.22 C 1861.21 1135.6 1861.29 1143.96 1858.23 1151.41 C 1848.99 1173.78 1814.02 1176.66 1792.45 1180.97 C 1790.07 1174.24 1789.08 1171.29 1785.61 1165.02 L 1782.81 1163.6 C 1779.14 1160.86 1774.81 1157.43 1771.05 1154.96 z"/>
<path transform="translate(0,0)" fill="rgb(52,114,179)" d="M 1782.81 1163.6 C 1791.07 1157.08 1798.14 1150.95 1808.09 1147.42 C 1799.85 1155.78 1795.59 1158.74 1785.61 1165.02 L 1782.81 1163.6 z"/>
<path transform="translate(0,0)" fill="rgb(254,222,113)" d="M 1713.13 1355.21 C 1703.2 1339.61 1693.67 1326.01 1697.08 1306.42 C 1704.86 1261.37 1783.02 1271.52 1770.67 1319.8 C 1768.31 1329.02 1749.19 1355.55 1738.95 1351.55 L 1737.28 1347.71 L 1734.29 1347.5 C 1734.8 1351.48 1735.41 1350.84 1733.62 1353.26 C 1728.41 1354.81 1720.09 1354.32 1713.13 1355.21 z"/>
<path transform="translate(0,0)" fill="rgb(36,50,60)" d="M 1732.58 1315.9 C 1733.82 1324.87 1735.42 1339.37 1737.28 1347.71 L 1734.29 1347.5 C 1733.04 1339.92 1732.39 1334.72 1731.82 1327.06 L 1732.58 1315.9 z"/>
<path transform="translate(0,0)" fill="rgb(138,124,75)" d="M 1731.82 1327.06 C 1731.3 1323.88 1729.9 1315.61 1732.67 1313.54 L 1732.58 1315.9 L 1731.82 1327.06 z"/>
<path transform="translate(0,0)" fill="rgb(77,145,211)" d="M 1476.51 1450.46 L 1478.21 1450.8 C 1482.24 1462.16 1487.7 1469.42 1496.86 1476.84 C 1487.38 1507.11 1490.65 1539.94 1445.38 1526.4 C 1428.08 1517.37 1418.2 1504.55 1421.55 1484.02 C 1426.11 1456.08 1453.48 1453.25 1476.51 1450.46 z"/>
<path transform="translate(0,0)" fill="rgb(254,222,113)" d="M 1461.57 1158.31 C 1494.52 1156.42 1496.71 1177.12 1513.87 1197.96 C 1503.91 1206.48 1502.13 1212.19 1497.36 1224.09 C 1490.68 1224.39 1483.9 1225.21 1477.24 1225.9 C 1465.63 1226.68 1454.63 1230.89 1443.95 1224.67 C 1436.13 1220.11 1431.38 1213.46 1429.21 1204.75 C 1426.76 1195.23 1428.27 1185.12 1433.41 1176.74 C 1440.18 1165.95 1449.73 1161.22 1461.57 1158.31 z"/>
<path transform="translate(0,0)" fill="rgb(50,50,38)" d="M 1492.06 1201.39 C 1485.65 1199.93 1483.03 1199.33 1476.87 1196.88 L 1476.59 1195.3 L 1476.18 1195.22 L 1475.44 1196.18 L 1475.09 1195.07 L 1474.81 1195.81 L 1474.5 1194.98 C 1480.57 1195.29 1486.06 1197.49 1491.9 1199.37 L 1492.06 1201.39 z"/>
<path transform="translate(0,0)" fill="rgb(138,124,75)" d="M 1491.9 1199.37 C 1496.66 1200.11 1498.06 1199.88 1502.76 1198.81 C 1500.2 1202.43 1495.88 1202.09 1492.06 1201.39 L 1491.9 1199.37 z"/>
<path transform="translate(0,0)" fill="rgb(77,145,211)" d="M 1425.61 1386.27 C 1428.22 1386.11 1430.83 1386.05 1433.44 1386.09 C 1450.09 1386.44 1474.22 1405.4 1485.16 1416.66 C 1481.17 1425.55 1479.27 1430.37 1477.11 1439.77 C 1466.62 1440.93 1459.43 1442.34 1449.37 1445.16 C 1446.26 1446.18 1436.14 1450.24 1433.99 1450.59 C 1389.55 1457.87 1377.06 1399.43 1425.61 1386.27 z"/>
<path transform="translate(0,0)" fill="rgb(7,69,132)" d="M 1442.39 1415.35 C 1453.69 1414.42 1469.93 1415.95 1480.23 1420.8 C 1474.67 1420.74 1448.12 1416.71 1442.39 1415.35 z"/>
<path transform="translate(0,0)" fill="rgb(249,250,251)" d="M 1645.71 1239.86 C 1659.61 1268.32 1659.65 1279.33 1696.05 1282.26 C 1688.82 1293.41 1687.53 1301 1685.46 1313.83 C 1650.24 1305.89 1626.83 1320.73 1618.62 1355.81 L 1618.58 1356.82 L 1617.7 1357.53 C 1605.5 1348.07 1593.5 1346.61 1578.63 1345.82 C 1579.9 1340.7 1580.83 1335.24 1581.81 1330.03 C 1593.41 1329.7 1603.77 1329.57 1613.59 1322.48 C 1637.44 1305.27 1636.21 1279.53 1620.42 1258.02 C 1633.04 1251.1 1635.32 1250.2 1645.71 1239.86 z"/>
<path transform="translate(0,0)" fill="rgb(254,222,113)" d="M 1523.45 1194.07 C 1507.33 1179.33 1501.41 1152.81 1515.54 1134.97 C 1527.49 1119.88 1556.89 1115.91 1570.62 1128.93 C 1594.56 1151.65 1573.44 1177.75 1557.32 1196.22 C 1550.97 1192.75 1544.81 1192.63 1541.59 1188.16 C 1539.02 1188.43 1539.42 1188.07 1537.3 1189.16 L 1536.85 1190.68 C 1534.41 1192.67 1527.18 1193.37 1523.45 1194.07 z"/>
<path transform="translate(0,0)" fill="rgb(36,50,60)" d="M 1537.3 1189.16 C 1537.22 1181.36 1536.86 1171.56 1538.7 1164.06 C 1539.22 1165.42 1540.99 1184.23 1541.59 1188.16 C 1539.02 1188.43 1539.42 1188.07 1537.3 1189.16 z"/>
<path transform="translate(0,0)" fill="rgb(254,222,113)" d="M 1727.11 1432.35 L 1743.41 1429.6 C 1751.28 1442.37 1771.53 1471.88 1767.85 1485.63 C 1753.63 1538.76 1691.54 1518.36 1704.37 1466.29 C 1706.04 1459.5 1716.34 1434.32 1721.44 1431.32 L 1724.84 1432.37 L 1727.11 1432.35 z"/>
<path transform="translate(0,0)" fill="rgb(36,50,60)" d="M 1727.11 1432.35 C 1727.59 1436.56 1729.85 1453.29 1728.23 1456.62 C 1725.78 1447.04 1724.84 1442.29 1724.84 1432.37 L 1727.11 1432.35 z"/>
<path transform="translate(0,0)" fill="rgb(254,222,113)" d="M 1564.42 1200.22 C 1569.78 1193.56 1573.27 1189.55 1580.79 1184.78 C 1601.74 1171.35 1640.7 1178.68 1643.15 1207.46 C 1644.8 1226.83 1630.13 1248.14 1609.59 1247.99 C 1597.31 1247.9 1583.51 1241.52 1572.08 1237.03 L 1572.87 1225.42 L 1572.65 1224.76 C 1571.86 1215.27 1568.29 1208.87 1564.42 1200.22 z"/>
<path transform="translate(0,0)" fill="rgb(138,124,75)" d="M 1572.65 1224.76 C 1585.57 1223.24 1604.5 1218.8 1615.65 1218.38 C 1602.54 1222.47 1586.64 1226.07 1572.87 1225.42 L 1572.65 1224.76 z"/>
<path transform="translate(0,0)" fill="rgb(77,145,211)" d="M 1576.52 1356.35 C 1586.15 1355.82 1595.9 1355.61 1604.5 1360.66 C 1618.23 1368.72 1623.16 1383.03 1614.11 1396.7 C 1602.32 1414.53 1586.24 1414.9 1567.45 1418.51 C 1561.73 1419.4 1559.65 1420.06 1554.26 1421.82 C 1546.59 1409.59 1538.94 1405.09 1526.13 1400.02 C 1534.41 1377.03 1551.07 1358.77 1576.52 1356.35 z"/>
<path transform="translate(0,0)" fill="rgb(52,114,179)" d="M 1570.51 1389.98 L 1571.52 1390.72 C 1569.02 1393.9 1556.49 1400.6 1552.28 1403.06 L 1551.53 1402.07 C 1556.45 1397.14 1564.32 1393.19 1570.51 1389.98 z"/>
<path transform="translate(0,0)" fill="rgb(36,86,142)" d="M 1547.95 1397.16 L 1548.45 1397.72 C 1547.73 1400.72 1544.22 1402.99 1541.67 1405.13 L 1540.26 1403.87 C 1541.75 1401.09 1545.25 1399.08 1547.95 1397.16 z"/>
<path transform="translate(0,0)" fill="rgb(254,222,113)" d="M 1688.15 1398.61 C 1659.19 1401.66 1626.91 1391.05 1630.48 1354.73 C 1633.22 1326.94 1678.07 1303.37 1691.7 1337.15 C 1694.47 1344.02 1699.29 1352.91 1703.33 1359.14 L 1704.34 1360.68 C 1699.48 1366.07 1693.99 1371.47 1691.85 1378.42 L 1690.64 1379.88 C 1688.11 1386.57 1688.2 1391.69 1688.15 1398.61 z"/>
<path transform="translate(0,0)" fill="rgb(138,124,75)" d="M 1690.64 1379.88 C 1680.93 1377.3 1671.86 1372.71 1664.04 1366.39 C 1665.26 1366.26 1687.5 1376.98 1691.85 1378.42 L 1690.64 1379.88 z"/>
<path transform="translate(0,0)" fill="rgb(77,145,211)" d="M 1836.77 1182.42 C 1854.16 1182.56 1873.22 1200.44 1874.82 1218.17 C 1875.6 1226.12 1873.11 1234.04 1867.93 1240.11 C 1858.84 1250.75 1843.49 1254.19 1830.15 1255.38 C 1824.13 1250.75 1823.75 1240.68 1819.56 1235.22 C 1812.22 1225.67 1801.42 1217.34 1792.02 1209.76 C 1794.26 1202.53 1795.59 1197.7 1795.37 1190.16 C 1810.38 1186.36 1821.22 1183.99 1836.77 1182.42 z"/>
<path transform="translate(0,0)" fill="rgb(77,145,211)" d="M 1481.82 1339.35 C 1504.83 1336.82 1524.65 1343.96 1532.3 1367.38 C 1526.33 1377.74 1521.97 1390.45 1515.66 1399.8 C 1503.94 1400.28 1502.3 1400.81 1493.48 1407.62 L 1491.06 1409.41 C 1488 1408.35 1478.31 1397.53 1474.9 1394.48 C 1467.82 1388.13 1447.72 1381.27 1445.8 1372.04 C 1443.65 1361.68 1458.2 1347.96 1466.41 1343.61 C 1471.29 1340.8 1476.31 1340.11 1481.82 1339.35 z"/>
<path transform="translate(0,0)" fill="rgb(77,145,211)" d="M 1663.8 1123.12 C 1696.4 1119.67 1700.58 1148.39 1718.02 1169.12 C 1715.1 1176.75 1713.94 1180.18 1712.14 1188.12 C 1703.96 1186.76 1696.32 1186.36 1688.07 1186.15 C 1681.47 1186.68 1660.24 1192.2 1656.45 1189.72 C 1642.21 1180.4 1631.02 1154.37 1640.97 1138.52 C 1647.28 1128.47 1653.17 1126.43 1663.8 1123.12 z"/>
<path transform="translate(0,0)" fill="rgb(249,250,251)" d="M 1776.86 1488.87 C 1794.82 1496.62 1808.5 1493.21 1824.01 1500.77 C 1836.64 1506.93 1863.4 1540.35 1854.2 1554.53 C 1850.63 1556.55 1847.81 1556.11 1843.57 1556.15 C 1827.93 1556.13 1812.42 1553.15 1797.88 1547.39 C 1779.48 1539.93 1770.44 1532.39 1762.54 1513.94 C 1770.99 1504.6 1773.46 1500.49 1776.86 1488.87 z"/>
<path transform="translate(0,0)" fill="rgb(77,145,211)" d="M 1524.34 1477.6 C 1526.35 1477.33 1535.01 1476.29 1536.23 1476.95 C 1545.78 1482.08 1555.66 1499.4 1559.29 1509.17 C 1562.5 1517.79 1562.63 1527.39 1558.54 1534.79 C 1552.61 1545.5 1544.08 1548.88 1533.42 1551.97 C 1482.5 1553.53 1495.83 1510.73 1506.92 1478.3 C 1513.46 1478.33 1517.83 1478.39 1524.34 1477.6 z"/>
<path transform="translate(0,0)" fill="rgb(254,222,113)" d="M 1570.94 1246.3 C 1581.03 1249.69 1600.61 1255.53 1608.69 1261.39 C 1615.84 1266.51 1620.56 1274.35 1621.74 1283.07 C 1622.82 1291.79 1620.29 1300.57 1614.73 1307.38 C 1608.69 1314.8 1599.29 1319.4 1589.81 1319.96 C 1556.8 1321.92 1551.32 1289.59 1549.82 1264.66 C 1553.91 1262.65 1558.17 1260.28 1562.52 1259.11 L 1564.49 1258.61 C 1564.23 1254.42 1568.39 1249.84 1570.94 1246.3 z"/>
<path transform="translate(0,0)" fill="rgb(50,50,38)" d="M 1564.49 1258.61 C 1568.87 1263.22 1581.22 1275.61 1583.75 1280.79 C 1577.2 1275 1567.59 1265.97 1562.52 1259.11 L 1564.49 1258.61 z"/>
<path transform="translate(0,0)" fill="rgb(254,222,113)" d="M 1682.8 1408.4 C 1683.98 1408.31 1688.38 1407.71 1688.96 1408.3 C 1698.12 1417.75 1698.73 1422.06 1710.68 1428.11 C 1707.44 1433.89 1704.59 1438.98 1701.85 1445.03 C 1697.63 1454.37 1695.55 1467.25 1687.86 1474.27 C 1680.93 1480.6 1674.32 1480.22 1665.75 1479.9 C 1638.66 1473.65 1625.68 1450.8 1643.57 1426.32 C 1653.11 1413.29 1667.49 1409.91 1682.8 1408.4 z"/>
<path transform="translate(0,0)" fill="rgb(97,90,68)" d="M 1698.83 1424.91 L 1699.51 1426.6 C 1696.25 1432.73 1685.23 1444 1680.04 1449.63 L 1679.34 1448.71 C 1683.27 1442.17 1693.32 1432.41 1698.83 1424.91 z"/>
<path transform="translate(0,0)" fill="rgb(249,250,251)" d="M 1367.67 1300.13 C 1400.21 1298.4 1430.37 1317.24 1448.1 1343.63 C 1446.36 1346.69 1444.31 1349.91 1442.46 1352.93 C 1437.17 1347.45 1431.44 1342.4 1425.35 1337.83 C 1418.15 1332.45 1400.93 1321.16 1391.72 1322.44 L 1391.74 1323.99 C 1395.51 1328.61 1399.14 1330.9 1403.91 1334.42 C 1416.62 1342.93 1426.81 1349.49 1437.83 1360.27 L 1435.58 1374.94 C 1427.79 1375.9 1420.82 1376.87 1413.1 1378.21 C 1389.53 1366.84 1371.25 1342.48 1360.7 1318.94 C 1358.42 1313.85 1357.49 1309.13 1359.61 1303.92 C 1361.93 1301.25 1364.21 1301.08 1367.67 1300.13 z"/>
<path transform="translate(0,0)" fill="rgb(249,250,251)" d="M 1858.44 1367.2 C 1875.58 1365.78 1888.52 1371.19 1902.43 1381.14 C 1909.86 1386.51 1928.98 1402.14 1929.42 1411.69 C 1930.11 1426.51 1893.66 1434.17 1882.59 1433.35 C 1862.06 1431.82 1847.69 1427.04 1833.67 1412.23 C 1831.49 1409.78 1831.92 1411.17 1831.66 1408.24 C 1835.36 1403.94 1844.74 1396.24 1849.58 1391.77 C 1873.8 1398.17 1899.25 1410.23 1921.33 1415.08 C 1904.89 1398.51 1875.95 1388.67 1853.72 1383.24 C 1855.17 1378.36 1855.97 1371.09 1858.44 1367.2 z"/>
<path transform="translate(0,0)" fill="rgb(249,250,251)" d="M 1516.25 1261.79 C 1503.39 1275.33 1494.49 1294.47 1474.39 1297.14 C 1465.89 1298.27 1457.38 1296.63 1450.6 1291.24 C 1443.88 1285.84 1439.66 1277.92 1438.91 1269.33 C 1436.48 1238.17 1476.4 1235.39 1498.1 1233.95 L 1502.41 1246.15 L 1503.2 1248.28 C 1508.14 1254.66 1510.12 1256.42 1516.25 1261.79 z"/>
<path transform="translate(0,0)" fill="rgb(90,93,97)" d="M 1502.41 1246.15 L 1503.2 1248.28 C 1496.64 1252.77 1485.79 1260.82 1477.82 1260.37 L 1477.41 1259.13 C 1482.7 1252.88 1494.46 1249.26 1502.41 1246.15 z"/>
<path transform="translate(0,0)" fill="rgb(249,250,251)" d="M 1612.71 1516.81 C 1616.74 1516.66 1626.37 1521.23 1630.74 1523.03 C 1662.36 1536.04 1681.94 1552.32 1705.77 1576.49 C 1701.65 1576.28 1698.85 1576.04 1694.77 1575.44 C 1674.76 1573.04 1654.71 1570.48 1634.81 1567.24 C 1622.82 1565.29 1610.23 1562.99 1602.92 1552.13 C 1598.89 1546.14 1597.55 1537.54 1599.05 1530.5 C 1600.54 1523.49 1606.99 1520.24 1612.71 1516.81 z"/>
<path transform="translate(0,0)" fill="rgb(77,145,211)" d="M 1784.4 1219.98 C 1796.18 1221.16 1816.09 1244.27 1816.25 1256.8 C 1816.47 1274.64 1798.8 1282.35 1783.73 1282.9 C 1782.88 1282.69 1782.03 1282.46 1781.19 1282.22 C 1765.56 1277.64 1738.79 1248.25 1750.05 1232.19 C 1750.73 1231.22 1777.53 1223.26 1783.14 1220.59 L 1784.4 1219.98 z"/>
<path transform="translate(0,0)" fill="rgb(254,222,113)" d="M 1722.75 1363.79 C 1738.54 1360.31 1754.18 1370.24 1757.75 1386.01 C 1761.31 1401.78 1751.47 1417.48 1735.72 1421.13 C 1719.84 1424.81 1704.01 1414.87 1700.41 1398.98 C 1696.82 1383.09 1706.84 1367.3 1722.75 1363.79 z"/>
<path transform="translate(0,0)" fill="rgb(254,222,113)" d="M 1515.3 1411.27 C 1531.35 1410.32 1545.18 1422.45 1546.33 1438.48 C 1547.49 1454.52 1535.54 1468.5 1519.52 1469.85 C 1508.98 1470.75 1498.77 1465.9 1492.79 1457.16 C 1486.82 1448.43 1486.01 1437.16 1490.67 1427.66 C 1495.33 1418.15 1504.74 1411.9 1515.3 1411.27 z"/>
<path transform="translate(0,0)" fill="rgb(254,222,113)" d="M 1745.37 1162.41 C 1760.94 1158.28 1776.9 1167.52 1781.09 1183.07 C 1785.27 1198.61 1776.09 1214.62 1760.56 1218.86 C 1744.94 1223.12 1728.84 1213.88 1724.63 1198.25 C 1720.43 1182.62 1729.73 1166.55 1745.37 1162.41 z"/>
<path transform="translate(0,0)" fill="rgb(254,222,113)" d="M 1523.96 1266.06 L 1539.88 1266.02 C 1541.76 1291.3 1546.88 1303.48 1558.75 1325.41 C 1562.76 1332.82 1543.81 1338.92 1539.16 1340.06 C 1530.68 1338.52 1524.84 1336.97 1517.7 1331.71 C 1510.52 1326.53 1505.75 1318.65 1504.5 1309.88 C 1502.16 1293.12 1514.45 1278.69 1523.96 1266.06 z"/>
<path transform="translate(0,0)" fill="rgb(36,50,60)" d="M 1529.75 1267.4 L 1531.53 1269.26 C 1532.33 1275.39 1530.22 1280.62 1528.3 1286.35 L 1527.32 1285.84 C 1526.45 1281.19 1527.91 1271.79 1529.75 1267.4 z"/>
<path transform="translate(0,0)" fill="rgb(254,222,113)" d="M 1530.85 1202.56 C 1545.69 1199.82 1559.92 1209.66 1562.6 1224.51 C 1565.28 1239.35 1555.39 1253.55 1540.53 1256.17 C 1525.76 1258.78 1511.66 1248.95 1508.99 1234.19 C 1506.33 1219.43 1516.1 1205.29 1530.85 1202.56 z"/>
<path transform="translate(0,0)" fill="rgb(249,250,251)" d="M 1634.56 1500.72 C 1647.29 1499.41 1667.89 1508.24 1678.99 1514.21 C 1699.97 1525.49 1715.01 1543.82 1722.18 1566.54 C 1723.3 1570.11 1725.08 1576.08 1723.27 1579.33 C 1720.59 1580.26 1716.4 1578.88 1713.39 1578.2 L 1712.58 1577.82 C 1711.92 1570.15 1708 1566.47 1703.29 1560.74 C 1681.81 1534.63 1651.85 1524.72 1623.18 1509.75 C 1626.75 1506.68 1630.82 1503.63 1634.56 1500.72 z"/>
<path transform="translate(0,0)" fill="rgb(249,250,251)" d="M 1628.13 1385.66 C 1632.9 1391.42 1638.35 1398.31 1644.71 1402.23 L 1651.45 1406.34 C 1640.04 1413 1636.55 1418.35 1629.79 1429.15 L 1628.75 1429.66 C 1620.99 1422.1 1617.43 1418.97 1607.56 1414.64 C 1619.4 1404.8 1624.01 1400.63 1628.13 1385.66 z"/>
<path transform="translate(0,0)" fill="rgb(249,250,251)" d="M 1567.21 1335.84 C 1567.55 1339.03 1567.71 1339.24 1567.09 1342.5 C 1562.24 1349.2 1549.59 1353.12 1540.82 1358.23 C 1539.58 1355.15 1539.23 1354.94 1539.44 1351.57 C 1542.36 1347.84 1552.29 1346.37 1556.98 1343.71 C 1560.96 1341.45 1563.82 1338.81 1567.21 1335.84 z"/>
<path transform="translate(0,0)" fill="rgb(77,145,211)" d="M 1742.15 1255.57 C 1743.19 1257.26 1746.96 1266.93 1746.21 1268.64 L 1742.33 1267.21 C 1739.43 1267.05 1738.96 1267.04 1736.17 1266.34 L 1735.97 1264.48 C 1738.7 1261.12 1739.9 1259.29 1742.15 1255.57 z"/>
<path transform="translate(0,0)" fill="rgb(7,69,132)" d="M 1636.61 299.479 C 1653.89 297.896 1689.65 303.586 1705.39 309.211 C 1727.11 316.979 1733.75 320.49 1756.99 320.857 C 1774.56 321.134 1799.15 337.445 1811.11 349.596 C 1823.67 362.358 1832.22 380.472 1839.71 396.636 C 1855.1 423.448 1869.28 440.346 1868.39 473.06 C 1867.72 494.805 1858.41 515.387 1842.52 530.248 C 1832.93 539.273 1821.12 546.766 1807.45 546.116 C 1789.25 545.252 1781.86 534.006 1770.86 521.487 C 1762.3 536.524 1757.81 541.863 1746.48 554.743 C 1747.02 555.283 1747.55 555.827 1748.08 556.376 C 1757.56 566.217 1766.01 576.62 1771.6 589.151 C 1790.28 630.973 1802.79 681.81 1802.16 727.59 C 1803.99 728.188 1810.69 730.417 1811.89 729.484 C 1831.66 714.246 1838.2 678.089 1860.97 665.164 C 1863.85 663.597 1869.49 663.124 1872.45 664.684 C 1903.6 681.13 1895.74 734.382 1884.74 759.987 C 1873.29 786.618 1853.64 809.573 1827.69 820.05 C 1828.72 839.917 1827.12 862.214 1800.6 863.908 C 1796.57 864.166 1791.18 860.807 1786.16 860.455 C 1783.23 867.77 1775.36 870.505 1768.32 873.048 C 1759.1 876.386 1749.54 871.942 1741.32 867.753 C 1737.55 870.259 1734.15 872.742 1730.52 875.414 C 1721.19 879.58 1718.18 879.433 1708.88 876.004 C 1699.42 872.514 1694.34 883.812 1681.94 877.375 C 1662.28 867.168 1648.48 864.137 1638.82 842.411 C 1630.67 858.444 1622.52 880.331 1598.92 875.618 C 1597.04 875.244 1587.82 869.735 1586.99 870.207 C 1565.65 882.282 1553.66 877.903 1537.43 860.502 C 1523.77 873.613 1513.35 867.924 1498.28 862.767 C 1486.28 859.446 1475.03 866.1 1463.59 856.686 C 1447.09 843.097 1450.43 823.546 1461.59 807.522 C 1446.52 786.189 1445.12 761.499 1459.85 739.34 C 1465.25 731.219 1471.99 725.69 1479.1 719.188 C 1483.76 667.639 1492.68 594.078 1529.36 554.883 C 1520.48 546.149 1517.07 541.553 1511.17 530.529 C 1461.88 576.154 1415.34 516.429 1413.17 466.265 C 1412.65 455.605 1414.13 444.941 1417.53 434.823 C 1422.6 419.65 1457.77 357.647 1468.64 346.007 C 1483.33 330.266 1506.65 316.605 1528.86 317.744 C 1535.65 318.092 1543.22 320.666 1549.9 318.872 C 1556.61 317.073 1562.89 312.91 1569.56 310.656 C 1591.78 303.152 1613.29 300.138 1636.61 299.479 z"/>
<path transform="translate(0,0)" fill="rgb(249,250,251)" d="M 1632.91 311.429 C 1655.15 310.113 1683.63 314.37 1704.92 321.139 C 1711.8 323.329 1727.86 330.141 1734.13 331.198 C 1751.15 334.069 1760.15 330.924 1776.67 338.755 C 1808.14 353.665 1815.71 375.858 1830.45 404.626 C 1837.86 417.446 1847.13 429.7 1852.08 443.776 C 1858.48 461.993 1857.9 484.011 1849.4 501.465 C 1841 518.69 1828.31 529.645 1810.4 535.932 C 1774.96 530.514 1771.62 487.663 1766.98 459.021 C 1764.12 441.115 1761.4 423.187 1758.81 405.238 C 1756.05 386.587 1755.93 371.722 1744 356.947 C 1742.92 393.322 1751.58 431.63 1757.28 467.518 C 1762.37 499.577 1771.37 507.215 1747.74 534.807 C 1722.77 563.863 1687.21 581.707 1648.99 584.351 C 1605.02 589.85 1551.77 568.979 1525.55 532.791 C 1523.04 529.33 1516.58 520.781 1516.58 516.677 C 1516.62 498.187 1524.1 479.305 1526.47 460.85 C 1529.58 439.975 1533.71 420.78 1536.2 400.098 C 1537.23 391.535 1539.67 374.657 1536.91 367.106 L 1535.46 366.739 C 1516.01 388.881 1521.83 506.983 1489.65 531.238 C 1484.33 535.243 1476.18 535.485 1469.94 533.802 C 1433.29 523.928 1419.67 476.859 1426.92 443.366 C 1430.31 428.6 1439.61 416.367 1447.03 403.562 C 1457.66 385.337 1464.63 365.582 1480.5 350.937 C 1500.63 332.354 1520.57 325.866 1547.2 332.586 C 1581.21 316.684 1594.41 313.379 1632.91 311.429 z"/>
<path transform="translate(0,0)" fill="rgb(7,69,132)" d="M 1637.72 465.104 C 1646.74 464.526 1653.05 466.447 1660.06 472.211 C 1671.65 481.74 1659.21 493.39 1652.9 500.79 C 1653.36 510.434 1655.03 517.223 1661.1 524.871 C 1664.76 529.477 1670.46 530.197 1674.57 525.792 C 1675.41 523.143 1675.7 521.46 1677.52 519.344 C 1681.82 520.062 1683.06 521.129 1684.81 524.964 C 1684.38 531.528 1678.28 537.678 1671.63 538.36 C 1658.11 539.746 1654.49 529.015 1646.34 522.176 L 1644.96 522.759 L 1643.26 527.054 C 1629.38 548.351 1601.11 540.459 1604.64 519.25 C 1606.85 516.13 1605.43 517.255 1609.17 515.907 C 1616.54 517.43 1611.92 523.571 1617.74 529.889 C 1635.26 535.84 1647.13 498.67 1629.19 494.121 C 1605.07 488.005 1623.08 469.333 1637.72 465.104 z"/>
<path transform="translate(0,0)" fill="rgb(7,69,132)" d="M 1713.37 422.825 C 1729.31 423.135 1734.69 452.066 1717.16 458.935 C 1697.1 455.529 1697.69 432.966 1713.37 422.825 z"/>
<path transform="translate(0,0)" fill="rgb(7,69,132)" d="M 1560.69 422.793 C 1574.73 421.765 1576.08 432.282 1578.61 443.434 C 1576.25 451.295 1575.74 453.452 1569.46 458.55 C 1548.94 460.145 1549.27 433.279 1560.69 422.793 z"/>
<path transform="translate(0,0)" fill="rgb(249,250,251)" d="M 1520.25 588.646 C 1521.47 590.422 1524.77 595.281 1526.11 596.388 C 1589.1 648.284 1698.72 645.163 1757.9 588.577 C 1776.64 621.203 1789.13 685.471 1790.94 724.002 C 1791.41 734.074 1784.52 747.063 1786.92 760.555 L 1789.13 762.084 C 1795.05 757.588 1798.09 741.212 1804.71 740.312 C 1809.79 745.12 1813.41 751.252 1815.19 758.013 C 1820.58 777.858 1812.94 792.333 1803.47 808.541 C 1808.26 814.4 1809.79 816.039 1813.4 823.75 C 1819.6 836.958 1809.65 859.31 1793.23 851.286 C 1786.92 848.203 1789.99 833.928 1782.79 829.683 C 1773.59 836.504 1782.54 862.883 1758.72 862.326 C 1743.02 861.959 1746.94 848.426 1746.93 837.574 C 1746.92 828.678 1738.27 819.355 1732.3 813.166 C 1739 786.808 1745.43 760.001 1750.06 733.181 C 1751.51 724.775 1754.1 710.533 1747.21 704.08 L 1745.14 704.396 C 1741.91 710.153 1735.15 755.228 1732.34 766.994 C 1728.49 783.076 1724.04 800.718 1719.67 817.08 C 1730.28 826.161 1736.12 830.688 1736.47 845.987 C 1736.69 855.738 1727.53 868.657 1717.52 868.337 C 1710.67 865.247 1710.24 858.349 1706.62 850.939 C 1704.1 849.785 1703.34 850.227 1700.56 850.648 C 1698.41 857.988 1696.64 866.486 1688.8 869.493 C 1671.05 869.559 1677.07 842.117 1670.52 837.903 C 1664.95 841.938 1666.81 852.952 1660 853.143 C 1656.19 850.37 1649.7 838.547 1650.31 834.636 C 1655.21 803.054 1663.08 764.494 1668.61 733.753 C 1669.8 725.886 1672.92 708.683 1666.41 703.387 L 1664.51 703.981 C 1660.47 709.29 1655.59 746.38 1654.04 754.993 C 1649.31 780.793 1644.02 806.487 1638.17 832.056 C 1636.08 823.173 1634.84 813.868 1632.89 804.866 C 1627.07 777.896 1620.77 750.949 1617.36 723.539 C 1616.63 717.643 1616.48 705.795 1611.01 702.918 C 1609.39 703.395 1606.5 704.506 1606.35 706.101 C 1603.23 740.082 1626.51 804.419 1625.23 834.065 C 1624.91 841.417 1622.66 848.554 1618.7 854.76 C 1612.27 864.636 1602.03 869.633 1593.57 858.904 C 1589.88 854.222 1591.4 848.037 1586.53 844.057 C 1582.41 844.117 1582.84 843.395 1580.63 845.544 C 1580.7 850.575 1581.12 856.895 1577.5 860.834 C 1570.36 868.599 1557.78 864.788 1551.28 858.339 C 1546.32 853.43 1543.56 846.713 1543.65 839.732 C 1543.7 827.807 1550 821.101 1557.71 813.45 C 1550.44 794.062 1544.28 758.323 1540.03 737.254 C 1538.2 728.166 1538.66 713.405 1535.68 705.479 C 1533.4 703.504 1534.72 703.982 1531.54 704.202 C 1519.85 715.328 1540.38 792.972 1545.16 809.139 C 1527.78 826.707 1536.6 832.235 1530.21 852.197 C 1529 854.474 1526.18 856.394 1523.8 856.951 C 1501.37 862.21 1500.05 839.707 1495.94 825.57 L 1493.15 825.687 C 1485.76 831.039 1489.54 843.398 1491.83 850.832 C 1479.99 851.353 1466.2 851.158 1464.71 835.115 C 1463.67 823.939 1470.48 815.72 1477.38 807.685 C 1475.04 805.494 1470.32 801.282 1468.73 798.681 C 1457.25 779.896 1459.87 748.024 1479.57 735.616 C 1481.26 742.67 1484.84 758.52 1492.66 760.299 C 1497.09 758.33 1495.5 755.598 1494.56 750.649 C 1492.25 738.542 1490.51 727.512 1491.39 715.071 C 1493.89 679.644 1503.06 619.48 1520.25 588.646 z"/>
<path transform="translate(0,0)" fill="rgb(254,222,113)" d="M 1737.75 561.798 C 1741.37 563.785 1747.98 575.952 1750.14 579.782 C 1729.59 603.312 1690.49 615.955 1660.49 619.657 C 1617.17 625.004 1575.48 616.225 1539.36 591.76 C 1533.81 587.096 1531.91 585.359 1527.19 579.851 C 1531.32 572.905 1534.25 569.682 1539.97 564.322 C 1574.36 586.526 1597.88 596.668 1639.84 596.382 C 1680.86 596.102 1704.33 583.773 1737.75 561.798 z"/>
<path transform="translate(0,0)" fill="rgb(249,250,251)" d="M 1865.92 675.882 C 1889.17 675.523 1881.31 736.677 1875 750.729 C 1864.02 775.173 1851.76 796.218 1826.64 807.937 C 1822.43 807.981 1821.45 808.516 1818.61 806.45 C 1828.3 776.669 1833.99 770.741 1819.74 739.305 C 1843.05 717.679 1846.76 690.528 1865.92 675.882 z"/>
<path transform="translate(0,0)" fill="rgb(7,69,132)" d="M 499.151 310.277 C 523.257 308.14 526.178 325.55 526.197 345.527 C 526.222 372.902 517.975 399.59 510.131 425.538 C 519.045 450.671 520.286 461.293 520.126 487.069 C 530.543 486.2 545.544 483.465 553.688 489.699 C 554.326 501.694 525.187 499.111 516.961 498.908 C 515.219 504.908 513.611 509.941 511.518 515.826 C 518.298 519.312 534.902 526.528 536.162 534.288 C 530.178 538.705 511.249 529.661 504.741 527.096 C 494.096 545.779 488.597 546.037 479.346 559.678 C 481.206 561.578 483 563.541 484.726 565.563 C 514.707 600.366 527.213 659.163 536.253 703.769 C 541.759 730.937 548.199 761.526 546.221 788.957 C 554.344 776.817 556.735 767.647 560.209 753.508 C 575.852 689.862 510.555 618.31 580.42 569.978 C 599.159 557.015 628.758 561.491 639.992 581.344 C 651.324 601.371 627.384 625.078 621.533 643.342 C 616.103 664.756 636.572 699.464 638.151 721.909 C 640.563 738.92 638.553 754.161 633.999 770.715 C 621.244 817.082 573.107 866.533 521.067 851.025 C 509.291 860.956 505.322 862.155 490.38 865.017 C 483.899 865.004 479.21 865.28 472.908 863.686 C 464.613 872.857 449.886 883.27 436.728 877.798 C 425.248 872.611 418.57 882.091 406.503 879.916 C 393.612 877.593 386.865 865.174 379.85 854.955 C 370.289 853.763 368.131 871.318 357.722 876.168 C 351.563 883.481 333.8 875.281 332.842 875.689 C 319.666 881.291 305.438 886.72 289.639 881.82 C 278.476 878.358 273.236 870.928 267.565 860.311 C 256.398 861.06 249.499 860.728 239.487 853.674 C 220.932 840.601 211.63 806.512 208.536 785.306 C 206.807 772.899 206.272 760.356 206.939 747.847 C 209.167 704.927 229.041 596.876 253.995 563.245 C 239.384 553.378 231.052 539.058 222.207 524.291 C 211.61 527.369 200.454 532.685 190.437 535.011 C 187.193 534.202 188.603 535.015 186.33 532.082 C 185.276 520.369 208.656 515.433 217.743 513.385 L 212.059 498.648 C 203.346 498.516 176.385 501.051 173.52 491.109 C 177.804 482.494 202.011 484.703 210.059 486.926 C 211.355 463.824 213.571 453.316 221.126 431.63 C 212.031 400.706 192.84 344.268 217.444 317.674 C 249.434 307.48 285.657 333.558 308.638 352.924 C 354.491 341.78 373.502 341.439 419.476 357.618 C 443.845 333.615 465.591 317.235 499.151 310.277 z"/>
<path transform="translate(0,0)" fill="rgb(249,250,251)" d="M 421.759 368.939 C 444.583 351.981 472.294 322.756 504.012 321.667 C 513.708 321.334 514.225 334.824 514.175 342.024 C 513.98 370.341 506.025 397.542 498.455 424.634 C 506.438 451.47 514.125 478.516 501.736 505.656 C 488.082 505.923 469.759 502.229 462.672 515.436 C 472.617 516.638 487.394 515.947 497.617 515.53 C 487.329 535.261 473.46 555.62 451.044 563.897 C 442.338 567.113 438.827 564.588 433.24 572.744 L 433.093 574.856 C 438.995 578.932 461.711 570.949 468.28 567.863 C 471.914 568.289 478.319 574.558 480.134 577.224 C 510.455 621.766 523.152 691.686 530.634 743.024 C 537.132 776.578 540.722 811.411 515.84 839.26 C 504.217 852.27 492.455 853.504 476.178 854.059 C 477.477 833.907 475.101 829.926 463.62 813.38 C 468.785 788.257 475.863 761.059 479.107 735.484 C 479.652 731.184 478.484 721.829 475.152 718.142 L 473.316 718.381 C 471.453 720.746 470.15 723.664 469.649 726.624 C 464.489 757.137 459.23 787.82 450.168 817.507 C 468.439 832.367 475.45 858.22 446.355 867.536 C 436.72 870.621 440.66 855.106 434.464 850.121 C 426.652 850.275 427.621 867.636 418.327 869.038 C 356.655 878.336 422.076 727.153 400.69 718.935 C 390.02 726.237 385.764 827.426 374.599 840.5 L 372.974 840.27 C 371.343 836.095 368.963 824.297 367.862 819.394 C 362.908 797.109 358.633 774.678 355.041 752.133 C 353.618 743.717 351.908 730.731 349.243 722.597 C 348.431 720.116 346.591 719.898 344.64 719.454 C 338.747 723.238 341.245 734.614 342.271 740.666 C 347.113 768.947 351.615 796.206 357.926 824.293 C 360.884 837.458 367.331 863.747 347.549 867.856 C 340.005 869.422 340.142 854.613 335.604 850.877 C 326.563 854.419 332.339 870.415 316.415 872.029 C 311.135 869.029 314.239 862.909 311.82 855.147 C 309.348 852.616 310.833 853.404 307.069 852.993 C 298.607 857.36 306.53 871.968 296.726 871.776 C 282.251 871.492 276.426 858.698 278.343 845.683 C 280.068 833.972 285.833 827.746 294.708 820.794 C 286.768 786.445 276.719 753.284 273.737 718.136 C 273.396 714.118 271.921 709.742 268.477 707.471 C 254.65 714.533 278.102 799.405 282.028 815.814 C 271.602 829.437 271.116 833.084 264.557 848.765 C 250.497 855.893 238.303 836.927 233.307 826.28 C 219.631 797.291 214.877 763.822 220.364 732.086 C 229.265 680.599 236.771 614.988 262.926 569.086 C 271.603 572.668 290.827 583.302 295.604 571.14 L 294.59 568.942 C 289.715 565.597 283.895 566.26 277.584 563.845 C 254.508 555.012 241.314 537.583 231.479 515.993 C 241.944 516.01 262.041 516.688 272.369 514.961 C 273.687 514.741 273.561 513.792 273.976 512.297 C 267.962 504.19 242.712 506.761 229.471 503.914 L 228.026 503.597 C 213.838 474.034 228.634 458.831 231.8 431.079 C 232.331 426.431 227.435 411.481 226.192 405.937 C 221.307 384.154 209.445 350.187 222.311 329.789 C 224.579 327.199 230.475 325.806 233.474 326.347 C 263.8 331.816 286.164 345.845 306.569 367.993 C 319.68 359.751 334.065 357.717 349.236 356.477 C 376.852 355.535 395.874 361.231 421.759 368.939 z"/>
<path transform="translate(0,0)" fill="rgb(254,222,113)" d="M 421.759 368.939 C 444.583 351.981 472.294 322.756 504.012 321.667 C 513.708 321.334 514.225 334.824 514.175 342.024 C 513.98 370.341 506.025 397.542 498.455 424.634 C 506.438 451.47 514.125 478.516 501.736 505.656 C 488.082 505.923 469.759 502.229 462.672 515.436 C 461.55 513.242 461.901 514.426 462.253 511.689 C 459.658 504.968 454.39 500.85 449.046 496.386 C 447.259 500.292 448.636 499.231 445.55 500.584 C 441.876 499.903 439.507 496.682 436.787 493.88 C 418.501 491.471 391.107 454.045 380.854 439.11 C 377.914 431.384 374.697 420.336 373.138 412.415 C 368.692 389.819 363.19 376.647 351.889 357.125 L 349.236 356.477 C 376.852 355.535 395.874 361.231 421.759 368.939 z"/>
<path transform="translate(0,0)" fill="rgb(7,69,132)" d="M 437.69 493.84 C 410.105 474.097 433.622 446.432 456.083 461.751 C 462.875 466.383 462.92 483.562 455.977 488.29 C 453.185 490.826 451.059 491.997 447.788 493.716 C 443.747 494.284 441.819 494.06 437.69 493.84 z"/>
<path transform="translate(0,0)" fill="rgb(7,69,132)" d="M 495.952 333.582 L 499.905 334.272 L 500.925 335.83 C 500.656 337.988 468.41 386.483 465.257 390.284 C 464.776 390.39 462.7 390.42 462.122 390.44 C 456.086 380.391 486.954 340.871 495.952 333.582 z"/>
<path transform="translate(0,0)" fill="rgb(254,222,113)" d="M 468.28 567.863 C 471.914 568.289 478.319 574.558 480.134 577.224 C 510.455 621.766 523.152 691.686 530.634 743.024 C 520.168 736.766 509.593 726.917 500.794 718.805 C 486.581 705.702 476.546 694.615 473.376 674.689 C 469.812 652.275 469.631 629.185 469.212 606.534 C 468.962 593 471.516 581.265 468.28 567.863 z"/>
<path transform="translate(0,0)" fill="rgb(7,69,132)" d="M 360.88 491.655 C 361.617 491.693 362.354 491.747 363.088 491.817 C 382.166 493.7 387.01 509.819 385.148 526.355 C 389.137 528.436 394.568 530.21 397.586 532.505 C 399.002 536.136 398.918 534.362 398.048 538 C 391.47 543.096 386.221 537.37 380.803 533.221 C 375.48 533.242 374.649 537.522 365.25 540.147 C 357.28 540.063 338.887 533.126 345.524 523.706 C 354.137 523.522 370.864 543.448 374.585 520.227 C 376.875 505.932 366.839 507.051 360.397 498.379 C 359.53 493.9 359.411 496.06 360.88 491.655 z"/>
<path transform="translate(0,0)" fill="rgb(7,69,132)" d="M 285.044 457.218 C 308.906 455.548 310.941 482.426 292.138 492.658 C 283.941 492.443 278.485 490.789 274.759 482.683 C 272.556 477.932 272.396 472.486 274.315 467.613 C 276.709 461.598 279.422 459.6 285.044 457.218 z"/>
<path transform="translate(0,0)" fill="rgb(7,69,132)" d="M 225.07 328.552 C 243.301 330.353 276.289 381.732 274.708 397.694 C 273.473 397.795 271.729 398.21 271.019 397.531 C 264.346 391.15 255.35 373.326 250.364 365.13 C 243.465 353.79 229.253 338.925 225.07 328.552 z"/>
<path transform="translate(0,0)" fill="rgb(254,222,113)" d="M 573.492 683.205 C 590.495 669.242 596.901 658.257 609.79 640.473 C 605.966 669.004 625.751 701.456 626.756 730.949 C 628.734 789.036 588.558 845.861 526.728 843.857 C 537.099 829.687 540.865 819.009 547.543 802.802 C 549.604 797.799 559.074 788.972 562.106 783.221 C 580.777 747.816 574.141 707.695 565.55 670.728 C 569.041 673.502 571.321 679.037 573.492 683.205 z"/>
<path transform="translate(0,0)" fill="rgb(249,250,251)" d="M 565.55 670.728 C 553.808 638.879 554.416 595.823 589.214 578.665 C 598.19 574.197 608.597 573.569 618.045 576.927 C 645.021 586.814 617.065 624.333 609.79 640.473 C 596.901 658.257 590.495 669.242 573.492 683.205 C 571.321 679.037 569.041 673.502 565.55 670.728 z"/>
<path transform="translate(0,0)" fill="rgb(7,69,132)" d="M 1007.74 319.424 C 1018.3 317.794 1075.43 318.075 1081.27 328.322 C 1081.54 336.733 1069.34 339.379 1062.55 342.05 C 966.487 379.82 921.411 481.958 953.149 579.854 C 968.342 626.461 1001.53 665.063 1045.33 687.076 C 1118.85 723.976 1185.97 710.909 1255.83 677.326 C 1258.97 675.813 1263.53 675.885 1266.7 677.527 C 1267.81 679.816 1268.41 680.783 1267.53 683.693 C 1253.04 731.755 1212.54 768.999 1172.19 793.914 C 1138.85 813.952 1096.04 826.88 1057.35 829.735 C 985.377 834.842 914.321 811.16 859.803 763.895 C 809.309 719.502 778.381 656.971 773.742 589.897 C 769.117 519.414 790.804 454.911 837.46 401.831 C 881.011 352.824 942.281 323.171 1007.74 319.424 z"/>
<path transform="translate(0,0)" fill="rgb(254,222,113)" d="M 1002.96 330.407 C 1017.71 328.682 1042.88 330.188 1057.81 331.403 C 1041.92 340.545 1026.36 346.418 1010.84 358.126 C 969.399 389.392 942.55 434.439 934.302 485.295 C 925.99 539.638 939.327 595.074 971.446 639.69 C 1001.86 681.528 1052.69 709.686 1103.47 717.411 C 1146.15 723.905 1187.94 717.072 1227.69 701.072 C 1236.86 697.378 1247.53 692.924 1255.44 687.072 C 1242.57 726.966 1197.99 766.048 1162.3 786.715 C 1131.99 803.581 1098.56 814.106 1064.05 817.649 C 995.272 824.845 926.46 804.33 872.848 760.646 C 769.473 675.603 754.784 519.393 840.128 416.025 C 880.81 366.907 939.431 336.083 1002.96 330.407 z"/>
<path transform="translate(0,0)" fill="rgb(7,69,132)" d="M 218.872 1147.47 C 232.088 1097.73 290.801 1113.44 290.377 1147.14 C 308.878 1132.7 333.203 1130.93 345.28 1155.55 C 350.769 1166.74 347.625 1177.7 342.998 1188.71 C 354.071 1192.37 364.85 1196.27 371.61 1206.71 C 382.303 1223.22 380.19 1240.21 363.699 1251.6 C 389.531 1262.46 395.578 1290.27 373.368 1309.37 C 364.052 1317.38 353.317 1316.74 341.859 1315.53 C 351.87 1334.85 343.021 1356.98 322.098 1363.56 C 312.161 1366.69 301.398 1365.83 292.081 1361.17 C 286.821 1373.55 285.724 1377.45 273.905 1384.98 C 274.565 1412.41 274.086 1442.07 274.158 1469.65 C 274.042 1482.1 273.394 1500.6 274.158 1512.8 L 275.44 1513.44 L 274.251 1513.79 L 274.894 1515.17 L 275.371 1513.6 L 274.19 1513.76 L 275.565 1512.62 C 276.053 1507.7 276.444 1502.76 276.739 1497.82 C 280.261 1458.39 288.851 1427.08 320.402 1400.87 C 334.896 1388.83 355.277 1378.6 374.36 1378.12 C 392.897 1377.66 388.196 1417.86 386.197 1429.33 C 381.59 1455.76 365.419 1482.38 342.986 1497.41 C 321.349 1512.25 299.131 1516.02 275.376 1525.34 C 273.609 1551.14 274.284 1576.91 274.007 1602.75 C 273.939 1609.02 274.515 1618.9 269.629 1623.3 C 266.19 1624.66 264.658 1624.14 260.999 1623.71 C 258.717 1622.19 256.821 1620.41 256.659 1617.38 C 255.335 1592.53 256.317 1563.2 255.94 1538.49 C 242.916 1538.67 237.099 1534.74 225.288 1531.15 C 201.401 1523.88 179.716 1515.11 161.698 1497.1 C 138.378 1473.79 125.045 1446.09 125.084 1413.14 C 128.341 1407.94 129.001 1406.81 133.472 1402.69 C 197.108 1393 243.526 1451.27 253.983 1508.68 C 254.308 1514.76 254.637 1523.79 255.303 1529.76 L 256.032 1529.39 C 256.685 1519.64 257.314 1507.51 256.122 1497.9 C 257.237 1490.57 257.114 1467.62 257.2 1459.38 L 258.017 1386.63 C 242.929 1384.48 236.575 1378.87 230.016 1365.86 C 196.142 1390.21 159.117 1364.58 172.424 1324.54 C 132.556 1340.49 106.895 1292.59 142.381 1260.85 C 108.479 1238.88 126.369 1198.09 164.057 1190.99 C 145.1 1151.28 187.658 1115.6 218.872 1147.47 z"/>
<path transform="translate(0,0)" fill="rgb(249,250,251)" d="M 138.052 1411.79 C 199.915 1410.57 241.283 1468.5 247.813 1525.15 C 241.069 1515.52 235.425 1503.25 228.389 1493.14 C 208.239 1464.19 187.608 1445.78 159.471 1425.39 C 156.468 1423.43 152.349 1421.86 148.989 1420.42 C 149.173 1420.7 149.357 1420.98 149.541 1421.26 L 150.489 1422.63 C 158.354 1434.26 173.855 1445.99 184.554 1455.75 C 205.134 1474.66 222.366 1496.91 235.519 1521.57 C 230.7 1520.54 225.906 1519.39 221.142 1518.13 C 184.137 1508.31 155.778 1483.03 141.717 1447.12 C 136.865 1434.73 134.467 1424.97 138.052 1411.79 z"/>
<path transform="translate(0,0)" fill="rgb(77,145,211)" d="M 370.081 1389.3 L 373.013 1389.3 C 374.757 1390.4 376.27 1391.41 376.603 1393.89 C 379.434 1415.06 375.228 1438.16 365.356 1456.38 C 347.131 1490.03 321.923 1498.59 287.863 1508.93 C 298.75 1474.26 317.81 1447.95 343.203 1422.35 C 351.894 1414.08 354.098 1411.7 359.891 1401.22 C 327.437 1418.07 303.382 1456.36 286.666 1487.44 C 292.197 1454.75 302.055 1430.27 328.489 1408.94 C 342.333 1397.77 352.579 1392.25 370.081 1389.3 z"/>
<path transform="translate(0,0)" fill="rgb(254,222,113)" d="M 241.134 1218.14 C 252.97 1214.31 265.951 1217.14 275.119 1225.55 C 284.287 1233.96 288.226 1246.65 285.432 1258.77 C 282.639 1270.9 273.544 1280.58 261.62 1284.13 C 243.483 1289.53 224.379 1279.33 218.769 1261.26 C 213.158 1243.19 223.129 1223.96 241.134 1218.14 z"/>
<path transform="translate(0,0)" fill="rgb(249,250,251)" d="M 253.964 1126.35 C 300.912 1131.61 276.979 1181.78 267.272 1209.75 L 257.41 1208.31 C 251.617 1207.95 247.542 1208.34 241.818 1208.77 C 233.408 1183.52 211.711 1132.44 253.964 1126.35 z"/>
<path transform="translate(0,0)" fill="rgb(249,250,251)" d="M 221.963 1284.02 C 230 1289.54 232.901 1290.66 241.837 1293.39 C 233.29 1321.02 234.886 1365.3 199.427 1364.84 C 187.53 1361.7 176.412 1351.37 178.06 1338.28 C 180.85 1316.1 206.089 1297.89 221.963 1284.02 z"/>
<path transform="translate(0,0)" fill="rgb(249,250,251)" d="M 161.61 1202.23 C 180.631 1200.64 199.651 1216.54 215.436 1227.17 C 209.21 1237.72 208.469 1240.03 206.371 1251.93 C 200.081 1251.94 194.258 1252.14 187.975 1252.42 C 175.697 1253.67 158.375 1256.96 147.083 1252.11 C 133.914 1246.45 131.406 1230.41 137.937 1218.7 C 143.483 1208.74 151.359 1205.42 161.61 1202.23 z"/>
<path transform="translate(0,0)" fill="rgb(249,250,251)" d="M 204.894 1260.49 L 205.699 1260.41 C 207.771 1261.32 212.692 1274.27 214.943 1278.57 C 199.943 1292.95 178.404 1312.82 158.484 1318.17 C 154.842 1317.39 151.209 1316.56 147.585 1315.69 C 131.767 1305.43 131.538 1287.46 143.323 1274.24 C 155.793 1260.26 187.307 1261.2 204.894 1260.49 z"/>
<path transform="translate(0,0)" fill="rgb(249,250,251)" d="M 296.582 1254.31 C 318.191 1256.55 353.478 1253.13 370.613 1267.92 C 381.079 1276.95 374.974 1293.71 366.049 1302.31 C 342.614 1316.19 310.275 1286.22 290.209 1272.56 C 293.514 1265.29 294.746 1261.95 296.582 1254.31 z"/>
<path transform="translate(0,0)" fill="rgb(249,250,251)" d="M 187.187 1146.08 C 222.239 1144.22 223.644 1184.1 233.907 1210.87 L 230.473 1213.6 C 226.522 1216.7 223.988 1219.78 219.914 1219.29 C 215.544 1216.28 210.977 1213.49 206.637 1210.61 C 187.775 1198.1 160.348 1188.06 172.102 1159.68 C 175.579 1151.28 178.864 1149.55 187.187 1146.08 z"/>
<path transform="translate(0,0)" fill="rgb(249,250,251)" d="M 268 1292.35 C 269.682 1294.13 274.591 1312.71 275.861 1316.11 C 284.14 1338.26 290.743 1375.44 255.342 1375.69 C 232.802 1366.3 236.786 1347.88 241.33 1328.18 C 243.799 1317.47 246.529 1306.5 249.972 1296.07 C 257.561 1295.15 260.782 1294.92 268 1292.35 z"/>
<path transform="translate(0,0)" fill="rgb(249,250,251)" d="M 315.056 1146.15 C 322.69 1146.56 329.425 1148.84 333.751 1155.61 C 337.575 1161.55 338.84 1168.78 337.259 1175.66 C 333.226 1193.59 308.686 1206.43 293.834 1216.08 L 285.835 1221.55 C 282.488 1219.12 279.053 1215.94 275.912 1213.18 C 279.798 1201.26 283.306 1189.03 287.158 1177.1 C 292.595 1160.26 296.862 1150.59 315.056 1146.15 z"/>
<path transform="translate(0,0)" fill="rgb(249,250,251)" d="M 285.691 1279.75 C 307.5 1293.86 362.038 1324.36 322.657 1352.42 C 294.929 1365.15 291.008 1337.77 285.167 1318.21 C 282.293 1308.3 278.985 1298.53 275.252 1288.91 L 285.691 1279.75 z"/>
<path transform="translate(0,0)" fill="rgb(249,250,251)" d="M 337.76 1200.03 C 370.318 1199.43 380.682 1243.59 345.945 1247.82 C 339.301 1248.63 329.271 1247.91 322.374 1247.71 C 314.473 1247.11 305.014 1247.11 296.987 1246.9 C 295.43 1239.94 293.745 1235.15 291.395 1228.39 C 302.377 1219.07 324.202 1204.7 337.76 1200.03 z"/>
<path transform="translate(0,0)" fill="rgb(7,69,132)" d="M 531.049 1087.16 C 549.266 1085.69 557.782 1093.82 568.757 1106.12 C 581.648 1101.74 589.522 1098.48 603.343 1103.2 C 616.605 1107.72 624.906 1121.63 619.783 1135.18 C 647.373 1142.2 667.752 1164.55 646.009 1190.7 C 664.952 1208.48 666.937 1231.98 641.33 1246.09 C 634.05 1250.1 624.637 1247.76 616.488 1250.57 C 621.522 1270.23 606.475 1295.06 584.729 1294.6 C 576.816 1294.44 571.244 1294.11 565.746 1288.08 C 561.763 1288.15 560.849 1293.23 558.45 1296.62 C 555.559 1300.7 552.482 1302.55 548.502 1305.34 C 546.213 1339.35 549.305 1370.34 545.877 1406.86 C 560.852 1365.22 587.857 1333.58 632.825 1323.84 C 670.561 1315.67 668.817 1334.7 660.256 1364.23 C 644.194 1408.83 595.298 1460.69 540.066 1458.28 C 530.356 1457.85 532.707 1425.02 532.724 1417.12 C 532.833 1394.22 532.716 1371.32 532.371 1348.42 C 532.095 1326.58 534.816 1314.43 524.07 1294.75 C 508.813 1287.92 504.019 1281.45 495.735 1267.69 C 491.741 1269.93 488.075 1271.93 483.732 1273.49 C 474.338 1276.9 463.97 1276.41 454.935 1272.14 C 433.492 1261.79 435.924 1242.8 444.926 1224.91 C 413.275 1216.85 419.401 1181.65 445.161 1167.55 C 437.763 1155.76 438.455 1139.81 444.541 1127.62 C 449.337 1117.93 457.961 1110.67 468.335 1107.61 C 480.775 1103.84 491.086 1105.98 502.131 1112.11 C 503.67 1108.72 505.478 1105.46 507.535 1102.36 C 513.898 1092.61 520.134 1089.47 531.049 1087.16 z"/>
<path transform="translate(0,0)" fill="rgb(254,222,113)" d="M 531.402 1097.14 C 552.187 1096.51 559.627 1105.67 564.768 1124.16 C 576.932 1113.61 592.26 1103.06 608.308 1118.85 C 619.573 1129.94 599.422 1141.72 598.857 1148.84 C 601.812 1150.16 612.47 1146.02 617.895 1146.35 C 647.363 1148.16 653.326 1174.56 630.832 1192.69 L 633.525 1194.44 C 660.588 1212.25 651.723 1241.17 619.571 1239.99 C 616.617 1239.88 608.151 1230.48 602.949 1231.06 L 601.543 1232.9 C 601.278 1237.27 604.661 1245.03 605.933 1249.67 C 611.357 1269.45 602.571 1280.47 583.621 1285.49 C 556.141 1278.77 572.707 1273.14 562.716 1257.24 L 561.007 1256.92 C 558.897 1259.27 555.285 1269.7 552.503 1274.65 L 551.842 1275.8 C 532.036 1296.95 502.131 1277.59 506.063 1251.55 C 506.607 1247.95 508.359 1242.12 507.15 1238.91 L 505.284 1238.08 C 500.754 1241.43 496.591 1252.69 490.071 1258.53 C 479.117 1268.33 460.702 1269.77 451.148 1256.77 C 448.256 1252.77 447.02 1247.8 447.697 1242.91 C 449.722 1229.22 464.817 1220.4 475.077 1212.74 C 462.888 1213.07 423.642 1222.62 435.091 1190.4 C 438.813 1179.93 450.872 1175.9 460.823 1172.64 C 448.488 1159.51 445.637 1143.45 456.484 1127.94 C 460.924 1121.5 467.875 1117.22 475.632 1116.15 C 490.446 1113.98 499.348 1122 510.643 1130.01 C 512.325 1113.71 513.267 1102.54 531.402 1097.14 z"/>
<path transform="translate(0,0)" fill="rgb(249,250,251)" d="M 641.178 1333.23 C 645.431 1332.64 646.192 1332.35 650.314 1333.08 C 660.633 1341.38 646.007 1371.17 640.753 1380.67 C 619.972 1418.27 593.362 1436.66 552.641 1448.2 C 580.824 1406.08 597.446 1381.54 638.376 1348.1 C 640.486 1345.78 640.136 1347.07 640.15 1344.37 C 638.408 1343.94 638.328 1343.71 636.447 1344.57 C 600.12 1361.2 562.014 1413.87 546.136 1448.62 C 554.192 1390.91 581.79 1345.86 641.178 1333.23 z"/>
<path transform="translate(0,0)" fill="rgb(7,69,132)" d="M 454.429 1302.32 C 503.907 1292.73 537.334 1348.18 524.423 1391.64 C 516.433 1418.55 505.552 1431.21 481.789 1445.83 C 482.554 1486.38 483.19 1527.2 482.295 1567.74 C 481.987 1581.68 489.391 1616.11 478.857 1624.61 C 474.971 1625.31 476.893 1625.4 472.913 1623.95 C 470.562 1621.62 468.555 1618.39 468.334 1615.15 C 467.195 1598.44 467.118 1579.54 466.509 1562.87 C 452.781 1560.2 427.935 1552.19 416.051 1545.5 C 406.029 1539.23 397.507 1530.84 391.087 1520.91 C 381.739 1506.76 375.328 1485.07 378.046 1468.25 C 380.043 1455.89 389.98 1455.84 399.563 1458.21 C 430.955 1465.95 448.533 1491.78 464.135 1517.92 C 463.933 1498.37 465.27 1471.56 463.43 1452.72 C 435.707 1441.59 409.754 1413.94 405.147 1383.53 C 399.952 1349.24 416.572 1308 454.429 1302.32 z"/>
<path transform="translate(0,0)" fill="rgb(77,145,211)" d="M 462.772 1312.42 C 487.085 1313.03 504.056 1325.25 512.672 1347.86 C 519.271 1365.29 518.489 1384.65 510.506 1401.49 C 501.754 1420.25 489.697 1429.3 470.814 1436.11 C 470.684 1416.01 469.702 1394.91 469.29 1374.74 C 468.971 1359.14 468.661 1335.34 465.914 1320.48 C 464.569 1320.23 463.317 1320.11 461.96 1319.95 C 459.852 1323.28 462.015 1422.54 461.817 1436.69 C 454.672 1433.35 448.291 1430.47 441.977 1425.67 C 427.204 1414.56 417.461 1398.03 414.901 1379.72 C 410.631 1346.85 427.158 1316.05 462.772 1312.42 z"/>
<path transform="translate(0,0)" fill="rgb(77,145,211)" d="M 450.685 1547.16 C 420.613 1539.77 398.671 1525.44 390.463 1493.79 C 388.594 1486.58 386.727 1477.78 390.73 1471.01 C 393.408 1468.99 394.508 1469.29 397.866 1469.21 C 395.678 1470.82 395.809 1470.05 395.311 1471.88 C 395.567 1474.31 397.62 1478.22 399.296 1479.91 C 418.537 1499.27 440.793 1520.97 450.685 1547.16 z"/>
<path transform="translate(0,0)" fill="rgb(77,145,211)" d="M 397.866 1469.21 C 411.9 1474.53 420.539 1478.83 431.199 1489.8 C 446.618 1505.66 461.103 1532.29 463.581 1554.31 C 460.125 1546.95 452.965 1530.31 449.095 1524.08 C 438.201 1506.53 414.967 1479.21 395.311 1471.88 C 395.809 1470.05 395.678 1470.82 397.866 1469.21 z"/>
<path transform="translate(0,0)" fill="rgb(7,69,132)" d="M 576.851 1471.32 C 577.685 1471.2 578.522 1471.1 579.36 1471.01 C 593.772 1469.56 599.277 1480.71 599.321 1493.5 C 599.391 1513.9 591.212 1535.09 576.929 1549.74 C 559.583 1567.53 532.082 1577.71 507.5 1578.11 C 501.168 1578.3 494.305 1579.22 488.557 1577.41 C 477.132 1567.82 497.624 1526.61 505.313 1516.7 C 525.04 1491.28 544.911 1476.4 576.851 1471.32 z"/>
<path transform="translate(0,0)" fill="rgb(77,145,211)" d="M 584.968 1486.7 L 586.045 1487.33 C 587.224 1489.98 586.958 1490.77 587.063 1493.55 C 588.95 1543.63 548.512 1566.6 503.015 1567.17 L 501.829 1566.4 L 501.504 1564.68 C 517.519 1546.73 532.692 1528.21 551.061 1512.57 C 561.339 1503.81 574.136 1496.65 583.948 1487.65 L 584.968 1486.7 z"/>
<path transform="translate(0,0)" fill="rgb(249,250,251)" d="M 573.837 1483.29 C 576.565 1482.91 576.748 1482.63 579.291 1483.48 C 575.304 1487.98 558.849 1496.34 552.867 1500.89 C 533.236 1515.81 515.995 1534.06 501.848 1554.14 C 500.514 1556.16 501.146 1555.47 498.981 1556.75 C 498.258 1549.69 507.881 1532.21 512.024 1526.16 C 527.864 1503.04 546.173 1488.6 573.837 1483.29 z"/>
<path transform="translate(0,0)" fill="rgb(7,69,132)" d="M 1155.96 372.324 C 1167.72 376.642 1168.63 401.862 1178.45 412.216 C 1186.74 420.948 1199.81 424.535 1209.11 431.847 C 1207.77 437.454 1183.49 445.146 1176.15 452.816 C 1166.34 463.054 1166.54 491.122 1156.12 495.728 C 1144.99 485.397 1148.24 466.409 1134.31 452.137 C 1124.7 442.291 1108.02 440.884 1102.42 432.751 C 1104.24 426.626 1126.11 420.414 1133.51 413.467 C 1146.45 401.322 1146.95 382.776 1155.96 372.324 z"/>
<path transform="translate(0,0)" fill="rgb(254,222,113)" d="M 1156.48 393.473 C 1158.72 395.031 1159.67 397.655 1160.94 400.165 C 1170.15 418.327 1172.19 423.366 1191.43 431.316 C 1168.81 441.978 1165.17 446.405 1156.44 470.439 L 1155.33 470.415 L 1155.07 469.352 C 1149.69 448.747 1140.23 442 1122.67 431.767 C 1142.77 422.201 1148.8 413.715 1156.48 393.473 z"/>
<path transform="translate(0,0)" fill="rgb(7,69,132)" d="M 1230.02 495.593 C 1230.35 495.601 1233.72 495.677 1234.06 495.88 C 1242.54 500.983 1244.88 521.515 1252.48 530.395 C 1260.44 539.702 1279.03 543.035 1282.75 549.352 C 1278.84 557.282 1259.34 558.958 1252.32 568.153 C 1242.25 581.334 1240.49 594.843 1234.72 609.889 C 1225.52 607.576 1221.88 580.409 1215.08 570.69 C 1206.31 558.157 1187.71 558.123 1182.17 550.237 C 1184.6 545.477 1197.96 542.323 1203.34 539.586 C 1220.83 530.686 1223.89 511.655 1230.02 495.593 z"/>
<path transform="translate(0,0)" fill="rgb(254,222,113)" d="M 1233.82 516.657 C 1234.92 517.718 1236.76 522.086 1237.61 523.839 C 1244.19 537.486 1249.46 543.334 1263.64 549.183 C 1246.4 556.94 1240.56 564.652 1233.77 581.688 L 1232.86 582.623 C 1222.2 565.89 1226.08 562.448 1205.08 550.371 C 1223 539.852 1225.62 535.881 1233.82 516.657 z"/>
<path transform="translate(0,0)" fill="rgb(7,69,132)" d="M 1253.66 1087.63 C 1255.56 1088.18 1259 1088.92 1259.71 1091.11 C 1262.14 1098.57 1265.97 1125.46 1265.04 1132.47 C 1264.53 1136.31 1247.26 1146.69 1244.08 1148.81 C 1240.3 1157.2 1238.14 1164.49 1230.94 1170.06 C 1221.28 1171.99 1220.68 1157.94 1219.34 1150.85 C 1217.12 1147.08 1216.17 1145.02 1212.73 1144.02 L 1213.07 1144.41 C 1210.37 1144.44 1206.93 1145.83 1204.17 1146.61 C 1188.11 1140.38 1209.48 1119.73 1211.75 1111.29 C 1212.57 1105.77 1210.51 1094.28 1217.66 1091.32 C 1236.8 1083.41 1231.73 1102.88 1253.66 1087.63 z"/>
<path transform="translate(0,0)" fill="rgb(254,222,113)" d="M 1222.47 1097.44 C 1227.18 1098.99 1234.93 1103.23 1239.59 1105.62 C 1246.16 1103.31 1248.26 1102.18 1254.27 1098.87 C 1252.65 1106.55 1251.82 1110.47 1251.37 1118.25 C 1253.76 1121.71 1254.83 1122.78 1255.88 1126.75 C 1254.35 1133.98 1247.62 1134.96 1239.61 1140.79 C 1235.62 1146 1234.39 1148.87 1231.51 1154.76 C 1224.91 1140.18 1224.37 1133.66 1207.34 1133.67 C 1219.23 1118.37 1219.35 1116.76 1222.47 1097.44 z"/>
<path transform="translate(0,0)" fill="rgb(7,69,132)" d="M 1075.34 503.388 C 1087.23 505.411 1086.9 524.599 1095.52 532.688 C 1101.62 538.412 1114.58 543.916 1119.61 550.145 C 1116.53 553.328 1102.9 558.573 1098.4 561.641 C 1086.1 570.013 1084.75 589.993 1077.21 603.66 C 1070.26 600.714 1065.03 572.722 1059.03 566.432 C 1053.81 560.963 1038.11 555.357 1033.38 549.537 C 1036.24 542.953 1049.37 541.726 1056.1 534.97 C 1066.21 524.824 1067.14 514.137 1075.34 503.388 z"/>
<path transform="translate(0,0)" fill="rgb(254,222,113)" d="M 1076.36 514.639 C 1081.79 532.157 1088.77 540.032 1104.28 548.342 C 1087.54 556.13 1082.76 562.049 1076.06 578.717 L 1075.89 578.964 L 1074.98 578.668 C 1068.52 561.977 1065.03 558.756 1050.75 550.667 L 1050.68 549.69 C 1068.29 540.396 1070.45 533.251 1076.36 514.639 z"/>
<path transform="translate(0,0)" fill="rgb(90,93,97)" fill-opacity="0.0117647" d="M 1699.32 1508.83 C 1714.43 1524.87 1727.14 1531.05 1749.46 1524.85 L 1747.72 1528.83 L 1748.68 1529.95 C 1751.61 1528.91 1753.83 1527.7 1755.98 1525.37 C 1761.3 1536.74 1771.24 1544.36 1781.06 1551.58 C 1777.17 1551.37 1776.98 1551.68 1773.39 1552.94 L 1771.07 1552.41 L 1770.7 1549.41 C 1767.59 1548.7 1767.69 1549.29 1765.82 1547.62 L 1764.1 1549.41 L 1764.97 1551.51 L 1763.99 1552.96 L 1761.49 1552.88 C 1760.5 1549.93 1758.72 1533.36 1758.16 1532.49 C 1752.71 1533.4 1753.43 1539.51 1747.62 1536.63 L 1746.4 1533.23 C 1741.28 1533.52 1738.13 1536.06 1731.75 1536.68 C 1728.86 1533.29 1728.41 1531.22 1725.07 1530.14 C 1722.03 1531.55 1723.05 1530.46 1721.28 1532.91 C 1731.17 1534.44 1726.97 1543.8 1729.56 1551.22 L 1728.69 1553.07 C 1720.16 1534.66 1712.22 1525.9 1698.19 1511.74 L 1699.32 1508.83 z"/>
<path transform="translate(0,0)" fill="rgb(190,199,203)" fill-opacity="0.741176" d="M 1476.41 1309.17 C 1479.94 1307.74 1481.54 1306.71 1485.34 1307.08 C 1494.71 1311.78 1496.07 1320.7 1500.19 1329.76 C 1486.04 1328.05 1479.42 1330.87 1469.7 1330.41 C 1464.89 1327.43 1459.54 1323.77 1459.07 1317.78 C 1462.84 1311.76 1469.25 1312.2 1475.57 1309.53 L 1476.41 1309.17 z"/>
<path transform="translate(0,0)" fill="url(#Gradient1)" d="M 1815.93 1282.39 L 1820.38 1281.4 C 1822.45 1282.87 1823.06 1284.41 1824.33 1286.6 C 1825.22 1287 1827.55 1288.1 1828.53 1288.4 C 1821.44 1296.39 1817.17 1304.15 1810.7 1312.45 C 1809.99 1313.35 1807.21 1313.75 1805.98 1313.96 C 1804.11 1312.99 1804.98 1313.53 1803.36 1312.37 L 1804.1 1312.16 C 1809.14 1308.02 1809.49 1294.58 1805.51 1289.35 C 1808.5 1287.59 1812.92 1284.41 1815.93 1282.39 z"/>
<path transform="translate(0,0)" fill="rgb(190,199,203)" fill-opacity="0.494118" d="M 1785.04 1294.11 C 1790.3 1295.09 1794.84 1293.82 1799.77 1292.21 C 1803.6 1297.93 1801.37 1303.84 1797.96 1309.22 C 1791.47 1312.04 1787.31 1315.32 1782.5 1308.38 C 1781.61 1303.35 1782.73 1298.6 1785.04 1294.11 z"/>
<path transform="translate(0,0)" fill="rgb(190,199,203)" fill-opacity="0.380392" d="M 1799.77 1292.21 L 1805.51 1289.35 C 1809.49 1294.58 1809.14 1308.02 1804.1 1312.16 L 1803.36 1312.37 C 1804.98 1313.53 1804.11 1312.99 1805.98 1313.96 C 1795.62 1314.22 1790.94 1316.68 1781.42 1320.54 C 1781.65 1313.32 1779.12 1299.19 1781.14 1294.84 L 1785.04 1294.11 C 1782.73 1298.6 1781.61 1303.35 1782.5 1308.38 C 1787.31 1315.32 1791.47 1312.04 1797.96 1309.22 C 1801.37 1303.84 1803.6 1297.93 1799.77 1292.21 z"/>
<path transform="translate(0,0)" fill="rgb(36,86,142)" fill-opacity="0.160784" d="M 274.158 1469.65 C 275.93 1477.84 273.956 1493.86 275.712 1497.63 L 276.739 1497.82 C 276.444 1502.76 276.053 1507.7 275.565 1512.62 L 274.19 1513.76 L 275.371 1513.6 L 274.894 1515.17 L 274.251 1513.79 L 275.44 1513.44 L 274.158 1512.8 C 273.394 1500.6 274.042 1482.1 274.158 1469.65 z"/>
<path transform="translate(0,0)" fill="rgb(36,86,142)" fill-opacity="0.0117647" d="M 256.122 1497.9 C 257.314 1507.51 256.685 1519.64 256.032 1529.39 L 255.303 1529.76 C 254.637 1523.79 254.308 1514.76 253.983 1508.68 C 255.671 1505.92 255.759 1501.29 256.122 1497.9 z"/>
</svg>