<svg version="1.1" xmlns="http://www.w3.org/2000/svg" style="display: block;" viewBox="0 0 2048 2048" width="1024" height="1024" preserveAspectRatio="none">
<defs>
	<linearGradient id="Gradient1" gradientUnits="userSpaceOnUse" x1="1407.71" y1="1427.52" x2="1388.91" y2="968.426">
		<stop class="stop0" offset="0" stop-opacity="1" stop-color="rgb(193,96,36)"/>
		<stop class="stop1" offset="1" stop-opacity="1" stop-color="rgb(225,120,42)"/>
	</linearGradient>
	<linearGradient id="Gradient2" gradientUnits="userSpaceOnUse" x1="563.876" y1="1265.89" x2="516.493" y2="1285.91">
		<stop class="stop0" offset="0" stop-opacity="1" stop-color="rgb(7,7,6)"/>
		<stop class="stop1" offset="1" stop-opacity="1" stop-color="rgb(41,41,42)"/>
	</linearGradient>
	<linearGradient id="Gradient3" gradientUnits="userSpaceOnUse" x1="841.402" y1="1263.56" x2="889.113" y2="1284.78">
		<stop class="stop0" offset="0" stop-opacity="1" stop-color="rgb(9,9,10)"/>
		<stop class="stop1" offset="1" stop-opacity="1" stop-color="rgb(42,43,42)"/>
	</linearGradient>
</defs>
<path transform="translate(0,0)" fill="rgb(144,144,143)" d="M 774.208 569.912 C 811.027 524.144 869.921 483.656 930.898 486.206 C 941.532 492.282 947.273 500.883 949.996 512.8 C 961.582 563.52 956.761 623.228 947.555 673.64 C 957.783 697.113 976.94 748.157 978.51 773.324 C 980.005 780.303 981.395 794.707 983.037 800.057 C 990.915 800.007 1008.92 798.229 1013.62 802.666 C 1015.15 814.543 985.916 813.4 982.252 821.007 C 981.222 830.173 978.89 845.66 975.665 854.357 C 983.697 856.5 1018.52 865.647 1021.61 871.935 C 1017.88 882.296 979.285 869.7 970.749 868.387 C 967.204 876.861 958.521 895.098 952.998 902.299 C 940.174 921.18 924.609 938.046 906.816 952.341 C 902.281 955.939 887.942 965.95 885.044 968.637 C 895.518 995.981 905.864 1025.42 917.334 1052.11 C 921.363 1063.5 927.448 1074.08 931.235 1085.06 C 938.003 1099.67 945.203 1116.01 952.461 1130.27 C 958.012 1142.49 971.279 1173.81 977.474 1184.21 C 1003.52 1241.01 1020.11 1284.28 996.638 1346.65 C 990.659 1362.53 974.579 1397.37 964.417 1409.97 C 951.946 1424.75 936.525 1427.5 918.334 1431.15 C 911.416 1432.49 905.761 1432.48 898.737 1432.69 C 892.372 1433.66 881.721 1433.59 875.431 1432.16 C 871.998 1442.95 870.183 1449.44 860.237 1455.8 C 849.872 1464.73 837.333 1467.54 824.149 1469.14 C 818.378 1469.05 812.724 1469.99 807.005 1470.77 C 793.023 1472.15 783.332 1471.84 769.199 1470.05 C 762.803 1469.96 756.467 1468.77 750.189 1467.66 C 738.223 1465.7 730.043 1463.21 719.873 1456.84 C 713.417 1451.95 707.822 1443.55 702.027 1436.97 C 701.097 1439.29 700.469 1441.15 699.22 1443.32 C 688.25 1455.07 674.392 1459.67 658.62 1461.41 C 653.496 1461.76 648.374 1462.15 643.256 1462.58 C 632.189 1464.07 612.371 1465.16 600.99 1463.6 L 597.23 1462.47 C 592.223 1462.32 587.219 1462.06 582.224 1461.68 C 568.655 1458.78 561.293 1456.22 548.573 1450.57 C 546.474 1449.4 545.575 1448.42 543.782 1446.82 C 537.725 1440.15 536.584 1436.95 532.976 1428.85 C 520.037 1431.1 504.773 1431.87 491.747 1430.17 C 486.16 1430.1 479.502 1428.85 473.885 1428 C 460.495 1427.02 447.679 1422.17 436.985 1414.05 C 434.058 1411.21 432.017 1407.63 429.771 1404.18 C 422.826 1395.15 413.001 1374.47 409.122 1364.11 C 396.807 1334.29 390.817 1284.68 394.727 1252.21 C 399.136 1226.7 406.121 1205.42 413.938 1180.91 C 419.932 1163.29 428.24 1143.83 435.885 1126.87 C 443.553 1109.4 452.929 1090.9 461.366 1073.69 C 464.428 1067.92 467.976 1058.61 471.138 1052.02 C 482.043 1026.57 492.583 1000.97 502.753 975.224 C 469.368 953.004 456.974 946.793 431.204 913.271 C 422.467 897.955 419.173 890.122 413.217 873.897 C 400.496 880.437 386.222 882.402 372.615 886.552 C 366.47 888.426 357.943 889.096 352.147 885.817 L 351.854 883.944 C 358.748 872.822 398.815 866.483 410.007 857.688 C 407.839 850.17 406.815 838.441 404.685 829.375 C 393.052 823.401 351.197 827.187 350.568 816.65 C 358.098 807.77 392.623 808.772 403.815 812.47 L 403.891 800.649 C 404.569 794.802 405.184 788.949 405.738 783.089 C 406.889 771.189 412.308 743.903 416.977 732.401 C 427.359 706.985 422.83 685.951 415.878 659.335 C 409.014 633.057 398.613 518.105 424.04 504.158 C 464.349 482.049 570.353 540.132 591.526 578.556 C 597.746 575.578 610.004 573.974 617.172 572.765 C 629.658 571.023 646.107 568.195 658.315 567.634 C 676.074 563.854 699.336 565.711 717.644 565.797 C 726.634 565.915 752.28 566.521 759.986 569.127 C 765.856 569.837 768.365 569.959 774.208 569.912 z"/>
<path transform="translate(0,0)" fill="rgb(144,144,143)" d="M 774.208 569.912 C 811.027 524.144 869.921 483.656 930.898 486.206 C 941.532 492.282 947.273 500.883 949.996 512.8 C 961.582 563.52 956.761 623.228 947.555 673.64 C 957.783 697.113 976.94 748.157 978.51 773.324 C 980.005 780.303 981.395 794.707 983.037 800.057 C 990.915 800.007 1008.92 798.229 1013.62 802.666 C 1015.15 814.543 985.916 813.4 982.252 821.007 C 981.222 830.173 978.89 845.66 975.665 854.357 C 983.697 856.5 1018.52 865.647 1021.61 871.935 C 1017.88 882.296 979.285 869.7 970.749 868.387 C 967.204 876.861 958.521 895.098 952.998 902.299 C 949.94 900.985 948.729 901.676 944.869 900.173 C 916.639 897.181 857.414 885.113 836.943 865.429 C 833.981 864.396 834.151 863.899 831.876 861.328 C 827.289 859.815 814.588 845.151 811.275 841.327 C 803.361 833.941 791.947 815.827 785.854 806.256 C 751.117 751.683 661.993 748.007 617.376 791.654 C 602.358 806.347 592.729 822.777 580.601 839.678 C 535.107 898.17 497.721 902.671 431.204 913.271 C 422.467 897.955 419.173 890.122 413.217 873.897 C 400.496 880.437 386.222 882.402 372.615 886.552 C 366.47 888.426 357.943 889.096 352.147 885.817 L 351.854 883.944 C 358.748 872.822 398.815 866.483 410.007 857.688 C 407.839 850.17 406.815 838.441 404.685 829.375 C 393.052 823.401 351.197 827.187 350.568 816.65 C 358.098 807.77 392.623 808.772 403.815 812.47 L 403.891 800.649 C 404.569 794.802 405.184 788.949 405.738 783.089 C 406.889 771.189 412.308 743.903 416.977 732.401 C 427.359 706.985 422.83 685.951 415.878 659.335 C 409.014 633.057 398.613 518.105 424.04 504.158 C 464.349 482.049 570.353 540.132 591.526 578.556 C 597.746 575.578 610.004 573.974 617.172 572.765 C 629.658 571.023 646.107 568.195 658.315 567.634 C 676.074 563.854 699.336 565.711 717.644 565.797 C 726.634 565.915 752.28 566.521 759.986 569.127 C 765.856 569.837 768.365 569.959 774.208 569.912 z"/>
<path transform="translate(0,0)" fill="rgb(89,88,88)" d="M 658.315 567.634 C 676.074 563.854 699.336 565.711 717.644 565.797 C 722.904 600.125 724.226 639.882 711.693 672.88 C 706.125 687.54 686.592 692.612 676.566 682.292 C 656.977 662.131 657.815 618.934 657.393 592.379 C 657.302 586.633 660.037 571.294 658.315 567.634 z"/>
<path transform="translate(0,0)" fill="rgb(89,88,88)" d="M 591.526 578.556 C 597.746 575.578 610.004 573.974 617.172 572.765 C 628.627 595.518 630.631 636.362 622.771 660.029 C 612.671 690.438 592.59 659.249 588.872 643.489 C 583.923 622.514 578.153 597.242 591.526 578.556 z"/>
<path transform="translate(0,0)" fill="rgb(89,88,88)" d="M 759.986 569.127 C 765.856 569.837 768.365 569.959 774.208 569.912 C 791.948 585.823 789.927 606.185 788.058 628.105 C 787.143 638.834 786.043 656.649 777.42 664.014 C 771.559 669.019 763.888 664.958 760.653 659.026 C 747.57 636.877 749.009 606.868 752.395 582.299 C 753.35 575.372 754.502 572.714 759.986 569.127 z"/>
<path transform="translate(0,0)" fill="rgb(50,50,50)" d="M 410.007 857.688 C 419.646 852.055 480.901 836.158 479.063 857.469 C 471.639 871.7 428.092 870.611 413.217 873.897 C 400.496 880.437 386.222 882.402 372.615 886.552 C 366.47 888.426 357.943 889.096 352.147 885.817 L 351.854 883.944 C 358.748 872.822 398.815 866.483 410.007 857.688 z"/>
<path transform="translate(0,0)" fill="rgb(50,50,50)" d="M 404.685 829.375 C 393.052 823.401 351.197 827.187 350.568 816.65 C 358.098 807.77 392.623 808.772 403.815 812.47 C 417.762 812.601 461.589 812.099 467.268 825.594 C 465.33 844.412 416.293 833.274 404.685 829.375 z"/>
<path transform="translate(0,0)" fill="rgb(50,50,50)" d="M 970.749 868.387 C 959.468 862.348 924.01 863.782 915.356 851.918 C 914.66 848.125 914.505 849.942 915.939 846.278 C 925.953 837.444 965.376 846.518 975.665 854.357 C 983.697 856.5 1018.52 865.647 1021.61 871.935 C 1017.88 882.296 979.285 869.7 970.749 868.387 z"/>
<path transform="translate(0,0)" fill="rgb(50,50,50)" d="M 983.037 800.057 C 990.915 800.007 1008.92 798.229 1013.62 802.666 C 1015.15 814.543 985.916 813.4 982.252 821.007 C 970.836 830.479 930.08 833.964 919.492 824.206 C 918.153 820.45 918.05 822.204 919.506 818.755 C 928.952 811.22 962.76 809.042 975.538 805.294 C 980.825 803.743 980.428 804.358 983.037 800.057 z"/>
<path transform="translate(0,0)" fill="rgb(89,88,88)" d="M 405.738 783.089 C 412.632 778.544 419.168 776.023 427.517 776.265 C 437.564 776.555 465.368 775.599 463.591 790.615 C 458.872 797.117 447.076 799.164 439.314 800.429 C 427.59 802.352 415.638 802.426 403.891 800.649 C 404.569 794.802 405.184 788.949 405.738 783.089 z"/>
<path transform="translate(0,0)" fill="rgb(89,88,88)" d="M 978.51 773.324 C 980.005 780.303 981.395 794.707 983.037 800.057 C 971.113 796.414 929.297 806.375 926.698 787.806 C 932.168 772.329 964.724 774.22 977.581 775.21 L 978.51 773.324 z"/>
<path transform="translate(0,0)" fill="rgb(89,88,88)" d="M 836.943 865.429 L 838.752 866.22 C 847.221 870.006 856.866 877.039 866.116 880.556 C 885.224 887.819 906.929 891.189 926.918 895.459 C 929.772 896.068 944.255 898.196 945.055 899.937 L 944.869 900.173 C 916.639 897.181 857.414 885.113 836.943 865.429 z"/>
<path transform="translate(0,0)" fill="rgb(89,88,88)" d="M 811.275 841.327 C 816.42 843.894 826.948 855.311 831.578 859.957 L 831.876 861.328 C 827.289 859.815 814.588 845.151 811.275 841.327 z"/>
<path transform="translate(0,0)" fill="rgb(254,139,132)" d="M 464.079 547.082 L 462.679 546.637 C 466.589 544.513 481.643 554.41 484.243 557.988 L 483.757 559.264 C 489.241 564.731 498.506 571.611 504.735 577.676 C 515.416 588.075 520.7 595.544 528.995 607.673 C 515.13 618.592 501.212 628.549 488.185 640.53 C 477.701 650.171 467.846 660.456 457.907 670.654 C 447.591 640.099 445.573 596.856 453.873 565.651 C 455.527 559.434 458.393 550.403 464.079 547.082 z"/>
<path transform="translate(0,0)" fill="rgb(120,119,119)" d="M 464.079 547.082 L 462.679 546.637 C 466.589 544.513 481.643 554.41 484.243 557.988 L 483.757 559.264 C 478.798 556.793 472.054 550.987 464.079 547.082 z"/>
<path transform="translate(0,0)" fill="rgb(254,139,132)" d="M 891.175 529.714 L 893.663 530.688 C 915.656 556.24 917.339 619.833 916.576 653.129 C 907.791 644.346 900.865 635.701 891.225 627.495 C 876.669 613.878 846.682 597.194 838.781 585.233 C 848.876 574.201 881.661 536.186 891.175 529.714 z"/>
<path transform="translate(0,0)" fill="rgb(22,22,22)" d="M 550.689 742.608 C 571.784 738.261 592.412 751.825 596.78 772.915 C 601.148 794.006 587.603 814.647 566.517 819.035 C 545.402 823.428 524.727 809.861 520.353 788.743 C 515.98 767.624 529.566 746.962 550.689 742.608 z"/>
<path transform="translate(0,0)" fill="rgb(22,22,22)" d="M 815.811 742.682 C 836.805 738.452 857.229 752.126 861.316 773.149 C 865.403 794.171 851.591 814.502 830.541 818.446 C 809.692 822.353 789.599 808.701 785.551 787.879 C 781.502 767.058 795.017 746.872 815.811 742.682 z"/>
<path transform="translate(0,0)" fill="rgb(254,249,232)" d="M 431.204 913.271 C 497.721 902.671 535.107 898.17 580.601 839.678 C 592.729 822.777 602.358 806.347 617.376 791.654 C 661.993 748.007 751.117 751.683 785.854 806.256 C 791.947 815.827 803.361 833.941 811.275 841.327 C 814.588 845.151 827.289 859.815 831.876 861.328 C 834.151 863.899 833.981 864.396 836.943 865.429 C 857.414 885.113 916.639 897.181 944.869 900.173 C 948.729 901.676 949.94 900.985 952.998 902.299 C 940.174 921.18 924.609 938.046 906.816 952.341 C 902.281 955.939 887.942 965.95 885.044 968.637 C 857.638 986.238 839.399 993.549 808.261 1002.28 C 815.58 1044.84 808 1093.01 784.321 1130.37 C 781.334 1135.08 771.795 1145.89 770.045 1149.74 C 766.491 1153.09 762.909 1156.42 759.3 1159.71 C 721.338 1186.01 693.979 1194.51 652.035 1170.33 C 589.109 1134.07 576.98 1068.88 586.663 1002.2 C 561.175 1000.73 526.143 985.178 502.753 975.224 C 469.368 953.004 456.974 946.793 431.204 913.271 z"/>
<path transform="translate(0,0)" fill="rgb(22,22,22)" d="M 691.892 827.216 L 700.069 827.069 C 700.53 840.667 701.724 852.477 712.319 862.055 C 726.903 875.238 746.236 870.043 757.869 855.943 C 761.574 851.452 764.711 842.712 768.731 840.422 C 772.682 840.083 771.009 839.563 774.02 841.679 C 781.932 858.921 733.85 906.816 695.731 860.198 C 677.623 883.154 652.307 888.134 627.692 869.53 C 621.029 864.494 617.479 857.253 616.649 848.977 C 618.239 845.603 617.021 846.846 620.572 845.264 C 629.549 846.942 632.27 864.813 652.416 869.25 C 660.727 871.082 669.426 869.307 676.355 864.366 C 689.557 855.05 692.285 842.352 691.892 827.216 z"/>
<path transform="translate(0,0)" fill="rgb(241,28,31)" d="M 691.892 827.216 C 680.413 825.179 675.441 814.58 678.914 803.941 C 686.547 780.562 722.015 799.43 712.674 818.783 C 710.729 822.814 704.253 826.056 700.069 827.069 L 691.892 827.216 z"/>
<path transform="translate(0,0)" fill="rgb(254,249,232)" d="M 717.684 1387.99 C 727.106 1374.65 733.458 1367.56 749.906 1362.04 C 771.544 1354.79 819.651 1352.6 840.007 1362.81 L 841.495 1367.54 C 847.111 1368.83 851.022 1368.81 856.171 1371.37 C 857.296 1374.39 858.388 1377.05 861.358 1378.78 C 871.243 1395.18 873.448 1413.64 875.431 1432.16 C 871.998 1442.95 870.183 1449.44 860.237 1455.8 C 849.872 1464.73 837.333 1467.54 824.149 1469.14 C 818.378 1469.05 812.724 1469.99 807.005 1470.77 C 793.023 1472.15 783.332 1471.84 769.199 1470.05 C 762.803 1469.96 756.467 1468.77 750.189 1467.66 C 738.223 1465.7 730.043 1463.21 719.873 1456.84 C 713.417 1451.95 707.822 1443.55 702.027 1436.97 C 702.649 1431.61 703.411 1427.72 702.687 1422.36 C 703.489 1418.44 708.27 1411.57 710.599 1407.06 L 710.637 1405.57 L 713.604 1403.84 C 714.497 1399.37 716.484 1392.58 717.684 1387.99 z"/>
<path transform="translate(0,0)" fill="rgb(144,144,143)" d="M 841.495 1367.54 C 847.111 1368.83 851.022 1368.81 856.171 1371.37 C 857.296 1374.39 858.388 1377.05 861.358 1378.78 C 871.243 1395.18 873.448 1413.64 875.431 1432.16 C 871.998 1442.95 870.183 1449.44 860.237 1455.8 C 868.209 1436 862.571 1407.89 852.806 1389.47 C 849.266 1382.79 843.248 1374.62 841.495 1367.54 z"/>
<path transform="translate(0,0)" fill="rgb(144,144,143)" d="M 807.005 1470.77 C 807.737 1467.58 808.271 1457.94 808.576 1454.1 C 809.76 1439.2 810.548 1429.69 815.307 1415.64 L 815.618 1416.58 L 816.116 1418.15 C 821.586 1435.07 823.056 1451.57 824.149 1469.14 C 818.378 1469.05 812.724 1469.99 807.005 1470.77 z"/>
<path transform="translate(0,0)" fill="rgb(144,144,143)" d="M 752.415 1465.76 C 754.958 1461.57 757.068 1432.87 761.063 1421.18 C 762.786 1428.43 767.687 1467.11 768.921 1468.76 L 769.199 1470.05 C 762.803 1469.96 756.467 1468.77 750.189 1467.66 L 752.415 1465.76 z"/>
<path transform="translate(0,0)" fill="rgb(120,119,119)" d="M 710.599 1407.06 C 713.867 1414.32 709.855 1441.75 713.943 1444.36 C 715.898 1448.83 717.484 1452.54 719.873 1456.84 C 713.417 1451.95 707.822 1443.55 702.027 1436.97 C 702.649 1431.61 703.411 1427.72 702.687 1422.36 C 703.489 1418.44 708.27 1411.57 710.599 1407.06 z"/>
<path transform="translate(0,0)" fill="rgb(89,88,88)" d="M 760.134 1416.25 C 766.2 1432.12 769.88 1451.78 768.921 1468.76 C 767.687 1467.11 762.786 1428.43 761.063 1421.18 C 757.068 1432.87 754.958 1461.57 752.415 1465.76 C 752.48 1450.41 756.597 1430.99 760.134 1416.25 z"/>
<path transform="translate(0,0)" fill="rgb(50,50,50)" d="M 710.599 1407.06 L 710.637 1405.57 L 713.604 1403.84 C 714.285 1416.96 713.99 1431.13 713.943 1444.36 C 709.855 1441.75 713.867 1414.32 710.599 1407.06 z"/>
<path transform="translate(0,0)" fill="rgb(254,249,232)" d="M 564.16 1366.87 C 591.262 1354.99 639.766 1351.67 668.655 1360.75 C 681.103 1364.66 689.842 1374.07 696.452 1385.07 L 698.099 1391.57 C 705.043 1401.07 700.452 1412.4 702.687 1422.36 C 703.411 1427.72 702.649 1431.61 702.027 1436.97 C 701.097 1439.29 700.469 1441.15 699.22 1443.32 C 688.25 1455.07 674.392 1459.67 658.62 1461.41 C 653.496 1461.76 648.374 1462.15 643.256 1462.58 C 632.189 1464.07 612.371 1465.16 600.99 1463.6 L 597.23 1462.47 C 592.223 1462.32 587.219 1462.06 582.224 1461.68 C 568.655 1458.78 561.293 1456.22 548.573 1450.57 C 546.474 1449.4 545.575 1448.42 543.782 1446.82 C 537.725 1440.15 536.584 1436.95 532.976 1428.85 C 532.238 1419.98 538.391 1391.51 544.451 1384.88 C 551.974 1377.76 547.592 1370.17 562.233 1371.04 L 564.16 1366.87 z"/>
<path transform="translate(0,0)" fill="rgb(144,144,143)" d="M 562.233 1371.04 C 563.014 1374.57 556.778 1387.42 554.825 1390.76 L 553.34 1390.94 C 544.21 1406.89 542.393 1428.78 543.782 1446.82 C 537.725 1440.15 536.584 1436.95 532.976 1428.85 C 532.238 1419.98 538.391 1391.51 544.451 1384.88 C 551.974 1377.76 547.592 1370.17 562.233 1371.04 z"/>
<path transform="translate(0,0)" fill="rgb(144,144,143)" d="M 643.256 1462.58 C 644.506 1440.53 645.089 1430.06 649.292 1408.36 C 651.266 1413.05 652.134 1415.83 653.529 1420.74 C 656.568 1430.74 657.642 1438.17 658.206 1448.67 C 659.002 1454.16 658.935 1455.84 658.62 1461.41 C 653.496 1461.76 648.374 1462.15 643.256 1462.58 z"/>
<path transform="translate(0,0)" fill="rgb(120,119,119)" d="M 653.529 1420.74 C 656.568 1430.74 657.642 1438.17 658.206 1448.67 L 657.754 1455.53 L 658.337 1454.34 L 656.777 1454 C 655.953 1446.47 652.292 1425.49 653.529 1420.74 z"/>
<path transform="translate(0,0)" fill="rgb(144,144,143)" d="M 584.793 1447.34 L 585.568 1448.14 C 588.03 1437.2 587.721 1425.28 591.593 1414.42 L 592.704 1413.82 C 595.65 1419.35 601.096 1459.85 597.23 1462.47 C 592.223 1462.32 587.219 1462.06 582.224 1461.68 C 585.381 1458.36 582.838 1453.31 584.793 1447.34 z"/>
<path transform="translate(0,0)" fill="rgb(89,88,88)" d="M 584.793 1447.34 C 585.509 1433 587.158 1420.59 592.743 1407.29 C 598.254 1423.07 600.561 1446.53 600.99 1463.6 L 597.23 1462.47 C 601.096 1459.85 595.65 1419.35 592.704 1413.82 L 591.593 1414.42 C 587.721 1425.28 588.03 1437.2 585.568 1448.14 L 584.793 1447.34 z"/>
<path transform="translate(0,0)" fill="rgb(89,88,88)" d="M 543.782 1446.82 C 542.393 1428.78 544.21 1406.89 553.34 1390.94 L 554.825 1390.76 C 548.349 1407.23 540.055 1431.16 547.705 1448.69 C 547.983 1449.32 548.273 1449.95 548.573 1450.57 C 546.474 1449.4 545.575 1448.42 543.782 1446.82 z"/>
<path transform="translate(0,0)" fill="rgb(50,50,50)" d="M 698.099 1391.57 C 705.043 1401.07 700.452 1412.4 702.687 1422.36 C 703.411 1427.72 702.649 1431.61 702.027 1436.97 C 701.097 1439.29 700.469 1441.15 699.22 1443.32 C 700.591 1422.59 701.739 1412.09 698.099 1391.57 z"/>
<path transform="translate(0,0)" fill="rgb(254,249,232)" d="M 440.677 1361.47 C 446.44 1354.87 447.039 1352.27 454.297 1345.67 C 476.223 1325.74 506.205 1323.22 534.512 1324.53 C 538.492 1343.96 542.092 1352.57 552.162 1369.78 C 549.023 1375.26 546.788 1378.99 544.451 1384.88 C 538.391 1391.51 532.238 1419.98 532.976 1428.85 C 520.037 1431.1 504.773 1431.87 491.747 1430.17 C 486.16 1430.1 479.502 1428.85 473.885 1428 C 460.495 1427.02 447.679 1422.17 436.985 1414.05 C 434.058 1411.21 432.017 1407.63 429.771 1404.18 C 430.328 1394.7 432.862 1367.35 440.677 1361.47 z"/>
<path transform="translate(0,0)" fill="rgb(144,144,143)" d="M 473.885 1428 C 473.468 1404.79 474.097 1393.75 481.879 1371.14 C 489.042 1388.81 490.248 1410.99 491.747 1430.17 C 486.16 1430.1 479.502 1428.85 473.885 1428 z"/>
<path transform="translate(0,0)" fill="rgb(89,88,88)" d="M 429.771 1404.18 C 430.328 1394.7 432.862 1367.35 440.677 1361.47 C 433.903 1380.51 428.292 1394.37 436.985 1414.05 C 434.058 1411.21 432.017 1407.63 429.771 1404.18 z"/>
<path transform="translate(0,0)" fill="rgb(254,249,232)" d="M 869.664 1331.1 C 896.991 1330.75 914.393 1330 939.896 1342.42 C 964.855 1360.79 969.835 1380.86 964.417 1409.97 C 951.946 1424.75 936.525 1427.5 918.334 1431.15 C 911.416 1432.49 905.761 1432.48 898.737 1432.69 C 892.372 1433.66 881.721 1433.59 875.431 1432.16 C 873.448 1413.64 871.243 1395.18 861.358 1378.78 C 858.802 1373.54 857.091 1369.91 855.012 1364.43 C 859.189 1352.84 864.081 1344.82 867.584 1332 L 869.664 1331.1 z"/>
<path transform="translate(0,0)" fill="rgb(144,144,143)" d="M 898.737 1432.69 C 898.692 1424.75 902.361 1387 907.351 1382.21 L 909.091 1382.73 C 915.028 1391.5 917.088 1419.93 918.334 1431.15 C 911.416 1432.49 905.761 1432.48 898.737 1432.69 z"/>
<path transform="translate(0,0)" fill="rgb(89,88,88)" d="M 435.885 1126.87 C 459.751 1135.48 498.022 1153.4 491.072 1183.96 C 487.361 1200.28 423.967 1183.61 413.938 1180.91 C 419.932 1163.29 428.24 1143.83 435.885 1126.87 z"/>
<path transform="translate(0,0)" fill="rgb(22,22,22)" d="M 696.452 1385.07 C 699.972 1361.01 690.079 1215.84 701.796 1206.49 C 709.717 1215.46 715.111 1328.8 715.949 1349.38 C 716.402 1360.49 714.996 1375.4 717.684 1387.99 C 716.484 1392.58 714.497 1399.37 713.604 1403.84 L 710.637 1405.57 L 710.599 1407.06 C 708.27 1411.57 703.489 1418.44 702.687 1422.36 C 700.452 1412.4 705.043 1401.07 698.099 1391.57 L 696.452 1385.07 z"/>
<path transform="translate(0,0)" fill="rgb(89,88,88)" d="M 952.461 1130.27 C 958.012 1142.49 971.279 1173.81 977.474 1184.21 L 976.034 1184.7 C 961.976 1189.39 944.441 1192.1 930.105 1191.98 C 889.31 1191.64 906.649 1152.26 928.808 1138.93 C 938.02 1133.39 942.595 1132.6 952.461 1130.27 z"/>
<path transform="translate(0,0)" fill="url(#Gradient3)" d="M 881.082 1165.32 C 882.457 1176.25 882.063 1192.49 881.843 1203.73 C 881.234 1246.85 876.459 1289.8 867.584 1332 C 864.081 1344.82 859.189 1352.84 855.012 1364.43 C 857.091 1369.91 858.802 1373.54 861.358 1378.78 C 858.388 1377.05 857.296 1374.39 856.171 1371.37 C 851.022 1368.81 847.111 1368.83 841.495 1367.54 L 840.007 1362.81 L 842.819 1356.09 C 846.207 1346.72 848.853 1337.66 851.684 1328.13 C 855.827 1314.46 859.263 1297.93 862.292 1283.98 C 864.072 1278.77 866.629 1261.48 867.614 1255.25 C 873.314 1224.72 876.683 1195.79 881.082 1165.32 z"/>
<path transform="translate(0,0)" fill="rgb(89,88,88)" d="M 461.366 1073.69 C 464.428 1067.92 467.976 1058.61 471.138 1052.02 C 478.74 1054.23 484.637 1055.55 491.487 1058.64 C 506.791 1065.55 523.605 1095.89 515.989 1111.23 C 506.572 1130.21 477.746 1098.25 472.564 1088.45 C 470.417 1084.39 463.63 1075.93 461.366 1073.69 z"/>
<path transform="translate(0,0)" fill="rgb(89,88,88)" d="M 862.292 1283.98 C 846.419 1288.24 827.346 1288.69 811.273 1285.06 C 804.484 1283.52 790.356 1281.29 790.759 1272.49 C 792.459 1269.79 793.527 1268.48 796.217 1266.66 C 820.136 1250.52 840.775 1250.91 867.614 1255.25 C 866.629 1261.48 864.072 1278.77 862.292 1283.98 z"/>
<path transform="translate(0,0)" fill="rgb(89,88,88)" d="M 536.638 1254.13 C 556.632 1249.67 587.417 1252.59 605.569 1263.25 C 610.4 1266.09 612.686 1269.88 610.314 1275.34 C 596.467 1287.73 545.749 1286.57 542.37 1290.7 C 539.824 1280.39 538.054 1265.01 536.638 1254.13 z"/>
<path transform="translate(0,0)" fill="rgb(89,88,88)" d="M 931.235 1085.06 L 930.693 1085.74 C 922.886 1095.31 909.59 1107.07 898.184 1110.89 C 874.74 1118.75 874.815 1091.27 883.39 1077.55 C 892.924 1062.3 901.234 1056.82 917.334 1052.11 C 921.363 1063.5 927.448 1074.08 931.235 1085.06 z"/>
<path transform="translate(0,0)" fill="url(#Gradient2)" d="M 534.512 1324.53 C 529.455 1282.95 521.638 1216.89 528.335 1175.58 C 530.291 1185.93 531.132 1201.38 532.026 1212.19 C 533.137 1226.21 534.675 1240.2 536.638 1254.13 C 538.054 1265.01 539.824 1280.39 542.37 1290.7 L 549.66 1322.96 C 553.289 1337.16 556.659 1346.92 562.327 1360.45 L 564.16 1366.87 L 562.233 1371.04 C 547.592 1370.17 551.974 1377.76 544.451 1384.88 C 546.788 1378.99 549.023 1375.26 552.162 1369.78 C 542.092 1352.57 538.492 1343.96 534.512 1324.53 z"/>
<path transform="translate(0,0)" fill="rgb(89,88,88)" d="M 549.66 1322.96 C 561.16 1320.86 611.403 1315.72 616.006 1329.04 C 613.128 1341.62 574.756 1356.09 562.327 1360.45 C 556.659 1346.92 553.289 1337.16 549.66 1322.96 z"/>
<path transform="translate(0,0)" fill="rgb(89,88,88)" d="M 842.819 1356.09 C 837.866 1355.19 833.815 1352.64 829.309 1351.84 C 821.287 1350.42 789.932 1342.59 797.722 1329.4 C 809.428 1321.67 838.349 1326.06 851.684 1328.13 C 848.853 1337.66 846.207 1346.72 842.819 1356.09 z"/>
<path transform="translate(0,0)" fill="rgb(89,88,88)" d="M 869.664 1331.1 C 883.881 1326.43 931.486 1329.9 939.896 1342.42 C 914.393 1330 896.991 1330.75 869.664 1331.1 z"/>
<path transform="translate(0,0)" fill="rgb(89,88,88)" d="M 759.3 1159.71 C 762.909 1156.42 766.491 1153.09 770.045 1149.74 C 768.329 1153.94 764.017 1159.19 759.3 1159.71 z"/>
<path transform="translate(0,0)" fill="rgb(254,249,232)" d="M 1338.2 470.822 C 1363.38 467.237 1421.06 465.934 1446.04 469.565 C 1488.22 474.199 1524.46 480.396 1564.38 495.745 C 1571.6 495.716 1580.8 495.451 1587.74 496.664 C 1630.91 504.209 1665.92 535.767 1696.04 565.989 C 1731.96 602.423 1774.28 648.072 1787.16 698.74 C 1804.11 765.395 1759.76 830.607 1716.63 876.829 C 1684.14 911.656 1664.44 890.54 1642.41 860.744 C 1640.29 857.874 1635.13 850.76 1632.89 848.704 C 1622.38 871.43 1601.46 891.72 1582.54 907.567 L 1582.95 918.944 C 1582.53 937.796 1584.84 949.621 1588.94 968.037 C 1581.55 988.586 1540.38 1002.35 1521.79 1011.7 C 1500.53 1020.07 1473.32 1029.55 1450.65 1032.64 C 1447.48 1032.38 1447 1031.13 1444.48 1028.99 C 1435.6 1021.45 1428.59 1018.19 1417.83 1014.31 C 1418.22 1005.39 1419.78 985.517 1412.4 980.757 C 1390.44 966.575 1391.68 1007.78 1392.13 1015.14 C 1373.59 1020.07 1374.72 1023.97 1360.96 1032.39 C 1338.8 1030.84 1305.23 1021.77 1284.11 1015.74 C 1256.29 1007.62 1222.44 994.403 1203.19 972.285 C 1206.25 958.591 1209.65 933.189 1209.97 919.239 C 1209.81 914.696 1209.34 909.68 1209.02 905.103 C 1188.68 888.743 1174.78 874.863 1160.88 852.215 C 1156.05 862.497 1142.62 886.25 1133.72 892.177 C 1106.1 910.571 1056.52 847.874 1043.12 829.631 C 1016.25 793.058 1003.37 748.897 1010.35 704.327 C 1022.1 629.444 1148.29 481.353 1228.63 496.836 C 1268.14 481.835 1296.74 476.419 1338.2 470.822 z"/>
<path transform="translate(0,0)" fill="rgb(139,67,25)" d="M 1564.38 495.745 C 1571.6 495.716 1580.8 495.451 1587.74 496.664 C 1630.91 504.209 1665.92 535.767 1696.04 565.989 C 1731.96 602.423 1774.28 648.072 1787.16 698.74 C 1804.11 765.395 1759.76 830.607 1716.63 876.829 C 1684.14 911.656 1664.44 890.54 1642.41 860.744 C 1640.29 857.874 1635.13 850.76 1632.89 848.704 C 1630.19 845.465 1626.46 836.282 1624.84 832.141 C 1602.88 775.774 1612.72 715.499 1600.95 657.302 C 1592.59 615.965 1571.5 581.097 1559.79 541.287 C 1555.72 527.412 1556.3 508.272 1564.38 495.745 z"/>
<path transform="translate(0,0)" fill="rgb(139,67,25)" d="M 1160.88 852.215 C 1156.05 862.497 1142.62 886.25 1133.72 892.177 C 1106.1 910.571 1056.52 847.874 1043.12 829.631 C 1016.25 793.058 1003.37 748.897 1010.35 704.327 C 1022.1 629.444 1148.29 481.353 1228.63 496.836 C 1238.19 516.682 1231.35 544.139 1224.1 563.516 C 1209.03 603.789 1195.18 629.497 1186.15 672.831 C 1174.21 730.149 1191.54 802.114 1160.88 852.215 z"/>
<path transform="translate(0,0)" fill="rgb(232,127,39)" d="M 1446.04 469.565 C 1488.22 474.199 1524.46 480.396 1564.38 495.745 C 1556.3 508.272 1555.72 527.412 1559.79 541.287 C 1571.5 581.097 1592.59 615.965 1600.95 657.302 C 1612.72 715.499 1602.88 775.774 1624.84 832.141 C 1626.46 836.282 1630.19 845.465 1632.89 848.704 C 1622.38 871.43 1601.46 891.72 1582.54 907.567 C 1580.79 893.342 1582.21 886.175 1578.17 869.904 C 1565.94 820.644 1514.52 793.871 1482.56 757.556 C 1463.27 735.642 1446.13 714.941 1438.22 686.207 C 1428.89 652.284 1436.43 611.781 1438.96 577.207 C 1441.05 548.61 1444.12 519.923 1445.1 491.458 L 1446.04 469.565 z"/>
<path transform="translate(0,0)" fill="rgb(22,22,22)" d="M 1520.62 684.348 C 1540.91 681.166 1559.92 695.139 1562.93 715.463 C 1565.94 735.788 1551.81 754.673 1531.47 757.519 C 1511.35 760.331 1492.73 746.402 1489.76 726.314 C 1486.78 706.225 1500.55 687.493 1520.62 684.348 z"/>
<path transform="translate(0,0)" fill="rgb(232,127,39)" d="M 1228.63 496.836 C 1268.14 481.835 1296.74 476.419 1338.2 470.822 C 1338.93 478.088 1339.49 485.369 1339.88 492.661 C 1340.5 519.844 1343.56 548.276 1345.59 575.45 C 1348.71 617.145 1356.66 663.385 1339.96 703.114 C 1329.39 728.235 1312.82 747.006 1294.61 766.266 C 1257.32 805.682 1206.25 829.526 1208.4 891.195 C 1208.56 895.801 1208.75 900.453 1209.02 905.103 C 1188.68 888.743 1174.78 874.863 1160.88 852.215 C 1191.54 802.114 1174.21 730.149 1186.15 672.831 C 1195.18 629.497 1209.03 603.789 1224.1 563.516 C 1231.35 544.139 1238.19 516.682 1228.63 496.836 z"/>
<path transform="translate(0,0)" fill="rgb(22,22,22)" d="M 1258.66 688.433 C 1278.22 684.603 1297.19 697.356 1301.02 716.92 C 1304.86 736.485 1292.11 755.456 1272.55 759.299 C 1252.98 763.143 1234 750.389 1230.16 730.816 C 1226.32 711.242 1239.08 692.265 1258.66 688.433 z"/>
<path transform="translate(0,0)" fill="rgb(241,28,31)" d="M 1209.97 919.239 C 1231.55 928.564 1251.22 940.177 1273.94 948.496 C 1360.38 980.148 1445.8 977.246 1530.87 942.412 C 1548.99 934.993 1565.67 926.195 1582.95 918.944 C 1582.53 937.796 1584.84 949.621 1588.94 968.037 C 1581.55 988.586 1540.38 1002.35 1521.79 1011.7 C 1500.53 1020.07 1473.32 1029.55 1450.65 1032.64 C 1447.48 1032.38 1447 1031.13 1444.48 1028.99 C 1435.6 1021.45 1428.59 1018.19 1417.83 1014.31 C 1418.22 1005.39 1419.78 985.517 1412.4 980.757 C 1390.44 966.575 1391.68 1007.78 1392.13 1015.14 C 1373.59 1020.07 1374.72 1023.97 1360.96 1032.39 C 1338.8 1030.84 1305.23 1021.77 1284.11 1015.74 C 1256.29 1007.62 1222.44 994.403 1203.19 972.285 C 1206.25 958.591 1209.65 933.189 1209.97 919.239 z"/>
<path transform="translate(0,0)" fill="rgb(243,218,189)" d="M 1338.2 470.822 C 1363.38 467.237 1421.06 465.934 1446.04 469.565 L 1445.1 491.458 C 1420.39 490.475 1395.12 490.974 1370.35 491.057 C 1359.31 491.094 1351.31 493.921 1339.88 492.661 C 1339.49 485.369 1338.93 478.088 1338.2 470.822 z"/>
<path transform="translate(0,0)" fill="rgb(22,22,22)" d="M 1388.85 742.41 C 1397.33 741.71 1412.79 743.573 1421.21 745.571 C 1450.01 752.402 1436.38 790.802 1421.72 805.333 C 1413.61 813.366 1408.66 816.617 1398.47 821.967 C 1399.88 828.281 1400.96 832.651 1404.57 838.141 C 1410.32 847.036 1419.5 853.148 1429.93 855.017 C 1443.16 857.358 1458.6 851.487 1468.29 842.296 C 1474.23 836.654 1476.07 824.431 1486.04 826.548 C 1497.98 843.856 1439.88 892.01 1399.35 851.85 L 1394.38 845.261 C 1393.36 846.619 1392.31 847.961 1391.25 849.286 C 1368.81 877.021 1312.07 869.995 1306.35 830.927 C 1306.02 828.66 1307.87 827.581 1309.39 826.553 C 1320.47 827.196 1324.03 850.809 1344.68 853.524 C 1370.42 856.907 1383.97 847.382 1389.41 822.217 C 1384.65 819.709 1379.99 817.006 1375.45 814.115 C 1360.18 804.219 1336.99 774.631 1349.32 752.53 C 1352.72 746.442 1380.76 743.202 1388.85 742.41 z"/>
<path transform="translate(0,0)" fill="url(#Gradient1)" d="M 1588.94 968.037 C 1598.68 977.973 1622.4 1037 1625.83 1051.7 C 1638.97 1082.62 1648.05 1121.64 1659.63 1154.68 C 1675.98 1165.98 1697.4 1179.61 1710.93 1193.32 C 1714.48 1185.74 1719.88 1178.51 1724.33 1171.31 C 1730.81 1160.8 1734.35 1152.73 1738.12 1141.17 C 1746.4 1119.4 1751.47 1098.56 1757.24 1075.64 C 1760.25 1063.66 1770.29 1020.17 1790.37 1029.18 C 1840.22 1056.06 1855.39 1136.9 1849.42 1186.51 C 1848.16 1192.16 1847.19 1197.84 1845.9 1203.48 C 1833.44 1257.83 1803.13 1310.28 1755.41 1340.75 C 1738.17 1351.76 1720.02 1359.45 1700.26 1365.05 C 1700.04 1375.16 1700.58 1386.06 1696.14 1395.23 C 1683.06 1414.16 1674.86 1418.15 1653.03 1423.73 C 1646.51 1424.49 1639.69 1425.19 1633.23 1426.22 C 1623.35 1426.69 1610.91 1428.12 1601.23 1426.25 C 1590.6 1430.67 1595.43 1437.85 1578.96 1445.74 C 1568.41 1451.31 1553.89 1455.58 1541.94 1454.97 C 1535.15 1455.26 1527.86 1456.15 1521.24 1456.06 C 1511.09 1456.3 1490.51 1456.96 1481.11 1455.19 C 1474.06 1454.23 1466.55 1453.65 1459.25 1452.69 C 1441.46 1449.09 1426.69 1444.85 1419.68 1426.87 C 1405.15 1430.23 1370.8 1432.38 1357.46 1427.84 C 1349.93 1448.75 1330.42 1453.95 1310.33 1455.14 C 1305.22 1455.53 1294.87 1456.02 1290.21 1456.77 C 1277.52 1457.49 1260.92 1458.77 1248.62 1456.25 C 1240.91 1455.98 1234.82 1455.49 1227.14 1454.66 C 1214.39 1452.21 1207.55 1450.42 1196.17 1444.66 C 1188.27 1440.98 1180.26 1430.58 1174.23 1424.11 C 1167.15 1424.33 1156.62 1423.03 1149.16 1422.47 C 1142.19 1420.82 1138.83 1419.9 1132.16 1417.35 C 1111.44 1409.66 1094.3 1400.16 1096.09 1375.07 C 1096.46 1358.22 1083.5 1341.64 1077.71 1325.04 C 1072.34 1309.62 1071.12 1304.15 1069.31 1287.93 C 1062.07 1234.54 1093.39 1195.3 1129.95 1160.68 C 1139.7 1151.44 1152.96 1141.25 1161.47 1130.64 C 1169.65 1071.39 1182.54 1027.49 1203.19 972.285 C 1222.44 994.403 1256.29 1007.62 1284.11 1015.74 C 1305.23 1021.77 1338.8 1030.84 1360.96 1032.39 C 1374.72 1023.97 1373.59 1020.07 1392.13 1015.14 C 1391.68 1007.78 1390.44 966.575 1412.4 980.757 C 1419.78 985.517 1418.22 1005.39 1417.83 1014.31 C 1428.59 1018.19 1435.6 1021.45 1444.48 1028.99 C 1447 1031.13 1447.48 1032.38 1450.65 1032.64 C 1473.32 1029.55 1500.53 1020.07 1521.79 1011.7 C 1540.38 1002.35 1581.55 988.586 1588.94 968.037 z"/>
<path transform="translate(0,0)" fill="rgb(139,67,25)" d="M 1738.12 1141.17 C 1746.4 1119.4 1751.47 1098.56 1757.24 1075.64 C 1760.25 1063.66 1770.29 1020.17 1790.37 1029.18 C 1840.22 1056.06 1855.39 1136.9 1849.42 1186.51 C 1848.16 1192.16 1847.19 1197.84 1845.9 1203.48 C 1833.44 1257.83 1803.13 1310.28 1755.41 1340.75 C 1738.17 1351.76 1720.02 1359.45 1700.26 1365.05 C 1700.04 1375.16 1700.58 1386.06 1696.14 1395.23 C 1683.06 1414.16 1674.86 1418.15 1653.03 1423.73 C 1646.51 1424.49 1639.69 1425.19 1633.23 1426.22 C 1623.35 1426.69 1610.91 1428.12 1601.23 1426.25 C 1590.6 1430.67 1595.43 1437.85 1578.96 1445.74 C 1592.88 1423.85 1592.2 1395.26 1584.45 1371.24 C 1586.28 1358.75 1585.38 1346.18 1588.06 1332.69 C 1593.4 1305.87 1600.3 1279.54 1606.58 1252.96 C 1623.63 1180.68 1632.03 1126.11 1625.83 1051.7 C 1638.97 1082.62 1648.05 1121.64 1659.63 1154.68 C 1675.98 1165.98 1697.4 1179.61 1710.93 1193.32 C 1714.48 1185.74 1719.88 1178.51 1724.33 1171.31 C 1730.81 1160.8 1734.35 1152.73 1738.12 1141.17 z"/>
<path transform="translate(0,0)" fill="rgb(243,218,189)" d="M 1738.12 1141.17 C 1746.4 1119.4 1751.47 1098.56 1757.24 1075.64 C 1760.25 1063.66 1770.29 1020.17 1790.37 1029.18 C 1840.22 1056.06 1855.39 1136.9 1849.42 1186.51 C 1816.78 1184.03 1760.46 1165 1738.12 1141.17 z"/>
<path transform="translate(0,0)" fill="rgb(254,249,232)" d="M 1601.97 1328.82 C 1633.71 1329.48 1685.38 1336.72 1694.59 1373.21 C 1694.63 1370.84 1694.82 1369.83 1695.13 1367.45 C 1697.49 1364.74 1695.99 1365.78 1700.26 1365.05 C 1700.04 1375.16 1700.58 1386.06 1696.14 1395.23 C 1683.06 1414.16 1674.86 1418.15 1653.03 1423.73 C 1646.51 1424.49 1639.69 1425.19 1633.23 1426.22 C 1623.35 1426.69 1610.91 1428.12 1601.23 1426.25 C 1602.96 1416.32 1601.46 1388.34 1601.22 1376.73 C 1600.88 1359.67 1601.17 1346.03 1601.97 1328.82 z"/>
<path transform="translate(0,0)" fill="rgb(139,67,25)" d="M 1633.23 1426.22 C 1634.65 1414.93 1636.79 1379.48 1643.1 1372.16 L 1644.53 1372.98 C 1652.57 1388.73 1652.86 1406.37 1653.03 1423.73 C 1646.51 1424.49 1639.69 1425.19 1633.23 1426.22 z"/>
<path transform="translate(0,0)" fill="rgb(122,46,13)" d="M 1694.59 1373.21 C 1694.63 1370.84 1694.82 1369.83 1695.13 1367.45 C 1697.49 1364.74 1695.99 1365.78 1700.26 1365.05 C 1700.04 1375.16 1700.58 1386.06 1696.14 1395.23 C 1696.09 1386.99 1696.36 1381.22 1694.59 1373.21 z"/>
<path transform="translate(0,0)" fill="rgb(254,249,232)" d="M 1392.13 1015.14 C 1391.68 1007.78 1390.44 966.575 1412.4 980.757 C 1419.78 985.517 1418.22 1005.39 1417.83 1014.31 C 1428.59 1018.19 1435.6 1021.45 1444.48 1028.99 C 1447 1031.13 1447.48 1032.38 1450.65 1032.64 C 1473.32 1029.55 1500.53 1020.07 1521.79 1011.7 C 1522.97 1081.85 1514.71 1133.11 1462.95 1184.37 C 1442.53 1204.59 1424.61 1220.11 1398.74 1233.96 C 1366.57 1224.63 1321.65 1184.79 1305.58 1155.17 C 1283.33 1114.18 1282.77 1061.35 1284.11 1015.74 C 1305.23 1021.77 1338.8 1030.84 1360.96 1032.39 C 1374.72 1023.97 1373.59 1020.07 1392.13 1015.14 z"/>
<path transform="translate(0,0)" fill="rgb(254,201,45)" d="M 1392.13 1015.14 C 1391.68 1007.78 1390.44 966.575 1412.4 980.757 C 1419.78 985.517 1418.22 1005.39 1417.83 1014.31 C 1428.59 1018.19 1435.6 1021.45 1444.48 1028.99 C 1447 1031.13 1447.48 1032.38 1450.65 1032.64 L 1449.51 1033.2 L 1448.97 1034.98 C 1449.93 1036.69 1450.83 1038.44 1451.65 1040.22 C 1457.37 1052.91 1457.62 1064.59 1452.61 1077.63 C 1447.46 1091.2 1436.93 1102.04 1423.51 1107.59 C 1409.99 1113.38 1394.69 1113.38 1381.17 1107.58 C 1368.11 1101.96 1358.51 1091.26 1353.53 1078.11 C 1346.1 1058.5 1353.61 1048.87 1360.45 1033.57 L 1360.96 1032.39 C 1374.72 1023.97 1373.59 1020.07 1392.13 1015.14 z"/>
<path transform="translate(0,0)" fill="rgb(139,67,25)" d="M 1161.47 1130.64 C 1163.27 1144.56 1164.37 1158.84 1165.52 1172.83 C 1169.41 1219.9 1177.56 1266.29 1187.33 1312.46 C 1189.96 1324.92 1193.21 1348.34 1197.59 1359.54 C 1185.88 1383.48 1177.47 1422.39 1196.17 1444.66 C 1188.27 1440.98 1180.26 1430.58 1174.23 1424.11 C 1167.15 1424.33 1156.62 1423.03 1149.16 1422.47 C 1142.19 1420.82 1138.83 1419.9 1132.16 1417.35 C 1111.44 1409.66 1094.3 1400.16 1096.09 1375.07 C 1096.46 1358.22 1083.5 1341.64 1077.71 1325.04 C 1072.34 1309.62 1071.12 1304.15 1069.31 1287.93 C 1062.07 1234.54 1093.39 1195.3 1129.95 1160.68 C 1139.7 1151.44 1152.96 1141.25 1161.47 1130.64 z"/>
<path transform="translate(0,0)" fill="rgb(254,249,232)" d="M 1096.09 1375.07 C 1108.13 1337.82 1143.41 1333.45 1177.55 1328.82 C 1179.89 1342.54 1179.09 1346.32 1178.6 1359.41 C 1177.98 1375.71 1167.97 1410.64 1174.23 1424.11 C 1167.15 1424.33 1156.62 1423.03 1149.16 1422.47 C 1142.19 1420.82 1138.83 1419.9 1132.16 1417.35 C 1111.44 1409.66 1094.3 1400.16 1096.09 1375.07 z"/>
<path transform="translate(0,0)" fill="rgb(139,67,25)" d="M 1132.16 1417.35 C 1132.7 1405.98 1133.89 1371.78 1141 1364.3 C 1147.82 1367.47 1147.77 1412.98 1149.16 1422.47 C 1142.19 1420.82 1138.83 1419.9 1132.16 1417.35 z"/>
<path transform="translate(0,0)" fill="rgb(254,249,232)" d="M 1197.59 1359.54 C 1198.85 1357.63 1200.15 1355.74 1201.51 1353.89 C 1210.95 1341.11 1226.23 1336.17 1241.31 1334.48 C 1274.47 1330.75 1313.23 1328.48 1341.08 1349.46 C 1358.05 1375.23 1359.62 1397.08 1357.46 1427.84 C 1349.93 1448.75 1330.42 1453.95 1310.33 1455.14 C 1305.22 1455.53 1294.87 1456.02 1290.21 1456.77 C 1277.52 1457.49 1260.92 1458.77 1248.62 1456.25 C 1240.91 1455.98 1234.82 1455.49 1227.14 1454.66 C 1214.39 1452.21 1207.55 1450.42 1196.17 1444.66 C 1177.47 1422.39 1185.88 1383.48 1197.59 1359.54 z"/>
<path transform="translate(0,0)" fill="rgb(139,67,25)" d="M 1300.12 1385.61 C 1310.21 1406.45 1311.49 1432.38 1310.33 1455.14 C 1305.22 1455.53 1294.87 1456.02 1290.21 1456.77 C 1288.95 1437.6 1293.19 1403.28 1300.12 1385.61 z"/>
<path transform="translate(0,0)" fill="rgb(139,67,25)" d="M 1227.14 1454.66 C 1227.92 1441.45 1228.68 1403.32 1236.82 1393.39 L 1238.67 1393.4 C 1245.25 1401.25 1248.05 1444.33 1248.62 1456.25 C 1240.91 1455.98 1234.82 1455.49 1227.14 1454.66 z"/>
<path transform="translate(0,0)" fill="rgb(254,249,232)" d="M 1437.52 1355.22 C 1452.2 1339.28 1468.45 1333.41 1489.82 1333.19 C 1522.73 1332.86 1567.06 1340.17 1584.45 1371.24 C 1592.2 1395.26 1592.88 1423.85 1578.96 1445.74 C 1568.41 1451.31 1553.89 1455.58 1541.94 1454.97 C 1535.15 1455.26 1527.86 1456.15 1521.24 1456.06 C 1511.09 1456.3 1490.51 1456.96 1481.11 1455.19 C 1474.06 1454.23 1466.55 1453.65 1459.25 1452.69 C 1441.46 1449.09 1426.69 1444.85 1419.68 1426.87 C 1417.68 1398.37 1424.49 1380.43 1437.52 1355.22 z"/>
<path transform="translate(0,0)" fill="rgb(139,67,25)" d="M 1521.24 1456.06 C 1521.98 1440.18 1524.4 1396.7 1532.25 1384.7 L 1534.15 1385.54 C 1541.96 1398.03 1542.92 1439.11 1541.94 1454.97 C 1535.15 1455.26 1527.86 1456.15 1521.24 1456.06 z"/>
<path transform="translate(0,0)" fill="rgb(139,67,25)" d="M 1459.25 1452.69 C 1464.28 1446.82 1459.25 1404.69 1470.3 1392.86 L 1472.21 1392.88 C 1477.66 1400.73 1480.96 1444.1 1481.11 1455.19 C 1474.06 1454.23 1466.55 1453.65 1459.25 1452.69 z"/>
<path transform="translate(0,0)" fill="rgb(139,67,25)" d="M 1444.13 1226.52 C 1444.56 1256.68 1440.87 1288.04 1439.12 1318.16 C 1438.72 1325.11 1436.6 1349.36 1437.52 1355.22 C 1424.49 1380.43 1417.68 1398.37 1419.68 1426.87 C 1405.15 1430.23 1370.8 1432.38 1357.46 1427.84 C 1359.62 1397.08 1358.05 1375.23 1341.08 1349.46 C 1338.77 1308.7 1333.13 1268.11 1331.04 1228.69 C 1334.23 1236.72 1336.39 1247.89 1338.65 1256.57 C 1343.78 1275.67 1348.7 1294.82 1353.41 1314.02 C 1357.62 1331.1 1376.27 1393.7 1371.67 1407.06 C 1369.21 1402.6 1372.42 1403.61 1369.23 1399.19 C 1366.11 1399.7 1362.31 1404.7 1360.09 1407.3 C 1359.87 1412.34 1358.47 1420.04 1359.87 1424.35 C 1362.33 1427.21 1363.86 1427.95 1367.69 1428.15 C 1377.56 1428.66 1409.64 1429.91 1417.33 1424.69 C 1416.9 1415.3 1421.1 1401.83 1414.97 1396.01 C 1414.1 1395.2 1413.21 1394.41 1412.29 1393.66 C 1407.44 1382.49 1438.98 1244.98 1444.13 1226.52 z"/>
<path transform="translate(0,0)" fill="rgb(241,28,31)" d="M 351.592 180.246 C 368.916 177.3 385.013 190.276 389.404 206.345 C 391.818 215.18 391.415 220.569 390.735 229.371 C 409.83 211.784 437.628 199.207 458.959 221.604 C 466.133 229.209 469.856 239.433 469.252 249.87 C 468.573 261.81 462.557 271.793 453.992 279.791 C 474.906 282.485 494.472 289.85 498.809 313.456 C 500.742 323.765 498.249 334.411 491.941 342.791 C 481.869 356.135 467.599 359.296 452.228 361.301 L 454.372 364.033 C 463.303 375.499 469.936 384.983 467.657 400.488 C 466.137 410.822 461.187 420.008 452.539 426.107 C 444.274 431.839 434.037 433.97 424.171 432.014 C 415.913 430.437 403.419 424.068 398.342 416.989 C 396.871 414.939 397.832 415.42 395.675 414.066 C 392.549 437.918 387.255 449.887 360.9 453.72 C 335.401 452.198 323.815 436.878 319.229 413.15 C 311.812 422.036 302.049 428.244 290.519 430.178 C 280.099 431.909 269.425 429.285 260.996 422.919 C 237.017 405.095 243.962 381.167 259.938 361.282 C 248.174 360.811 235.616 358.414 225.81 351.547 C 217.083 345.39 211.193 335.986 209.461 325.446 C 207.798 315.405 210.429 305.128 216.714 297.122 C 226.889 284.297 240.219 281.897 255.144 280.319 C 247.409 270.263 241.253 262.428 240.219 249.216 C 238.531 227.664 256.94 208.744 278.027 207.498 C 292.717 206.63 306.574 214.302 317.314 223.653 C 318.454 198.545 324.839 184.88 351.592 180.246 z"/>
<path transform="translate(0,0)" fill="rgb(254,201,45)" d="M 345.301 257.149 C 374.596 252.783 401.954 272.79 406.672 302.031 C 411.39 331.271 391.713 358.867 362.531 363.936 C 343.34 367.269 323.839 360.026 311.477 344.973 C 299.115 329.921 295.801 309.383 302.802 291.207 C 309.802 273.03 326.036 260.021 345.301 257.149 z"/>
<path transform="translate(0,0)" fill="rgb(100,155,38)" d="M 303.217 1734.73 L 303.77 1733.44 C 308.673 1721.8 312.653 1702.69 316.781 1689.82 C 331.544 1642.86 354.761 1596.33 402.744 1576.23 C 431.474 1564.2 462.265 1564.29 492.885 1567.24 C 497.681 1567.9 519.246 1568.99 519.191 1575.75 C 518.934 1607.32 505.894 1643.57 489.556 1670.35 C 442.946 1746.75 380.052 1743.27 302.312 1741.93 C 302.275 1751.45 302.231 1763.09 302.344 1771.69 C 302.56 1788.17 286.371 1796.37 274.651 1785.57 C 267.496 1778.99 269.837 1751.09 270.082 1742.23 C 229.18 1745.48 186.188 1745.73 153.288 1717.59 C 121.985 1690.82 111.373 1651.8 107.836 1612.22 C 106.382 1595.24 105.248 1583.38 126.369 1583.05 C 204.346 1581.83 254.225 1628.69 270.216 1702.92 L 269.939 1608.78 C 281.283 1606.96 288.849 1608.01 302.187 1605 C 304.119 1628.74 302 1654.32 302.653 1678.23 C 303.135 1695.89 301.363 1714.51 302.983 1732.03 L 303.217 1734.73 z"/>
<path transform="translate(0,0)" fill="rgb(51,106,24)" d="M 459.145 1593.15 C 461.63 1592.74 461.466 1592.73 463.915 1593.3 L 465.199 1595.39 C 467.166 1620.48 390.538 1681.25 371.759 1696.35 C 362.85 1703.52 337.169 1724.47 326.964 1728.46 L 320.727 1729.59 L 319.766 1728.44 C 320.707 1720.91 330.089 1704.97 333.933 1698.46 C 355.397 1662.16 417.961 1602.94 459.145 1593.15 z"/>
<path transform="translate(0,0)" fill="rgb(51,106,24)" d="M 147.154 1609.82 C 158.903 1611.28 174.117 1620.43 183.453 1627.53 C 222.04 1656.87 255.181 1685.58 263.214 1735.21 C 246.191 1725.53 145.385 1626.8 147.154 1609.82 z"/>
<path transform="translate(0,0)" fill="rgb(100,155,38)" d="M 1578.02 1575.33 C 1598.9 1565.43 1619.01 1565.76 1641.5 1565.71 C 1746.09 1565.49 1776.08 1643.64 1791.53 1730.23 C 1793.9 1709.04 1791.1 1670.17 1792.38 1646.71 C 1791.44 1623.9 1792.58 1600.11 1791.77 1576.85 C 1799.91 1577.35 1808.82 1578.13 1816.9 1577.71 L 1825.92 1576.98 C 1825.41 1611.97 1826.86 1649.38 1824.99 1683.88 C 1832.66 1648.84 1854.68 1609.9 1885.23 1590.07 C 1905.35 1576.93 1929.61 1571.67 1953.36 1575.28 C 1959.59 1592.41 1957 1606.52 1955.15 1624 C 1947.31 1698.31 1902.35 1745.98 1826.01 1742 C 1826.13 1753.94 1827.08 1767.85 1824.1 1778.41 C 1820.44 1791.37 1804.16 1794.17 1796.16 1784.86 C 1789.61 1777.24 1792.16 1749.9 1792.04 1740.91 C 1772.92 1742.73 1754.74 1743.24 1735.41 1743.18 C 1699.14 1743.08 1666.78 1731.68 1638.43 1709.24 C 1605.1 1682.88 1577.09 1617.42 1578.02 1575.33 z"/>
<path transform="translate(0,0)" fill="rgb(51,106,24)" d="M 1632.72 1591.9 C 1671.69 1591.3 1756.44 1671.56 1773.96 1706.47 C 1776.69 1711.91 1783.78 1723.91 1779.37 1729.03 L 1779.79 1731.76 C 1775.53 1729.19 1771.78 1725.1 1767.51 1722.21 C 1735.46 1700.51 1640.77 1635.47 1630.9 1602.27 C 1629.67 1598.1 1630.63 1595.55 1632.72 1591.9 z"/>
<path transform="translate(0,0)" fill="rgb(51,106,24)" d="M 1921.16 1599.02 L 1921.98 1600.44 C 1916.6 1630.93 1849.85 1707.7 1825.85 1730.82 L 1824.78 1729.52 C 1823.38 1689.28 1886.91 1617.65 1921.16 1599.02 z"/>
<path transform="translate(0,0)" fill="rgb(254,201,45)" d="M 237.102 1427.67 C 236.685 1416.93 236.523 1408.03 242.793 1398.82 C 259.374 1374.46 299.774 1380.28 310.769 1407.05 C 313.718 1414.23 314.415 1418.4 315.508 1425.8 C 358.401 1383.76 415.784 1434.78 368.038 1477.46 C 379.682 1477.63 388.982 1477.55 399.645 1483.74 C 408.696 1488.93 415.128 1497.71 417.347 1507.91 C 422.978 1533.14 405.667 1560.87 379.976 1565.65 C 365.234 1568.39 354.194 1562.21 342.533 1554.42 C 340.16 1580.26 329.075 1598.9 302.187 1605 C 288.849 1608.01 281.283 1606.96 269.939 1608.78 C 254.806 1609.41 236.713 1604.2 225.658 1593.51 C 213.999 1582.23 212.647 1570.68 212.386 1555.52 C 200.74 1562.5 190.661 1567.59 176.709 1568.45 C 152.817 1569.92 131.894 1551.22 131.628 1526.99 C 131.446 1515.2 135.984 1503.83 144.232 1495.41 C 155.214 1484.41 168.041 1482.03 182.711 1482.02 C 170.095 1470.83 159.896 1459.16 162.193 1440.83 C 163.477 1431.19 168.578 1422.47 176.351 1416.62 C 185.221 1409.88 196.909 1407.45 207.818 1409.32 C 219.599 1411.39 230.107 1417.97 237.102 1427.67 z"/>
<path transform="translate(0,0)" fill="rgb(254,249,232)" d="M 271.042 1461.38 C 296.626 1457.99 320.189 1475.79 323.924 1501.32 C 327.659 1526.86 310.18 1550.66 284.695 1554.73 C 267.905 1557.42 250.969 1550.86 240.366 1537.57 C 229.763 1524.27 227.135 1506.3 233.486 1490.53 C 239.837 1474.76 254.186 1463.62 271.042 1461.38 z"/>
<path transform="translate(0,0)" fill="rgb(254,201,45)" d="M 1038.88 179.183 C 1049.06 178.434 1062.13 181.699 1070.5 187.581 C 1079.55 193.999 1085.67 203.761 1087.49 214.703 C 1090.33 231.266 1084.78 241.446 1075.54 253.976 C 1093.23 254.045 1108.32 253.632 1122.36 267.879 C 1130.51 276.291 1135 287.575 1134.87 299.282 C 1134.34 334.699 1102.35 345.749 1072.51 344.155 C 1083.45 360.46 1090.15 379.016 1078.25 397.384 C 1072.89 405.668 1064.37 411.404 1054.68 413.263 C 1032.23 417.696 1012.01 401.7 1008.47 379.59 C 1001.52 399.584 993.255 410.171 971.229 413.437 C 962.288 414.129 953.676 412.095 946.402 406.714 C 938.924 401.106 934.162 392.602 933.288 383.296 C 931.512 366.055 942.969 352.067 952.944 339.603 L 952.164 339.979 C 934.718 348.168 915.904 346.808 900.477 334.59 C 882.433 320.299 881.197 290.693 896.045 273.699 C 906.868 261.311 921.329 258.582 936.823 257.632 C 921.5 248.478 914.953 231.224 919.058 213.993 C 921.816 202.46 929.179 192.56 939.431 186.6 C 966.487 170.732 989.653 183.528 1003.22 208.788 C 1010.6 188.962 1018.56 182.874 1038.88 179.183 z"/>
<path transform="translate(0,0)" fill="rgb(232,127,39)" d="M 1007.4 254.924 C 1030.08 252.214 1050.73 268.221 1053.76 290.859 C 1056.8 313.496 1041.08 334.371 1018.49 337.723 C 1003.59 339.934 988.65 333.949 979.397 322.061 C 970.143 310.172 968.008 294.222 973.808 280.319 C 979.608 266.415 992.446 256.711 1007.4 254.924 z"/>
<path transform="translate(0,0)" fill="rgb(35,163,219)" d="M 1735.32 215.437 C 1748.39 212.879 1769.75 220.564 1780.34 228.276 C 1792.01 236.797 1799.71 249.711 1801.65 264.036 C 1808.13 309.249 1763.06 365.697 1730.53 392.385 C 1720.45 400.652 1699.25 420.204 1687.53 421.675 C 1677.34 422.953 1645.83 397.952 1637.31 391.098 C 1606.84 369.006 1580.74 330.949 1568.3 294.941 C 1553.4 251.84 1581.09 215.386 1625.86 215.765 C 1651.4 215.98 1665.05 226.212 1682.63 243.915 C 1696.27 226.143 1712.99 217.189 1735.32 215.437 z"/>
<path transform="translate(0,0)" fill="rgb(144,144,143)" d="M 266.223 1066.33 C 289.433 1063.98 362.668 1062.36 380.765 1072.78 C 376.635 1090.96 371.275 1110.27 368.23 1128.4 C 364.3 1147.79 363.856 1158.25 364.063 1178.04 C 364.141 1192.69 368.17 1206.44 374.229 1219.72 C 380.255 1230.75 390.326 1243.02 394.727 1252.21 C 390.817 1284.68 396.807 1334.29 409.122 1364.11 C 408.154 1364.13 407.185 1364.15 406.216 1364.15 C 359.106 1364.21 321.522 1341.37 289.561 1309.03 C 261.664 1281.36 250.703 1248.34 244.309 1210.82 C 242.905 1191.98 243.076 1166.51 246.453 1148.2 C 250.399 1118.09 257.284 1095 266.223 1066.33 z"/>
<path transform="translate(0,0)" fill="rgb(89,88,88)" d="M 374.229 1219.72 C 380.255 1230.75 390.326 1243.02 394.727 1252.21 C 390.817 1284.68 396.807 1334.29 409.122 1364.11 C 408.154 1364.13 407.185 1364.15 406.216 1364.15 C 359.106 1364.21 321.522 1341.37 289.561 1309.03 C 314.047 1260.18 328.352 1249.69 374.229 1219.72 z"/>
<path transform="translate(0,0)" fill="rgb(144,144,143)" d="M 266.223 1066.33 C 289.433 1063.98 362.668 1062.36 380.765 1072.78 C 376.635 1090.96 371.275 1110.27 368.23 1128.4 C 339.983 1122.27 304.213 1126.38 276.625 1135.28 C 270.424 1137.28 254.778 1146.34 248.303 1149.3 C 247.335 1149.74 246.915 1148.87 246.453 1148.2 C 250.399 1118.09 257.284 1095 266.223 1066.33 z"/>
<path transform="translate(0,0)" fill="rgb(89,88,88)" d="M 246.453 1148.2 C 246.915 1148.87 247.335 1149.74 248.303 1149.3 C 254.778 1146.34 270.424 1137.28 276.625 1135.28 C 304.213 1126.38 339.983 1122.27 368.23 1128.4 C 364.3 1147.79 363.856 1158.25 364.063 1178.04 C 355.973 1170.94 309.179 1183.48 298.818 1186.78 C 280.494 1192.61 261.686 1202.32 244.309 1210.82 C 242.905 1191.98 243.076 1166.51 246.453 1148.2 z"/>
<path transform="translate(0,0)" fill="rgb(35,163,219)" d="M 1319.78 1719.42 C 1319.3 1717.02 1304.79 1708.46 1300.25 1704.29 C 1296.42 1700.81 1293.16 1696.75 1290.58 1692.27 C 1279.61 1673.28 1284.19 1648.57 1304.61 1638.38 C 1324.1 1628.66 1338.6 1636.1 1356.56 1642.22 L 1357.38 1641.31 C 1354.58 1633.65 1354.89 1625.36 1355.7 1617.25 C 1359.22 1581.8 1409.91 1572.8 1429.09 1600.47 C 1437.36 1612.41 1433.83 1629.29 1431.47 1642.71 C 1434.75 1641.01 1438.25 1639.23 1441.58 1637.7 C 1492.53 1614.24 1532.01 1669.56 1488.11 1708.08 C 1485.02 1710.79 1478.11 1714.66 1476.57 1717.92 C 1488.94 1736.44 1489.4 1743.97 1486.35 1766.08 C 1482.82 1776.5 1479.15 1782.12 1470.43 1789.49 C 1457.57 1801.05 1431.88 1796.88 1419.22 1787.22 C 1411.95 1781.67 1408.83 1777.03 1404.16 1769.59 C 1386.31 1794.83 1362.81 1803.27 1333.66 1789.87 C 1325.91 1782.35 1325.52 1786.18 1317.11 1773.39 C 1307.17 1753.12 1307 1738.61 1319.78 1719.42 z"/>
<path transform="translate(0,0)" fill="rgb(254,201,45)" d="M 1392.68 1654.6 C 1404.86 1652.77 1417.08 1657.65 1424.64 1667.37 C 1432.2 1677.09 1433.92 1690.14 1429.14 1701.49 C 1424.36 1712.84 1413.83 1720.72 1401.59 1722.11 C 1383.15 1724.2 1366.43 1711.13 1364 1692.73 C 1361.57 1674.33 1374.33 1657.37 1392.68 1654.6 z"/>
<path transform="translate(0,0)" fill="rgb(254,139,132)" d="M 655.788 1636.19 C 654.473 1629.7 653.206 1624.62 653.564 1617.92 C 655.164 1588.04 692.673 1574.68 715.793 1591.87 C 723.058 1597.22 727.893 1605.24 729.226 1614.15 C 730.289 1621.76 728.637 1632.97 727.749 1640.93 C 750.145 1629.35 781.107 1624.66 796.76 1652 C 802.394 1661.85 801.186 1675.17 797.505 1685.11 C 791.628 1703.15 778.113 1706.17 768.857 1715.7 C 785.971 1744.58 776.14 1767.95 751.512 1787.62 C 740.616 1791.9 728.511 1791.95 717.58 1787.76 C 702.244 1781.71 695.984 1771.25 689.648 1757.35 C 681 1783.86 658.841 1793.23 632.819 1787.24 C 625.33 1783.22 622.538 1781.54 616.814 1775.51 C 615.905 1775.5 613.065 1775.96 612.003 1776.11 L 610.783 1774.83 C 609.888 1767.33 602.257 1759.07 606.651 1751.32 C 606.641 1735.8 609.141 1726.85 618.007 1714.17 L 618.764 1713.38 C 604.266 1704.83 592.625 1697.72 587.634 1679.8 C 584.569 1668.77 586.182 1656.96 592.093 1647.16 C 606.77 1623.12 633.605 1626.01 655.788 1636.19 z"/>
<path transform="translate(0,0)" fill="rgb(51,106,24)" d="M 606.651 1751.32 C 609.194 1762.59 610.594 1765.74 616.814 1775.51 C 615.905 1775.5 613.065 1775.96 612.003 1776.11 L 610.783 1774.83 C 609.888 1767.33 602.257 1759.07 606.651 1751.32 z"/>
<path transform="translate(0,0)" fill="rgb(254,201,45)" d="M 690.809 1655.83 C 704.154 1654.26 717.312 1659.99 725.253 1670.83 C 733.193 1681.66 734.69 1695.94 729.17 1708.19 C 723.649 1720.44 711.966 1728.77 698.586 1730.01 C 678.258 1731.88 660.202 1717.06 658.074 1696.76 C 655.945 1676.45 670.535 1658.21 690.809 1655.83 z"/>
<path transform="translate(0,0)" fill="rgb(232,127,39)" d="M 1763.33 1438.59 C 1767.3 1425.8 1787.54 1392.61 1798.91 1386.23 C 1816.75 1376.2 1843.32 1419.46 1849.59 1431.9 C 1850.6 1433.93 1851.54 1436 1852.41 1438.09 C 1862.62 1428.46 1886.65 1404.79 1899.38 1402.43 C 1908.71 1407.12 1909.03 1461.47 1908.76 1473.33 C 1907.35 1534.42 1890.14 1569.49 1825.92 1576.98 L 1816.9 1577.71 C 1808.82 1578.13 1799.91 1577.35 1791.77 1576.85 C 1767.75 1573.28 1743.07 1567.93 1728.08 1546.79 C 1705.99 1515.64 1704.47 1460.62 1710.51 1424.02 C 1711.69 1416.87 1712.57 1410.36 1717.22 1404.81 C 1719.43 1403.92 1720.68 1403.18 1723.39 1404.78 C 1736.6 1412.59 1752.14 1428.03 1763.33 1438.59 z"/>
<path transform="translate(0,0)" fill="rgb(144,144,143)" d="M 247.312 1005.6 C 235.838 996.106 225.747 985.056 217.331 972.77 C 206.009 955.944 199.119 935.294 203.48 914.985 C 206.954 898.802 216.825 884.712 230.849 875.919 C 253.219 861.623 282.634 860.844 306.791 870.863 C 335.391 882.725 352.762 904.497 368.609 929.846 C 381.227 952.94 385.645 968.265 389.564 994.222 C 391.332 1011.35 386.132 1056.82 380.765 1072.78 C 362.668 1062.36 289.433 1063.98 266.223 1066.33 C 270.259 1054.01 277.101 1039.43 280.284 1028.69 C 266.234 1020.82 259.458 1015.71 247.312 1005.6 z"/>
<path transform="translate(0,0)" fill="rgb(89,88,88)" d="M 247.312 1005.6 C 235.838 996.106 225.747 985.056 217.331 972.77 C 206.009 955.944 199.119 935.294 203.48 914.985 C 206.954 898.802 216.825 884.712 230.849 875.919 C 253.219 861.623 282.634 860.844 306.791 870.863 C 335.391 882.725 352.762 904.497 368.609 929.846 C 327.808 931.137 299.047 940.389 270.066 970.953 C 262.123 979.331 249.841 994.532 247.312 1005.6 z"/>
<path transform="translate(0,0)" fill="rgb(89,88,88)" d="M 389.564 994.222 C 391.332 1011.35 386.132 1056.82 380.765 1072.78 C 362.668 1062.36 289.433 1063.98 266.223 1066.33 C 270.259 1054.01 277.101 1039.43 280.284 1028.69 C 285.762 1025.89 298.339 1016.14 305.048 1012.25 C 331.272 997.029 352.404 995.228 381.703 996.073 C 386.342 996.207 387.261 996.612 389.564 994.222 z"/>
<path transform="translate(0,0)" fill="rgb(71,128,59)" d="M 1476.57 1717.92 C 1485.86 1716.61 1499.38 1712.37 1508.17 1710.18 C 1523.89 1706.27 1601.49 1707.69 1602.12 1730.13 C 1603.75 1788.33 1529.8 1804.15 1488.05 1793.88 C 1482.45 1793.12 1475.65 1791.61 1470.43 1789.49 C 1479.15 1782.12 1482.82 1776.5 1486.35 1766.08 C 1489.4 1743.97 1488.94 1736.44 1476.57 1717.92 z"/>
<path transform="translate(0,0)" fill="rgb(47,92,39)" d="M 1513.87 1763.94 C 1510.81 1769.82 1507.28 1777.26 1503.26 1782.5 C 1499.36 1787.59 1489.54 1788.38 1488.05 1793.88 C 1482.45 1793.12 1475.65 1791.61 1470.43 1789.49 C 1479.15 1782.12 1482.82 1776.5 1486.35 1766.08 C 1487.56 1768.65 1487.84 1769.81 1488.34 1772.61 C 1491.7 1772.48 1509.69 1765.46 1513.87 1763.94 z"/>
<path transform="translate(0,0)" fill="rgb(71,128,59)" d="M 768.857 1715.7 C 776.67 1716.5 792.155 1712.32 801.044 1711.49 C 820.589 1709.67 839.662 1709.35 858.992 1713.77 C 872.66 1717.33 892.963 1720.64 888.879 1738.8 C 875.764 1797.13 811.461 1801.97 763.001 1791.07 C 759.105 1790.15 755.268 1789 751.512 1787.62 C 776.14 1767.95 785.971 1744.58 768.857 1715.7 z"/>
<path transform="translate(0,0)" fill="rgb(71,128,59)" d="M 1323.03 1791.83 C 1291.4 1804.17 1241.66 1794.59 1217.79 1769.27 C 1211.13 1762.2 1192.63 1729.06 1202.73 1723.12 C 1225.08 1709.99 1262.04 1710.68 1287.13 1712.89 C 1297.82 1713.83 1309.34 1718.85 1319.78 1719.42 C 1307 1738.61 1307.17 1753.12 1317.11 1773.39 C 1325.52 1786.18 1325.91 1782.35 1333.66 1789.87 C 1328.92 1790.22 1327.61 1790.53 1323.03 1791.83 z"/>
<path transform="translate(0,0)" fill="rgb(47,92,39)" d="M 1289.63 1767.17 C 1296.58 1768.58 1312.33 1774.59 1317.11 1773.39 C 1325.52 1786.18 1325.91 1782.35 1333.66 1789.87 C 1328.92 1790.22 1327.61 1790.53 1323.03 1791.83 C 1317.82 1788.96 1307.2 1790.64 1302.17 1788.87 C 1296.55 1786.89 1291.84 1772.96 1289.63 1767.17 z"/>
<path transform="translate(0,0)" fill="rgb(71,128,59)" d="M 608.273 1793.86 C 576.631 1799.24 545.629 1793.34 523.352 1769.36 C 502.948 1747.4 492.282 1717.56 532.585 1711.81 C 554.34 1708.71 570.827 1707.28 592.95 1711.01 C 600.41 1712.26 610.697 1714.02 618.007 1714.17 C 609.141 1726.85 606.641 1735.8 606.651 1751.32 C 602.257 1759.07 609.888 1767.33 610.783 1774.83 L 612.003 1776.11 C 613.065 1775.96 615.905 1775.5 616.814 1775.51 C 622.538 1781.54 625.33 1783.22 632.819 1787.24 C 623.856 1789.32 617.43 1792.46 608.273 1793.86 z"/>
<path transform="translate(0,0)" fill="rgb(47,92,39)" d="M 584.139 1762.44 C 593.426 1765.85 602.641 1769.11 610.783 1774.83 L 612.003 1776.11 C 613.065 1775.96 615.905 1775.5 616.814 1775.51 C 622.538 1781.54 625.33 1783.22 632.819 1787.24 C 623.856 1789.32 617.43 1792.46 608.273 1793.86 C 606.587 1791.24 604.071 1790.39 601.677 1788.39 C 590.033 1778.62 588.034 1776.45 584.139 1762.44 z"/>
</svg>