<svg version="1.1" xmlns="http://www.w3.org/2000/svg" style="display: block;" viewBox="0 0 2048 2048" width="1024" height="1024" preserveAspectRatio="none">
<defs>
	<linearGradient id="Gradient1" gradientUnits="userSpaceOnUse" x1="1658.09" y1="1484.97" x2="1688.72" y2="1488.01">
		<stop class="stop0" offset="0" stop-opacity="1" stop-color="rgb(3,0,0)"/>
		<stop class="stop1" offset="1" stop-opacity="1" stop-color="rgb(42,6,1)"/>
	</linearGradient>
	<linearGradient id="Gradient2" gradientUnits="userSpaceOnUse" x1="1708.11" y1="1500.31" x2="1747.83" y2="1498">
		<stop class="stop0" offset="0" stop-opacity="1" stop-color="rgb(7,0,0)"/>
		<stop class="stop1" offset="1" stop-opacity="1" stop-color="rgb(41,10,0)"/>
	</linearGradient>
	<linearGradient id="Gradient3" gradientUnits="userSpaceOnUse" x1="1711.27" y1="955.319" x2="1375.96" y2="1000.14">
		<stop class="stop0" offset="0" stop-opacity="1" stop-color="rgb(134,59,22)"/>
		<stop class="stop1" offset="1" stop-opacity="1" stop-color="rgb(228,139,62)"/>
	</linearGradient>
	<linearGradient id="Gradient4" gradientUnits="userSpaceOnUse" x1="1031.6" y1="934.763" x2="1308.16" y2="1016.06">
		<stop class="stop0" offset="0" stop-opacity="1" stop-color="rgb(153,76,32)"/>
		<stop class="stop1" offset="1" stop-opacity="1" stop-color="rgb(226,139,61)"/>
	</linearGradient>
</defs>
<path transform="translate(0,0)" fill="rgb(0,0,0)" d="M 873.401 765.113 C 862.015 756.671 846.611 747.907 834.353 739.148 C 798.546 713.685 768.554 680.909 746.36 642.988 C 708.463 577.105 698.223 498.886 717.885 425.468 C 760.989 266.66 938.867 144.005 1103.08 189.977 C 1113.39 192.863 1154.59 203.574 1150.01 219.603 C 1147.94 226.812 1126.44 232.722 1119.29 235.287 C 1025.26 269.039 942.736 406.339 1015.75 494.559 C 1027.29 508.507 1043.25 514.416 1059.53 522.195 L 1064.27 531.688 C 1061.25 547.685 1058.9 554.041 1049.88 567.507 C 1112.63 631.21 1220.28 645.275 1293.02 591.162 C 1309.94 578.579 1329.55 582.288 1323.84 604.946 C 1287.16 750.39 1116.47 825.889 977.232 798.659 C 963.089 795.893 951.371 792.547 937.954 790.416 C 937.647 801.996 941.348 825.702 941.821 839.994 C 942.882 885.075 937.616 930.081 926.178 973.7 C 932.668 992.616 938.095 1011.88 942.434 1031.4 C 945.69 1025.1 956.347 1012.84 961.253 1006.58 C 968.009 997.834 974.492 988.883 980.695 979.739 C 997.039 956.014 1011.67 927.301 1025.03 901.622 C 1040.73 871.451 1057.4 846.266 1091.76 835.97 C 1116.52 828.549 1133.81 832.27 1156.14 844.336 C 1182.22 816.162 1238.07 798.603 1275.27 793.652 C 1359.78 782.403 1471.08 798.236 1540.62 849.943 C 1587.61 830.24 1628.57 850.441 1655.48 890.985 C 1673.78 918.565 1682.64 951.145 1699.72 980.051 C 1716.22 1007.98 1742.45 1031.77 1749.22 1063.44 C 1753.23 1082.69 1755.67 1110.21 1742.88 1127.02 C 1712.44 1167.02 1654.9 1157.52 1619.03 1133.59 C 1611.51 1180.68 1564.36 1219.41 1521.15 1233.57 C 1524.48 1247.1 1530.91 1266.15 1533.2 1279.52 C 1538.69 1311.68 1545.3 1355.12 1546.02 1387.66 L 1547.2 1394.35 L 1548.05 1394.81 C 1548.85 1392.81 1549.57 1391.07 1550.23 1389.01 C 1561.74 1374.55 1571.18 1366.16 1590.52 1364.01 C 1615.11 1361.28 1630.23 1374.35 1647.81 1388.05 C 1651.77 1374.76 1662.11 1361.14 1674.34 1354.62 C 1684.75 1349.1 1696.95 1348.02 1708.17 1351.62 C 1725.17 1357.01 1736.54 1367.49 1745.28 1382.72 C 1767.13 1368.17 1795.08 1365.71 1813.55 1387.42 C 1818.19 1381.1 1821.49 1373.2 1826.29 1367.05 C 1843.04 1345.58 1869.24 1321.25 1897.83 1318.67 C 1954.92 1313.51 1973.5 1358.63 1937.23 1400.42 C 1915.7 1425.22 1894.75 1435.9 1865.07 1446.43 C 1871.59 1451.98 1879.71 1473.32 1884.43 1471.65 C 1901.38 1465.67 1912.15 1443.06 1933.36 1459.01 C 1938.62 1462.63 1940.5 1465.86 1943.79 1471.87 C 1974.59 1466.49 1993.18 1497.23 1969.05 1517.32 C 1980.85 1542.55 1972.61 1550.75 1947.94 1557.09 C 1945.35 1566.71 1942.91 1570.43 1935.2 1577.22 C 1930.77 1578.06 1926.33 1578.86 1921.88 1579.63 C 1932.76 1586.4 1934.53 1590.8 1939.07 1602.38 C 1937.94 1611.75 1935.91 1621.63 1927.58 1627.14 C 1900.47 1645.07 1860.41 1635.05 1834.39 1622.77 C 1831.27 1629.18 1827.41 1634.13 1822.43 1639.2 C 1847.84 1660.5 1873.54 1698.44 1817.79 1702.56 C 1795.79 1704.18 1767.19 1693.89 1749.65 1681.48 C 1742.74 1676.4 1737.53 1670.31 1731.37 1664.98 C 1715.88 1668.58 1706.66 1672.02 1690.88 1667.81 C 1697.5 1683.66 1700.03 1701.92 1679.42 1708.47 C 1647.03 1718.77 1597.13 1706.11 1570.77 1685.85 C 1555.83 1707.37 1520.08 1706.72 1500.58 1692.65 C 1497.7 1690.55 1494.95 1688.26 1492.35 1685.8 C 1481.02 1699.63 1467.87 1706.45 1450.25 1708.15 C 1423.35 1710.74 1409.98 1700.52 1397.19 1678.62 C 1366.24 1704.93 1319.7 1715.9 1279.87 1712.96 C 1259.7 1710.97 1225.22 1707.41 1229.8 1678.82 C 1232.63 1661.14 1252.36 1641.96 1266.7 1632.5 C 1300.46 1610.25 1348.77 1595.87 1388.14 1610.84 C 1387.32 1606.99 1386.04 1601.78 1385.65 1597.99 C 1369.79 1589.72 1366.06 1583.98 1355.42 1569.81 C 1342.33 1593.94 1299.87 1604.7 1276.49 1589.43 C 1251.39 1598.48 1227.74 1601.62 1208.29 1579.44 C 1188.48 1596.08 1175.77 1598.73 1149.65 1596.36 C 1131.36 1594.71 1118.65 1593.43 1102.95 1582.89 C 1098.73 1580.05 1089.9 1573.63 1085.84 1571.38 C 1043.02 1587.23 1005.49 1557.85 986.905 1520.81 C 972.317 1527.94 966.642 1531.13 950.88 1535.6 C 921.954 1584.72 885.079 1606.6 826.464 1600.93 C 820.412 1600.35 812.238 1596.43 807.06 1593.31 L 805.922 1592.61 C 787.638 1595.99 770.861 1596.27 758.867 1579.85 L 757.626 1579.15 C 754.178 1581.38 755.22 1581.15 752.927 1583.29 C 744.576 1591.09 729.9 1601.3 718.754 1603.16 C 719.619 1604.37 733.255 1611.73 735.156 1612.06 C 737.341 1612.44 740.673 1608.53 742.327 1606.83 C 749.43 1601.83 752.754 1600.49 760.696 1598.02 C 778.614 1602.88 786.894 1605.35 793.83 1623.6 C 811.655 1624.68 819.447 1631.02 824.416 1647.88 C 852.742 1655.5 890.993 1672.1 900.323 1704.81 C 904.604 1719.82 887.914 1732.62 873.477 1733.87 C 837.672 1736.97 806.061 1719.55 778.936 1697.73 C 773.59 1739.33 735.004 1737.39 711.976 1708.49 C 703.085 1710.51 699.274 1710.34 690.463 1709.88 C 657.29 1689.67 679.865 1668.59 677.333 1661.14 C 672.229 1659.6 661.101 1667.39 651.762 1670.22 L 649.957 1670.75 C 651.188 1699.11 631.323 1716.88 603.132 1710.33 C 594.304 1708.28 588.756 1704.98 581.171 1700.32 C 566.84 1726.66 537.496 1734.33 512.203 1715.44 C 506.299 1711.03 498.499 1700.5 497.878 1693.03 C 497.659 1690.4 498.397 1691.53 496.748 1689.05 C 488.379 1688.54 479.115 1696.03 466.977 1694.28 C 451.502 1692.05 446.313 1687.6 437.13 1676.33 C 419.129 1690.18 403.983 1699.5 381.173 1703.86 C 364.481 1706.76 338.824 1710.24 324.042 1700.15 C 307.909 1689.13 317.421 1669.47 326.42 1657.41 C 312.567 1656.17 300.256 1652.73 288.738 1644.94 C 282.457 1652.54 275.574 1660.63 267.752 1666.83 C 242.779 1685.84 207.514 1697.82 175.981 1695.32 C 162.483 1694.25 139.414 1687.93 142.845 1669.8 C 145.041 1658.2 155.066 1647.61 164.502 1640.67 C 141.589 1639.51 58.4209 1635.34 92.9278 1587.69 C 103.827 1572.64 136.426 1558.51 155.249 1556.75 C 148.68 1545.94 148.995 1541.33 148.707 1529 C 125.057 1536.25 88.5611 1533.06 67.9773 1518.53 C 55.8884 1509.99 55.5362 1493.34 65.9223 1483 C 87.9172 1461.11 117.234 1455.68 147.004 1453.85 C 148.808 1446.33 151.333 1440.72 154.29 1433.56 C 124.83 1423.13 90.5203 1388.23 92.0708 1354.57 C 93.0086 1334.21 113.377 1324.44 132.048 1328.01 C 163.587 1334.05 182.789 1355.96 200.988 1380.52 C 209.892 1369.95 216.8 1365.07 230.369 1360.41 C 233.031 1359.5 231.537 1360.5 234.235 1359.03 C 233.172 1356.83 218.719 1350.48 215.398 1348.75 C 209.121 1345.47 203.158 1341.62 197.583 1337.25 C 163.977 1310.96 144.712 1268.28 157.821 1225.77 C 160.636 1216.63 167.841 1208.94 176.45 1204.85 C 190.784 1198.05 204.143 1203.64 218.015 1208.59 C 232.437 1166.68 269.188 1153.87 294.792 1196.14 C 308.696 1183.63 328.03 1182.37 340.228 1195.17 C 372.154 1228.66 362.935 1297.51 332.422 1328.97 C 314.639 1347.31 293.493 1361.87 269.558 1363.06 C 276.765 1366.66 281.045 1368.92 287.747 1373.31 C 312.583 1349.81 322.895 1340.05 359.734 1342.3 C 360.281 1325.71 369.254 1305.9 376.292 1290.05 C 394.081 1249.98 449.91 1235.11 464.098 1287.43 C 472.461 1318.27 460.202 1347.97 444.199 1375.48 C 458.079 1382.91 467.062 1386.78 474.697 1400.99 C 481.877 1340.01 485.673 1303.04 503.94 1243.77 C 498.457 1242.3 492.997 1240.74 487.561 1239.1 C 435.09 1222.72 402.285 1191.16 377.226 1143.66 C 366.144 1149.27 356.095 1154.74 345.568 1161.48 C 339.55 1165.33 332.314 1172.02 326.345 1166.74 C 323.072 1153.32 361.402 1135.54 371.973 1130.07 C 368.663 1122.48 364.549 1105.14 363.54 1097 C 353.229 1098.92 316.336 1109.64 310.306 1101.81 C 313.563 1091.65 351.367 1084.51 361.799 1082.55 C 358.198 1038.39 369.319 1002.61 379.65 960.941 C 380.8 956.304 373.893 931.561 372.444 925.094 C 369.473 912.179 367.199 899.114 365.633 885.955 C 361.752 852.924 358.189 764.987 405.023 763.665 C 449.15 762.42 502.302 794.938 534.749 821.975 C 608.068 800.715 701.216 796.571 772.625 826.429 C 778.514 822.62 794.448 808.744 801.834 803.253 C 827.841 783.919 844.261 776.649 873.401 765.113 z M 936.8 1140.37 C 948.05 1146.47 976.971 1160.79 982.218 1172.5 C 981.767 1176.5 980.601 1177.04 976.349 1177.47 C 966.702 1174.47 941.256 1158.86 931.494 1153.09 C 912.482 1185.94 900.097 1201.88 865.469 1221.83 C 857.903 1226.2 845.62 1231.11 839.301 1234.89 C 893.087 1282.08 943.449 1348.42 956.379 1420.33 C 961.777 1407.21 970.874 1393.19 978.126 1380.76 C 984.437 1369.87 990.245 1358.69 995.534 1347.27 C 1002.63 1331.87 1014.9 1297.55 1030.66 1290.14 C 1042.09 1284.76 1051.27 1304.92 1054.04 1313.8 C 1059.66 1332.17 1062.45 1351.29 1062.32 1370.5 C 1072.9 1322.69 1114.13 1259.72 1149.58 1225.84 C 1108.29 1207.47 1082.29 1179.2 1071.9 1135.12 C 1029 1160.96 975.908 1151.11 946.676 1109.78 C 943.832 1120.71 940.562 1129.75 936.8 1140.37 z M 1524.4 1518.51 C 1519.24 1525.52 1520.78 1527.71 1527.09 1533.76 L 1529.87 1534.13 C 1530.29 1531.06 1530.05 1530.24 1532.32 1527.91 C 1530.97 1523.21 1528.44 1523.09 1524.4 1518.51 z M 519.3 1553.3 C 518.399 1546.33 518.068 1543.19 518.16 1536.18 L 517.745 1535.8 L 516.138 1537.01 C 508.021 1534.49 500.398 1531.96 491.707 1532.36 C 489.778 1532.44 489.71 1531.85 487.932 1530.79 C 481.812 1536.86 477.452 1537.96 469.486 1540.64 C 470.521 1544.85 471.942 1555.03 473.71 1556.98 C 477.922 1557.83 484.269 1555.58 490.038 1555.55 C 497.049 1557.59 501.277 1559.08 507.816 1562.51 C 509.176 1563.23 516.424 1567.28 516.854 1567.41 C 520.074 1570.69 525.652 1577.45 530.512 1576.35 C 530.314 1573.54 525.801 1568.95 523.658 1566.16 C 522.151 1562.4 520.611 1557.24 519.3 1553.3 z"/>
<path transform="translate(0,0)" fill="rgb(254,254,232)" d="M 775.21 853.152 C 807.851 822.403 844.08 795.716 887.804 783.354 C 893.163 782.506 909.47 774.632 912.785 780.831 C 917.439 789.871 917.607 800.923 918.632 810.864 C 922.708 848.941 921.584 885.764 915.642 923.528 C 913.738 935.629 904.244 963.317 905.286 972.957 C 907.135 990.059 917.399 1015.84 920.651 1033.89 L 920.92 1036.55 C 923.673 1046.51 924.947 1074.97 924.83 1085.88 C 912.423 1086.1 869.568 1086.85 865.155 1100.98 C 868.391 1104.82 876.329 1103.56 881.085 1103.14 C 895.167 1101.9 909.469 1100.18 923.62 1100.01 C 921.421 1113.03 918.683 1122.82 914.491 1135.38 C 905.401 1131.87 879.151 1121.1 870.967 1125.99 C 869.705 1135.18 901.411 1144.31 908.619 1146.95 C 890.094 1184.74 854.966 1208.58 815.989 1222.06 C 802.561 1226.64 788.681 1229.78 774.586 1231.41 C 769.172 1232.02 744.158 1233.02 741.89 1237.15 C 746.125 1246.3 788.491 1246.92 798.084 1245.26 C 799.979 1244.4 802.376 1244.65 804.649 1244.6 L 816.917 1244.24 C 824.865 1249.96 836.968 1259.52 843.943 1265.86 C 854.168 1275.15 888.68 1315.89 892.598 1327.08 C 933.537 1384.74 945.281 1444.41 937.375 1513.72 C 929.281 1541.57 893.849 1578.96 862.775 1579.79 C 856.397 1579.96 858.896 1560.3 856.609 1554.84 C 854.803 1554.78 854.711 1554.47 853.752 1555.66 C 844.508 1567.06 846.653 1582.05 827.304 1582.59 C 824.469 1582.66 822.698 1581.31 820.645 1579.35 C 814.185 1573.17 820.12 1552.78 816.918 1547.9 C 807.154 1551.4 806.668 1571.9 796.545 1574.64 C 745.407 1588.43 791.965 1506.03 792.094 1484.5 C 792.205 1466.03 799.368 1444.03 799.466 1425.32 C 799.772 1421.09 793.729 1407.03 789.842 1405.03 C 782.002 1411.46 776.612 1474.3 772.953 1486.79 C 770.696 1496.87 763.95 1506.14 761.114 1515.91 C 757.895 1527 756.954 1539.28 753.186 1550.26 C 742.224 1582.23 694.391 1594.69 666.133 1579.9 C 666.126 1558.7 662.449 1549.83 647.862 1533.29 C 661.578 1497.41 675.558 1428.83 673.731 1390.51 C 655.815 1413.19 649.824 1456.99 643.877 1485.24 C 641.528 1496.4 638.214 1509.79 636.894 1520.93 L 635.588 1522.49 C 632.507 1521.88 633.709 1522.68 631.633 1520.56 C 636.771 1480.63 613.3 1430.07 588.749 1400.13 C 585.924 1396.68 582.655 1392.96 578.498 1391.21 L 576.441 1391.67 C 573.044 1398.71 589.017 1426.56 592.901 1434.2 C 607.584 1463.06 617.46 1493.24 614.206 1526.11 C 610.088 1525.98 605.037 1525.96 601.014 1525.62 C 596.528 1520.41 592.635 1516 588.686 1510.36 C 589.331 1506.99 591.006 1501.23 589.716 1498.44 C 585.468 1497.7 580.175 1502.1 576.197 1504.7 C 543.712 1494.77 527.494 1503.04 518.16 1536.18 L 517.745 1535.8 L 516.138 1537.01 C 508.021 1534.49 500.398 1531.96 491.707 1532.36 C 489.778 1532.44 489.71 1531.85 487.932 1530.79 C 518.521 1482.59 496.66 1493.51 496.746 1449.78 C 496.671 1420.92 498.436 1370.15 504.54 1342.14 C 507.319 1316.53 517.328 1269.64 526.9 1245.94 C 539.22 1246.06 583.216 1246.39 590.311 1237.49 C 584.018 1225.85 449.996 1248.07 399.602 1137.75 C 412.709 1134.19 445.218 1132.83 451.33 1127.15 L 451.174 1125.41 C 439.416 1116.43 407.403 1119.82 393.638 1123.91 C 390.645 1114.35 388.738 1105.75 386.527 1096.02 C 405.587 1096.07 424.646 1096.01 443.705 1095.86 C 426.747 1080.82 405.802 1083.45 384.112 1084.12 C 383.632 1069.91 383.3 1059.03 384.706 1044.95 C 386.241 1029.66 388.827 1014.49 392.444 999.545 C 395.862 985.992 400.858 971.621 402.443 957.904 C 402.795 954.858 400.962 948.653 400.098 945.491 C 393.189 922.739 386.565 894.55 386.108 870.986 C 385.597 844.593 384.27 805.789 403.039 785.394 L 419.9 786.234 C 458.405 792.933 498.608 817.711 526.24 844.85 C 554.209 838.163 589.67 830.317 618.508 828.78 C 629.019 827.456 648.416 827.223 659.742 826.692 L 660.982 826.98 C 694.424 827.978 747.413 833.374 775.21 853.152 z"/>
<path transform="translate(0,0)" fill="rgb(70,62,62)" d="M 775.21 853.152 C 807.851 822.403 844.08 795.716 887.804 783.354 C 893.163 782.506 909.47 774.632 912.785 780.831 C 917.439 789.871 917.607 800.923 918.632 810.864 C 922.708 848.941 921.584 885.764 915.642 923.528 C 913.738 935.629 904.244 963.317 905.286 972.957 C 907.135 990.059 917.399 1015.84 920.651 1033.89 C 907.209 1034.8 886.962 1033.23 875.647 1035.73 C 871.483 1035.46 869.226 1035.41 865.205 1034.46 C 834.886 1031.82 805.129 1024.68 776.911 1013.28 C 751.647 1004.15 721.285 978.681 705.65 956.991 C 705.707 954.973 704.686 950.707 703.579 949.204 C 675.825 911.524 669.97 871.765 660.982 826.98 C 694.424 827.978 747.413 833.374 775.21 853.152 z"/>
<path transform="translate(0,0)" fill="rgb(0,0,0)" d="M 776.911 1013.28 C 780.695 1012.13 808.038 1021.11 815.302 1023.07 C 831.421 1027.42 850.706 1028.63 865.693 1032.33 L 866.863 1033.54 L 865.205 1034.46 C 834.886 1031.82 805.129 1024.68 776.911 1013.28 z"/>
<path transform="translate(0,0)" fill="rgb(253,139,132)" d="M 884.764 808.264 C 888.617 812.654 889.452 813.761 895.163 814.543 L 896.545 814.213 C 900.562 822.01 900.872 841.076 900.955 849.998 C 905.475 870.47 898.113 885.755 892.325 903.876 C 891.757 903.916 891.154 904.102 890.617 903.913 C 885.915 914.218 882.862 920.234 876.632 929.663 C 861.065 911.235 847.722 896.809 826.167 885.532 C 822.25 885.726 818.43 885.394 815.104 883.26 C 810.911 867.241 868.63 816.014 884.764 808.264 z"/>
<path transform="translate(0,0)" fill="rgb(0,0,0)" d="M 884.764 808.264 C 888.617 812.654 889.452 813.761 895.163 814.543 C 871.443 837.406 849.163 861.829 826.167 885.532 C 822.25 885.726 818.43 885.394 815.104 883.26 C 810.911 867.241 868.63 816.014 884.764 808.264 z"/>
<path transform="translate(0,0)" fill="rgb(31,32,36)" d="M 900.955 849.998 C 905.475 870.47 898.113 885.755 892.325 903.876 C 891.757 903.916 891.154 904.102 890.617 903.913 C 896.592 884.769 899.163 869.64 900.955 849.998 z"/>
<path transform="translate(0,0)" fill="rgb(219,129,55)" d="M 403.039 785.394 L 419.9 786.234 C 458.405 792.933 498.608 817.711 526.24 844.85 C 554.209 838.163 589.67 830.317 618.508 828.78 C 618.11 844.986 613.44 859.553 609.891 874.959 C 598.987 922.286 583.796 967.985 547.225 1002.22 C 513.186 1034.09 488.422 1039.64 443.856 1042.71 C 427.2 1043.86 413.383 1046.35 395.559 1045.81 C 391.93 1045.69 388.309 1045.4 384.706 1044.95 C 386.241 1029.66 388.827 1014.49 392.444 999.545 C 395.862 985.992 400.858 971.621 402.443 957.904 C 402.795 954.858 400.962 948.653 400.098 945.491 C 393.189 922.739 386.565 894.55 386.108 870.986 C 385.597 844.593 384.27 805.789 403.039 785.394 z"/>
<path transform="translate(0,0)" fill="rgb(253,139,132)" d="M 403.039 785.394 L 419.9 786.234 C 421.48 791.393 421.903 797.058 422.554 802.459 C 421.414 804.424 422.098 803.781 420.837 804.69 C 419.484 805.592 418.337 805.741 418.133 807.507 C 417.007 817.263 460.763 865.238 469.415 874.606 C 472.685 878.146 476.089 881.349 480.057 884.104 C 457.356 903.166 424.653 929.498 400.098 945.491 C 393.189 922.739 386.565 894.55 386.108 870.986 C 385.597 844.593 384.27 805.789 403.039 785.394 z"/>
<path transform="translate(0,0)" fill="rgb(0,0,0)" d="M 420.837 804.69 C 431.976 807.293 481.389 857.218 487.416 869.036 C 490.062 874.224 492.679 877.075 491.543 883.101 C 488.098 887.123 484.609 885.853 480.057 884.104 C 476.089 881.349 472.685 878.146 469.415 874.606 C 460.763 865.238 417.007 817.263 418.133 807.507 C 418.337 805.741 419.484 805.592 420.837 804.69 z"/>
<path transform="translate(0,0)" fill="rgb(219,129,55)" d="M 892.598 1327.08 C 933.537 1384.74 945.281 1444.41 937.375 1513.72 C 902.258 1517.55 868.613 1514.2 847.385 1481.48 C 829.187 1453.44 834.914 1418.88 841.605 1388.03 C 847.849 1391.22 854.786 1394.94 860.728 1388.94 C 875.443 1374.07 890.708 1348.06 892.598 1327.08 z"/>
<path transform="translate(0,0)" fill="rgb(70,62,62)" d="M 804.649 1244.6 L 816.917 1244.24 C 824.865 1249.96 836.968 1259.52 843.943 1265.86 C 854.168 1275.15 888.68 1315.89 892.598 1327.08 C 890.708 1348.06 875.443 1374.07 860.728 1388.94 C 854.786 1394.94 847.849 1391.22 841.605 1388.03 C 836.397 1383.18 829.25 1376.68 825.641 1370.69 C 825.753 1367.91 822.197 1361.79 820.85 1359.12 C 807.374 1332.4 798.018 1302.93 802.133 1272.71 C 803.124 1265.43 805.856 1251.7 804.649 1244.6 z"/>
<path transform="translate(0,0)" fill="rgb(219,129,55)" d="M 504.54 1342.14 C 513.944 1337.07 526.337 1329.71 533.842 1322.05 C 542.503 1341.34 542.896 1360.65 542.156 1381.47 C 541.085 1411.63 529.004 1435.91 500.427 1448.23 C 499.204 1448.76 497.977 1449.28 496.746 1449.78 C 496.671 1420.92 498.436 1370.15 504.54 1342.14 z"/>
<path transform="translate(0,0)" fill="rgb(0,0,0)" d="M 659.742 826.692 L 660.982 826.98 C 669.97 871.765 675.825 911.524 703.579 949.204 C 704.686 950.707 705.707 954.973 705.65 956.991 C 682.281 926.897 668.749 887.228 661.905 849.907 C 660.796 843.858 659.198 832.372 659.742 826.692 z"/>
<path transform="translate(0,0)" fill="rgb(0,0,0)" d="M 798.084 1245.26 C 799.979 1244.4 802.376 1244.65 804.649 1244.6 C 805.856 1251.7 803.124 1265.43 802.133 1272.71 C 798.018 1302.93 807.374 1332.4 820.85 1359.12 C 822.197 1361.79 825.753 1367.91 825.641 1370.69 C 805.168 1345.15 797.436 1307.73 798.512 1275.07 C 798.71 1269.07 803.547 1251.27 801.741 1246.34 L 798.084 1245.26 z"/>
<path transform="translate(0,0)" fill="rgb(31,32,36)" d="M 920.651 1033.89 L 920.92 1036.55 C 908.114 1038.29 888.447 1037.1 875.647 1035.73 C 886.962 1033.23 907.209 1034.8 920.651 1033.89 z"/>
<path transform="translate(0,0)" fill="rgb(0,0,0)" d="M 529.561 1027.28 C 552.547 1024.4 573.544 1040.63 576.543 1063.6 C 579.542 1086.57 563.416 1107.65 540.46 1110.76 C 517.342 1113.89 496.084 1097.63 493.063 1074.5 C 490.043 1051.36 506.413 1030.19 529.561 1027.28 z"/>
<path transform="translate(0,0)" fill="rgb(254,254,232)" d="M 537.067 1044.66 C 540.265 1043.05 544.088 1043.31 547.034 1045.35 C 549.98 1047.39 551.579 1050.87 551.203 1054.43 C 550.826 1057.99 548.534 1061.06 545.227 1062.44 C 540.364 1064.46 534.775 1062.27 532.578 1057.48 C 530.381 1052.7 532.365 1047.03 537.067 1044.66 z"/>
<path transform="translate(0,0)" fill="rgb(0,0,0)" d="M 773.546 1030.59 C 796.154 1027.25 817.223 1042.78 820.727 1065.36 C 824.231 1087.94 808.858 1109.12 786.301 1112.79 C 763.512 1116.5 742.068 1100.93 738.527 1078.12 C 734.987 1055.3 750.707 1033.97 773.546 1030.59 z"/>
<path transform="translate(0,0)" fill="rgb(254,254,232)" d="M 773.232 1043.35 C 778.764 1041.27 784.947 1043.98 787.168 1049.45 C 789.389 1054.93 786.838 1061.18 781.418 1063.54 C 777.789 1065.12 773.589 1064.6 770.448 1062.2 C 767.306 1059.79 765.716 1055.87 766.294 1051.95 C 766.873 1048.04 769.529 1044.75 773.232 1043.35 z"/>
<path transform="translate(0,0)" fill="rgb(0,0,0)" d="M 663.403 1116.08 C 666.268 1115.35 668.171 1114.42 670.75 1115.61 L 671.081 1116.16 C 676.908 1133.51 691.698 1150.36 710.403 1135.04 C 715.589 1130.79 721.33 1115.91 728.531 1117.69 C 729.33 1119.08 729.417 1119.29 729.492 1120.94 C 729.867 1128.57 727.076 1136.02 721.776 1141.53 C 706.18 1157.73 680.45 1154 665.452 1138.73 C 649.324 1157.98 617.29 1161.98 598.963 1141.2 C 595.931 1137.76 592.261 1127.01 597.339 1123.8 C 602.622 1124.25 606.971 1129.91 610.483 1133.58 C 630.386 1154.36 654.026 1141.94 662.955 1117.35 L 663.403 1116.08 z"/>
<path transform="translate(0,0)" fill="rgb(253,139,132)" d="M 830.248 1121.19 C 862.225 1118.09 874.381 1145.89 834.737 1149.61 C 801.023 1148.66 792.383 1130.37 830.248 1121.19 z"/>
<path transform="translate(0,0)" fill="rgb(253,139,132)" d="M 481.753 1119.16 C 509.702 1117.69 529.604 1143.81 494.977 1146.51 C 487.043 1146.74 459.644 1145.92 463.882 1129.08 C 465.097 1124.24 476.713 1120.55 481.753 1119.16 z"/>
<path transform="translate(0,0)" fill="rgb(253,139,132)" d="M 663.403 1116.08 C 644.441 1114.27 619.627 1104.58 651.786 1091.19 C 662.238 1086.84 695.157 1089.52 682.559 1108.33 C 680.842 1111.07 673.1 1112.75 671.081 1116.16 L 670.75 1115.61 C 668.171 1114.42 666.268 1115.35 663.403 1116.08 z"/>
<path transform="translate(0,0)" fill="rgb(254,230,186)" d="M 1299.89 812.115 C 1331.35 810.33 1354.67 811.564 1386.1 815.756 C 1432.04 820.942 1510.4 841.122 1540.27 877.702 C 1577.68 852.349 1612.05 863.517 1636.15 900.008 C 1654.25 927.588 1661.68 959.153 1678.61 987.643 C 1701.08 1025.66 1738.28 1053.62 1729.08 1102.57 C 1723.72 1131.04 1689.31 1138.26 1665.72 1131.8 C 1597.54 1113.12 1573.71 1032.2 1559.95 971.267 C 1557.25 959.292 1559.18 938.98 1548.76 931.915 C 1539.56 931.672 1540.17 956.55 1540.39 963.231 C 1542.2 1017.98 1561.76 1070.65 1596.11 1113.31 C 1596.19 1126.84 1594.34 1142.64 1586.76 1154.25 C 1555.82 1214.65 1482.4 1228.13 1421.51 1233.41 C 1418.97 1233.63 1416.26 1234.65 1414.27 1236.23 C 1413.84 1247.42 1471.19 1243.67 1478.49 1243 C 1482.61 1242.61 1486.72 1242.14 1490.83 1241.6 C 1493.62 1241.13 1496.36 1240.58 1499.17 1240.34 C 1503.15 1252.26 1508.02 1265.96 1510.64 1278.6 C 1521.42 1330.59 1526.2 1385.45 1523.46 1438.51 C 1523 1447.37 1516.5 1460.97 1514.68 1470.08 C 1511.81 1484.46 1510.86 1498.63 1507.19 1512.74 C 1492.12 1504.25 1480.38 1503.91 1464.85 1511.15 C 1461.87 1513.25 1459.09 1515.61 1456.54 1518.21 C 1445.46 1529.59 1444.03 1541.18 1443.85 1555.9 C 1422.45 1552.5 1397.85 1556.56 1390.75 1580.18 C 1387.37 1578.02 1382.75 1575.22 1380.06 1572.36 C 1362.62 1553.82 1376.79 1521.23 1385.06 1502.07 C 1387.92 1491.43 1387.91 1468.88 1388.25 1457.07 L 1390.03 1393.88 C 1390.12 1386.79 1390.46 1378.3 1389.82 1371.35 L 1388.48 1370.03 C 1381.45 1372.35 1374.83 1389.81 1373.07 1396.55 C 1352.08 1401.52 1340.46 1399.88 1320.12 1394.08 C 1318.41 1385.62 1304.54 1363.48 1295.63 1364.99 C 1294.24 1369.03 1297.59 1381.51 1298.61 1386.3 C 1298.18 1387.51 1298.52 1386.76 1297.31 1388.4 C 1287.83 1388.33 1273.47 1382.94 1266.37 1377.18 C 1245.15 1359.95 1240.64 1325.62 1237.94 1300.29 C 1237.59 1297.01 1237.12 1295.95 1234.98 1294.37 C 1229.42 1295.97 1220.36 1311.79 1212.04 1311.98 C 1191.53 1312.44 1206.48 1248.49 1211.79 1243.58 C 1222.44 1244.2 1261.14 1245.88 1267.51 1238.09 C 1264.38 1232 1243.39 1231.1 1236.25 1230.01 C 1223.42 1228.02 1210.7 1225.38 1198.14 1222.08 C 1159.42 1211.79 1123.74 1193.32 1103.22 1157.79 C 1096.99 1146.93 1095.04 1129.56 1093.06 1117.07 C 1129.23 1065.8 1147.41 993.064 1137.83 930.639 C 1137.22 926.639 1134.79 920.747 1131.13 918.582 L 1128.98 919.222 C 1126.33 922.187 1124.57 927.099 1124.19 930.992 C 1120.52 968.626 1117.28 1003.94 1105.55 1040.27 C 1105.49 1041.55 1105.56 1041.27 1105.1 1042.85 C 1097.02 1070.19 1082.91 1104.21 1057.2 1119.1 C 1041.65 1128.11 1020.65 1131.25 1003.62 1126.13 C 984.791 1120.47 971.989 1110.54 962.305 1093.68 C 977.599 1095.7 991.623 1099.78 1006.76 1101.72 C 1010.86 1102.25 1011.92 1101.4 1014.77 1098.8 C 1016.25 1087.61 966.736 1082.11 958.025 1081.17 C 957.817 1073.13 957.602 1045.22 962.623 1039.1 C 989.918 1005.84 1009.96 975.078 1031.57 937.935 C 1035.69 924.564 1056.5 890.925 1065.34 879.887 C 1088.05 851.498 1130.19 842.452 1153.88 876.884 C 1189.42 832.102 1244.9 816.118 1299.89 812.115 z"/>
<path transform="translate(0,0)" fill="url(#Gradient4)" d="M 1153.88 876.884 C 1189.42 832.102 1244.9 816.118 1299.89 812.115 L 1300.03 813.14 C 1301.77 825.105 1306.83 843.896 1308.22 854.524 C 1314.62 903.39 1326.41 1013.88 1294.42 1053.77 C 1264.68 1090.86 1175.62 1150.98 1125.43 1156.91 C 1118.61 1157.72 1110.13 1158.56 1103.22 1157.79 C 1096.99 1146.93 1095.04 1129.56 1093.06 1117.07 C 1129.23 1065.8 1147.41 993.064 1137.83 930.639 C 1137.22 926.639 1134.79 920.747 1131.13 918.582 L 1128.98 919.222 C 1126.33 922.187 1124.57 927.099 1124.19 930.992 C 1120.52 968.626 1117.28 1003.94 1105.55 1040.27 C 1105.49 1041.55 1105.56 1041.27 1105.1 1042.85 C 1097.02 1070.19 1082.91 1104.21 1057.2 1119.1 C 1041.65 1128.11 1020.65 1131.25 1003.62 1126.13 C 984.791 1120.47 971.989 1110.54 962.305 1093.68 C 977.599 1095.7 991.623 1099.78 1006.76 1101.72 C 1010.86 1102.25 1011.92 1101.4 1014.77 1098.8 C 1016.25 1087.61 966.736 1082.11 958.025 1081.17 C 957.817 1073.13 957.602 1045.22 962.623 1039.1 C 989.918 1005.84 1009.96 975.078 1031.57 937.935 C 1035.69 924.564 1056.5 890.925 1065.34 879.887 C 1088.05 851.498 1130.19 842.452 1153.88 876.884 z"/>
<path transform="translate(0,0)" fill="rgb(124,55,17)" d="M 1031.57 937.935 C 1031.11 942.218 1030.93 942.712 1028.77 946.445 L 1029.12 948.53 C 1029.45 948.674 1032.98 950.211 1032.98 950.211 C 1047.05 973.727 1065.84 991.583 1076.34 1017.21 C 1081.51 1029.84 1086.26 1057.26 1092.85 1066.98 L 1092.55 1071.54 C 1096.98 1066.89 1101.73 1040.8 1105.55 1040.27 C 1105.49 1041.55 1105.56 1041.27 1105.1 1042.85 C 1097.02 1070.19 1082.91 1104.21 1057.2 1119.1 C 1041.65 1128.11 1020.65 1131.25 1003.62 1126.13 C 984.791 1120.47 971.989 1110.54 962.305 1093.68 C 977.599 1095.7 991.623 1099.78 1006.76 1101.72 C 1010.86 1102.25 1011.92 1101.4 1014.77 1098.8 C 1016.25 1087.61 966.736 1082.11 958.025 1081.17 C 957.817 1073.13 957.602 1045.22 962.623 1039.1 C 989.918 1005.84 1009.96 975.078 1031.57 937.935 z"/>
<path transform="translate(0,0)" fill="rgb(0,0,0)" d="M 1210.28 1002.43 C 1234.86 999.079 1257.51 1016.28 1260.89 1040.86 C 1264.26 1065.44 1247.08 1088.11 1222.51 1091.51 C 1197.89 1094.91 1175.19 1077.7 1171.81 1053.09 C 1168.43 1028.47 1185.66 1005.78 1210.28 1002.43 z"/>
<path transform="translate(0,0)" fill="rgb(254,254,232)" d="M 1216.04 1016.64 C 1219.65 1014.87 1223.93 1015.19 1227.23 1017.48 C 1230.53 1019.76 1232.34 1023.65 1231.95 1027.65 C 1231.57 1031.64 1229.06 1035.12 1225.39 1036.74 C 1219.86 1039.17 1213.41 1036.74 1210.87 1031.27 C 1208.32 1025.79 1210.62 1019.29 1216.04 1016.64 z"/>
<path transform="translate(0,0)" fill="url(#Gradient3)" d="M 1386.1 815.756 C 1432.04 820.942 1510.4 841.122 1540.27 877.702 C 1577.68 852.349 1612.05 863.517 1636.15 900.008 C 1654.25 927.588 1661.68 959.153 1678.61 987.643 C 1701.08 1025.66 1738.28 1053.62 1729.08 1102.57 C 1723.72 1131.04 1689.31 1138.26 1665.72 1131.8 C 1597.54 1113.12 1573.71 1032.2 1559.95 971.267 C 1557.25 959.292 1559.18 938.98 1548.76 931.915 C 1539.56 931.672 1540.17 956.55 1540.39 963.231 C 1542.2 1017.98 1561.76 1070.65 1596.11 1113.31 C 1596.19 1126.84 1594.34 1142.64 1586.76 1154.25 C 1584.46 1154.31 1574.55 1156.06 1571.5 1156.46 C 1552.08 1158.98 1538.78 1156.76 1520.9 1148.99 C 1502.15 1140.85 1490.36 1130.14 1474.18 1118.8 C 1439.99 1094.84 1398.18 1063.92 1382.46 1023.76 C 1362.88 973.758 1363.97 865.049 1386.1 815.756 z"/>
<path transform="translate(0,0)" fill="rgb(0,0,0)" d="M 1465.93 1003.9 C 1489.44 998.409 1512.96 1013.01 1518.46 1036.52 C 1523.97 1060.02 1509.38 1083.55 1485.88 1089.07 C 1462.35 1094.59 1438.81 1079.99 1433.3 1056.46 C 1427.78 1032.94 1442.4 1009.4 1465.93 1003.9 z"/>
<path transform="translate(0,0)" fill="rgb(254,254,232)" d="M 1470.75 1015.91 C 1488.92 1014.36 1494.73 1027.34 1480.46 1037.76 C 1464.97 1039.16 1458.32 1027.41 1470.75 1015.91 z"/>
<path transform="translate(0,0)" fill="rgb(219,129,55)" d="M 1490.83 1241.6 C 1493.62 1241.13 1496.36 1240.58 1499.17 1240.34 C 1503.15 1252.26 1508.02 1265.96 1510.64 1278.6 C 1521.42 1330.59 1526.2 1385.45 1523.46 1438.51 C 1523 1447.37 1516.5 1460.97 1514.68 1470.08 C 1511.81 1484.46 1510.86 1498.63 1507.19 1512.74 C 1492.12 1504.25 1480.38 1503.91 1464.85 1511.15 C 1461.87 1513.25 1459.09 1515.61 1456.54 1518.21 C 1445.46 1529.59 1444.03 1541.18 1443.85 1555.9 C 1422.45 1552.5 1397.85 1556.56 1390.75 1580.18 C 1387.37 1578.02 1382.75 1575.22 1380.06 1572.36 C 1362.62 1553.82 1376.79 1521.23 1385.06 1502.07 C 1387.92 1491.43 1387.91 1468.88 1388.25 1457.07 L 1390.03 1393.88 C 1390.85 1393.95 1392.69 1394.15 1393.51 1393.99 C 1450.81 1383.3 1465.73 1329.16 1461.84 1280.71 C 1467.36 1285.82 1474.14 1298.37 1480.74 1298.25 C 1499.17 1297.91 1491.35 1250.07 1490.83 1241.6 z"/>
<path transform="translate(0,0)" fill="rgb(254,230,186)" d="M 1385.06 1502.07 C 1390.93 1501.98 1462.72 1510.22 1464.85 1511.15 C 1461.87 1513.25 1459.09 1515.61 1456.54 1518.21 C 1445.46 1529.59 1444.03 1541.18 1443.85 1555.9 C 1422.45 1552.5 1397.85 1556.56 1390.75 1580.18 C 1387.37 1578.02 1382.75 1575.22 1380.06 1572.36 C 1362.62 1553.82 1376.79 1521.23 1385.06 1502.07 z"/>
<path transform="translate(0,0)" fill="rgb(0,0,0)" d="M 1333.86 1053.19 C 1351.48 1052 1371.06 1057.22 1378.7 1074.99 C 1381.68 1082 1381.62 1089.94 1378.52 1096.91 C 1372.98 1109.48 1361.42 1114.51 1349.54 1118.88 C 1367.08 1152.71 1395.36 1138.26 1412.61 1116.32 C 1414.36 1114.1 1417.23 1112.97 1420.07 1113.12 C 1425.28 1119.69 1418.67 1134.03 1414.81 1139.84 C 1409.02 1148.57 1403.6 1153.87 1393.6 1156.78 C 1388.17 1184.77 1379.07 1214.22 1348.83 1223.61 C 1308.93 1226.77 1295.01 1188.85 1288.55 1156.71 C 1274.37 1149.32 1258.63 1136.4 1260.61 1118.6 C 1261.1 1114.16 1260.93 1112.12 1264.35 1109.03 C 1276.04 1111.15 1288.88 1165.68 1334.32 1118.79 C 1321.31 1113.94 1308.76 1107.55 1304.74 1093 C 1302.74 1085.56 1303.76 1077.62 1307.57 1070.93 C 1313.69 1060.2 1322.9 1056.46 1333.86 1053.19 z"/>
<path transform="translate(0,0)" fill="rgb(253,94,145)" d="M 1339.15 1139.04 C 1353.74 1148.75 1358.81 1152.44 1376 1155.47 C 1372 1177.73 1365.3 1195.69 1343.57 1205.99 C 1322.02 1206.86 1309.27 1172.92 1306.06 1155.56 C 1320.48 1151.39 1327.22 1148.07 1339.15 1139.04 z"/>
<path transform="translate(0,0)" fill="rgb(254,222,90)" d="M 774.385 650.069 C 679.359 506.201 733.844 339.568 871.619 248.871 C 935.315 206.167 1013.43 190.678 1088.6 205.848 C 1100.91 208.375 1111.82 211.594 1123.8 215.175 C 1061.58 237.788 1017.68 275.655 988.848 335.853 C 956.452 403.497 960.847 496.923 1037.42 531.561 C 1040.03 532.751 1042.66 533.883 1045.32 534.959 C 1037.03 559.402 1016.48 588.971 986.879 580.751 C 969.838 576.019 968.653 555.437 957.675 553.924 C 941.212 562.026 981.695 628.014 1038.44 577.263 C 1053.16 600.123 1074.35 612.3 1098.68 623.314 C 1165.5 653.566 1238.66 649.07 1300.23 609.338 C 1302.66 607.774 1305.04 606.137 1307.37 604.431 C 1294.54 641.191 1280.41 663.86 1254.98 692.408 C 1183.38 769.964 1075.13 797.649 973.059 778.314 C 892.407 763.705 820.906 717.551 774.385 650.069 z"/>
<path transform="translate(0,0)" fill="rgb(251,187,32)" d="M 774.385 650.069 C 780.642 651.04 829.622 677.42 838.766 683.258 C 871.145 703.931 896.502 711.08 931.516 724.306 C 994.558 748.119 1046.39 755.111 1113.11 742.381 C 1154.86 734.87 1191.14 715.309 1231.32 702.281 C 1240.03 699.733 1244.61 694.032 1254.98 692.408 C 1183.38 769.964 1075.13 797.649 973.059 778.314 C 892.407 763.705 820.906 717.551 774.385 650.069 z"/>
<path transform="translate(0,0)" fill="rgb(254,254,232)" d="M 819.604 321.954 C 841.695 321.44 822.616 366.189 817.07 376.102 C 808.679 391.101 795.17 400.328 778.73 404.628 C 764.556 400.763 767.597 385.039 771.618 374.757 C 779.637 354.251 799.564 330.986 819.604 321.954 z"/>
<path transform="translate(0,0)" fill="rgb(0,0,0)" d="M 942.345 467.515 C 945.627 468.121 945.42 468.003 948.047 470.046 C 950.111 473.65 950.235 476.356 949.304 480.332 C 943.362 505.725 914.87 524.991 889.889 512.242 C 880.663 507.533 875.514 500.946 870.357 492.481 C 868.255 487.174 866.035 474.017 873.19 472.306 C 883.664 476.753 879.591 491.098 891.931 497.945 C 899.546 502.17 907.567 503.613 916.097 501.143 C 931.181 496.774 935.511 479.876 942.345 467.515 z"/>
<path transform="translate(0,0)" fill="rgb(219,129,55)" d="M 1172.26 1234.46 C 1185.96 1239.01 1197.67 1241.11 1211.79 1243.58 C 1206.48 1248.49 1191.53 1312.44 1212.04 1311.98 C 1220.36 1311.79 1229.42 1295.97 1234.98 1294.37 C 1237.12 1295.95 1237.59 1297.01 1237.94 1300.29 C 1240.64 1325.62 1245.15 1359.95 1266.37 1377.18 C 1273.47 1382.94 1287.83 1388.33 1297.31 1388.4 C 1298.52 1386.76 1298.18 1387.51 1298.61 1386.3 C 1302.51 1402.44 1305.95 1418.68 1308.93 1435.01 C 1312.51 1454.6 1316.11 1483.55 1325.26 1500.94 C 1339.83 1520.34 1349.92 1544.61 1329.34 1564.25 C 1327.09 1558.45 1324.06 1547.49 1318.64 1544.96 C 1310.04 1551.91 1321.16 1579.32 1296.97 1578.94 C 1271.87 1578.54 1287.72 1547.66 1277.23 1544.42 C 1267.47 1550.84 1278.34 1582.14 1236.72 1575.98 C 1232.2 1575.3 1228.43 1573.28 1225.78 1569.14 C 1220.96 1561.63 1223.1 1549.84 1220.88 1542.3 C 1217.82 1531.91 1210.66 1522.46 1207.24 1511.85 C 1206.59 1488.75 1210.62 1444.96 1192.09 1428.04 C 1184.79 1421.38 1151.25 1395.44 1141.87 1400.4 C 1140.18 1414.3 1169.82 1429.37 1176.68 1437.84 C 1191.39 1456 1187.08 1497.38 1185.79 1518.49 L 1186.14 1519.42 C 1191.53 1533.53 1200.82 1545.95 1195.03 1562.95 C 1191.48 1573.38 1168.92 1581.67 1159.7 1577.26 C 1152.75 1573.93 1148.46 1553.99 1143.98 1545.7 C 1137.43 1555.91 1135.23 1562.38 1133.19 1574.54 C 1119.42 1570.43 1114.39 1568.48 1103.94 1558.16 C 1073.88 1530.96 1056.13 1500.81 1055.15 1459.62 C 1054.8 1444.69 1065.07 1429.65 1069.19 1415.58 C 1091 1340.94 1116.52 1289.81 1172.26 1234.46 z"/>
<path transform="translate(0,0)" fill="rgb(254,230,186)" d="M 1325.26 1500.94 C 1339.83 1520.34 1349.92 1544.61 1329.34 1564.25 C 1327.09 1558.45 1324.06 1547.49 1318.64 1544.96 C 1310.04 1551.91 1321.16 1579.32 1296.97 1578.94 C 1271.87 1578.54 1287.72 1547.66 1277.23 1544.42 C 1267.47 1550.84 1278.34 1582.14 1236.72 1575.98 C 1232.2 1575.3 1228.43 1573.28 1225.78 1569.14 C 1220.96 1561.63 1223.1 1549.84 1220.88 1542.3 C 1217.82 1531.91 1210.66 1522.46 1207.24 1511.85 C 1226.94 1512.26 1254.55 1508.92 1274.34 1506.6 C 1292.37 1504.49 1306.46 1500.56 1325.26 1500.94 z"/>
<path transform="translate(0,0)" fill="rgb(254,230,186)" d="M 1103.94 1558.16 C 1107.02 1541.21 1101.74 1523.32 1123.33 1514.07 C 1140.48 1506.72 1169.07 1512.56 1185.79 1518.49 L 1186.14 1519.42 C 1191.53 1533.53 1200.82 1545.95 1195.03 1562.95 C 1191.48 1573.38 1168.92 1581.67 1159.7 1577.26 C 1152.75 1573.93 1148.46 1553.99 1143.98 1545.7 C 1137.43 1555.91 1135.23 1562.38 1133.19 1574.54 C 1119.42 1570.43 1114.39 1568.48 1103.94 1558.16 z"/>
<path transform="translate(0,0)" fill="rgb(253,94,145)" d="M 1473.53 1590.35 C 1464.28 1575.59 1457.52 1560.47 1461.32 1542.85 C 1466.88 1517.11 1499.51 1516.7 1510.36 1538.62 C 1514.45 1546.89 1514.22 1551.95 1514.09 1560.88 C 1527.52 1546.48 1534.68 1542.76 1544.23 1562.22 C 1539.31 1565.72 1534.75 1568.91 1529.69 1572.2 C 1544.06 1566.79 1552.88 1563.94 1568.51 1564.17 C 1608.98 1588.21 1577 1633.63 1526.65 1621.44 C 1532.66 1625.71 1536.49 1625.7 1541.97 1628.91 C 1563.23 1641.38 1571.98 1669.96 1547.72 1683.79 C 1520.16 1686.04 1502.49 1679.9 1492.13 1652 C 1487.54 1667.15 1480.77 1677.67 1466.17 1685.3 C 1450.11 1693.69 1423.63 1693.18 1415.15 1674.23 C 1412.33 1668.08 1412.27 1661.02 1414.99 1654.82 C 1420.38 1642.32 1432.94 1635.62 1445.02 1631.18 L 1443.72 1627.78 C 1432.76 1629.69 1425.3 1629.51 1415.49 1623.64 C 1403.11 1616.24 1399.55 1592.8 1408.56 1582.06 C 1423.89 1563.78 1451.95 1571.85 1467.3 1584.66 C 1469.46 1586.47 1471.54 1588.37 1473.53 1590.35 z"/>
<path transform="translate(0,0)" fill="rgb(0,0,0)" d="M 1459.75 1624.55 L 1458.04 1627.12 L 1445.02 1631.18 L 1443.72 1627.78 L 1459.75 1624.55 z"/>
<path transform="translate(0,0)" fill="rgb(62,18,20)" d="M 1459.75 1624.55 C 1462.69 1623.51 1470.89 1619.83 1473.58 1620.31 C 1468.28 1624.47 1464.42 1625.32 1458.04 1627.12 L 1459.75 1624.55 z"/>
<path transform="translate(0,0)" fill="rgb(251,187,32)" d="M 1510.48 1612.72 C 1491.57 1630.11 1467.69 1618.57 1472.54 1592.65 C 1475.54 1576.63 1495.29 1574.75 1508.49 1582.55 C 1515.05 1586.38 1513.9 1585.53 1520.83 1580.87 L 1515.43 1587.78 C 1514.98 1595.2 1514.04 1599.95 1517.35 1606.63 L 1519.55 1611.13 L 1519.22 1611.88 L 1514.4 1608.81 C 1512.83 1610.24 1511.91 1611.16 1510.48 1612.72 z"/>
<path transform="translate(0,0)" fill="rgb(0,0,0)" d="M 1508.49 1582.55 C 1515.05 1586.38 1513.9 1585.53 1520.83 1580.87 L 1515.43 1587.78 C 1514.98 1595.2 1514.04 1599.95 1517.35 1606.63 L 1519.55 1611.13 L 1519.22 1611.88 L 1514.4 1608.81 C 1512.83 1610.24 1511.91 1611.16 1510.48 1612.72 C 1513.59 1601.06 1514.41 1593.28 1508.49 1582.55 z"/>
<path transform="translate(0,0)" fill="rgb(254,77,76)" d="M 256.138 1190.04 C 276.41 1189.21 276.4 1208.3 286.771 1218.47 C 297.103 1225.98 305.942 1204.81 317.809 1205.56 C 338.452 1206.88 341.057 1237.91 341.699 1253.54 C 343.515 1297.81 307.982 1345.05 261.684 1345.38 C 209.876 1339.09 162.461 1289.95 173.032 1235.87 C 175.3 1224.26 188.028 1219.84 198.452 1223.01 C 207.631 1225.8 214.95 1230.65 223.92 1234 L 225.21 1234.47 C 236.516 1216.88 236.231 1198.97 256.138 1190.04 z"/>
<path transform="translate(0,0)" fill="rgb(164,17,18)" d="M 290.877 1226.74 C 292.876 1227.47 294.945 1228.25 295.879 1229.99 C 303.641 1244.46 305.676 1287.54 302.988 1301.67 C 300.615 1301.93 301.537 1301.9 299.073 1300.97 C 297.705 1298.82 297.047 1285.33 297.218 1282.44 C 298.258 1264.87 290.046 1243.23 290.877 1226.74 z"/>
<path transform="translate(0,0)" fill="rgb(124,55,17)" d="M 1686.68 1448.35 C 1735.03 1442.25 1785.33 1484.14 1755.96 1533.97 C 1747.18 1548.87 1730.64 1556.34 1714.23 1559.83 C 1663.91 1564.89 1613.07 1518.67 1646.51 1468.68 C 1656.26 1454.12 1670.47 1450.71 1686.68 1448.35 z"/>
<path transform="translate(0,0)" fill="url(#Gradient2)" d="M 1704.03 1463.51 C 1748.95 1456.18 1764.34 1517.4 1738.86 1537.9 C 1736.02 1537.93 1737.23 1538.4 1734.97 1537.09 C 1735.7 1531.77 1742.76 1525.98 1744.09 1519.51 C 1748.84 1496.5 1735.12 1469.78 1710.72 1465.63 C 1707.9 1465.15 1706.53 1464.69 1704.03 1463.51 z"/>
<path transform="translate(0,0)" fill="url(#Gradient1)" d="M 1692.18 1462.78 L 1693.53 1463.44 C 1685.88 1479.02 1657.55 1473.91 1659.55 1512.5 L 1658.39 1511.89 C 1656.36 1509.51 1655.76 1500.49 1655.28 1496.8 C 1661.59 1479.96 1675.8 1469.18 1692.18 1462.78 z"/>
<path transform="translate(0,0)" fill="rgb(62,18,20)" d="M 1723.29 1506.68 C 1727.51 1512.48 1723.71 1521.42 1718.72 1525.77 L 1717.17 1523.47 C 1717.88 1517.52 1720.65 1512.03 1723.29 1506.68 z"/>
<path transform="translate(0,0)" fill="rgb(253,94,145)" d="M 383.994 1473.56 C 400.474 1472.5 423.834 1465.98 442.122 1464.41 C 478.081 1461.33 499.568 1482.13 475.384 1514.55 C 458.043 1535.62 409.889 1514.65 388.246 1509.9 C 406.855 1520.93 432.21 1522.1 447.652 1536.98 C 452.248 1544.39 453.028 1546.49 454.395 1555.26 C 450.3 1568.23 434.579 1591.43 422.583 1597.89 C 382.281 1619.57 360.242 1570.8 342.195 1544.1 C 372.531 1534.55 400.379 1507.41 383.994 1473.56 z"/>
<path transform="translate(0,0)" fill="rgb(253,94,145)" d="M 253.937 1437.1 C 242.978 1431.7 217.142 1420.34 214.819 1409.26 C 208.195 1377.65 246.809 1370.74 267.213 1384.47 C 292.157 1401.25 299.288 1422.51 308.742 1448.14 C 286.71 1458.98 274.19 1472.85 268.419 1497.12 L 268.032 1497.75 C 260.649 1498.12 252.997 1498.61 245.633 1498.76 L 245.6 1498.36 C 243.585 1496.25 233.63 1496.35 229.779 1496.15 C 209.674 1495.54 181.96 1497.74 170.317 1476.92 C 161.533 1461.21 165.573 1431.86 183.636 1424.51 C 203.061 1416.61 233.305 1431.15 251.564 1438.38 L 253.937 1437.1 z"/>
<path transform="translate(0,0)" fill="rgb(32,8,13)" d="M 229.779 1496.15 C 240.239 1495.95 258.716 1495.2 268.419 1497.12 L 268.032 1497.75 C 260.649 1498.12 252.997 1498.61 245.633 1498.76 L 245.6 1498.36 C 243.585 1496.25 233.63 1496.35 229.779 1496.15 z"/>
<path transform="translate(0,0)" fill="rgb(62,18,20)" d="M 253.937 1437.1 C 259.411 1439.64 262.281 1441.37 267.376 1444.52 C 262.007 1442.55 256.781 1440.73 251.564 1438.38 L 253.937 1437.1 z"/>
<path transform="translate(0,0)" fill="rgb(253,94,145)" d="M 268.362 1529.37 C 270.608 1528.6 274.479 1526.6 276.329 1528.2 C 295.45 1544.73 311.312 1550.61 337.5 1545.51 L 338.765 1545.26 C 350.003 1562.99 368.505 1589.51 363.588 1610.16 C 357.503 1635.71 307.75 1647.81 293.719 1621.83 C 285.7 1606.98 289.246 1593.66 293.323 1579.24 L 294.262 1575.96 C 286.421 1592.45 278.543 1611.92 259.665 1618.35 C 249.82 1621.63 239.053 1620.66 229.955 1615.67 C 201.222 1599.97 210.014 1569.07 231.485 1552.25 C 236.063 1548.67 240.534 1544.6 245.411 1541.41 L 244.43 1539.61 C 250.399 1535.21 259.635 1530.97 266.329 1527.8 L 268.362 1529.37 z"/>
<path transform="translate(0,0)" fill="rgb(32,8,13)" d="M 244.43 1539.61 C 250.399 1535.21 259.635 1530.97 266.329 1527.8 L 268.362 1529.37 C 259.478 1533.54 253.766 1536.37 245.411 1541.41 L 244.43 1539.61 z"/>
<path transform="translate(0,0)" fill="rgb(70,62,62)" d="M 1033.43 1317.73 C 1043.38 1328.38 1043.27 1411.5 1037.72 1427.26 C 1026.31 1459.63 994.461 1493.83 964.475 1510.02 C 961.755 1511.64 961.105 1512.05 958.067 1513.25 L 957.099 1511.78 C 958.771 1491.05 958.494 1465.58 961.554 1445.59 C 962.548 1439.09 980.359 1418.08 985.277 1409.88 C 1003.24 1379.94 1017.81 1348.96 1033.43 1317.73 z"/>
<path transform="translate(0,0)" fill="rgb(80,146,32)" d="M 1340.78 1624.38 C 1361.27 1623.25 1381.07 1627.01 1398.9 1637.53 C 1395.93 1644.4 1391.74 1653.96 1387.01 1659.71 C 1368.09 1682.66 1331.36 1691.51 1303.53 1694.86 C 1290.72 1695.41 1229.39 1696.59 1251.69 1670.07 C 1272.06 1645.83 1309.76 1627.85 1340.78 1624.38 z"/>
<path transform="translate(0,0)" fill="rgb(251,187,32)" d="M 325.491 1454.17 C 336.341 1453.38 345.289 1453.23 355.336 1458.38 C 375.432 1468.68 385.357 1493.35 372.827 1513.37 C 363.675 1527.99 350.663 1534.18 334.646 1537.96 C 320.38 1538.51 309.494 1539.43 296.399 1531.97 C 277.273 1521.07 272.597 1498.57 284.565 1480.34 C 294.897 1464.59 307.757 1457.92 325.491 1454.17 z"/>
<path transform="translate(0,0)" fill="rgb(80,146,32)" d="M 1900.44 1338.3 C 1922.99 1336.52 1947.21 1344.94 1933.6 1371.88 C 1917.84 1403.08 1890.77 1416.77 1859.28 1427.31 C 1846.02 1430.71 1839.64 1431.96 1826.05 1432.11 C 1826.16 1423.85 1824.36 1416.79 1826.71 1409.05 C 1837.23 1374.48 1864.52 1344.71 1900.44 1338.3 z"/>
<path transform="translate(0,0)" fill="rgb(253,94,145)" d="M 350.388 1445.83 L 351.105 1445.13 C 357.443 1438.81 362.532 1431.08 368.898 1424.91 C 384.302 1409.99 402.189 1395.08 424.621 1394.13 C 451.119 1393.02 482.864 1425.19 458.084 1448.32 C 440.485 1464.74 402.705 1461.88 383.994 1473.56 C 374.176 1458.38 366.676 1453.06 350.388 1445.83 z"/>
<path transform="translate(0,0)" fill="rgb(85,175,244)" d="M 503.94 1621.02 C 483.349 1623.19 431.846 1619.33 457.084 1585.25 C 471.591 1565.66 505.353 1572.01 519.087 1591.13 C 515.731 1618.08 518.524 1618.97 533.242 1639.49 C 517.094 1655.7 494.088 1675.95 469.676 1675.89 C 463.498 1675.87 457.174 1674.28 452.849 1669.6 C 450.081 1666.66 448.615 1662.73 448.784 1658.69 C 449.849 1637.5 485.98 1624.08 503.893 1622.83 L 503.94 1621.02 z"/>
<path transform="translate(0,0)" fill="rgb(21,58,99)" d="M 503.94 1621.02 C 509.229 1620.02 510.089 1619.72 515.339 1620.1 L 515.678 1620.93 C 511.328 1622.56 508.46 1622.49 503.893 1622.83 L 503.94 1621.02 z"/>
<path transform="translate(0,0)" fill="rgb(85,175,244)" d="M 1911.05 1467.2 C 1924.56 1465.31 1928.58 1471.31 1933.51 1482.67 C 1932.36 1486.83 1930.89 1491.14 1929.57 1495.27 C 1936.19 1490.16 1940.32 1487.11 1949.02 1485.47 C 1962.12 1483.01 1973.39 1495.4 1963.75 1506.81 C 1957.99 1513.62 1949.42 1514.13 1940.91 1514.75 C 1958.06 1521.44 1972.24 1534.54 1948.09 1545.39 C 1937.15 1542.69 1935.93 1542.06 1927.5 1534.58 C 1932.07 1541.25 1934.26 1543.75 1936.42 1551.6 C 1934.83 1559.31 1931.53 1564.04 1923.38 1566.18 C 1919.06 1567.32 1913.93 1565.77 1910.23 1563.44 C 1903.76 1559.35 1898.21 1548.18 1903.59 1541.28 C 1905.01 1539.45 1905.31 1538.94 1905.82 1536.6 C 1902.69 1534.7 1892.35 1542.69 1883.67 1536.32 C 1879.93 1528.96 1884.82 1524.54 1885.08 1517.42 C 1885.17 1514.92 1870.42 1514.61 1871.44 1505.43 C 1871.55 1501.31 1875.06 1492.19 1878.7 1489.76 C 1890.25 1482.03 1900.47 1490.64 1906.53 1497.98 C 1902.41 1483.93 1897.93 1477.28 1911.05 1467.2 z"/>
<path transform="translate(0,0)" fill="rgb(193,169,25)" d="M 1911.46 1496.94 C 1928.47 1495.69 1931.47 1516.34 1919.13 1521.86 C 1909.54 1521.91 1908.37 1519.67 1902.14 1513.17 C 1904.44 1504.58 1904.37 1502.42 1911.46 1496.94 z"/>
<path transform="translate(0,0)" fill="rgb(80,146,32)" d="M 419.949 1272.21 C 467.906 1273 442.632 1346.67 423.883 1368.33 C 416.263 1370.57 408.696 1372.98 401.188 1375.56 C 397.617 1377.03 393.542 1379.58 390.137 1381.56 C 385.916 1373.64 381.681 1364.35 377.735 1356.2 C 379.485 1324.78 389.59 1287.31 419.949 1272.21 z"/>
<path transform="translate(0,0)" fill="rgb(254,254,232)" d="M 692.036 1617.7 C 697.461 1616.34 706.372 1613.96 711.75 1615.67 C 721.933 1618.9 732.505 1627.5 737.319 1637.14 C 739.099 1640.7 737.965 1641.44 736.55 1645.06 C 742.171 1643.76 741.033 1642.23 749.015 1642.08 C 756.575 1641.35 757.75 1643.19 763.235 1648.17 C 763.188 1653.05 763.545 1656.13 764.107 1660.92 C 762.73 1663.04 754.485 1673.96 754.277 1674.5 C 757.045 1672.96 757.035 1672.8 760.085 1672.19 C 763.403 1675.07 764.782 1687.25 764.584 1691.54 C 763.728 1710.16 757.465 1714.77 740.742 1713.88 C 721.165 1701.64 723.988 1694.08 733.84 1676.29 C 698.935 1719.41 661.847 1679.14 715.802 1655.55 C 705.356 1654.04 696.781 1653.25 688.832 1645.35 C 678.849 1635.44 683.037 1625.86 692.036 1617.7 z"/>
<path transform="translate(0,0)" fill="rgb(251,187,32)" d="M 749.015 1642.08 C 756.575 1641.35 757.75 1643.19 763.235 1648.17 C 763.188 1653.05 763.545 1656.13 764.107 1660.92 C 762.73 1663.04 754.485 1673.96 754.277 1674.5 C 727.121 1681.4 719.781 1653.15 736.55 1645.06 C 742.171 1643.76 741.033 1642.23 749.015 1642.08 z"/>
<path transform="translate(0,0)" fill="rgb(251,187,32)" d="M 1763.66 1471.21 C 1787.35 1457.25 1838.34 1433.37 1857.97 1466.15 C 1862.04 1472.89 1863.24 1480.97 1861.31 1488.59 C 1854.25 1515.49 1816.52 1513.72 1794.99 1512.91 L 1793.92 1512.84 L 1783.97 1513.52 L 1777.38 1512.37 L 1773.9 1510.67 C 1773.58 1494.32 1771.5 1485.85 1763.66 1471.21 z"/>
<path transform="translate(0,0)" fill="rgb(81,52,12)" d="M 1777.38 1512.37 C 1783.59 1511.97 1787.72 1511.47 1793.92 1512.84 L 1783.97 1513.52 L 1777.38 1512.37 z"/>
<path transform="translate(0,0)" fill="rgb(253,94,145)" d="M 324.162 1366.02 C 334.734 1362.14 343.231 1360.12 354.25 1365.19 C 363.014 1369.31 369.801 1376.72 373.137 1385.81 C 382.587 1412.03 357.992 1425.9 350.388 1445.83 C 335.957 1443.67 326.815 1442.57 312.504 1445.89 C 299.861 1417.6 288.503 1383.9 324.162 1366.02 z"/>
<path transform="translate(0,0)" fill="rgb(251,187,32)" d="M 1586.42 1382.14 C 1627.54 1379.79 1644.54 1413.08 1657.04 1446.34 C 1647.89 1452.91 1643.02 1457.91 1635.74 1466.53 L 1634.1 1468.33 C 1627.45 1469.35 1608.12 1454.71 1601.69 1450.56 C 1583.83 1439.01 1559.27 1417.6 1570.64 1393.74 C 1573.76 1387.2 1579.73 1384.23 1586.42 1382.14 z"/>
<path transform="translate(0,0)" fill="rgb(253,94,145)" d="M 245.633 1498.76 C 252.997 1498.61 260.649 1498.12 268.032 1497.75 C 267.924 1509.01 269.058 1513.09 274.418 1523.42 L 266.329 1527.8 C 259.635 1530.97 250.399 1535.21 244.43 1539.61 C 229.515 1547.64 214.787 1560.03 197.643 1562.11 C 154.902 1567.27 157.009 1510.21 195.394 1504 C 212.425 1501.24 228.461 1500.14 245.633 1498.76 z"/>
<path transform="translate(0,0)" fill="rgb(251,187,32)" d="M 1690.67 1368.07 C 1715.74 1366.83 1739.08 1396.89 1735.62 1420.92 C 1734.65 1427.68 1730.34 1437.62 1727.76 1444.28 C 1719.66 1441.91 1715.15 1440.55 1706.88 1439.43 C 1688.93 1437.94 1680.21 1440.65 1662.86 1444.62 C 1659.61 1418.34 1659.29 1377.38 1690.67 1368.07 z"/>
<path transform="translate(0,0)" fill="rgb(251,187,32)" d="M 1761.81 1545.78 C 1768.25 1546.79 1792.93 1568.89 1799.02 1573.98 C 1814.18 1586.66 1828.88 1620.62 1800.38 1627.44 C 1794.6 1628.82 1789.55 1628.19 1783.64 1627.86 C 1760.07 1622.18 1747.9 1606.21 1736.74 1585.95 C 1733.2 1579.53 1730.9 1572.81 1726.81 1566.67 C 1743.69 1560.81 1748.08 1557.6 1761.81 1545.78 z"/>
<path transform="translate(0,0)" fill="rgb(251,187,32)" d="M 1561.36 1454.18 C 1585.8 1452.34 1611.12 1461.16 1632.27 1472.78 C 1627.05 1486.75 1625.86 1493.42 1625.96 1508.15 L 1610.2 1509.74 C 1587.57 1510.84 1551.43 1519.27 1540.5 1490.41 C 1538.04 1483.8 1538.32 1476.47 1541.3 1470.07 C 1545.63 1460.73 1552.51 1457.53 1561.36 1454.18 z"/>
<path transform="translate(0,0)" fill="rgb(251,187,32)" d="M 1688.74 1568.33 C 1699.7 1570.65 1710.51 1570.46 1721.51 1568.69 C 1727.97 1584.01 1740.19 1617.22 1735.36 1633.12 C 1732.46 1642.67 1727.69 1645.22 1719.66 1649.33 C 1711.57 1652.49 1700.12 1653.8 1692.01 1650.81 C 1656.96 1637.91 1681.51 1589.9 1688.74 1568.33 z"/>
<path transform="translate(0,0)" fill="rgb(251,187,32)" d="M 1773.9 1510.67 L 1777.38 1512.37 L 1783.97 1513.52 L 1794.58 1515.54 C 1810.39 1517.36 1827.32 1517.95 1842.61 1522.22 C 1887.36 1534.73 1857.34 1582.5 1820.63 1569.81 C 1800.4 1562.81 1783.07 1551.14 1763.68 1542.85 C 1769.91 1529.4 1771.18 1525.33 1773.9 1510.67 z"/>
<path transform="translate(0,0)" fill="rgb(251,187,32)" d="M 1639.98 1540.64 C 1641.24 1541.29 1649.01 1547.72 1650.74 1549.03 C 1663.95 1558.95 1670.84 1562.82 1686.4 1567.21 L 1686.05 1568.01 C 1678.43 1585.45 1662.65 1605.36 1646.24 1615.75 C 1629.08 1623.89 1604.21 1624.2 1603.58 1599.1 C 1602.98 1575.05 1624.23 1556.39 1639.98 1540.64 z"/>
<path transform="translate(0,0)" fill="rgb(80,146,32)" d="M 1590.24 1636.38 C 1608.05 1634.3 1622.98 1638.67 1638.9 1646.56 C 1650.09 1652.1 1685.25 1677.09 1676.24 1691.29 C 1672.43 1693.27 1668.61 1693.15 1664.25 1693.51 C 1637.73 1695.24 1598.08 1689.68 1580.43 1667.62 C 1580.81 1662.41 1581.77 1656.23 1580.72 1651.23 C 1579.92 1647.43 1578.25 1642.69 1579.02 1639.03 C 1581.69 1636.59 1586.4 1636.76 1590.24 1636.38 z"/>
<path transform="translate(0,0)" fill="rgb(251,187,32)" d="M 1775.09 1389.19 C 1794.27 1388.37 1809.47 1406.95 1806.96 1425.24 C 1804.32 1444.59 1777.76 1457.76 1762.56 1469.24 C 1761.07 1468.18 1756.13 1463.05 1754.5 1461.47 C 1745.53 1452.82 1741.04 1449.73 1729.94 1444.46 C 1743.76 1423.33 1744.02 1395.73 1775.09 1389.19 z"/>
<path transform="translate(0,0)" fill="rgb(80,146,32)" d="M 426.317 1625.38 C 431.499 1625.53 436.432 1625.93 441.591 1626.33 C 422.378 1646.52 430.483 1665.35 403.602 1676.84 C 384.865 1684.85 371.66 1687.31 351.43 1689.02 C 312.286 1689.86 354.902 1653.12 364.596 1645.21 C 388.786 1625.45 397.828 1629.19 426.317 1625.38 z"/>
<path transform="translate(0,0)" fill="rgb(219,129,55)" d="M 1320.12 1394.08 C 1340.46 1399.88 1352.08 1401.52 1373.07 1396.55 C 1368.06 1423.46 1370.56 1452.57 1366.6 1479.69 C 1365.63 1486.31 1363.93 1509.39 1354.55 1507.09 C 1337.65 1492.18 1332.88 1450.53 1328.52 1428.51 C 1326.32 1416.89 1323.52 1405.4 1320.12 1394.08 z"/>
<path transform="translate(0,0)" fill="rgb(80,146,32)" d="M 158.688 1575.36 C 166.841 1573.62 183.313 1583.08 193.04 1586.8 C 192.928 1601.83 192.871 1604.79 201.263 1617.13 C 177.653 1621.99 171.136 1623.11 146.76 1621.64 C 135.871 1620.35 104.973 1616.68 101.239 1605.18 C 104.438 1589.05 143.97 1577.4 158.688 1575.36 z"/>
<path transform="translate(0,0)" fill="rgb(80,146,32)" d="M 118.036 1347.12 C 151.481 1344.97 174.564 1375.71 189.404 1401.24 L 172.502 1407.65 C 167.362 1410.61 165.258 1413.08 161.151 1417.22 C 142.017 1409.24 125.609 1396.11 115.585 1377.8 C 109.457 1366.61 103.313 1354.17 118.036 1347.12 z"/>
<path transform="translate(0,0)" fill="rgb(85,175,244)" d="M 597.117 1605.18 C 609.477 1601.29 620.15 1598.15 633.883 1597.79 C 645.058 1597.44 663.498 1597.16 668.783 1609.33 C 669.997 1612.12 669.475 1624.29 669.498 1628.16 C 669.724 1665.59 631.528 1647.39 613.592 1637.54 C 606.598 1633.25 601.339 1629.65 594.677 1624.83 C 597.081 1616.69 598.213 1613.81 597.117 1605.18 z"/>
<path transform="translate(0,0)" fill="rgb(85,175,244)" d="M 539.239 1641.88 C 550.07 1645.33 553.05 1646.28 564.465 1645.87 C 572.709 1671.27 580.417 1700.82 544.243 1707.89 C 524.14 1708.27 515.744 1700.67 510.14 1681.66 C 515.523 1666.72 526.191 1651.13 539.239 1641.88 z"/>
<path transform="translate(0,0)" fill="rgb(85,175,244)" d="M 594.677 1624.83 C 601.339 1629.65 606.598 1633.25 613.592 1637.54 L 612.538 1639.51 C 666.71 1676.49 603.87 1738.83 566.613 1645.06 C 585.599 1637.47 581.96 1634.06 593.532 1625.93 L 594.677 1624.83 z"/>
<path transform="translate(0,0)" fill="rgb(31,32,36)" d="M 594.677 1624.83 C 601.339 1629.65 606.598 1633.25 613.592 1637.54 L 612.538 1639.51 C 605.808 1634.94 599.954 1630.9 593.532 1625.93 L 594.677 1624.83 z"/>
<path transform="translate(0,0)" fill="rgb(85,175,244)" d="M 574.191 1574.77 L 575.342 1573.59 C 580.125 1568.64 583.833 1562.2 589.125 1557.68 C 611.766 1538.33 646.899 1538.76 647.222 1575.11 C 639.707 1594.21 614.715 1596.02 597.175 1603.27 C 593.349 1588.13 588.078 1582.05 574.191 1574.77 z"/>
<path transform="translate(0,0)" fill="rgb(251,187,32)" d="M 554.181 1580.15 C 568.158 1579.68 582.208 1585.38 586.925 1599.56 C 589.178 1606.3 588.682 1613.65 585.545 1620.02 C 581.032 1628.98 573.05 1633.25 563.89 1636.14 C 548.416 1638.16 533.254 1631.4 528.904 1615.46 C 526.927 1607.99 528.21 1600.02 532.436 1593.55 C 538.017 1584.92 544.799 1582.31 554.181 1580.15 z"/>
<path transform="translate(0,0)" fill="rgb(80,146,32)" d="M 216.014 1632.04 C 219.06 1632.38 228.863 1638.07 233.445 1639.11 C 240.454 1640.7 260.33 1639.71 262.966 1646.96 C 253.582 1658.73 227.09 1669.64 212.749 1673.46 C 202.443 1675.74 172.382 1681.52 165.77 1671.33 C 162.114 1652.15 202.055 1636.9 216.014 1632.04 z"/>
<path transform="translate(0,0)" fill="rgb(80,146,32)" d="M 823.252 1665.59 C 846.379 1670.58 874.264 1684.18 885.229 1707.42 C 889.44 1716.34 868.927 1717.06 864.261 1717.21 C 841.441 1716.09 817.243 1706.08 800.723 1690.36 C 811.383 1684.8 819.126 1677.01 823.252 1665.59 z"/>
<path transform="translate(0,0)" fill="rgb(251,187,32)" d="M 1617.19 1512.27 L 1626.41 1511.71 C 1629.91 1521.26 1632.98 1527.94 1637.27 1537.13 C 1624.01 1546.95 1614.09 1555.57 1598.12 1560.28 L 1583.47 1551.74 C 1576.78 1548.14 1547.91 1541.58 1554.77 1530.75 C 1560.63 1521.5 1580.29 1520.95 1590.42 1518.55 C 1598.91 1516.53 1608.42 1514.37 1617.19 1512.27 z"/>
<path transform="translate(0,0)" fill="rgb(254,254,232)" d="M 749.015 1642.08 C 747.586 1641.71 744.742 1641.4 744.32 1640.1 C 736.193 1614.93 766.903 1601.27 779.37 1626.09 C 784.5 1636.31 769.444 1645.73 768.551 1651.47 L 769.177 1651.73 C 774.37 1645.88 781.887 1638.15 790.023 1638.23 C 827.902 1638.57 801.36 1707.41 761.172 1670.92 C 762.876 1667.74 765.162 1663.76 766.517 1660.49 C 765.824 1656.83 765.137 1651.09 763.235 1648.17 C 757.75 1643.19 756.575 1641.35 749.015 1642.08 z"/>
<path transform="translate(0,0)" fill="rgb(80,146,32)" d="M 128.345 1474.32 C 133.109 1473.71 143.033 1473.59 148.199 1473.38 C 150.673 1490.3 158.301 1490.42 160.183 1499.54 C 157.941 1501.37 158.429 1500.74 156.775 1503.04 L 158.749 1505.44 L 158.113 1506.74 C 147.709 1514.69 125.502 1514.27 112.898 1514.04 C 103.677 1513.45 85.4535 1511.38 80.4659 1502.85 C 79.3492 1486.51 115.475 1476.19 128.345 1474.32 z"/>
<path transform="translate(0,0)" fill="rgb(80,146,32)" d="M 1875.76 1577.05 C 1902.91 1581.66 1953.71 1614.36 1891.88 1619.6 C 1875.54 1619.49 1861.77 1616.09 1846.96 1609.58 L 1846.26 1588.23 C 1855.73 1585.31 1866.52 1580.78 1875.76 1577.05 z"/>
<path transform="translate(0,0)" fill="rgb(219,129,55)" d="M 1035.6 1471.79 C 1037.46 1474.89 1038.77 1488.93 1040.07 1493.85 C 1046.06 1516.49 1055.26 1536.8 1069.22 1555.45 C 1059.1 1555.06 1052.47 1553.42 1042.89 1550.46 C 1021.63 1541.56 1012.96 1527.28 1003.5 1507.49 C 1016.58 1494.53 1024.43 1486.41 1035.6 1471.79 z"/>
<path transform="translate(0,0)" fill="rgb(85,175,244)" d="M 549.957 1518.91 C 569.782 1513.28 581.838 1525.39 587.61 1543.55 C 583.53 1556.86 577.804 1564.54 574.191 1574.77 C 563.227 1572.06 558.359 1571.87 547.007 1572.11 C 534.612 1556.67 529.409 1529.65 549.957 1518.91 z"/>
<path transform="translate(0,0)" fill="rgb(80,146,32)" d="M 1764.23 1644.64 C 1782.67 1649.69 1781.08 1653.55 1802.04 1649.51 C 1811.3 1654.1 1836.05 1671.16 1829.95 1682.91 C 1826.91 1684.96 1824.35 1684.76 1820.65 1685.08 C 1817.6 1685.01 1814.56 1684.89 1811.52 1684.72 C 1788.64 1683.33 1763.94 1673.61 1748.63 1656.26 C 1755 1652.11 1758.72 1649.87 1764.23 1644.64 z"/>
<path transform="translate(0,0)" fill="rgb(0,0,0)" d="M 1703.87 1181.25 C 1721.12 1180.05 1730.5 1188.38 1741.2 1200.23 C 1750.03 1193.36 1753.83 1188.29 1765.09 1184.04 C 1787.46 1175.59 1807.92 1194.46 1814.73 1214.73 C 1850.6 1197.19 1872.38 1210.89 1870.96 1251.13 C 1869.83 1283.18 1855.41 1309.72 1832.23 1331.41 C 1801.46 1358.36 1761.49 1372.04 1722.68 1349.99 C 1695.1 1333.04 1676.81 1303.94 1670.61 1272.62 C 1664.27 1240.59 1664.79 1190.39 1703.87 1181.25 z"/>
<path transform="translate(0,0)" fill="rgb(254,77,76)" d="M 1704.23 1201.14 C 1727.67 1197.76 1728.91 1222.95 1740.7 1227.31 C 1748.73 1226.43 1757.57 1207.08 1769.1 1202.62 C 1791.12 1194.11 1798.5 1224.49 1804.8 1240.96 C 1815.34 1235.76 1847.17 1210.5 1852.42 1237.61 C 1856.56 1259.02 1847.58 1284.51 1835.2 1302.31 C 1765 1392.78 1669.45 1319.19 1687.28 1223.21 C 1689.08 1213.52 1695.69 1205.81 1704.23 1201.14 z"/>
<path transform="translate(0,0)" fill="rgb(164,17,18)" d="M 1790.81 1239.55 C 1792.2 1240.18 1791.43 1239.68 1792.79 1241.48 C 1793.05 1252.12 1757.68 1299.46 1750.5 1310.84 C 1749.84 1311.87 1746.62 1312.95 1745.44 1313.35 L 1743.57 1312.22 L 1743.53 1309.97 C 1751.43 1295.76 1779.46 1249.87 1790.81 1239.55 z"/>
<path transform="translate(0,0)" fill="rgb(164,17,18)" d="M 1738.44 1239.73 C 1745.71 1247.32 1733.64 1279.85 1730.05 1289.35 C 1729.39 1288.98 1727.96 1287.81 1727.3 1287.31 C 1726.65 1282.93 1735.65 1245.28 1738.44 1239.73 z"/>
<path transform="translate(0,0)" fill="rgb(0,0,0)" d="M 1126.38 1598.08 C 1135.99 1597.86 1141.01 1598.92 1150.23 1600.97 C 1156.76 1606.67 1158.95 1609.81 1162.85 1617.17 C 1175.8 1612.8 1188.16 1609.28 1200.01 1619.03 C 1205.21 1623.3 1208.46 1629.5 1208.99 1636.21 C 1209.69 1644.23 1207.1 1651.25 1201.88 1657.19 C 1208.58 1664.8 1209.41 1666.53 1212.34 1675.8 C 1206.05 1704.06 1193.94 1706.79 1167.74 1703.77 C 1163.05 1716.14 1159.63 1723.07 1146.71 1727.48 C 1129.74 1730.62 1114.06 1725.62 1105.05 1710.38 C 1091.4 1715.6 1076.83 1716.13 1065.79 1704.8 C 1061.02 1699.99 1058.51 1693.38 1058.87 1686.62 C 1059.37 1675.2 1065.74 1668.8 1073.45 1661.75 C 1065.62 1652.36 1066.47 1644.14 1069.62 1633.24 C 1070.26 1632.54 1070.91 1631.85 1071.57 1631.16 C 1081.48 1620.96 1089.4 1619.89 1102.59 1619.56 C 1111.04 1605.56 1111.52 1604.02 1126.38 1598.08 z"/>
<path transform="translate(0,0)" fill="rgb(85,175,244)" d="M 1123.44 1648.52 C 1117.19 1639.14 1115.8 1635.74 1117.14 1623.99 C 1118.3 1613.74 1129.26 1607.68 1138.57 1610.41 C 1151.64 1614.24 1156.21 1626.42 1151.99 1638.41 L 1152.39 1639.33 L 1153.48 1638.4 C 1162.35 1630.9 1174.04 1624.51 1186.16 1625.66 C 1195.58 1626.55 1198.86 1631.21 1195.86 1640.24 C 1192.12 1651.45 1179.17 1655.3 1168.94 1658.58 C 1176.92 1658.86 1187.94 1658.97 1193.48 1665.99 C 1204.62 1680.1 1189.26 1695.17 1173.54 1691.46 C 1162.12 1688.76 1153.15 1679.6 1147.18 1669.67 C 1145.46 1669.52 1138.94 1670.72 1136.85 1671.06 C 1121.66 1663.76 1118.92 1657.28 1132.12 1645.44 C 1109.82 1654.95 1122.21 1678.03 1147.08 1671.82 C 1171.53 1716.43 1125.74 1730.64 1113.51 1694.26 C 1115.44 1687.95 1116.92 1683.31 1119.4 1677.21 C 1112.26 1687.63 1105.48 1697.46 1092.19 1700.05 C 1083.93 1701.66 1074.12 1697.19 1073.52 1688.2 C 1072.48 1672.69 1088.88 1666.15 1100.82 1663.62 L 1100.27 1661.68 C 1090.42 1662.19 1081.09 1657.88 1080.64 1646.9 C 1080.46 1643.05 1081.83 1639.29 1084.44 1636.46 C 1096.13 1623.99 1114.99 1640.07 1123.44 1648.52 z"/>
<path transform="translate(0,0)" fill="rgb(251,187,32)" d="M 1132.12 1645.44 C 1141.15 1642.98 1142.87 1643.95 1151.66 1646.6 C 1153.7 1650.42 1154.91 1652.85 1156.53 1656.87 C 1153.91 1663.24 1153.17 1666.27 1147.18 1669.67 C 1145.46 1669.52 1138.94 1670.72 1136.85 1671.06 C 1121.66 1663.76 1118.92 1657.28 1132.12 1645.44 z"/>
<path transform="translate(0,0)" fill="rgb(71,111,169)" d="M 1100.27 1661.68 C 1103.66 1661.01 1104.57 1660.68 1108.09 1661.02 L 1108.59 1661.99 C 1105.31 1663.42 1104.3 1663.32 1100.82 1663.62 L 1100.27 1661.68 z"/>
<path transform="translate(0,0)" fill="rgb(0,0,0)" d="M 961.302 1592.2 C 978.234 1590.63 985.897 1597.49 990.313 1612.88 C 1001.61 1610.75 1013 1611.13 1021.99 1619.35 C 1026.75 1623.63 1029.55 1629.65 1029.77 1636.04 C 1030.04 1646.97 1023.29 1653.85 1016.39 1661.08 C 1024.68 1672.1 1027.66 1684.18 1016.69 1694.82 C 1011.35 1699.92 1004.12 1702.55 996.752 1702.07 C 989.701 1701.54 983.124 1698.32 978.391 1693.06 C 972.552 1699.49 969.342 1702.91 961.395 1706.89 C 943.336 1711.8 935.178 1705.07 927.082 1690.01 C 926.687 1690.09 926.292 1690.16 925.896 1690.24 L 923.963 1690.57 C 907.705 1693.44 882.773 1683.47 888.016 1662.69 C 890.386 1653.29 900.604 1648 908.754 1643.86 C 895.632 1622.13 907.181 1608.46 929.755 1604.13 L 941.36 1607.7 C 949.68 1598.18 949.94 1596.04 961.302 1592.2 z"/>
<path transform="translate(0,0)" fill="rgb(251,187,32)" d="M 950.234 1635.4 C 958.82 1636.39 965.066 1636.34 973.023 1639.71 L 977.403 1644.66 L 978.126 1644.5 C 980.494 1648.98 980.905 1652.18 982.867 1656.1 L 981.991 1657.85 C 979.849 1661.11 975.476 1668.7 975.086 1672.41 C 974.639 1674.36 974.15 1676.36 973.763 1678.32 C 969.374 1690.28 956.974 1700.84 944.804 1692.53 C 941.639 1690.41 939.533 1687.03 939.014 1683.26 C 938.171 1676.72 941.05 1672.37 944.919 1667.61 L 937.368 1657.6 L 936.691 1653.21 L 936.663 1650.77 C 940.698 1646.13 943.423 1642.13 946.929 1637.1 L 950.234 1635.4 z"/>
<path transform="translate(0,0)" fill="rgb(254,77,76)" d="M 944.919 1667.61 C 953.574 1674.08 962.585 1669.36 972.249 1667.82 C 972.025 1671.5 972.972 1674.71 973.763 1678.32 C 969.374 1690.28 956.974 1700.84 944.804 1692.53 C 941.639 1690.41 939.533 1687.03 939.014 1683.26 C 938.171 1676.72 941.05 1672.37 944.919 1667.61 z"/>
<path transform="translate(0,0)" fill="rgb(32,8,13)" d="M 977.403 1644.66 L 978.126 1644.5 C 980.494 1648.98 980.905 1652.18 982.867 1656.1 L 981.991 1657.85 C 979.849 1661.11 975.476 1668.7 975.086 1672.41 C 974.639 1674.36 974.15 1676.36 973.763 1678.32 C 972.972 1674.71 972.025 1671.5 972.249 1667.82 C 980.967 1660.98 980.824 1654.22 977.403 1644.66 z"/>
<path transform="translate(0,0)" fill="rgb(254,77,76)" d="M 978.126 1644.5 C 977.441 1642.94 976.778 1641.36 976.136 1639.77 C 980.782 1631.08 998.359 1619.44 1008.9 1625.59 C 1012.18 1627.46 1014.5 1630.65 1015.28 1634.34 C 1018.08 1647.91 1003.57 1655.19 992.272 1656.36 L 982.867 1656.1 C 980.905 1652.18 980.494 1648.98 978.126 1644.5 z"/>
<path transform="translate(0,0)" fill="rgb(254,77,76)" d="M 982.867 1656.1 L 992.272 1656.36 L 992.996 1657.64 L 1000.76 1658.69 C 1005.88 1662.76 1010.59 1665.75 1011.62 1672.74 C 1012.81 1680.88 1006.69 1687.41 998.691 1687.84 C 988.208 1688.39 980.288 1680.64 975.086 1672.41 C 975.476 1668.7 979.849 1661.11 981.991 1657.85 L 982.867 1656.1 z"/>
<path transform="translate(0,0)" fill="rgb(164,17,18)" d="M 982.867 1656.1 L 992.272 1656.36 L 992.996 1657.64 L 1000.76 1658.69 C 993.524 1659.26 989.088 1658.74 981.991 1657.85 L 982.867 1656.1 z"/>
<path transform="translate(0,0)" fill="rgb(254,77,76)" d="M 950.234 1635.4 C 954.472 1629.03 948.267 1603.58 966.255 1603.38 C 983.76 1603.19 984.284 1629.11 973.023 1639.71 C 965.066 1636.34 958.82 1636.39 950.234 1635.4 z"/>
<path transform="translate(0,0)" fill="rgb(254,77,76)" d="M 927.261 1650.03 C 917.189 1644.64 910.336 1631.69 919.488 1622.02 C 922.57 1618.76 926.877 1616.95 931.362 1617.01 C 942.852 1617.17 947.133 1626.98 946.929 1637.1 C 943.423 1642.13 940.698 1646.13 936.663 1650.77 C 932.478 1650.04 931.411 1649.72 927.261 1650.03 z"/>
<path transform="translate(0,0)" fill="rgb(254,77,76)" d="M 927.261 1650.03 C 931.411 1649.72 932.478 1650.04 936.663 1650.77 L 936.691 1653.21 L 937.368 1657.6 C 938.178 1666.2 931.893 1674.81 923.881 1676.87 C 900.05 1682.97 887.088 1656.49 918.734 1651.43 C 921.573 1650.48 923.591 1651.38 927.261 1650.03 z"/>
<path transform="translate(0,0)" fill="rgb(32,8,13)" d="M 927.261 1650.03 C 931.411 1649.72 932.478 1650.04 936.663 1650.77 L 936.691 1653.21 C 932.048 1649.36 928.243 1653.02 918.734 1651.43 C 921.573 1650.48 923.591 1651.38 927.261 1650.03 z"/>
<path transform="translate(0,0)" fill="rgb(0,0,0)" d="M 1409.54 380.815 L 1415.04 381.366 C 1416.45 382.19 1418.41 383.534 1419.06 384.979 C 1428.64 406.278 1435.56 425.12 1455.47 439.276 C 1466.02 447.549 1478.97 450.503 1490.88 456.032 C 1494.22 457.583 1498.04 465.209 1495.31 468.645 C 1485.16 481.431 1468 486.814 1455.73 497.626 C 1448.59 503.911 1443.06 509.334 1438.83 518.061 C 1431.98 530.295 1430.6 542.976 1424.4 555.251 C 1422.51 555.961 1420.2 556.582 1418.31 555.65 C 1412.31 552.695 1409.55 541.8 1407.8 535.586 C 1401.8 513.167 1386.96 498.096 1366.44 488.132 C 1359.2 484.616 1342.23 479.552 1340.31 471.933 C 1339.77 470.057 1340.35 465.548 1341.74 464.257 C 1352.65 454.065 1367.42 449.441 1378.6 438.771 C 1390.78 427.16 1398.02 414.16 1403.12 398.232 C 1405.16 391.854 1406.04 386.402 1409.54 380.815 z"/>
<path transform="translate(0,0)" fill="rgb(254,178,92)" d="M 1413.42 418.466 C 1416.33 421.001 1422.75 431.657 1425.99 435.823 C 1438.46 451.818 1451.16 457.766 1468.54 466.981 C 1443.56 481.301 1433.71 489.459 1420.95 515.543 C 1418.56 515.151 1412.28 504.41 1410.63 501.75 C 1398.97 482.965 1383.8 478.46 1366.29 467.898 C 1390.6 455.802 1402.39 443.055 1413.42 418.466 z"/>
<path transform="translate(0,0)" fill="rgb(0,0,0)" d="M 515.228 411.437 C 522.797 411.648 524.126 413.618 526.994 420.644 C 536.53 444.008 547.06 463.298 571.069 474.063 C 578.944 477.594 595.153 483.832 598.308 491.696 C 596.955 502.1 578.867 509.061 569.706 515.337 C 564.497 518.927 559.673 523.045 555.31 527.626 C 534.385 549.612 539.444 570.57 527.377 584.084 C 526.684 583.856 522.782 582.511 522.469 582.181 C 515.103 574.393 512.43 556.595 506.802 546.599 C 501.629 537.408 501.581 536.726 494.79 529.759 C 481.336 515.958 467.153 511.114 450.713 502.542 C 449.086 501.693 447.117 499.202 446.896 497.371 C 445.864 488.804 451.183 485.385 457.163 482.166 C 478.152 470.869 497.147 457.955 506.234 434.948 C 509.223 427.381 511.679 418.617 515.228 411.437 z"/>
<path transform="translate(0,0)" fill="rgb(254,178,92)" d="M 519.647 445.58 C 521.773 447.584 525.903 456.344 528.181 459.671 C 539.636 476.404 552.685 485.08 570.346 493.817 C 547.001 510.878 537.472 518.809 525.075 544.662 C 508.798 515.025 501.236 510.608 473.146 493.245 C 497.077 480.46 507.965 469.659 519.647 445.58 z"/>
<path transform="translate(0,0)" fill="rgb(0,0,0)" d="M 1602.37 1237.29 C 1614.26 1235.65 1626.36 1237.9 1636.87 1243.7 C 1651.1 1251.55 1661.59 1264.79 1665.98 1280.44 C 1675.52 1313.89 1658.27 1346.14 1624.06 1354.78 C 1567.09 1367.04 1524.15 1262.63 1602.37 1237.29 z"/>
<path transform="translate(0,0)" fill="rgb(253,94,145)" d="M 1604.57 1255.15 C 1611.13 1254.71 1616.13 1254.79 1622.46 1256.99 C 1651.77 1267.15 1661.74 1311.8 1636.24 1331.31 C 1632.67 1334.04 1627.95 1335.81 1623.77 1337.55 C 1575.38 1343.87 1557.35 1270.89 1604.57 1255.15 z"/>
<path transform="translate(0,0)" fill="rgb(51,49,30)" fill-opacity="0.0117647" d="M 742.327 1606.83 C 740.673 1608.53 737.341 1612.44 735.156 1612.06 C 733.255 1611.73 719.619 1604.37 718.754 1603.16 C 729.9 1601.3 744.576 1591.09 752.927 1583.29 C 755.22 1581.15 754.178 1581.38 757.626 1579.15 L 758.867 1579.85 L 756.442 1583.43 C 757.009 1585.18 757.613 1586.93 758.252 1588.65 L 757.149 1590.51 L 756.397 1587.9 C 749.337 1584.52 749.15 1595.18 743.764 1596.81 L 742.621 1594.22 C 739.501 1595.76 736.129 1598.13 732.681 1599.99 C 733.758 1602.82 733.359 1601.84 735.65 1604.21 C 738.084 1603.93 737.235 1604.18 739.366 1603 L 740.046 1603.24 L 740.245 1602.56 C 741.545 1604.48 741.446 1604.63 742.327 1606.83 z"/>
<path transform="translate(0,0)" fill="rgb(81,52,12)" fill-opacity="0.0156863" d="M 1546.02 1387.66 C 1547.71 1388.09 1548.81 1388.17 1550.23 1389.01 C 1549.57 1391.07 1548.85 1392.81 1548.05 1394.81 L 1547.2 1394.35 L 1546.02 1387.66 z"/>
</svg>