<svg version="1.1" xmlns="http://www.w3.org/2000/svg" style="display: block;" viewBox="0 0 2048 2048" width="1024" height="1024" preserveAspectRatio="none">
<defs>
	<linearGradient id="Gradient1" gradientUnits="userSpaceOnUse" x1="1546.05" y1="795.513" x2="1578.03" y2="817.539">
		<stop class="stop0" offset="0" stop-opacity="1" stop-color="rgb(71,23,6)"/>
		<stop class="stop1" offset="1" stop-opacity="1" stop-color="rgb(119,48,12)"/>
	</linearGradient>
	<linearGradient id="Gradient2" gradientUnits="userSpaceOnUse" x1="1670.43" y1="884.9" x2="1709.17" y2="907.769">
		<stop class="stop0" offset="0" stop-opacity="1" stop-color="rgb(152,78,24)"/>
		<stop class="stop1" offset="1" stop-opacity="1" stop-color="rgb(180,100,33)"/>
	</linearGradient>
</defs>
<path transform="translate(0,0)" fill="rgb(253,108,0)" d="M 624.5 286.194 C 667.225 236.349 749.78 167.278 750.732 283.3 C 751.058 322.974 747.477 344.675 735.055 382.52 C 746.035 406.994 750.952 426.642 752.202 453.723 C 762.239 451.476 781.123 452.804 790.313 457.858 L 791.672 459.871 C 788.271 469.083 761.668 471.196 752.068 472.53 C 751.815 478.799 751.719 481.749 750.524 487.945 C 766.488 489.205 778.133 489.16 792.798 496.124 C 776.349 507.917 763.609 504.212 745.892 506.266 C 734.947 544.596 710.577 566.864 678.604 587.94 C 686.509 603.763 692.697 620.386 697.063 637.526 C 692.424 641.322 690.952 644.921 691.097 651.205 C 692.974 732.677 675.349 802.295 645.022 878.204 C 666.402 893.926 667.034 910.327 667.361 934.97 C 664.155 946.806 649.268 951.349 638.97 955.008 C 633.622 955.951 628.288 956.976 622.971 958.083 C 614.594 958.115 606.767 958.244 598.386 957.512 C 592.994 956.119 589.281 955.596 583.845 954.828 C 570.991 952.754 558.225 947.762 553.096 934.974 C 546.207 938.098 544.54 939.037 538.444 943.497 C 528.937 950.547 526.47 951.597 515.06 954.979 C 510.306 955.781 503.144 956.749 498.632 957.777 C 491.565 958.374 481.122 958.114 474.083 957.264 C 470.607 956.724 462.172 954.416 458.418 953.493 C 445.431 949.315 440.053 947.681 431.053 937.262 C 425.927 940.392 421.09 942.748 415.256 944.329 C 401.526 946.137 397.867 946.808 384.49 944.947 C 380.456 944.725 371.728 942.716 367.597 941.76 C 360.565 939.112 354.235 937.144 347.96 932.938 C 330.143 920.995 333.4 903.145 344.525 887.683 C 342.475 878.883 338.277 867.775 337.216 859.049 C 333.629 829.549 335.293 795.255 342.719 766.527 C 350.025 738.262 358.983 718.149 384.157 703.108 C 383.295 685.655 388.829 656.647 391.476 638.691 C 396.19 618.096 399.879 608.237 408.834 589.374 C 403.538 583.41 390.992 574.016 384.418 568.473 C 363.189 550.573 353.823 531.883 344.152 506.736 C 335.023 508.182 311.958 510.208 305.141 503.516 C 304.086 493.545 333.897 490.421 341.256 489.843 C 339.45 483.332 338.603 478.166 337.471 471.516 C 327.807 470.968 300.244 470.161 297.083 459.487 C 303.584 450.296 329.336 453.664 337.015 450.98 L 337.604 448.327 C 339.537 420.158 343.535 407.939 353.676 382.536 C 337.549 344.385 330.197 275.782 345.035 237.679 C 366.216 183.288 452.874 269.794 469.195 288.2 C 520.291 267.956 572.93 269.285 624.5 286.194 z"/>
<path transform="translate(0,0)" fill="rgb(224,51,19)" d="M 391.476 638.691 C 394.484 643.14 393.996 649.405 393.997 654.855 C 394.01 702.17 400.861 747.174 413.678 792.738 C 422.472 824.001 435.125 853.449 446.848 883.844 C 434.602 895.559 429.346 907.491 429.027 924.489 C 428.938 928.833 429.624 933.159 431.053 937.262 C 425.927 940.392 421.09 942.748 415.256 944.329 C 401.526 946.137 397.867 946.808 384.49 944.947 C 380.456 944.725 371.728 942.716 367.597 941.76 C 360.565 939.112 354.235 937.144 347.96 932.938 C 330.143 920.995 333.4 903.145 344.525 887.683 C 342.475 878.883 338.277 867.775 337.216 859.049 C 333.629 829.549 335.293 795.255 342.719 766.527 C 350.025 738.262 358.983 718.149 384.157 703.108 C 383.295 685.655 388.829 656.647 391.476 638.691 z"/>
<path transform="translate(0,0)" fill="rgb(254,225,129)" d="M 344.525 887.683 C 368.033 864.533 402.52 851.639 429.745 877.421 C 411.53 901.13 414.767 915.229 415.256 944.329 C 401.526 946.137 397.867 946.808 384.49 944.947 C 380.456 944.725 371.728 942.716 367.597 941.76 C 360.565 939.112 354.235 937.144 347.96 932.938 C 330.143 920.995 333.4 903.145 344.525 887.683 z"/>
<path transform="translate(0,0)" fill="rgb(248,185,92)" d="M 367.597 941.76 C 368.067 930.46 367.859 910.695 373.425 901.425 L 375.473 900.056 C 387.818 902.96 382.777 933.842 384.49 944.947 C 380.456 944.725 371.728 942.716 367.597 941.76 z"/>
<path transform="translate(0,0)" fill="rgb(254,225,129)" d="M 553.096 934.974 C 553.99 923.841 550.811 902.373 555.566 892.943 C 569.47 865.366 621.53 867.926 645.022 878.204 C 666.402 893.926 667.034 910.327 667.361 934.97 C 664.155 946.806 649.268 951.349 638.97 955.008 C 633.622 955.951 628.288 956.976 622.971 958.083 C 614.594 958.115 606.767 958.244 598.386 957.512 C 592.994 956.119 589.281 955.596 583.845 954.828 C 570.991 952.754 558.225 947.762 553.096 934.974 z"/>
<path transform="translate(0,0)" fill="rgb(248,185,92)" d="M 583.845 954.828 C 583.886 947.887 582.284 902.324 591.858 903.257 C 600.425 911.917 597.718 943.563 598.386 957.512 C 592.994 956.119 589.281 955.596 583.845 954.828 z"/>
<path transform="translate(0,0)" fill="rgb(248,185,92)" d="M 622.971 958.083 C 622.277 948.22 619.916 915.204 627.959 909.638 L 630.149 910.544 C 637.457 921.022 637.779 941.902 638.97 955.008 C 633.622 955.951 628.288 956.976 622.971 958.083 z"/>
<path transform="translate(0,0)" fill="rgb(254,225,129)" d="M 446.848 883.844 C 467.658 868.959 516.923 864.306 536.332 887.867 C 542.536 895.397 542.026 933.72 538.444 943.497 C 528.937 950.547 526.47 951.597 515.06 954.979 C 510.306 955.781 503.144 956.749 498.632 957.777 C 491.565 958.374 481.122 958.114 474.083 957.264 C 470.607 956.724 462.172 954.416 458.418 953.493 C 445.431 949.315 440.053 947.681 431.053 937.262 C 429.624 933.159 428.938 928.833 429.027 924.489 C 429.346 907.491 434.602 895.559 446.848 883.844 z"/>
<path transform="translate(0,0)" fill="rgb(248,185,92)" d="M 458.418 953.493 C 458.19 940.392 456.419 912.884 464.242 902.759 L 465.733 902.175 C 474.417 906.946 474.171 947.081 474.083 957.264 C 470.607 956.724 462.172 954.416 458.418 953.493 z"/>
<path transform="translate(0,0)" fill="rgb(248,185,92)" d="M 498.632 957.777 C 499.106 948.104 499.332 913.823 508.126 909.679 L 510.054 910.959 C 516.127 922.019 514.942 941.958 515.06 954.979 C 510.306 955.781 503.144 956.749 498.632 957.777 z"/>
<path transform="translate(0,0)" fill="rgb(85,33,17)" d="M 337.604 448.327 L 338.334 451.88 C 345.772 455.359 377.863 449.676 386.17 458.95 C 386.973 462.676 387.199 460.983 385.864 464.237 C 374.715 472.427 350.059 470.599 337.471 471.516 C 327.807 470.968 300.244 470.161 297.083 459.487 C 303.584 450.296 329.336 453.664 337.015 450.98 L 337.604 448.327 z"/>
<path transform="translate(0,0)" fill="rgb(85,33,17)" d="M 750.524 487.945 C 766.488 489.205 778.133 489.16 792.798 496.124 C 776.349 507.917 763.609 504.212 745.892 506.266 C 735.939 506.413 706.636 507.574 701.335 498.313 L 702.219 495.943 C 711.458 488.542 737.812 488.481 750.524 487.945 z"/>
<path transform="translate(0,0)" fill="rgb(85,33,17)" d="M 752.202 453.723 C 762.239 451.476 781.123 452.804 790.313 457.858 L 791.672 459.871 C 788.271 469.083 761.668 471.196 752.068 472.53 C 744.699 473.398 707.798 476.632 705.758 466.013 C 713.218 454.994 743.282 458.18 752.202 453.723 z"/>
<path transform="translate(0,0)" fill="rgb(85,33,17)" d="M 341.256 489.843 C 352.309 489.622 388.242 482.875 392.024 493.59 C 387.372 503.23 354.863 505.386 344.152 506.736 C 335.023 508.182 311.958 510.208 305.141 503.516 C 304.086 493.545 333.897 490.421 341.256 489.843 z"/>
<path transform="translate(0,0)" fill="rgb(254,231,176)" d="M 540.559 348.975 C 567.311 349.68 583.905 412.431 591.858 432.524 C 610.369 479.292 645.543 518.854 689.635 543.017 C 703.344 550.531 685.764 566.326 678.758 571.856 C 662.215 586.468 642.538 591.49 623.138 600.432 C 640.385 643.804 639.714 696.237 612.424 735.816 C 603.193 749.204 592.645 748.247 581.314 738.428 C 576.392 753.01 566.32 780.471 549.605 784.444 C 529.885 774.352 523.869 758.292 516.969 738.586 C 514.767 740.641 512.413 742.528 509.929 744.232 C 505.57 747.268 500.123 748.301 494.955 747.072 C 485.853 744.941 477.564 735.322 473.186 727.394 C 448.689 683.038 452.862 647.036 464.37 601.277 C 440.821 589.253 409.064 579.043 394.346 556.15 C 389.355 548.388 412.302 537.945 418.407 533.437 C 427.755 526.665 436.415 518.993 444.264 510.529 C 465.666 487.389 482.193 460.178 492.86 430.517 C 502.646 403.615 511.436 360.806 540.559 348.975 z"/>
<path transform="translate(0,0)" fill="rgb(21,19,19)" d="M 551.759 507.984 L 555.057 509.169 C 561.919 514.096 576.158 524.525 585.146 523.715 C 591.288 523.162 598.638 509.744 604.77 510.572 C 608.024 522.407 583.254 539.427 569.91 533.954 C 559.755 538.585 543.461 539.257 532.628 537.516 C 520.439 536.873 498.576 532.34 498.007 516.743 L 499.374 516.073 C 503.073 517.081 505.242 520.228 508.336 522.351 C 525.384 534.05 541.069 523.603 550.975 509.15 L 551.759 507.984 z"/>
<path transform="translate(0,0)" fill="rgb(187,134,122)" d="M 532.628 537.516 C 542.928 531.131 545.584 528.168 553.611 518.853 C 559.926 525.496 562.732 528.176 569.91 533.954 C 559.755 538.585 543.461 539.257 532.628 537.516 z"/>
<path transform="translate(0,0)" fill="rgb(249,97,118)" d="M 551.759 507.984 C 544.215 505.782 532.475 500.652 530.196 493.526 C 519.69 460.669 581.732 458.539 574.618 492.688 C 572.381 503.427 563.05 505.071 555.057 509.169 L 551.759 507.984 z"/>
<path transform="translate(0,0)" fill="rgb(254,231,176)" d="M 361.744 315.116 C 360.035 300.71 358.445 255.302 366.459 245.913 C 378.963 231.265 424.713 287.439 430.991 295.743 C 433.536 298.648 434.551 299.971 436.702 303.18 C 414.21 316.748 383.811 338.285 367.559 359.286 C 365.013 345.593 362.455 329.03 361.744 315.116 z"/>
<path transform="translate(0,0)" fill="rgb(245,191,153)" d="M 430.991 295.743 C 433.536 298.648 434.551 299.971 436.702 303.18 C 414.21 316.748 383.811 338.285 367.559 359.286 C 365.013 345.593 362.455 329.03 361.744 315.116 C 370.771 302.41 415.513 295.847 430.991 295.743 z"/>
<path transform="translate(0,0)" fill="rgb(254,231,176)" d="M 657.053 299.531 C 669.396 282.654 724.007 206.46 725.686 267.395 C 725.835 272.816 726.132 278.404 726.155 283.848 C 726.239 295.942 725.801 308.035 724.842 320.092 L 719.557 355.428 C 703.386 337.379 686.847 322.383 666.415 309.339 C 663.341 307.376 658.178 304.327 656.214 301.474 L 657.053 299.531 z"/>
<path transform="translate(0,0)" fill="rgb(245,191,153)" d="M 657.053 299.531 C 670.304 299.953 695.798 308.474 707.942 313.712 C 710.858 314.969 722.557 319.846 724.842 320.092 L 719.557 355.428 C 703.386 337.379 686.847 322.383 666.415 309.339 C 663.341 307.376 658.178 304.327 656.214 301.474 L 657.053 299.531 z"/>
<path transform="translate(0,0)" fill="rgb(21,19,19)" d="M 449.275 400.129 C 484.053 398.458 492.942 460.28 457.836 470.015 C 444.395 470.28 434.894 463.503 429.796 451.068 C 425.517 440.459 425.701 428.573 430.304 418.102 C 434.602 408.217 439.767 404.058 449.275 400.129 z"/>
<path transform="translate(0,0)" fill="rgb(254,254,254)" d="M 452.94 414.948 C 456.316 414.441 459.704 415.792 461.804 418.485 C 463.904 421.177 464.39 424.793 463.076 427.944 C 461.761 431.096 458.85 433.294 455.459 433.696 C 450.328 434.304 445.659 430.683 444.97 425.562 C 444.282 420.441 447.83 415.716 452.94 414.948 z"/>
<path transform="translate(0,0)" fill="rgb(21,19,19)" d="M 639.589 403.229 C 672.653 404.578 679.382 463.176 641.956 473.15 C 604.371 468.928 605.677 410.206 639.589 403.229 z"/>
<path transform="translate(0,0)" fill="rgb(254,254,254)" d="M 640.171 415.712 C 653.785 418.868 656.093 429.728 644.65 437.961 C 631.544 435.76 629.547 424.368 640.171 415.712 z"/>
<path transform="translate(0,0)" fill="rgb(165,79,18)" d="M 1649.42 564.284 C 1655.04 570.502 1667.23 568.269 1675.01 566.65 C 1682.6 575.078 1692.07 591.12 1684.71 601.97 C 1683.47 606.843 1684.51 608.212 1686.87 612.634 C 1698.9 638.596 1708.23 668.07 1711.75 696.605 C 1714.79 700.809 1722.19 702.402 1727.02 700.65 C 1742.11 685.916 1751.8 669.466 1760.29 653.534 C 1768.79 639.207 1782.64 568.006 1805.09 572.407 C 1844.25 580.085 1843.5 663.727 1839.8 692.98 C 1836.91 715.808 1825.14 759.761 1804.66 772.235 C 1798.2 778.392 1791.33 780.342 1791.79 789.303 C 1796.27 806.811 1791.86 852.168 1783.78 868.174 C 1806.12 899.134 1790.8 922.883 1755.82 928.72 C 1749.35 930.186 1743.39 930.998 1736.96 932.213 C 1722.95 932.869 1714.08 933.175 1700.64 928.682 C 1696.18 925.817 1690.84 921.948 1686.56 925.884 C 1679.55 939.988 1670.62 944.927 1655.95 949.884 C 1649.35 951.265 1643.78 952.496 1637.06 953.219 C 1624.34 955.234 1612.94 953.609 1600.42 951.562 C 1596.09 950.668 1588.55 948.181 1584.04 946.827 C 1581.8 946.016 1579.59 945.108 1577.42 944.106 C 1566.42 938.917 1562.98 931.957 1559.24 921.393 C 1543.92 931.377 1510.99 926.52 1494.45 921.251 C 1488.42 937.139 1478.24 941.229 1462.98 945.823 C 1456.69 947.235 1450.37 948.505 1444.03 949.634 C 1431.89 951.37 1421.08 951.033 1409.06 949.257 L 1391.98 945.789 C 1378.97 941.558 1369.32 938.926 1363.84 925.323 C 1359.17 927.769 1356.25 929.316 1351.22 931.17 C 1334.15 934.246 1329.04 934.698 1311.86 932.525 C 1306.62 932.037 1301.2 931.092 1295.97 930.286 C 1273.56 925.668 1246.57 910.98 1257.51 883.347 C 1259.31 878.8 1260.9 875.055 1264.03 871.228 C 1245.92 820.812 1256.76 753.584 1299.28 718.548 C 1312.75 707.44 1321.66 703.753 1337.81 697.4 C 1342 673.853 1352.99 638.02 1362.72 616.8 C 1364.99 612.28 1365.94 610.282 1367.47 605.49 C 1363.49 591.054 1373.23 579.601 1383.35 570.738 C 1389.97 571.832 1403.06 575.012 1408.51 572.248 C 1431.4 594.822 1510.13 597.922 1541.81 595.49 C 1578.3 592.689 1621.38 589.909 1649.42 564.284 z"/>
<path transform="translate(0,0)" fill="rgb(110,47,17)" d="M 1711.75 696.605 C 1714.79 700.809 1722.19 702.402 1727.02 700.65 C 1742.11 685.916 1751.8 669.466 1760.29 653.534 C 1768.79 639.207 1782.64 568.006 1805.09 572.407 C 1844.25 580.085 1843.5 663.727 1839.8 692.98 C 1836.91 715.808 1825.14 759.761 1804.66 772.235 C 1798.2 778.392 1791.33 780.342 1791.79 789.303 C 1796.27 806.811 1791.86 852.168 1783.78 868.174 C 1806.12 899.134 1790.8 922.883 1755.82 928.72 C 1749.35 930.186 1743.39 930.998 1736.96 932.213 C 1722.95 932.869 1714.08 933.175 1700.64 928.682 C 1696.18 925.817 1690.84 921.948 1686.56 925.884 C 1683.37 904.347 1691.4 894.133 1675.63 870.865 C 1672 866.949 1669.71 865.379 1665.5 862.265 C 1668.52 850.787 1671.53 834.419 1671.45 822.786 C 1671.79 817.886 1671.82 778.069 1671.86 778.01 C 1676.35 791.227 1673.81 805.101 1684.6 816.4 C 1693.06 825.251 1702.78 825.088 1713.89 825.333 C 1720.66 796.937 1717.34 758.426 1714.82 729.103 C 1714.25 722.415 1710.99 701.248 1711.75 696.605 z"/>
<path transform="translate(0,0)" fill="rgb(248,185,92)" d="M 1683.29 864.386 C 1695.42 851.616 1708.05 846.346 1725.59 845.871 C 1747.21 845.102 1768.21 853.153 1783.78 868.174 C 1806.12 899.134 1790.8 922.883 1755.82 928.72 C 1749.35 930.186 1743.39 930.998 1736.96 932.213 C 1722.95 932.869 1714.08 933.175 1700.64 928.682 C 1696.18 925.817 1690.84 921.948 1686.56 925.884 C 1683.37 904.347 1691.4 894.133 1675.63 870.865 C 1678.97 868.484 1679.28 866.025 1683.29 864.386 z"/>
<path transform="translate(0,0)" fill="url(#Gradient2)" d="M 1675.63 870.865 C 1678.97 868.484 1679.28 866.025 1683.29 864.386 C 1697.7 879.174 1702.48 885.035 1702.24 907.234 C 1702.16 914.432 1701.83 921.464 1700.64 928.682 C 1696.18 925.817 1690.84 921.948 1686.56 925.884 C 1683.37 904.347 1691.4 894.133 1675.63 870.865 z"/>
<path transform="translate(0,0)" fill="rgb(203,128,52)" d="M 1736.96 932.213 C 1736.89 924.546 1737.47 915.697 1737.99 908.002 C 1738.48 900.682 1738.38 883.256 1748.05 883.058 C 1756.79 889.275 1750.95 922.832 1755.82 928.72 C 1749.35 930.186 1743.39 930.998 1736.96 932.213 z"/>
<path transform="translate(0,0)" fill="rgb(85,33,17)" d="M 1791.79 789.303 C 1787.7 788.06 1788.42 775.997 1785.88 771.174 C 1770.25 741.418 1754.29 717.095 1723.56 702.107 C 1728.37 702.985 1740.99 703.912 1744.58 706.297 C 1762.76 718.377 1778.69 740.229 1789.38 759.034 C 1790.7 761.342 1792.33 773.413 1793.6 777.309 C 1798.25 774.288 1800.32 771.587 1804.66 772.235 C 1798.2 778.392 1791.33 780.342 1791.79 789.303 z"/>
<path transform="translate(0,0)" fill="rgb(110,47,17)" d="M 1264.03 871.228 C 1245.92 820.812 1256.76 753.584 1299.28 718.548 C 1312.75 707.44 1321.66 703.753 1337.81 697.4 C 1335.98 709.315 1332.68 720.685 1331.59 732.787 C 1328.96 761.829 1325.06 792.785 1327.12 821.898 C 1370.31 816.149 1369.55 800.863 1373.69 763.843 C 1376.9 781.615 1373.73 801.65 1377.64 822.258 C 1378.89 833.23 1380.56 851.691 1383.44 861.911 L 1375.3 870.151 C 1362.55 886.836 1361.77 904.885 1363.84 925.323 C 1359.17 927.769 1356.25 929.316 1351.22 931.17 C 1334.15 934.246 1329.04 934.698 1311.86 932.525 C 1306.62 932.037 1301.2 931.092 1295.97 930.286 C 1273.56 925.668 1246.57 910.98 1257.51 883.347 C 1259.31 878.8 1260.9 875.055 1264.03 871.228 z"/>
<path transform="translate(0,0)" fill="rgb(248,185,92)" d="M 1264.03 871.228 C 1290.03 845.334 1338.06 831.921 1366.83 860.115 L 1367.05 862.214 L 1368.35 863.069 C 1372.06 865.533 1373.62 866.108 1375.3 870.151 C 1362.55 886.836 1361.77 904.885 1363.84 925.323 C 1359.17 927.769 1356.25 929.316 1351.22 931.17 C 1334.15 934.246 1329.04 934.698 1311.86 932.525 C 1306.62 932.037 1301.2 931.092 1295.97 930.286 C 1273.56 925.668 1246.57 910.98 1257.51 883.347 C 1259.31 878.8 1260.9 875.055 1264.03 871.228 z"/>
<path transform="translate(0,0)" fill="rgb(203,128,52)" d="M 1366.83 860.115 L 1367.05 862.214 L 1368.35 863.069 C 1372.06 865.533 1373.62 866.108 1375.3 870.151 C 1362.55 886.836 1361.77 904.885 1363.84 925.323 C 1359.17 927.769 1356.25 929.316 1351.22 931.17 C 1349.75 900.994 1346.17 884.406 1366.83 860.115 z"/>
<path transform="translate(0,0)" fill="rgb(203,128,52)" d="M 1295.97 930.286 C 1296.14 921.956 1294.3 883.631 1305.55 883.875 C 1307.94 885.422 1310.03 886.8 1310.44 889.825 C 1312.32 903.479 1310.98 918.608 1311.86 932.525 C 1306.62 932.037 1301.2 931.092 1295.97 930.286 z"/>
<path transform="translate(0,0)" fill="rgb(254,225,129)" d="M 1570.35 835.598 C 1599.1 815.942 1638.66 811.524 1671.45 822.786 C 1671.53 834.419 1668.52 850.787 1665.5 862.265 C 1669.71 865.379 1672 866.949 1675.63 870.865 C 1691.4 894.133 1683.37 904.347 1686.56 925.884 C 1679.55 939.988 1670.62 944.927 1655.95 949.884 C 1649.35 951.265 1643.78 952.496 1637.06 953.219 C 1624.34 955.234 1612.94 953.609 1600.42 951.562 C 1596.09 950.668 1588.55 948.181 1584.04 946.827 C 1581.8 946.016 1579.59 945.108 1577.42 944.106 C 1566.42 938.917 1562.98 931.957 1559.24 921.393 C 1557.28 905.079 1557.78 890.746 1557.95 874.423 C 1558.73 867.636 1558.99 864.365 1558.89 857.523 C 1559.59 853.706 1560.06 848.895 1560.56 844.967 C 1563.63 841.61 1566.99 838.671 1570.35 835.598 z"/>
<path transform="translate(0,0)" fill="rgb(248,185,92)" d="M 1637.06 953.219 C 1636.92 940.106 1635.97 912.174 1641.47 901.206 C 1644.37 899.26 1642.8 899.65 1646.38 900.16 C 1656.27 908.067 1652.09 938.865 1655.95 949.884 C 1649.35 951.265 1643.78 952.496 1637.06 953.219 z"/>
<path transform="translate(0,0)" fill="rgb(248,185,92)" d="M 1584.04 946.827 C 1588.54 936.263 1582.69 910.202 1591.99 900.366 C 1602.87 899.137 1601.01 943.947 1600.42 951.562 C 1596.09 950.668 1588.55 948.181 1584.04 946.827 z"/>
<path transform="translate(0,0)" fill="rgb(254,225,129)" d="M 1377.64 822.258 C 1408.7 812.244 1442.49 815.147 1471.39 830.314 C 1477.87 833.708 1481.29 836.113 1486.82 840.811 C 1492.04 847.324 1494.99 880.747 1495.03 889.721 C 1495.06 900.249 1494.37 911.267 1494.45 921.251 C 1488.42 937.139 1478.24 941.229 1462.98 945.823 C 1456.69 947.235 1450.37 948.505 1444.03 949.634 C 1431.89 951.37 1421.08 951.033 1409.06 949.257 L 1391.98 945.789 C 1378.97 941.558 1369.32 938.926 1363.84 925.323 C 1361.77 904.885 1362.55 886.836 1375.3 870.151 L 1383.44 861.911 C 1380.56 851.691 1378.89 833.23 1377.64 822.258 z"/>
<path transform="translate(0,0)" fill="rgb(248,185,92)" d="M 1444.03 949.634 C 1443.78 945.72 1443.62 941.801 1443.56 937.879 C 1443.41 926.469 1444.05 914.904 1444.97 903.529 C 1445.4 898.308 1447.28 893.218 1453.43 894.765 C 1462.94 904.335 1459.36 933.491 1462.98 945.823 C 1456.69 947.235 1450.37 948.505 1444.03 949.634 z"/>
<path transform="translate(0,0)" fill="rgb(248,185,92)" d="M 1391.98 945.789 C 1395.55 931.117 1388.27 910.511 1397.91 895.641 L 1399.69 894.685 C 1410.1 898.265 1408.81 938.137 1409.06 949.257 L 1391.98 945.789 z"/>
<path transform="translate(0,0)" fill="rgb(224,51,19)" d="M 1649.42 564.284 C 1655.04 570.502 1667.23 568.269 1675.01 566.65 C 1682.6 575.078 1692.07 591.12 1684.71 601.97 C 1674.99 605.933 1666.88 613.449 1657.93 618.309 C 1630.46 633.223 1594.51 645.615 1563.22 648.34 C 1560.03 632.891 1546.57 621.707 1530.8 621.398 C 1515.03 621.09 1501.14 631.74 1497.35 647.052 C 1461.94 644.014 1424.72 636.108 1391.45 622.215 C 1384.3 619.231 1372.89 606.822 1367.47 605.49 C 1363.49 591.054 1373.23 579.601 1383.35 570.738 C 1389.97 571.832 1403.06 575.012 1408.51 572.248 C 1431.4 594.822 1510.13 597.922 1541.81 595.49 C 1578.3 592.689 1621.38 589.909 1649.42 564.284 z"/>
<path transform="translate(0,0)" fill="rgb(254,201,0)" d="M 1497.35 647.052 C 1501.14 631.74 1515.03 621.09 1530.8 621.398 C 1546.57 621.707 1560.03 632.891 1563.22 648.34 C 1566.03 661.934 1560.23 675.862 1548.61 683.451 C 1536.98 691.04 1521.9 690.746 1510.58 682.708 C 1499.26 674.67 1494.02 660.527 1497.35 647.052 z"/>
<path transform="translate(0,0)" fill="rgb(110,47,17)" d="M 1563.22 648.34 C 1594.51 645.615 1630.46 633.223 1657.93 618.309 C 1666.88 613.449 1674.99 605.933 1684.71 601.97 C 1683.47 606.843 1684.51 608.212 1686.87 612.634 L 1680.84 615.167 C 1673.58 618.154 1660.57 627.612 1651.81 631.923 C 1622.56 646.322 1598.37 651.487 1567.11 657.665 L 1566.75 659.12 C 1563.24 673.274 1568.21 680.231 1552.51 689.89 C 1534.76 700.809 1507.4 698.84 1496.53 679.291 C 1492.87 672.697 1490.82 663.511 1488.25 656.285 C 1451.58 647.929 1411.04 643.781 1377.78 624.682 C 1373.34 622.131 1367.47 617.877 1362.72 616.8 C 1364.99 612.28 1365.94 610.282 1367.47 605.49 C 1372.89 606.822 1384.3 619.231 1391.45 622.215 C 1424.72 636.108 1461.94 644.014 1497.35 647.052 C 1494.02 660.527 1499.26 674.67 1510.58 682.708 C 1521.9 690.746 1536.98 691.04 1548.61 683.451 C 1560.23 675.862 1566.03 661.934 1563.22 648.34 z"/>
<path transform="translate(0,0)" fill="rgb(110,47,17)" d="M 1486.82 840.811 C 1488.03 833.981 1487.1 824.558 1487.14 817.311 C 1487.22 805.421 1487.88 793.975 1488.58 782.11 L 1489.52 781.61 C 1491.05 796.201 1499.17 887.875 1496.48 893.544 L 1495.03 889.721 C 1494.99 880.747 1492.04 847.324 1486.82 840.811 z"/>
<path transform="translate(0,0)" fill="url(#Gradient1)" d="M 1565.7 766.658 L 1567.21 768.006 C 1566.67 779.874 1564.95 825.716 1570.35 835.598 C 1566.99 838.671 1563.63 841.61 1560.56 844.967 C 1560.06 848.895 1559.59 853.706 1558.89 857.523 C 1557.43 851.748 1557.43 850.78 1557.7 844.803 C 1558.98 821.737 1563.54 790.902 1565.7 766.658 z"/>
<path transform="translate(0,0)" fill="rgb(110,47,17)" d="M 1557.7 844.803 C 1557.43 850.78 1557.43 851.748 1558.89 857.523 C 1558.99 864.365 1558.73 867.636 1557.95 874.423 C 1554.86 865.022 1555.98 854.304 1557.7 844.803 z"/>
<path transform="translate(0,0)" fill="rgb(110,47,17)" d="M 1565.7 766.658 C 1565.96 763.019 1565.44 761.71 1567.15 759.056 C 1568.47 762.193 1567.7 764.568 1567.21 768.006 L 1565.7 766.658 z"/>
<path transform="translate(0,0)" fill="rgb(165,79,18)" d="M 1384.04 266.347 C 1395.41 248.625 1433.27 236.798 1453.26 232.442 C 1510.97 219.862 1590.3 223.185 1642 254.091 C 1646.66 256.878 1653.37 263.264 1656.26 267.636 C 1658.08 264.881 1661.44 260.717 1665.07 260.634 C 1685.44 260.167 1714 281.859 1728.75 294.47 C 1754.49 316.479 1782.5 336.738 1802.93 363.681 C 1834.51 406.948 1808.77 508.471 1753.48 520.234 C 1738.9 516.81 1734.54 512.064 1725.84 499.534 C 1721.33 493.036 1717.39 481.688 1714.17 476.791 C 1714.8 507.255 1711.57 525.921 1690.58 550.89 C 1686.9 555.273 1677.37 562.404 1675.01 566.65 C 1667.23 568.269 1655.04 570.502 1649.42 564.284 C 1621.38 589.909 1578.3 592.689 1541.81 595.49 C 1510.13 597.922 1431.4 594.822 1408.51 572.248 C 1403.06 575.012 1389.97 571.832 1383.35 570.738 C 1347.92 550.177 1332.6 522.03 1331.67 481.651 C 1316.81 506.21 1304.57 537.606 1270.6 509.19 C 1233.84 478.436 1220.33 420.322 1235.75 375.311 C 1237.96 368.848 1248.45 353.223 1253.02 348.746 C 1274.48 327.709 1353.55 238.502 1384.04 266.347 z"/>
<path transform="translate(0,0)" fill="rgb(254,231,176)" d="M 1408.51 572.248 C 1393.26 557 1383.09 541.383 1380.62 518.941 C 1377.59 491.368 1390.4 463.061 1415.25 449.469 C 1424.03 444.667 1438.34 442.471 1448.26 438.753 C 1470.88 430.285 1492.78 417.465 1517.2 415.321 C 1540.63 413.606 1560.78 418.729 1581.72 428.734 C 1586.47 430.195 1597.71 436.583 1601.74 437.033 C 1641.01 441.419 1669.2 460.333 1671.83 502.379 C 1673.27 525.329 1665.83 546.233 1649.42 564.284 C 1621.38 589.909 1578.3 592.689 1541.81 595.49 C 1510.13 597.922 1431.4 594.822 1408.51 572.248 z"/>
<path transform="translate(0,0)" fill="rgb(21,19,19)" d="M 1479.29 523.336 C 1469.16 519.055 1450.14 503.013 1453.37 491.192 C 1455.8 490.028 1454.44 490.302 1457.78 491.451 C 1464.51 502.342 1468.57 511.522 1482.28 514.59 C 1490.5 516.43 1500.52 517.227 1507.74 512.023 C 1514.31 507.29 1527.58 494.112 1524.39 485.536 C 1516.35 477.678 1488.52 477.389 1487.6 455.998 C 1485.92 416.956 1566.34 420.544 1564.86 454.866 C 1564.14 471.64 1545.21 480.883 1530.32 482.993 C 1532.22 494.768 1534.95 502.889 1545.64 510.42 C 1552.79 515.538 1561.79 517.346 1570.36 515.384 C 1595.05 509.937 1588.01 499.716 1597.99 489.825 C 1603.86 492.938 1596.15 507.893 1593.31 511.905 C 1587.27 520.435 1578.47 521.055 1569.95 524.4 C 1563.56 597.022 1485.84 593.669 1479.29 523.336 z"/>
<path transform="translate(0,0)" fill="rgb(187,134,122)" d="M 1506.21 523.644 L 1509.29 525.201 C 1517.76 524.535 1542.11 524.722 1547.89 522.571 L 1557.72 525.548 C 1562.05 525.268 1565.65 524.973 1569.95 524.4 C 1563.56 597.022 1485.84 593.669 1479.29 523.336 L 1484.12 524.837 C 1492.77 525.756 1497.53 525.986 1506.21 523.644 z"/>
<path transform="translate(0,0)" fill="rgb(145,102,93)" d="M 1479.29 523.336 L 1484.12 524.837 L 1484.84 526.651 C 1486.48 530.89 1487.62 536.686 1489.45 541.401 C 1503.73 578.194 1543.53 580.403 1559.49 543.669 C 1561.06 540.043 1565 531.429 1564.4 527.846 C 1562.36 525.456 1561.83 526.165 1557.72 525.548 C 1562.05 525.268 1565.65 524.973 1569.95 524.4 C 1563.56 597.022 1485.84 593.669 1479.29 523.336 z"/>
<path transform="translate(0,0)" fill="rgb(145,102,93)" d="M 1527.3 503.059 C 1534.48 512.932 1537.7 515.942 1547.89 522.571 C 1542.11 524.722 1517.76 524.535 1509.29 525.201 L 1506.21 523.644 C 1515.93 518.068 1521.24 512.1 1527.3 503.059 z"/>
<path transform="translate(0,0)" fill="rgb(110,47,17)" d="M 1656.26 267.636 C 1658.08 264.881 1661.44 260.717 1665.07 260.634 C 1685.44 260.167 1714 281.859 1728.75 294.47 C 1754.49 316.479 1782.5 336.738 1802.93 363.681 C 1834.51 406.948 1808.77 508.471 1753.48 520.234 C 1738.9 516.81 1734.54 512.064 1725.84 499.534 C 1721.33 493.036 1717.39 481.688 1714.17 476.791 C 1711.65 454.555 1689.53 414.317 1682.93 389.625 C 1676.19 364.395 1670.76 342.309 1667.12 316.062 C 1665.57 304.883 1663.3 292.353 1661.48 281.067 C 1661.12 278.79 1657.69 271.889 1656.72 269.032 L 1656.26 267.636 z"/>
<path transform="translate(0,0)" fill="rgb(110,47,17)" d="M 1331.67 481.651 C 1316.81 506.21 1304.57 537.606 1270.6 509.19 C 1233.84 478.436 1220.33 420.322 1235.75 375.311 C 1237.96 368.848 1248.45 353.223 1253.02 348.746 C 1274.48 327.709 1353.55 238.502 1384.04 266.347 C 1381.14 277.038 1376.48 293.688 1374.85 304.372 C 1370.49 333.049 1367.76 361.493 1359.84 389.467 C 1355.56 404.619 1328.82 471.39 1331.67 481.651 z"/>
<path transform="translate(0,0)" fill="rgb(21,19,19)" d="M 1432.31 364.121 C 1462.17 361.275 1476.29 388.248 1466.29 414.656 C 1462.52 424.611 1456.39 428.658 1447.08 432.618 C 1401.38 439.429 1397.35 376.599 1432.31 364.121 z"/>
<path transform="translate(0,0)" fill="rgb(254,254,254)" d="M 1436.66 376.593 C 1441.82 375.295 1447.05 378.457 1448.3 383.631 C 1449.55 388.805 1446.34 394.005 1441.15 395.207 C 1436.04 396.393 1430.92 393.234 1429.68 388.127 C 1428.45 383.02 1431.56 377.873 1436.66 376.593 z"/>
<path transform="translate(0,0)" fill="rgb(21,19,19)" d="M 1605.65 364.172 C 1648.23 362.241 1647.15 421.839 1616.39 433.078 C 1598.11 433.014 1587.87 425.483 1583.22 407.441 C 1578.38 388.676 1585.83 368.854 1605.65 364.172 z"/>
<path transform="translate(0,0)" fill="rgb(254,254,254)" d="M 1602.38 376.799 C 1605.58 375.593 1609.19 376.211 1611.81 378.417 C 1614.43 380.622 1615.65 384.071 1615.01 387.434 C 1614.36 390.797 1611.95 393.55 1608.7 394.633 C 1603.81 396.263 1598.52 393.678 1596.79 388.819 C 1595.07 383.961 1597.55 378.616 1602.38 376.799 z"/>
<path transform="translate(0,0)" fill="rgb(254,201,0)" d="M 560.638 1125.52 C 592.973 1125.86 613.118 1129.3 643.694 1139.34 C 617.974 1151.19 601.767 1158.8 580.396 1177.61 C 511.045 1238.66 484.972 1322.03 510.172 1410.91 C 553.95 1565.31 737.492 1615.89 856.032 1509.25 C 831.671 1574.75 797.084 1617.42 738.949 1656.1 C 698.384 1684.01 647.943 1695.22 598.312 1698.4 C 371.527 1712.93 214.481 1443.98 334.431 1253.25 C 384.815 1173.13 463.287 1127.88 560.638 1125.52 z"/>
<path transform="translate(0,0)" fill="rgb(254,225,129)" d="M 415.095 1210.15 C 419.903 1209.48 424.805 1210.19 429.22 1212.21 C 448.244 1220.69 444.078 1252.52 435.945 1267.52 C 427.378 1283.45 412.777 1295.28 395.416 1300.35 C 390.505 1300.78 387.104 1300.27 382.239 1299.81 C 353.871 1281.61 366.184 1243.74 386.559 1224.97 C 395.702 1216.54 403.33 1212.92 415.095 1210.15 z"/>
<path transform="translate(0,0)" fill="rgb(254,225,129)" d="M 350.199 1314.05 C 374.024 1318.28 376.348 1339.78 367.076 1359.74 C 363.522 1367.39 357.972 1369.71 350.166 1371.68 C 321.31 1369.97 316.885 1322.19 350.199 1314.05 z"/>
<path transform="translate(0,0)" fill="rgb(141,106,189)" d="M 1399.85 1335.11 C 1407.96 1337.17 1415.45 1339.26 1423.81 1340.19 C 1432.35 1361.94 1442.88 1385.44 1451.94 1407.05 C 1456.86 1418.8 1468.97 1451.4 1475.25 1460.24 L 1476.02 1460.26 C 1495.57 1462.21 1489.26 1461.7 1486.99 1445.22 C 1485.72 1435.98 1488.9 1430.62 1493.01 1422.67 C 1496.69 1419.48 1500.47 1415.83 1505.07 1414.25 C 1533.92 1404.3 1551.95 1422.67 1558.76 1447.87 C 1572.4 1434.31 1587.21 1433.09 1604.92 1438.85 C 1619.14 1448.6 1622.57 1451.28 1627.82 1468.47 C 1628.97 1489.22 1623.23 1498.83 1604.5 1508.59 C 1607.19 1512.62 1609.18 1515.68 1611 1520.31 C 1612.54 1524.23 1611.9 1533.81 1615.02 1534.84 L 1616.21 1534.44 C 1627.3 1530.85 1633.52 1530.89 1644.83 1532.82 C 1640.24 1511.53 1647.7 1494.02 1667.5 1484.22 C 1674.62 1482.61 1680.46 1481.2 1687.8 1482.52 C 1718.32 1488.04 1725.21 1509.49 1722.71 1536.17 C 1726.87 1534.31 1732.92 1531.31 1737.19 1530.31 L 1738.05 1530.29 C 1742.27 1530.13 1749.01 1528.88 1752.39 1528.93 C 1758.27 1529 1771.37 1534.87 1775.14 1539.6 C 1800.33 1571.24 1776.01 1596.56 1745.32 1602.98 C 1750.92 1612.04 1753.47 1619.99 1751.04 1630.92 C 1749.08 1639.78 1743.65 1647.47 1735.95 1652.28 C 1726.3 1658.39 1716.93 1658.97 1705.77 1657.42 C 1695.78 1656.03 1689.6 1647.02 1682.4 1643.86 C 1665.89 1680.24 1632.86 1705.68 1593.21 1710.86 C 1591.44 1722.37 1589.53 1733.1 1579.3 1740.67 C 1574.21 1744.48 1567.81 1746.09 1561.53 1745.15 C 1544 1742.41 1535.44 1725.07 1532.31 1709.38 L 1531.29 1710.22 C 1524.83 1725.47 1508.57 1737.01 1493.35 1742.22 C 1496.35 1730.09 1495.15 1723.18 1497.06 1712.73 C 1483.8 1709.08 1478.18 1698.52 1473.54 1686.76 C 1475.02 1680.39 1476.57 1674.05 1478.19 1667.72 C 1471.66 1669.03 1467.06 1669.47 1460.49 1667.66 C 1452.64 1665.56 1445.96 1660.38 1441.97 1653.29 C 1436.14 1642.92 1437.65 1635.27 1440.5 1624.81 C 1442.65 1621.29 1444.86 1618.28 1447.26 1614.96 C 1429.77 1607.89 1419.89 1597.91 1407.42 1584.76 C 1410.63 1583.49 1413.82 1582.18 1416.98 1580.81 C 1428.33 1575.83 1436.09 1569.29 1440.35 1557.27 C 1447.23 1537.9 1440.29 1511.86 1422.56 1500.52 C 1418.9 1498.18 1413.21 1496.39 1408.99 1494.97 C 1427.29 1491.14 1438.14 1477.19 1442.12 1459.55 C 1447.26 1436.76 1441.46 1429.65 1430.58 1411.96 L 1429.66 1410.47 C 1428.65 1404.88 1422.49 1390.91 1420.2 1385.17 C 1413.55 1368.5 1406.11 1351.95 1399.85 1335.11 z"/>
<path transform="translate(0,0)" fill="rgb(80,128,42)" d="M 1543.33 1549.31 C 1565.94 1563.53 1574.35 1571.76 1599.8 1556.47 L 1599.51 1558.21 C 1594.92 1584.79 1613.69 1595.65 1636.79 1598.22 C 1631.62 1602.87 1628.24 1607.33 1626.58 1614.23 C 1624.57 1622.89 1626.14 1632 1630.95 1639.49 C 1635.75 1646.77 1643.34 1651.73 1651.93 1653.21 C 1664.16 1655.42 1672.94 1650.44 1682.4 1643.86 C 1665.89 1680.24 1632.86 1705.68 1593.21 1710.86 C 1591.44 1722.37 1589.53 1733.1 1579.3 1740.67 C 1574.21 1744.48 1567.81 1746.09 1561.53 1745.15 C 1544 1742.41 1535.44 1725.07 1532.31 1709.38 L 1536.86 1703.97 C 1555.99 1715.78 1571.52 1717.2 1589.24 1701.37 C 1594.82 1685.53 1593.79 1677.28 1584.5 1663.29 C 1609.27 1654.27 1625.19 1633.04 1609.68 1607.87 C 1604.56 1599.41 1596.12 1593.49 1586.42 1591.55 C 1571.95 1588.58 1561.44 1593.62 1549.82 1601.03 C 1553.62 1579.01 1550.03 1569.87 1543.33 1549.31 z"/>
<path transform="translate(0,0)" fill="rgb(80,128,42)" d="M 1399.85 1335.11 C 1407.96 1337.17 1415.45 1339.26 1423.81 1340.19 C 1432.35 1361.94 1442.88 1385.44 1451.94 1407.05 C 1456.86 1418.8 1468.97 1451.4 1475.25 1460.24 C 1471.66 1460.87 1464.88 1461.83 1461.78 1463.26 C 1417.76 1483.56 1437.43 1546.57 1486.06 1532.85 C 1487.2 1532.52 1488.33 1532.17 1489.44 1531.79 C 1492.42 1540.16 1494.85 1546.49 1499.68 1554.07 C 1465.47 1552.07 1449.71 1578.68 1469.98 1605.9 C 1459.6 1606.27 1455.47 1608.52 1447.26 1614.96 C 1429.77 1607.89 1419.89 1597.91 1407.42 1584.76 C 1410.63 1583.49 1413.82 1582.18 1416.98 1580.81 C 1428.33 1575.83 1436.09 1569.29 1440.35 1557.27 C 1447.23 1537.9 1440.29 1511.86 1422.56 1500.52 C 1418.9 1498.18 1413.21 1496.39 1408.99 1494.97 C 1427.29 1491.14 1438.14 1477.19 1442.12 1459.55 C 1447.26 1436.76 1441.46 1429.65 1430.58 1411.96 L 1429.66 1410.47 C 1428.65 1404.88 1422.49 1390.91 1420.2 1385.17 C 1413.55 1368.5 1406.11 1351.95 1399.85 1335.11 z"/>
<path transform="translate(0,0)" fill="rgb(80,128,42)" d="M 1497.06 1712.73 C 1512.12 1714.58 1516.86 1714.99 1531.29 1710.22 C 1524.83 1725.47 1508.57 1737.01 1493.35 1742.22 C 1496.35 1730.09 1495.15 1723.18 1497.06 1712.73 z"/>
<path transform="translate(0,0)" fill="rgb(254,201,0)" d="M 1535.13 1471 C 1549.52 1468.82 1562.93 1478.78 1565 1493.19 C 1567.08 1507.6 1557.02 1520.94 1542.6 1522.91 C 1528.32 1524.86 1515.15 1514.93 1513.1 1500.67 C 1511.04 1486.4 1520.88 1473.16 1535.13 1471 z"/>
<path transform="translate(0,0)" fill="rgb(254,201,0)" d="M 1683.7 1553.35 C 1696.69 1548.57 1711.08 1555.29 1715.76 1568.31 C 1720.44 1581.33 1713.63 1595.67 1700.57 1600.26 C 1687.65 1604.8 1673.48 1598.07 1668.85 1585.18 C 1664.21 1572.29 1670.84 1558.08 1683.7 1553.35 z"/>
<path transform="translate(0,0)" fill="rgb(254,201,0)" d="M 1521.98 1611.87 C 1534.58 1609.31 1546.92 1617.26 1549.79 1629.79 C 1552.66 1642.32 1545.01 1654.85 1532.56 1658.03 C 1524.22 1660.16 1515.39 1657.6 1509.48 1651.35 C 1503.57 1645.1 1501.52 1636.13 1504.12 1627.93 C 1506.71 1619.73 1513.55 1613.58 1521.98 1611.87 z"/>
<path transform="translate(0,0)" fill="rgb(224,51,19)" d="M 846.189 558.232 C 861.188 555.381 878.415 553.81 891.517 563.484 C 937.56 597.481 859.871 635.67 850.875 668.452 C 844.353 692.218 846.645 709.121 846.703 732.891 C 847.044 795.07 821.88 850.271 760.841 873.843 C 756.566 880.329 755.282 882.797 754.116 890.47 C 763.026 910.53 759.099 925.068 738.04 933.99 C 734.512 935.509 730.895 936.808 727.207 937.882 C 722.834 938.349 714.758 938.98 710.693 939.715 C 700.366 940.519 688.163 939.463 679.101 934.209 C 676.166 933.885 670.493 934.636 667.361 934.97 C 667.034 910.327 666.402 893.926 645.022 878.204 C 675.349 802.295 692.974 732.677 691.097 651.205 C 690.952 644.921 692.424 641.322 697.063 637.526 C 702.514 661.501 705.99 677.401 708.457 701.942 C 733.326 714.744 741.708 732.47 751.071 758.275 C 755.005 769.119 755.747 781.979 758.248 789.866 C 760.768 769.079 761.969 749.962 762.769 729.267 C 763.271 716.279 761.619 678.493 763.897 667.889 C 763.691 662.349 765.172 655.007 766.245 649.523 C 774.556 607.065 803.585 570.322 846.189 558.232 z"/>
<path transform="translate(0,0)" fill="rgb(254,225,129)" d="M 663.707 877.452 C 682.327 859.29 716.786 861.777 737.285 875.654 C 743.68 879.983 748.635 885.045 754.116 890.47 C 763.026 910.53 759.099 925.068 738.04 933.99 C 734.512 935.509 730.895 936.808 727.207 937.882 C 722.834 938.349 714.758 938.98 710.693 939.715 C 700.366 940.519 688.163 939.463 679.101 934.209 C 683.582 913.203 680.125 892.126 663.707 877.452 z"/>
<path transform="translate(0,0)" fill="rgb(248,185,92)" d="M 710.693 939.715 C 711.439 930.761 711.018 899.938 717.721 896.107 L 720.116 896.794 C 726.673 903.862 726.555 927.579 727.207 937.882 C 722.834 938.349 714.758 938.98 710.693 939.715 z"/>
<path transform="translate(0,0)" fill="rgb(245,68,19)" d="M 846.189 558.232 L 848.381 558.981 C 845.534 560.742 833.208 564.333 826.565 568.176 C 797.542 584.968 781.694 604.3 773.245 636.601 C 770.856 645.733 767.075 693.627 767.098 693.586 C 763.054 683.958 767.097 681.237 765.538 674.783 L 764.623 683.541 C 764.513 678.077 764.426 673.364 763.897 667.889 C 763.691 662.349 765.172 655.007 766.245 649.523 C 774.556 607.065 803.585 570.322 846.189 558.232 z"/>
<path transform="translate(0,0)" fill="rgb(249,97,118)" d="M 1255.1 1302.6 C 1305.1 1294.95 1369.57 1337.26 1393.9 1379.59 C 1397.59 1386.01 1401.83 1396.09 1405.96 1401.56 C 1416.2 1403.78 1420.39 1405.34 1429.66 1410.47 L 1430.58 1411.96 C 1441.46 1429.65 1447.26 1436.76 1442.12 1459.55 C 1438.14 1477.19 1427.29 1491.14 1408.99 1494.97 C 1413.21 1496.39 1418.9 1498.18 1422.56 1500.52 C 1440.29 1511.86 1447.23 1537.9 1440.35 1557.27 C 1436.09 1569.29 1428.33 1575.83 1416.98 1580.81 C 1413.82 1582.18 1410.63 1583.49 1407.42 1584.76 C 1382.13 1585.1 1364.47 1574.6 1350.41 1553.95 C 1349.11 1556.53 1347.75 1559.09 1346.35 1561.62 C 1329.15 1592.47 1278.09 1614.83 1260.26 1568.97 C 1254.67 1554.6 1266.46 1534.28 1274.52 1521.69 C 1247.86 1529.86 1213.87 1530.43 1200.33 1500.31 C 1195.56 1489.91 1195.36 1477.99 1199.76 1467.43 C 1212.25 1436.74 1249.29 1428.93 1277.4 1441.37 C 1266.99 1417.34 1262.06 1384.42 1288.33 1368.1 C 1271.25 1349.12 1258.15 1328.51 1255.1 1302.6 z"/>
<path transform="translate(0,0)" fill="rgb(80,128,42)" d="M 1255.1 1302.6 C 1305.1 1294.95 1369.57 1337.26 1393.9 1379.59 C 1397.59 1386.01 1401.83 1396.09 1405.96 1401.56 C 1385.36 1403.14 1382.16 1402.06 1366.71 1417.71 C 1364.27 1386.69 1341.54 1360.1 1308.32 1360.88 C 1299.22 1361.1 1296.33 1364.32 1288.33 1368.1 C 1271.25 1349.12 1258.15 1328.51 1255.1 1302.6 z"/>
<path transform="translate(0,0)" fill="rgb(254,201,0)" d="M 1334.78 1450.19 C 1352.16 1447.13 1368.71 1458.8 1371.67 1476.2 C 1374.62 1493.6 1362.85 1510.08 1345.43 1512.93 C 1328.17 1515.75 1311.86 1504.1 1308.93 1486.85 C 1306 1469.6 1317.55 1453.22 1334.78 1450.19 z"/>
<path transform="translate(0,0)" fill="rgb(254,201,0)" d="M 1628.52 1242.14 C 1637.22 1219.52 1656.24 1193 1683.56 1215.62 C 1696.7 1226.5 1697.92 1247.92 1698.3 1264.14 C 1714.92 1250.82 1744.34 1246.18 1758.98 1264.75 C 1764.64 1272.02 1766.99 1281.32 1765.48 1290.41 C 1762.95 1305.67 1753.23 1314.04 1741.78 1322.56 C 1745.12 1323.69 1748.4 1324.99 1751.61 1326.46 C 1801.43 1349.15 1763.58 1413.48 1703.15 1378.98 C 1709.91 1398.62 1713.52 1421.86 1690.79 1433.09 C 1682.9 1437.01 1673.74 1437.55 1665.44 1434.59 C 1654.1 1430.49 1646.47 1421.27 1641.44 1410.72 C 1641.98 1434.34 1633.03 1447.79 1627.82 1468.47 C 1622.57 1451.28 1619.14 1448.6 1604.92 1438.85 C 1606.18 1436.2 1606.56 1431.97 1608.25 1428.19 C 1590.37 1427.99 1570.65 1421.51 1564.88 1402.47 C 1560.16 1386.85 1568.11 1373.81 1575.5 1360.67 C 1555.45 1362.28 1532.99 1365.41 1518.81 1347.09 C 1506 1330.54 1511.22 1305.79 1527.99 1294.01 C 1541.41 1284.59 1555.86 1283.97 1571.45 1286.32 C 1528.81 1228.41 1592.41 1190.28 1628.52 1242.14 z"/>
<path transform="translate(0,0)" fill="rgb(80,128,42)" d="M 1639.15 1400.19 C 1639.94 1403.7 1640.7 1407.2 1641.44 1410.72 C 1641.98 1434.34 1633.03 1447.79 1627.82 1468.47 C 1622.57 1451.28 1619.14 1448.6 1604.92 1438.85 C 1606.18 1436.2 1606.56 1431.97 1608.25 1428.19 C 1626.21 1423.28 1631.78 1416.55 1639.15 1400.19 z"/>
<path transform="translate(0,0)" fill="rgb(253,108,0)" d="M 1634.37 1276.07 C 1660.15 1272.45 1684.01 1290.33 1687.77 1316.09 C 1691.52 1341.84 1673.77 1365.8 1648.03 1369.69 C 1622.1 1373.61 1597.93 1355.7 1594.15 1329.75 C 1590.36 1303.8 1608.4 1279.72 1634.37 1276.07 z"/>
<path transform="translate(0,0)" fill="rgb(254,254,254)" d="M 1633.31 1296.7 C 1647.28 1293.33 1661.37 1301.8 1664.95 1315.72 C 1668.53 1329.63 1660.28 1343.85 1646.42 1347.64 C 1637.26 1350.15 1627.47 1347.52 1620.79 1340.78 C 1614.11 1334.03 1611.58 1324.21 1614.18 1315.08 C 1616.77 1305.95 1624.08 1298.93 1633.31 1296.7 z"/>
<path transform="translate(0,0)" fill="rgb(224,51,19)" d="M 1427.84 1173.47 C 1439.64 1113.24 1474.86 1140.77 1492.16 1178.46 C 1507.48 1211.83 1518.84 1246.19 1506.72 1282.96 C 1500.51 1301.83 1487.85 1318.87 1470.22 1327.81 C 1463.75 1330.56 1458.65 1333.38 1452.48 1336.72 C 1442.53 1340 1434.42 1341.1 1423.81 1340.19 C 1415.45 1339.26 1407.96 1337.17 1399.85 1335.11 C 1355.8 1317.71 1325.12 1262.83 1321.63 1217.56 C 1318.3 1174.5 1343.02 1161.87 1374.19 1193.5 C 1373.03 1176.42 1373.28 1139.11 1403.84 1145.19 C 1413.5 1147.11 1423.49 1164.36 1427.84 1173.47 z"/>
<path transform="translate(0,0)" fill="rgb(80,128,42)" d="M 1667.5 1484.22 C 1680.61 1451.25 1713.25 1426.13 1745.74 1412.08 C 1769.05 1401.99 1801.78 1394.1 1828.06 1399.82 C 1829.67 1400.17 1831.53 1402.07 1831.91 1403.8 C 1834.92 1417.46 1823.14 1447.11 1817.13 1458.67 C 1804.9 1482.19 1785.64 1503.47 1763.05 1517.07 C 1754.81 1522.03 1744.9 1525.83 1737.19 1530.31 C 1732.92 1531.31 1726.87 1534.31 1722.71 1536.17 C 1725.21 1509.49 1718.32 1488.04 1687.8 1482.52 C 1680.46 1481.2 1674.62 1482.61 1667.5 1484.22 z"/>
<path transform="translate(0,0)" fill="rgb(80,128,42)" d="M 1287.75 1635.58 C 1296.22 1628.28 1303.98 1623.98 1314.6 1620.23 C 1349.85 1607.77 1388.31 1606.24 1423.76 1618.73 C 1429.37 1620.7 1434.84 1622.88 1440.5 1624.81 C 1437.65 1635.27 1436.14 1642.92 1441.97 1653.29 C 1445.96 1660.38 1452.64 1665.56 1460.49 1667.66 C 1467.06 1669.47 1471.66 1669.03 1478.19 1667.72 C 1476.57 1674.05 1475.02 1680.39 1473.54 1686.76 C 1448.64 1698.9 1420.73 1703.48 1393.26 1699.95 C 1349.05 1694.09 1314.42 1670.36 1287.75 1635.58 z"/>
<path transform="translate(0,0)" fill="rgb(254,201,0)" d="M 708.793 1195.5 C 712.256 1200.67 713.376 1213.35 718.712 1223.16 C 731.587 1246.81 747.071 1252.21 770.93 1260.01 C 726.764 1266.85 718.803 1281.67 705.768 1320.36 L 704.405 1318.87 C 700.211 1280.68 678.891 1267.93 644.803 1259.7 C 682.434 1245.82 699.599 1237.13 708.793 1195.5 z"/>
<path transform="translate(0,0)" fill="rgb(254,201,0)" d="M 738.422 1401.53 C 742.13 1405.14 744.729 1421.57 749.211 1427.91 C 759.83 1442.92 773.972 1446.69 790.323 1450.34 C 761.235 1454.88 742.943 1464.98 739.455 1497.13 C 738.561 1496.9 737.106 1496.01 736.955 1495.56 C 733.554 1485.36 730.88 1477.25 724.913 1468.24 C 716.927 1456.19 699.987 1454.91 695.143 1451.2 C 698.808 1445.06 718.196 1444.03 727.263 1428.7 C 733.806 1417.64 733.952 1413.11 738.422 1401.53 z"/>
<path transform="translate(0,0)" fill="rgb(80,128,42)" d="M 1452.48 1336.72 C 1458.65 1333.38 1463.75 1330.56 1470.22 1327.81 C 1478.85 1354.83 1483.68 1383.13 1490.36 1410.68 C 1491.2 1414.14 1491.84 1419.55 1493.01 1422.67 C 1488.9 1430.62 1485.72 1435.98 1486.99 1445.22 C 1489.26 1461.7 1495.57 1462.21 1476.02 1460.26 L 1478.72 1459.46 C 1474.78 1449.26 1473.3 1436.52 1471.69 1425.63 C 1467.23 1395.39 1459.88 1366.32 1452.48 1336.72 z"/>
<path transform="translate(0,0)" fill="rgb(254,201,0)" d="M 817.321 1305.68 C 819.835 1315.24 818.962 1321.06 825.309 1331.83 C 834.081 1346.71 844.909 1350.4 860.277 1355.09 C 832.233 1365.06 824.204 1369.73 817.027 1399.75 C 812.972 1392.43 811.666 1384.82 806.794 1376.91 C 797.74 1362.2 787.593 1359.61 772.225 1355.71 C 805.897 1343.24 806.345 1336.82 817.321 1305.68 z"/>
</svg>