<svg version="1.1" xmlns="http://www.w3.org/2000/svg" style="display: block;" viewBox="0 0 2048 2048" width="1024" height="1024" preserveAspectRatio="none">
<defs>
	<linearGradient id="Gradient1" gradientUnits="userSpaceOnUse" x1="358.866" y1="1582.73" x2="383.671" y2="1626.66">
		<stop class="stop0" offset="0" stop-opacity="1" stop-color="rgb(205,213,228)"/>
		<stop class="stop1" offset="1" stop-opacity="1" stop-color="rgb(251,251,250)"/>
	</linearGradient>
	<linearGradient id="Gradient2" gradientUnits="userSpaceOnUse" x1="918.257" y1="1674.06" x2="869.644" y2="1653.19">
		<stop class="stop0" offset="0" stop-opacity="1" stop-color="rgb(16,79,133)"/>
		<stop class="stop1" offset="1" stop-opacity="1" stop-color="rgb(31,122,195)"/>
	</linearGradient>
</defs>
<path transform="translate(0,0)" fill="rgb(8,46,86)" d="M 470.627 155.386 C 481.84 128.525 519.174 124.693 533.331 154.802 C 533.386 155.08 533.442 155.358 533.497 155.635 C 551.579 156.526 575.681 161.842 593.31 166.847 C 613.627 157.104 631.76 163.007 641.515 183.898 C 642.513 186.052 643.476 188.223 644.405 190.408 C 666.141 198.633 678.035 206.222 697.579 218.412 C 732.777 211.634 747.489 224.948 744.567 261.186 C 754.617 274.891 773.459 299.365 779.527 314.089 C 793.723 313.646 804.449 313.214 815.201 324.006 C 828.058 336.912 825.799 351.586 816.624 365.248 C 823.805 384.236 832.338 406.311 833.853 426.67 C 850.835 431.572 863.552 449.33 858.248 466.993 C 856.475 473.025 853.03 478.431 848.31 482.585 C 846.277 484.158 844.688 485.738 842.231 486.307 C 840.607 505.318 837.398 524.515 830.882 542.523 C 857.04 554.515 852.614 593.376 825.838 601.526 C 822.69 602.484 819.175 603.198 815.957 603.923 C 805.501 620.905 797.429 636.036 782.019 649.098 C 789.931 676.61 776.577 694.635 748.121 696.293 C 730.684 716.711 691.262 742.763 667.154 755.768 C 673.891 765.099 687.693 794.656 690.855 806.01 C 706.584 805.593 763.296 802.11 772.515 809.667 C 775.411 814.38 774.499 820.327 769.473 823.159 C 763.173 826.709 754.467 826.045 747.438 825.93 C 744.402 843.918 741.56 848.331 733.759 864.951 C 745.871 864.705 828.98 862.591 834.855 867.316 C 836.573 868.698 837.703 871.683 837.695 873.837 C 837.686 876.242 836.421 879.112 834.459 880.557 C 830.69 883.332 824.712 883.923 820.198 884.038 C 772.474 885.25 724.338 883.939 676.576 883.953 L 374.313 883.953 L 252.953 883.942 C 232.919 883.961 207.947 885.389 188.099 882.426 C 177.054 880.777 179.084 870.354 186.53 865.859 C 219.381 863.457 253.927 864.794 287.072 865.006 C 281.143 851.972 274.854 840.654 275.022 826.045 C 266.419 825.995 255.91 826.217 247.462 825.75 C 241.942 821.846 236.662 819.434 239.163 811.834 C 247.24 803.483 261.851 806.09 272.519 805.502 C 290.149 804.531 309.594 806.639 326.971 805.56 C 333.468 789.287 341.768 772.675 349.37 756.797 C 330.442 751.783 294.81 725.102 279.681 711.555 C 275.557 707.861 269.09 698.988 265.946 697.244 C 262.884 696.585 261.729 695.959 258.844 694.794 C 251.984 693.899 245.172 686.933 242.449 680.875 C 237.708 674.784 239.368 671.516 238.935 663.951 C 223.19 655.442 210.74 621.868 200.399 607.633 C 196.678 602.51 186.053 601.134 178.8 590.455 C 173.886 583.16 172.082 574.207 173.788 565.578 C 175.728 555.746 180.72 549.392 188.833 543.934 C 179.723 526.25 175.143 508.026 171.387 488.714 C 175.826 488.486 180.366 487.424 183.798 490.559 C 187.374 509.361 190.822 522.3 199.638 539.652 C 223.39 539.198 221.026 545.78 235.583 555.455 C 235.489 552.95 231.38 541.049 230.587 538.101 C 224.818 516.663 218.75 495.335 221.514 472.882 C 222.189 467.397 222.322 464.429 219.021 459.791 L 218.325 458.696 C 219.66 456.307 219.421 455.323 219.535 452.56 L 218.694 452.027 L 219.533 449.58 C 223.942 440.05 225.6 422.986 228.022 411.941 C 231.598 395.634 234.113 386.713 240.68 371.457 L 236.987 373.317 C 225.577 378.236 217.374 377.157 207.207 370.517 L 205.31 370.281 C 200.831 380.125 189.396 416.782 189.792 425.509 C 192.234 426.512 192.718 426.86 195.24 427.407 C 186.543 429.223 187.93 434.449 177.32 428.175 C 183.952 399.895 183.098 389.887 197.192 360.804 C 193.36 353.345 192.459 342.073 195.122 334.132 C 198.688 323.498 210.636 316.561 221.071 314.448 C 224.77 313.699 229.083 314.97 232.192 312.524 C 237.384 298.831 258.144 270.089 268.178 258.866 C 267.241 229.324 278.057 211.221 310.477 217.059 C 325.223 205.237 337.046 198.291 354.723 192.061 C 364.718 163.953 385.608 148.614 412.651 169.259 C 428.365 163.005 453.503 155.741 470.627 155.386 z M 770.958 371.807 C 794.79 421.774 799.735 495.929 782.616 548.287 L 783.332 549.84 C 791.739 550.571 805.877 539.763 815.006 538.957 C 814.807 538.975 819.349 538.029 819.274 538.044 C 823.246 527.663 831.897 502.601 829.05 491.348 C 827.394 490.442 826.606 490.015 824.863 489.248 C 819.512 489.906 813.915 486.887 808.911 484.73 C 785.992 468.42 789.84 432.969 822.245 426.075 C 820.849 409.573 812.331 386.215 806.723 370.775 C 799.856 374.156 798.144 375.057 790.735 377.068 L 789.927 377.295 C 782.689 375.596 777.859 374.588 770.958 371.807 z M 280.519 695.846 C 300.678 716.322 329.471 732.574 354.287 746.801 C 360.362 733.867 365.539 722.578 372.299 709.953 C 346.729 699.333 326.882 680.062 304.377 664.472 C 303.747 674.483 298.188 687.864 287.977 691.397 C 285.488 692.989 283.186 694.565 280.519 695.846 z M 211.804 604.134 C 223.4 626.89 233.281 635.995 244.582 654.767 C 255.305 637.536 260.152 636.991 279.458 632.429 C 277.755 629.822 270.052 620.181 267.669 617.883 C 254.875 605.549 250.574 582.553 239.818 570.604 C 238.569 590.334 229.767 598.282 211.804 604.134 z M 241.979 316.696 C 250.73 325.102 257.722 332.297 258.329 345.468 C 259.203 344.419 258.936 344.837 259.617 343.599 C 272.055 320.985 286.776 301.243 302.958 281.266 C 289.506 279.231 284.636 277.129 275.565 267.04 C 262.453 284.947 253.956 298.647 241.979 316.696 z M 419.455 210.16 C 431.657 206.404 441.328 203.687 453.906 201.142 C 461.682 199.569 477.838 197.549 484.357 195.373 C 484.331 193.154 484.392 193.297 483.404 191.319 C 475.57 188.306 470.631 176.82 469.652 169.044 L 468.733 167.499 C 457.221 168.326 430.456 175.819 420.066 179.789 C 424.627 192.258 425.245 197.332 419.455 210.16 z M 519.287 194.145 C 522.679 197.927 571.345 202.327 582.176 209.903 C 578.957 196.988 578.331 190.557 584.282 178.891 C 575.56 174.859 545.203 166.155 536.58 168.586 L 535.497 171.815 C 531.054 184.029 529.387 185.599 519.287 194.145 z M 625.732 225.364 C 640.382 231.911 672.851 248.055 683.487 259.02 C 681.607 250.513 681.792 245.173 681.89 236.584 C 683.666 233.646 685.878 230.63 687.868 227.793 C 675.73 218.691 656.713 207.684 642.396 202.855 C 638.982 213.279 634.016 218.452 625.732 225.364 z M 244.779 548.159 L 348.993 515.227 C 367.071 509.34 385.855 502.341 403.778 496.764 C 416.772 492.575 442.173 485.199 454.168 480.105 L 454.054 467.088 C 390.755 462.027 326.15 462.072 262.73 457.028 C 252.937 456.249 242.041 456.045 232.177 455.917 C 231.423 492.529 234.162 512.872 244.779 548.159 z M 554.117 463.891 L 553.993 476.973 C 570.383 481.549 586.693 486.411 602.914 491.557 C 610.121 493.907 627.831 500.341 634.24 501.792 L 730.286 532.202 C 743.838 536.541 758.799 540.686 771.975 545.41 C 780.127 517.551 782.2 484.82 781.998 455.94 C 773.81 455.857 754.186 455.551 746.521 456.422 C 716.073 458.828 685.697 459.799 655.193 460.662 C 622.191 461.597 586.974 464.046 554.117 463.891 z M 266.093 353.704 C 274.714 355.058 326.893 380.185 338.701 385.386 C 366.813 397.767 397.043 410.927 425.251 423.486 C 433.335 427.165 458.157 439.521 465.309 438.353 L 466.567 436.539 C 463.093 430.426 440.967 408.48 434.691 401.408 L 361.186 317.404 C 355.756 311.209 328.304 279.619 323.64 276.831 C 308.767 287.274 275.342 336.716 266.093 353.704 z M 614.218 776.084 C 556.99 794.787 486.366 797.475 427.665 785.193 C 419.184 783.419 405.318 780.396 397.761 776.911 C 394.414 786.152 391.043 796.051 387.143 805.019 C 388.459 806.271 390.695 805.743 393.156 805.759 L 503.282 805.657 C 543.081 805.265 589.98 804.262 629.572 805.674 C 626.972 799.41 620.155 778.354 616.033 775.752 L 614.218 776.084 z M 386.628 704.601 L 401.756 710.597 L 411.867 714.534 C 420.743 690.978 486.464 520.717 485.768 514.851 C 482.738 512.717 481.568 512.989 477.352 512.968 C 448.052 572.583 411.442 643.622 386.628 704.601 z M 661.079 744.545 C 679.14 737.038 726.398 705.626 735.948 688.867 C 727.447 680.24 722.043 675.678 722.467 662.67 C 722.528 660.801 723.465 650.226 723.412 649.877 C 698.434 674.928 675.89 693.318 644.276 709.974 C 649.197 721.093 655.587 733.579 661.079 744.545 z M 618.985 826.171 C 546.594 825.251 472.448 826.114 399.936 826.17 C 404.68 838.829 410.404 850.244 407.306 863.796 L 402.856 864.393 L 402.3 865.287 C 405.85 866.379 406.053 866.099 409.636 865.533 C 414.796 864.26 461.427 864.961 469.282 864.985 C 515.924 865.183 562.567 865.042 609.208 864.561 C 610.367 848.454 611.461 840.648 618.985 826.171 z M 611.945 764.193 C 607.107 753.837 602.215 741.917 599.408 730.856 C 541.663 747.201 473.486 751.348 416.688 729.408 C 413.24 739.223 405.643 757.34 403.287 765.913 C 474.581 786.697 527.917 783.317 599.328 767.86 C 603.466 766.686 607.881 765.527 611.945 764.193 z M 725.867 855.234 C 730.318 843.16 731.792 839.179 734.131 826.674 C 709.165 825.091 681.643 826.729 656.446 825.977 C 667.598 841.225 670.057 845.991 670.013 865 C 686.93 864.862 706.234 864.305 722.937 865.112 C 723.859 862.035 725.106 858.283 725.867 855.234 z M 299.326 865.249 C 312.389 864.493 328.667 864.709 341.901 865.034 C 342.261 859.802 342.374 857.145 343.659 851.946 C 347.378 843.09 351.589 834.449 356.273 826.064 C 334.225 826.052 309.82 825.52 287.959 826.078 C 287.644 842.581 294.732 849.228 299.326 865.249 z M 737.257 634.289 C 746.515 633.338 755.932 631.351 764.625 634.215 C 768.419 636.362 772.695 638.654 776.324 640.992 C 788.152 626.067 795.13 618.011 803.509 600.809 C 790.429 592.382 784.582 587.845 780.363 571 C 779.77 568.631 779.885 565.866 779.166 563.631 C 767.038 587.126 757.242 614.907 737.257 634.289 z M 473.387 376.752 C 478.642 390.546 485.431 410.259 491.277 423.421 C 494.808 422.583 496.5 422.215 499.833 420.867 C 501.328 416.954 500.137 230.517 500.443 209.998 L 499.018 208.342 C 497.163 208.326 495.216 208.258 493.375 208.365 C 462.253 212.287 445.677 214.179 415.044 224.436 C 435.559 272.589 453.262 327.272 473.387 376.752 z M 641.413 805.3 L 653.283 805.626 C 662.839 805.487 671.181 805.453 680.775 805.85 C 677.459 798.672 661.513 762.334 657.463 759.773 L 656.181 759.812 C 646.263 764.741 636.97 768.266 626.682 772.3 C 630.169 781.066 636.554 797.746 641.413 805.3 z M 510.851 209.906 C 509.546 235.062 510.163 263.606 510.135 289.161 L 509.99 419.827 C 516.268 420.445 518.836 421.229 524.634 423.88 C 528.249 409.877 538.68 383.628 543.983 369.316 L 595.28 228.438 C 574.475 214.022 535.785 210.503 510.851 209.906 z M 381.258 714.927 C 374.414 726.084 369.143 738.941 363.573 750.903 C 371.738 753.863 385.655 758.871 393.121 762.885 C 396.582 758.674 405.316 733.342 407.831 726.877 C 399.772 723.329 387.939 719.341 381.258 714.927 z M 339.328 250.207 C 351.672 242.173 371.324 231.662 381.61 223.924 C 371.266 220.242 369.737 217.218 362.242 209.206 C 360.173 206.994 361.096 206.124 358.088 204.11 C 344.549 209.581 334.22 215.034 321.742 222.618 C 333.275 233.928 332.635 241.744 331.826 256.743 C 333.975 254.824 337.126 251.844 339.328 250.207 z M 643.052 864.623 L 660.507 865.183 C 657.791 852.319 650.911 825.462 634.585 825.805 C 626.226 839.645 621.573 848.676 619.081 864.824 L 643.052 864.623 z M 372.143 825.908 C 360.698 841.833 357.436 846.109 353.025 864.855 L 381.25 864.801 L 397.295 865.063 C 396.408 849.932 391.268 825.374 372.143 825.908 z M 625.255 759.992 C 632.995 756.77 644.275 752.464 651.276 748.397 C 648.655 742.649 638.237 717.509 633.979 715.896 C 625.476 720.227 617.753 724.428 608.594 727.334 C 610.835 734.129 617.443 756.391 621.745 760.467 C 622.877 760.339 624.179 760.256 625.255 759.992 z M 457.039 488.904 C 420.521 503.781 373.844 517.451 335.946 530.546 C 314.486 537.961 268.06 553.506 247.199 557.504 C 253.26 571.606 266.661 597.326 275.47 609.145 C 281.145 616.528 286.001 622.188 292.213 629.156 C 300.463 621.655 312.942 613.589 322.312 606.733 L 379.271 564.433 L 437.721 520.092 C 445.43 514.242 456.45 504.715 464.519 500.293 C 463.009 497.375 459.795 489.835 457.039 488.904 z M 573.858 393.434 L 639.754 321.842 C 653.558 306.65 669.841 286.889 684.306 273.331 C 668.772 262.526 623.871 235.759 607.046 231.403 C 592.012 263.704 581.436 299.287 568.307 332.465 C 556.615 362.011 546.931 392.491 535.587 422.133 C 534.18 425.81 534.668 427.998 537.93 429.804 C 546.315 426.152 567.046 400.913 573.858 393.434 z M 712.764 282.983 C 727.049 297.48 742.666 321.953 754.299 339.427 C 756.372 342.822 756.175 344.026 758.97 344.747 C 764.762 334.413 760.112 335.027 770.625 321.259 C 765.23 311.953 743.431 275.213 735.528 271.956 C 727.214 277.576 722.098 279.304 712.764 282.983 z M 531.208 509.888 C 528.979 513.35 527.354 514.256 528.505 517.658 C 530.848 524.585 533.527 531.746 536.045 538.574 C 542.273 555.434 548.671 572.23 555.239 588.961 L 603.983 715.886 C 610.257 713.627 614.519 711.817 620.576 709.003 L 629.406 704.037 C 619.364 684.145 547.068 515.171 538.938 512.207 C 537.529 511.693 535.896 511.452 534.432 511.127 C 533.169 510.846 532.317 510.539 531.208 509.888 z M 358.886 761.405 C 349.448 777.534 345.325 790.713 337.372 805.858 L 367.623 805.689 C 370.58 805.404 373.854 805.565 375.957 803.78 C 380.501 793.687 384.447 783.52 388.965 773.55 C 379.151 771.747 368.042 765.84 358.886 761.405 z M 433.168 455.037 C 439.839 455.749 451.918 457.866 457.566 455.299 C 458.168 451.748 458.338 453.446 456.912 450.034 C 447.771 443.623 429.774 437.069 419.012 432.199 C 396.744 422.121 374.275 411.946 351.698 402.597 C 320.85 389.823 290.336 374.395 259.778 361.275 C 242.736 397.625 240.373 405.812 233.535 445.876 C 256.377 444.656 300.365 448.067 324.507 449.809 C 359.707 452.351 398.759 452.262 433.168 455.037 z M 594.767 719.095 C 586.255 697.857 518.893 519.011 516.878 518.191 C 515.124 517.476 515.781 517.719 513.635 517.351 C 512.949 518.311 512.076 519.161 511.578 520.23 C 509.686 524.287 513.938 707.366 513.049 732.333 C 538.498 731.783 558.413 729.583 583.146 722.227 L 594.767 719.095 z M 543.208 503.15 C 543.526 504.549 552.406 511.849 555.262 517.682 C 584.577 577.557 608.919 639.873 638.464 699.654 C 655.579 690.401 673.926 677.892 689.335 665.867 C 700.522 656.559 709.406 647.618 720.035 638.313 C 688.992 616.131 658.158 591.815 627.767 568.655 C 599.995 547.492 571.478 525.289 545.016 502.501 L 543.208 503.15 z M 579.041 453.715 C 644.843 452.79 715.411 445.08 780.147 443.981 C 775.012 423.854 773.391 403.211 764.565 383.984 C 761.533 377.377 758.21 367.168 754.168 361.319 L 753.302 360.916 C 712.513 379.745 671.406 397.876 629.998 415.303 C 606.915 425.168 566.39 440.69 547.123 453.974 C 557.519 454.015 568.724 454.281 579.041 453.715 z M 769.174 554.992 C 745.602 549.016 719.349 540.121 696.26 532.675 L 609.795 505.263 C 597.385 501.283 561.197 488.431 551.427 487.203 C 551.151 489.42 549.751 494.48 551.649 495.942 C 603.316 535.726 653.812 577.19 706.777 615.252 C 713.619 620.168 721.351 625.324 727.815 630.64 L 742.898 607.257 C 754.183 590.842 763.096 574.049 769.174 554.992 z M 444.655 397.126 C 449.725 402.636 472.529 428.441 478.855 429.467 C 484.268 422.714 476.935 414.296 473.869 406.176 L 426.638 283.028 C 423.602 275.124 407.533 231.589 404.769 228.069 C 380.704 239.561 354.541 252.414 334.472 270.621 C 341.697 280.052 350.081 289.401 358.054 298.277 C 387.312 330.844 415.466 364.525 444.655 397.126 z M 584.409 423.866 L 694.167 375.958 C 711.663 368.301 731.525 358.709 748.876 351.811 C 737.559 335.513 706.993 287.638 692.466 279.652 L 549.609 433.33 C 547.435 435.69 546.588 436.476 545.956 439.389 L 547.004 439.941 C 560.898 434.394 571.179 429.33 584.409 423.866 z M 497.212 516.315 C 490.187 531.774 483.037 553.314 476.949 569.62 L 437.751 674.429 C 432.457 688.418 426.828 704.793 421.169 718.309 C 426.395 719.98 430.835 721.54 436.259 722.529 C 453.023 727.172 485.543 732.559 503.126 732.069 C 499.939 664.295 503.202 594.29 502.206 526.315 C 502.162 523.359 502.239 521.01 500.486 518.512 L 497.212 516.315 z M 468.581 509.907 C 411.65 550.318 356.06 597.384 298.354 636.618 C 309.102 650.138 319.517 659.558 332.991 670.253 C 348.686 681.877 359.862 689.959 376.703 699.966 C 381.029 691.844 384.808 683.212 388.582 674.803 C 409.641 627.878 432.489 581.742 454.758 535.379 C 458.859 526.842 463.301 517.912 469.38 510.558 L 468.581 509.907 z"/>
<path transform="translate(0,0)" fill="rgb(8,58,116)" d="M 171.387 488.714 C 175.826 488.486 180.366 487.424 183.798 490.559 C 187.374 509.361 190.822 522.3 199.638 539.652 C 223.39 539.198 221.026 545.78 235.583 555.455 C 238.764 560.612 238.399 561.743 238.257 567.941 L 239.818 570.604 C 238.569 590.334 229.767 598.282 211.804 604.134 C 223.4 626.89 233.281 635.995 244.582 654.767 C 244.583 658.72 245.271 661.82 243.458 664.735 C 243.306 664.13 243.327 664.619 244.031 662.74 L 242.622 664.57 L 241.447 664.62 C 238.646 673.233 242.423 673.853 242.449 680.875 C 237.708 674.784 239.368 671.516 238.935 663.951 C 223.19 655.442 210.74 621.868 200.399 607.633 C 196.678 602.51 186.053 601.134 178.8 590.455 C 173.886 583.16 172.082 574.207 173.788 565.578 C 175.728 555.746 180.72 549.392 188.833 543.934 C 179.723 526.25 175.143 508.026 171.387 488.714 z"/>
<path transform="translate(0,0)" fill="rgb(250,252,252)" d="M 206.208 558.541 C 212.958 557.487 219.308 562.033 220.487 568.761 C 221.666 575.49 217.24 581.923 210.534 583.228 C 206.084 584.093 201.513 582.488 198.581 579.03 C 195.649 575.572 194.813 570.801 196.395 566.552 C 197.976 562.303 201.729 559.24 206.208 558.541 z"/>
<path transform="translate(0,0)" fill="rgb(8,58,116)" d="M 232.192 312.524 C 236.902 312.472 238.212 313.206 241.979 316.696 C 250.73 325.102 257.722 332.297 258.329 345.468 C 252.887 354.983 257.212 364.017 243.283 370.026 L 240.68 371.457 L 236.987 373.317 C 225.577 378.236 217.374 377.157 207.207 370.517 L 205.31 370.281 C 200.831 380.125 189.396 416.782 189.792 425.509 C 192.234 426.512 192.718 426.86 195.24 427.407 C 186.543 429.223 187.93 434.449 177.32 428.175 C 183.952 399.895 183.098 389.887 197.192 360.804 C 193.36 353.345 192.459 342.073 195.122 334.132 C 198.688 323.498 210.636 316.561 221.071 314.448 C 224.77 313.699 229.083 314.97 232.192 312.524 z"/>
<path transform="translate(0,0)" fill="rgb(8,58,116)" d="M 210.519 369.372 C 220.453 369.839 234.801 368.09 243.283 370.026 L 240.68 371.457 L 236.987 373.317 C 225.577 378.236 217.374 377.157 207.207 370.517 L 210.519 369.372 z"/>
<path transform="translate(0,0)" fill="rgb(250,252,252)" d="M 221.117 330.022 C 240.561 331.769 247.961 350.507 229.154 358.694 C 208.011 359.557 201.961 337.961 221.117 330.022 z"/>
<path transform="translate(0,0)" fill="rgb(8,58,116)" d="M 533.497 155.635 C 551.579 156.526 575.681 161.842 593.31 166.847 C 613.627 157.104 631.76 163.007 641.515 183.898 C 642.513 186.052 643.476 188.223 644.405 190.408 C 643.537 194.726 642.649 198.442 642.396 202.855 C 638.982 213.279 634.016 218.452 625.732 225.364 C 623.346 225.756 619.572 225.827 615.053 225.795 C 609.33 225.754 595.6 223.185 589.874 222.468 C 591.589 222.683 588.007 214.453 585.81 213.67 C 585.443 213.54 582.586 210.355 582.176 209.903 C 578.957 196.988 578.331 190.557 584.282 178.891 C 575.56 174.859 545.203 166.155 536.58 168.586 L 535.497 171.815 C 530.223 165.114 530.544 163.236 533.497 155.635 z"/>
<path transform="translate(0,0)" fill="rgb(250,252,252)" d="M 606.48 179.346 C 614.282 177.562 622.075 182.36 623.996 190.129 C 625.916 197.899 621.257 205.775 613.523 207.832 C 608.397 209.196 602.934 207.687 599.234 203.886 C 595.534 200.085 594.174 194.583 595.676 189.496 C 597.178 184.408 601.309 180.528 606.48 179.346 z"/>
<path transform="translate(0,0)" fill="rgb(8,69,138)" d="M 808.911 484.73 C 785.992 468.42 789.84 432.969 822.245 426.075 C 824.548 428.446 824.406 428.775 827.524 429.491 C 831.005 428.606 830.958 428.496 833.853 426.67 C 850.835 431.572 863.552 449.33 858.248 466.993 C 856.475 473.025 853.03 478.431 848.31 482.585 C 846.277 484.158 844.688 485.738 842.231 486.307 C 838.761 486.693 827.682 488.005 824.863 489.248 C 819.512 489.906 813.915 486.887 808.911 484.73 z"/>
<path transform="translate(0,0)" fill="rgb(8,58,116)" d="M 808.911 484.73 C 822.386 486.708 840.005 476.279 848.31 482.585 C 846.277 484.158 844.688 485.738 842.231 486.307 C 838.761 486.693 827.682 488.005 824.863 489.248 C 819.512 489.906 813.915 486.887 808.911 484.73 z"/>
<path transform="translate(0,0)" fill="rgb(250,252,252)" d="M 821.845 442.973 C 842.721 441.949 849.955 461.467 832.38 470.788 C 812.502 470.969 803.626 454.821 821.845 442.973 z"/>
<path transform="translate(0,0)" fill="rgb(8,69,138)" d="M 470.627 155.386 C 481.84 128.525 519.174 124.693 533.331 154.802 C 533.386 155.08 533.442 155.358 533.497 155.635 C 530.544 163.236 530.223 165.114 535.497 171.815 C 531.054 184.029 529.387 185.599 519.287 194.145 C 518.106 191.98 518.225 192.111 516.017 191.006 C 510.888 191.52 505.87 194.784 502.548 194.694 C 496.596 194.534 488.805 189.334 483.404 191.319 C 475.57 188.306 470.631 176.82 469.652 169.044 C 470.972 162.945 471.992 161.786 470.627 155.386 z"/>
<path transform="translate(0,0)" fill="rgb(250,252,252)" d="M 500.37 149.509 C 508.39 148.592 515.681 154.231 516.81 162.223 C 517.939 170.216 512.496 177.653 504.536 178.993 C 499.196 179.893 493.789 177.823 490.414 173.588 C 487.04 169.353 486.23 163.62 488.299 158.615 C 490.368 153.611 494.99 150.124 500.37 149.509 z"/>
<path transform="translate(0,0)" fill="rgb(8,69,138)" d="M 279.458 632.429 C 285.429 639.197 289.022 639.874 296.881 644.371 C 298.733 650.749 300.286 660.311 304.377 664.472 C 303.747 674.483 298.188 687.864 287.977 691.397 C 285.488 692.989 283.186 694.565 280.519 695.846 C 274.461 695.738 271.897 695.417 265.946 697.244 C 262.884 696.585 261.729 695.959 258.844 694.794 C 251.984 693.899 245.172 686.933 242.449 680.875 C 242.423 673.853 238.646 673.233 241.447 664.62 L 242.622 664.57 L 244.031 662.74 C 243.327 664.619 243.306 664.13 243.458 664.735 C 245.271 661.82 244.583 658.72 244.582 654.767 C 255.305 637.536 260.152 636.991 279.458 632.429 z"/>
<path transform="translate(0,0)" fill="rgb(8,58,116)" d="M 258.844 694.794 C 266.565 695.036 276.513 687.18 281.542 690.16 L 279.258 692.696 L 279.396 693.424 C 283.361 691.942 283.843 691.633 287.977 691.397 C 285.488 692.989 283.186 694.565 280.519 695.846 C 274.461 695.738 271.897 695.417 265.946 697.244 C 262.884 696.585 261.729 695.959 258.844 694.794 z"/>
<path transform="translate(0,0)" fill="rgb(250,252,252)" d="M 273.112 650.45 C 280.093 649.224 286.789 653.751 288.252 660.686 C 289.714 667.621 285.416 674.467 278.534 676.163 C 273.871 677.312 268.952 675.827 265.704 672.289 C 262.456 668.751 261.396 663.723 262.939 659.175 C 264.482 654.627 268.382 651.282 273.112 650.45 z"/>
<path transform="translate(0,0)" fill="rgb(254,138,81)" d="M 498.206 433.857 C 517.463 430.603 535.726 443.535 539.052 462.78 C 542.377 482.025 529.514 500.336 510.281 503.733 C 490.947 507.149 472.518 494.203 469.174 474.855 C 465.831 455.508 478.846 437.128 498.206 433.857 z"/>
<path transform="translate(0,0)" fill="rgb(250,252,252)" d="M 295.683 233.299 C 303.718 231.176 311.958 235.944 314.121 243.968 C 316.284 251.993 311.556 260.256 303.542 262.458 C 295.473 264.675 287.14 259.907 284.962 251.827 C 282.784 243.748 287.593 235.438 295.683 233.299 z"/>
<path transform="translate(0,0)" fill="rgb(250,252,252)" d="M 384.094 177.942 C 404.204 177.36 412.599 197.647 393.06 206.726 C 373.904 208.134 364.559 187.079 384.094 177.942 z"/>
<path transform="translate(0,0)" fill="rgb(250,252,252)" d="M 708.975 233.229 C 716.849 231.126 724.926 235.85 726.952 243.744 C 728.978 251.638 724.175 259.668 716.262 261.616 C 708.458 263.538 700.562 258.815 698.564 251.03 C 696.566 243.246 701.211 235.304 708.975 233.229 z"/>
<path transform="translate(0,0)" fill="rgb(250,252,252)" d="M 791.382 330.126 C 810.116 331.251 814.928 350.88 795.072 358.755 C 787.628 358.014 780.778 355.849 778.002 348.062 C 776.884 344.948 777.177 341.502 778.807 338.622 C 781.621 333.538 786.183 331.69 791.382 330.126 z"/>
<path transform="translate(0,0)" fill="rgb(250,252,252)" d="M 812.755 558.366 C 819.706 556.901 826.546 561.285 828.117 568.213 C 829.689 575.14 825.411 582.046 818.509 583.725 C 813.949 584.835 809.144 583.4 805.938 579.972 C 802.732 576.543 801.623 571.653 803.035 567.177 C 804.447 562.701 808.162 559.333 812.755 558.366 z"/>
<path transform="translate(0,0)" fill="rgb(250,252,252)" d="M 750.255 651.712 C 756.681 649.68 763.549 653.185 765.674 659.581 C 767.799 665.977 764.396 672.894 758.031 675.113 C 753.831 676.577 749.168 675.665 745.828 672.727 C 742.488 669.789 740.99 665.28 741.907 660.927 C 742.824 656.575 746.014 653.053 750.255 651.712 z"/>
<path transform="translate(0,0)" fill="rgb(8,58,116)" fill-opacity="0.988235" d="M 409.636 865.533 C 406.053 866.099 405.85 866.379 402.3 865.287 L 402.856 864.393 L 407.306 863.796 L 409.636 865.533 z"/>
<path transform="translate(0,0)" fill="rgb(8,46,86)" d="M 787.248 1261.39 C 794.279 1236.72 803.686 1212.59 811.973 1188.29 C 814.164 1181.87 819.904 1156.67 823.415 1153.81 C 836.251 1150.68 833.019 1169.25 835.309 1175.24 C 845.366 1201.59 854.232 1229.19 864.687 1255.28 C 867.395 1247.83 875.559 1220.7 881.895 1218.07 C 882.622 1218.3 883.677 1218.56 884.117 1219.08 C 888.463 1224.24 893.842 1240.13 896.297 1246.37 C 901.744 1260.22 908.657 1275.86 912.74 1289.71 C 914.607 1296.05 914.072 1315.15 914.067 1322.78 L 913.964 1393.8 C 913.962 1401.49 913.204 1422.98 914.688 1429.08 C 926.087 1475.9 964.345 1523.07 1002.66 1550.46 L 998.733 1561.6 C 994.533 1558.95 990.155 1555.87 986.009 1553.07 L 985.914 1609.99 C 996.374 1610.13 1024.7 1606.57 1030.03 1615.26 C 1029.54 1620.15 1026.84 1624.07 1021.6 1624 C 994.206 1623.63 962.833 1626.16 935.891 1624 L 936.053 1642.58 C 960.963 1642.08 987.196 1641.73 1012.16 1642.27 C 1017.08 1642.37 1024.13 1643.91 1027.5 1648.02 C 1027.7 1661.38 998.647 1658.15 989.554 1658.13 L 935.805 1657.94 C 935.689 1671.04 936.366 1685.84 935.057 1698.64 L 934.844 1699.63 C 932.405 1711.27 936.584 1708.76 929.629 1716.12 C 927.614 1716.34 928.525 1716.5 926.872 1715.82 L 925.951 1716.23 C 915.366 1714.99 874.892 1738.45 857.274 1737.53 C 825.626 1735.88 803.525 1714.41 771.336 1713.76 C 740.91 1713.15 714.295 1738.21 684.996 1737.94 C 654.137 1737.66 628.657 1716.09 596.91 1714.06 C 559.878 1711.68 533.888 1737.16 499.366 1737.93 C 462.561 1738.75 437.457 1713.91 400.225 1713.87 C 368.11 1713.83 351.612 1740.89 324.181 1737.54 C 297.607 1734.28 275.456 1715.18 246.167 1714.14 C 216.128 1713.07 176.064 1750.65 150.001 1733.95 C 150.731 1722.13 151.21 1716.4 150.913 1704.19 C 149.343 1692.89 150.457 1669.81 150.922 1658.08 C 130.127 1657.46 108.786 1659.01 87.9771 1657.89 C 82.8208 1657.61 78.5022 1656.12 75.9463 1651.5 C 76.1849 1648.81 76.889 1646.69 78.8656 1644.77 C 83.9276 1639.86 139.328 1642.87 150.519 1642.42 C 150.223 1636.22 150.327 1630.25 150.39 1624.06 C 129.106 1624.39 107.798 1624.57 86.5072 1624.58 C 80.7236 1624.58 66.8264 1625.84 66.5136 1618.24 C 66.0157 1606.13 93.4538 1609.89 102.112 1610.06 C 101.778 1589.82 101.706 1569.57 101.894 1549.33 C 96.9758 1553.64 91.3517 1559.89 84.4009 1558.58 L 83.3472 1556.62 C 83.4199 1553.36 84.6988 1546.55 87.1654 1544.38 C 123.031 1512.83 155.965 1470.34 166.948 1423.16 C 169.312 1413.01 168.426 1394.53 168.407 1383.78 L 168.171 1322.64 C 168.097 1305.35 167.068 1289.31 173.222 1272.77 C 179.808 1255.07 183.998 1235.16 193.348 1218.7 C 194.064 1217.44 194.805 1217.91 196.13 1217.94 C 205.698 1224.77 206.945 1246.94 211.664 1258.78 C 213.324 1253.02 215.535 1247.41 217.644 1241.8 C 228.105 1214 238.534 1186.29 246.884 1157.77 C 247.442 1155.86 248.912 1154.89 250.453 1153.85 C 262.892 1152.06 258.644 1172.15 261.443 1180.05 C 270.972 1206.96 281.425 1233.58 291.651 1260.23 C 291.899 1251.77 298.556 1221.73 306.484 1218.14 L 308.214 1218.86 C 315.185 1228.08 332.794 1277.41 337.29 1291.54 C 338.204 1294.42 338.058 1319.07 338.049 1324.21 C 472.34 1322.69 609.437 1324.3 744.001 1324.09 C 743.825 1316.37 743.622 1298.25 744.464 1291.28 C 745.871 1279.64 761.564 1228.29 767.532 1221.1 C 769.076 1220.37 770.072 1219.41 771.048 1220.2 C 777.513 1225.46 784.233 1252.56 787.248 1261.39 z M 941.819 1608.78 C 941.52 1576.69 940.824 1544.45 941.766 1512.39 C 940.19 1509.46 915.216 1468.78 914.122 1467.64 C 913.761 1480.35 911.947 1571.66 915.393 1577.13 C 915.634 1577.52 916.732 1578.23 917.059 1578.47 C 921.886 1581.94 927.019 1585.62 930.491 1590.55 C 933.373 1594.63 934.983 1607.36 937.266 1609.57 C 937.944 1610.23 939.122 1609.92 940.05 1610.09 C 940.639 1609.65 941.229 1609.22 941.819 1608.78 z M 168.567 1577.48 C 167.221 1549.59 168.476 1520.53 168.325 1492.59 C 168.301 1488 169.106 1461.98 168.693 1459.73 C 165.582 1466.29 161.964 1473.91 158.374 1479.76 C 155.886 1483.82 144.075 1502.35 143.925 1505.26 C 143.27 1517.97 141.36 1602.67 142.712 1610.27 L 143.22 1610.68 C 144.703 1610.46 148.436 1610.26 148.728 1609.35 C 153.238 1595.15 150.854 1584.7 168.567 1577.48 z M 791.786 1405.78 C 791.492 1381.15 791.574 1356.51 792.032 1331.88 L 757.993 1331.67 C 758.1 1355.29 757.522 1382.73 758.339 1406.02 C 765.949 1406.08 785.237 1406.63 791.786 1405.78 z M 867.806 1578.09 C 878.568 1577.85 889.467 1578.1 900.087 1577.82 L 900.025 1502.09 C 892.893 1501.99 874.005 1502.29 867.688 1501.66 C 867.318 1526.81 867.66 1552.89 867.806 1578.09 z M 759.779 1577.94 C 765.758 1578 787.85 1579.05 791.704 1576.61 L 791.926 1575.19 C 791.341 1550.8 791.366 1526.39 791.999 1501.99 C 782.466 1501.52 768.068 1501.97 759.728 1501.27 C 759.885 1526.83 759.902 1552.38 759.779 1577.94 z M 867.752 1406.21 C 878.376 1406.09 889.574 1405.75 900.136 1406.36 C 899.89 1381.57 899.916 1356.78 900.214 1332 L 867.373 1331.81 C 868.205 1356.47 867.852 1381.51 867.752 1406.21 z M 184.03 1501.75 L 184.032 1577.91 L 200.815 1577.9 L 215.83 1577.92 C 215.522 1552.6 215.59 1527.27 216.033 1501.95 C 212.578 1501.82 204.548 1501.28 201.456 1501.47 C 195.752 1501.58 189.701 1501.8 184.03 1501.75 z M 183.949 1406.26 C 188.54 1406.25 214.429 1406.96 215.775 1404.85 C 215.736 1383.01 214.528 1353.04 215.897 1331.98 C 207.715 1331.92 191.508 1332.25 183.999 1331.24 L 183.949 1406.26 z M 321.157 1400.85 C 325.466 1395.99 324.03 1341.92 324.052 1331.94 C 313.922 1331.8 303.79 1331.78 293.659 1331.86 C 293.821 1356.57 293.855 1381.27 293.764 1405.98 C 303.068 1406.24 313.372 1408.59 320.13 1401.87 L 321.157 1400.85 z M 226.862 1539.96 C 243.196 1539.1 265.334 1539.72 281.97 1539.86 L 282.042 1501.48 C 265.935 1502.03 242.55 1502.4 226.563 1501.45 C 225.999 1511.65 225.946 1529.83 226.862 1539.96 z M 802.337 1539.92 C 809.16 1539.86 851.926 1540.21 855.832 1539.44 C 856.915 1537.38 856.815 1537.52 856.474 1535.19 L 856.452 1501.76 C 838.404 1501.87 820.167 1502.16 802.148 1501.41 L 802.337 1539.92 z M 226.051 1406.05 L 281.997 1406.03 L 282.062 1370.12 C 263.701 1370.19 244.253 1370.58 225.99 1369.91 C 226.145 1381.96 226.166 1394 226.051 1406.05 z M 293.717 1295.07 L 293.95 1316.53 L 323.859 1316.28 C 324.004 1309.55 324.085 1302.82 324.102 1296.09 C 313.768 1295.12 304.065 1295.16 293.717 1295.07 z M 759.885 1484.02 C 765.154 1484.06 787.995 1484.68 791.521 1483.42 L 791.901 1482.89 C 791.606 1464.28 790.99 1442.3 792.008 1423.86 L 759.572 1424.03 C 759.862 1444.02 759.966 1464.02 759.885 1484.02 z M 226.025 1577.95 C 233.603 1577.92 241.595 1577.77 249.132 1578 L 249.074 1551.97 L 226.11 1551.93 L 226.025 1577.95 z M 418.665 1340.32 C 407.61 1341.9 401.5 1345.09 391.317 1347.18 C 401.687 1352.99 407.868 1357.71 420.14 1358.48 C 428.433 1358.05 436.195 1354.21 443.164 1349.84 C 435.703 1345.67 426.609 1339 418.665 1340.32 z M 792.02 1295.78 C 780.998 1295.75 768.994 1295.48 758.055 1295.88 C 758.076 1302.66 757.906 1310.31 758.64 1316.97 C 769.807 1316.66 780.981 1316.64 792.149 1316.9 C 791.731 1309.23 791.786 1303.48 792.02 1295.78 z M 183.381 1295.17 C 183.867 1303.19 183.729 1308.82 183.413 1316.9 C 194.312 1316.58 203.827 1316.34 214.761 1316.73 C 216.688 1314.6 215.971 1299.23 216.005 1294.74 C 205.133 1295.04 194.257 1295.18 183.381 1295.17 z M 293.887 1484.11 C 298.147 1484.12 315.219 1484.51 318.267 1483.56 C 317.785 1463.7 317.689 1443.84 317.979 1423.98 L 293.675 1424 C 293.921 1444.03 293.991 1464.07 293.887 1484.11 z M 834.028 1551.95 C 833.995 1555.78 832.971 1576.38 835.129 1577.86 L 856.784 1577.9 C 856.753 1574.61 857.07 1552.99 856.055 1551.7 C 848.714 1551.88 841.371 1551.96 834.028 1551.95 z M 698.098 1338.53 L 695.815 1340.56 C 697.813 1342.42 697.961 1342.13 700.696 1343.21 L 702.785 1341.65 L 702.389 1340.34 L 698.098 1338.53 z M 898.731 1295.98 L 889.142 1295.52 L 867.767 1295.82 L 868.034 1316.25 L 879.066 1316.77 C 885.498 1316.65 893.936 1316.71 900.147 1316.03 C 899.927 1309.4 899.943 1302.47 898.731 1295.98 z M 492.922 1342.83 C 495.99 1341.49 497.773 1341.47 498.778 1339.2 C 494.997 1337.96 485.301 1338.86 481.053 1339.41 C 481.797 1342.81 482.298 1344.58 483.372 1347.9 C 486.429 1346.31 489.99 1344.56 492.922 1342.83 z M 454.688 1344.71 C 457.951 1343.01 462.523 1341.13 464.777 1338.59 C 463.291 1338.09 464.004 1338.04 462.633 1338.67 C 458.846 1338.71 453.805 1338.3 450.619 1339.97 C 451.109 1342.83 451.618 1342.32 454.688 1344.71 z M 580.401 1342.85 L 580.822 1340.74 C 577.177 1339.07 570.474 1339.99 566.307 1340.35 C 570.772 1343.78 571.88 1343.97 577.7 1343.24 C 578.602 1343.12 579.503 1342.99 580.401 1342.85 z M 282.047 1551.87 L 260.08 1551.91 C 260.373 1560.62 260.592 1569.33 260.736 1578.05 C 267.86 1577.92 274.936 1577.74 282.06 1577.94 L 282.047 1551.87 z M 637.675 1342.75 L 638.698 1340.62 C 636.088 1338.56 632.28 1338.86 629.092 1339.3 C 630.493 1342.56 629.428 1341.28 632.455 1343.23 C 635.439 1343.25 634.86 1343.42 637.675 1342.75 z M 973.251 1544.56 C 967.434 1538.86 958.675 1530.76 953.879 1524.54 C 953.915 1552.37 954.524 1582.27 953.906 1609.92 C 957.826 1609.94 970.704 1610.25 973.817 1609.69 C 971.818 1587.95 974.587 1564.89 973.251 1544.56 z M 494.77 1351.7 C 506.383 1358.56 513.492 1363.17 527.16 1360.73 L 553.456 1351.4 C 552.471 1348.78 525.398 1338.73 522.863 1338.93 L 494.77 1351.7 z M 709.003 1343.96 L 715.123 1341.04 L 715.143 1340.14 L 711.712 1339.98 C 708.948 1340.55 707.1 1340.59 705.141 1342.56 C 707.106 1344.4 705.946 1343.73 709.003 1343.96 z M 580.637 1349.21 C 590.294 1352.4 596.465 1359.9 604.324 1358.67 L 624.967 1349.33 C 615.244 1346.18 609.449 1343.9 600.166 1339.91 C 594.212 1342.61 586.093 1346.02 580.637 1349.21 z M 899.994 1423.69 C 889.3 1423.79 878.338 1424.03 867.667 1423.81 L 867.872 1484.12 C 878.225 1484.11 889.813 1483.87 900.067 1484.15 L 899.994 1423.69 z M 824.091 1551.93 L 802.039 1551.97 L 801.988 1578 L 824.046 1577.95 C 824.008 1569.59 823.753 1560.2 824.091 1551.93 z M 801.971 1456.19 C 802.168 1464.97 802.693 1475.57 802.003 1484.17 C 811.078 1484.09 850.5 1485.34 856.797 1483.69 C 856.409 1473.94 856.537 1465.87 856.794 1456.17 C 839.049 1456.23 819.581 1456.71 801.971 1456.19 z M 226.138 1456.35 C 226.241 1465.6 226.196 1474.85 226.004 1484.11 L 282.12 1484.07 L 282.032 1456.38 C 263.401 1456.25 244.769 1456.24 226.138 1456.35 z M 666.1 1340.08 C 657.337 1343.18 650.114 1345.83 641.555 1349.51 C 648.993 1352.74 657.744 1356.81 665.218 1359.65 C 672.768 1356.87 678.23 1354.15 685.486 1350.57 C 682.646 1348.97 668.109 1340.53 666.1 1340.08 z M 801.982 1445.05 C 820.241 1444.81 838.502 1444.81 856.76 1445.05 L 856.891 1423.97 C 838.931 1424 820.012 1424.35 802.128 1423.96 L 801.982 1445.05 z M 113.942 1539.96 C 113.911 1553.1 112.057 1600.53 114.177 1609.99 L 130.255 1610.07 C 130.146 1591.4 130.165 1572.72 130.312 1554.04 C 130.352 1546.77 130.714 1527.22 129.726 1520.86 C 124.658 1526.95 118.713 1533.75 113.942 1539.96 z M 226.069 1423.97 L 226.128 1444.99 C 244.728 1444.92 263.611 1444.68 282.187 1444.87 L 282.043 1424.02 C 263.585 1424.03 244.473 1424.3 226.069 1423.97 z M 803.975 1316.63 C 821.124 1316.63 839.588 1316.26 856.62 1316.65 C 856.592 1308.15 856.613 1299.66 856.685 1291.16 L 855.982 1290.48 C 837.983 1290.82 819.981 1290.89 801.98 1290.7 C 801.981 1296.73 801.62 1310.98 802.57 1316.29 L 803.975 1316.63 z M 802.193 1358.08 C 820.232 1358.07 838.825 1357.84 856.818 1358.19 C 856.782 1349.52 856.6 1340.46 856.754 1331.83 C 838.911 1331.89 819.787 1332.29 802.044 1331.84 C 802.119 1340.27 802.423 1349.74 802.193 1358.08 z M 225.983 1316.69 C 243.548 1316.63 264.396 1316 281.695 1316.66 C 282.575 1310.02 282.163 1298.06 282.126 1290.97 C 265.52 1290.57 240.837 1291.6 225.932 1290.42 C 226.016 1299.18 226.033 1307.94 225.983 1316.69 z M 183.935 1484.06 C 194.627 1484.04 205.318 1484.07 216.01 1484.15 C 215.725 1466.5 215.111 1441.68 215.993 1424 L 184.035 1423.96 L 183.935 1484.06 z M 226.026 1331.97 L 226.077 1358.05 L 282.19 1358.07 L 282.127 1331.85 L 226.026 1331.97 z M 293.824 1501.27 C 293.852 1526.02 294.466 1553.29 293.818 1577.82 C 298.604 1577.84 314.495 1578.55 317.831 1577 L 318.052 1576.08 C 317.935 1551.21 317.953 1526.33 318.106 1501.45 C 311.36 1501.59 300.141 1502.16 293.824 1501.27 z M 802.136 1370 C 802.242 1382.03 802.261 1394.07 802.194 1406.1 C 809.205 1406.11 853.839 1406.93 856.714 1405.03 L 856.776 1404.1 C 856.633 1393.03 856.24 1381.11 856.799 1370.12 C 839.247 1370.2 819.519 1370.72 802.136 1370 z"/>
<path transform="translate(0,0)" fill="rgb(250,252,252)" d="M 336.453 1406.1 C 428.972 1404.62 525.943 1405.94 618.799 1405.91 L 693.318 1405.89 C 707.702 1405.9 724.102 1404.99 738.284 1407.43 C 740.361 1407.78 742.62 1408.38 743.376 1410.59 C 745.086 1415.58 745.449 1421.11 745.703 1426.36 C 746.175 1460.62 745.775 1495.18 745.795 1529.43 C 745.799 1537.36 746.725 1569.72 745.323 1575.14 L 743.206 1575.95 L 331.666 1575.99 C 332.714 1522.41 330.819 1468.04 332.391 1414.45 C 332.491 1411.04 334.353 1408.61 336.453 1406.1 z"/>
<path transform="translate(0,0)" fill="rgb(250,252,252)" d="M 355.108 1689.68 C 354.83 1686.22 354.165 1683.74 355.831 1680.82 C 373.52 1672.42 407.097 1662.82 427.101 1654.97 C 444.127 1648.28 468.367 1637.51 484.444 1632.22 C 528.906 1617.57 592.654 1622.29 636.061 1638.49 C 666.588 1649.88 698.052 1661.32 728.98 1672.82 C 729.154 1681.26 730.864 1702.67 727.471 1708.42 L 727.946 1709.3 C 662.902 1744.74 651.308 1700.84 588.385 1700.58 C 558.643 1700.45 530.864 1724.19 495.375 1722.47 C 497.285 1722.56 499.116 1722.73 500.708 1721.32 C 479.603 1720.41 473.697 1717.83 453.987 1710.55 C 445.421 1711.19 436.804 1705.18 427.626 1703.33 C 414.677 1700.71 402.84 1700.14 389.693 1700.38 C 382.279 1700.52 370.414 1708.83 363.219 1706.45 C 360.351 1707.22 359.233 1707.8 356.339 1707.07 C 353.843 1703.22 354.883 1698.21 355.051 1693.08 L 355.108 1689.68 z"/>
<path transform="translate(0,0)" fill="rgb(6,20,39)" d="M 500.708 1721.32 C 527.523 1719.71 555.473 1699.9 586.098 1697.95 C 622.51 1694.3 653.073 1722.08 688.19 1720.73 C 700.919 1720.24 715.026 1711.01 727.471 1708.42 L 727.946 1709.3 C 662.902 1744.74 651.308 1700.84 588.385 1700.58 C 558.643 1700.45 530.864 1724.19 495.375 1722.47 C 497.285 1722.56 499.116 1722.73 500.708 1721.32 z"/>
<path transform="translate(0,0)" fill="rgb(6,20,39)" d="M 363.219 1706.45 C 399.778 1693.56 418.101 1695.02 453.987 1710.55 C 445.421 1711.19 436.804 1705.18 427.626 1703.33 C 414.677 1700.71 402.84 1700.14 389.693 1700.38 C 382.279 1700.52 370.414 1708.83 363.219 1706.45 z"/>
<path transform="translate(0,0)" fill="rgb(141,187,220)" d="M 355.108 1689.68 C 359.331 1689.89 361.163 1689.7 365.001 1691.24 L 364.835 1692.28 C 360.668 1693.47 359.494 1693.22 355.051 1693.08 L 355.108 1689.68 z"/>
<path transform="translate(0,0)" fill="rgb(250,252,252)" d="M 165.047 1610.17 L 276.85 1609.96 C 296.887 1609.96 321.227 1609.35 340.855 1610.13 C 341.288 1645.12 341.699 1683.68 341.019 1718.62 L 341.333 1719.58 C 326.875 1731.36 296.017 1712.66 280.987 1707.29 C 272.168 1704.2 263.013 1702.18 253.714 1701.26 C 225.885 1698.71 210.54 1711.26 186.293 1718.25 L 185.844 1716.82 C 179.275 1719.16 172.838 1722.48 166.548 1718.42 C 162.435 1712.55 164.596 1698.66 164.788 1690.21 L 164.824 1683.1 L 164.991 1666.13 L 164.974 1658.92 L 165.047 1610.17 z"/>
<path transform="translate(0,0)" fill="rgb(6,20,39)" d="M 185.844 1716.82 C 220.587 1700.72 242.426 1690.75 279.821 1704.8 C 300.553 1712.59 319.022 1725.02 341.019 1718.62 L 341.333 1719.58 C 326.875 1731.36 296.017 1712.66 280.987 1707.29 C 272.168 1704.2 263.013 1702.18 253.714 1701.26 C 225.885 1698.71 210.54 1711.26 186.293 1718.25 L 185.844 1716.82 z"/>
<path transform="translate(0,0)" fill="rgb(29,114,181)" d="M 164.974 1658.92 C 183.153 1659.02 193.004 1658.95 210.539 1665.13 C 209.474 1665.39 202.273 1666.82 202.288 1666.81 C 194.742 1668.53 176.055 1665.64 164.991 1666.13 L 164.974 1658.92 z"/>
<path transform="translate(0,0)" fill="rgb(29,114,181)" d="M 164.824 1683.1 C 166.995 1682.54 207.465 1681.63 207.94 1681.8 L 207.684 1683.9 C 188.918 1688.99 185.148 1691.59 164.788 1690.21 L 164.824 1683.1 z"/>
<path transform="translate(0,0)" fill="rgb(141,187,220)" d="M 210.539 1665.13 C 217.159 1664.86 220.606 1665.5 227.021 1666.82 C 219.409 1667 209.7 1667.51 202.288 1666.81 C 202.273 1666.82 209.474 1665.39 210.539 1665.13 z"/>
<path transform="translate(0,0)" fill="rgb(177,203,228)" d="M 207.94 1681.8 C 214.555 1682.03 218.65 1682.33 225.193 1683.24 C 219.018 1683.86 213.921 1684.51 207.684 1683.9 L 207.94 1681.8 z"/>
<path transform="translate(0,0)" fill="rgb(29,114,181)" d="M 173.895 1629.1 C 192.561 1636.24 204.335 1635.74 224.147 1635.92 L 223.385 1638.34 L 222.202 1639.98 L 222.857 1641.66 L 226.946 1643.42 C 215.051 1645.09 188.174 1643.23 174.44 1643.14 C 174.378 1638.44 174.119 1633.79 173.895 1629.1 z"/>
<path transform="translate(0,0)" fill="rgb(23,134,232)" d="M 224.147 1635.92 C 227.249 1635.37 229.398 1634.53 232.044 1635.98 C 229.739 1638.48 227.175 1638.07 223.385 1638.34 L 224.147 1635.92 z"/>
<path transform="translate(0,0)" fill="rgb(177,203,228)" d="M 233.107 1659.58 C 234.563 1658.97 234.903 1659.08 236.509 1658.86 L 237.653 1660.33 L 234.485 1660.7 L 233.107 1659.58 z"/>
<path transform="translate(0,0)" fill="rgb(250,252,252)" d="M 743.057 1610.07 C 801.242 1609.72 863.253 1609.11 921.255 1610.21 C 922.256 1619.89 921.326 1631.92 921.106 1641.97 L 920.837 1643.09 C 921.411 1648.86 922.027 1654.02 922.011 1659.85 L 922.024 1671.89 C 922.109 1680.53 921.9 1689.17 921.396 1697.8 C 910.734 1702.26 874.507 1719.16 865.176 1719.5 C 815.198 1721.34 799.204 1683.91 742.688 1703.51 C 741.771 1675.68 741.476 1637.31 743.057 1610.07 z"/>
<path transform="translate(0,0)" fill="url(#Gradient2)" d="M 922.011 1659.85 L 922.024 1671.89 C 914.482 1673.14 875.964 1668.57 865.096 1667.47 L 864.298 1663.88 L 860.587 1662.37 C 881.695 1661.28 900.812 1659.94 922.011 1659.85 z"/>
<path transform="translate(0,0)" fill="rgb(29,114,181)" d="M 865.229 1641.96 C 874.621 1637.35 903.611 1632.73 913.314 1634.92 C 915.13 1641.35 915.009 1640.46 921.106 1641.97 L 920.837 1643.09 C 911.434 1641.06 879.218 1644.99 866.083 1645.41 L 865.229 1641.96 z"/>
<path transform="translate(0,0)" fill="rgb(29,114,181)" d="M 856.919 1662.98 L 860.587 1662.37 L 864.298 1663.88 L 865.096 1667.47 L 857.011 1666.51 L 856.919 1662.98 z"/>
<path transform="translate(0,0)" fill="rgb(141,187,220)" d="M 843.987 1663.19 C 848.126 1663.1 852.832 1662.87 856.919 1662.98 L 857.011 1666.51 C 852.759 1665.69 850.281 1665.34 845.966 1665.01 L 843.987 1663.19 z"/>
<path transform="translate(0,0)" fill="rgb(216,223,232)" d="M 845.966 1665.01 C 841.025 1664.87 838.872 1665.12 834.282 1663.33 C 836.881 1662.12 840.699 1662.95 843.987 1663.19 L 845.966 1665.01 z"/>
<path transform="translate(0,0)" fill="rgb(23,134,232)" d="M 865.229 1641.96 L 866.083 1645.41 L 861.221 1644.96 L 860.761 1644.03 L 865.229 1641.96 z"/>
<path transform="translate(0,0)" fill="rgb(29,114,181)" d="M 835.677 1687.94 C 839.951 1688.03 852.198 1684.93 858.821 1684.52 C 869.967 1683.84 879.191 1683.95 890.341 1684.04 L 889.597 1686.61 L 887.586 1687.32 L 887.98 1688.74 C 891.863 1689.85 896.145 1688.71 898.699 1689.75 C 907.41 1690.43 914.118 1690.7 922.705 1692.68 C 907.807 1694.49 891.001 1694.1 875.989 1692.54 C 859.926 1690.64 854.558 1693.89 834.359 1689.73 C 834.702 1688.76 834.409 1689.44 835.677 1687.94 z"/>
<path transform="translate(0,0)" fill="rgb(177,203,228)" d="M 879.06 1689.73 C 882.439 1687.8 883.787 1687.86 887.586 1687.32 L 887.98 1688.74 C 891.863 1689.85 896.145 1688.71 898.699 1689.75 C 892.285 1690.38 885.537 1689.94 879.06 1689.73 z"/>
<path transform="translate(0,0)" fill="rgb(23,134,232)" d="M 835.128 1620.78 C 844.945 1619.46 858.092 1616.99 867.508 1618.92 L 866.407 1621.03 C 860.434 1628.85 855.74 1627.99 846.544 1627.99 C 842.96 1625.56 838.835 1623.1 835.128 1620.78 z"/>
<path transform="translate(0,0)" fill="rgb(141,187,220)" d="M 834.359 1689.73 C 829.57 1689.62 826.498 1689.82 821.874 1688.45 L 822.275 1687.47 C 826.346 1686.17 831.869 1686.1 835.677 1687.94 C 834.409 1689.44 834.702 1688.76 834.359 1689.73 z"/>
<path transform="translate(0,0)" fill="rgb(141,187,220)" d="M 867.508 1618.92 C 870.467 1620.09 873.887 1620.85 875.353 1623.37 C 872.153 1623.75 869.319 1622.38 866.407 1621.03 L 867.508 1618.92 z"/>
<path transform="translate(0,0)" fill="rgb(23,134,232)" d="M 890.341 1684.04 C 893.266 1683.83 896.099 1683 897.861 1684.33 C 894.25 1686.08 893.664 1686.03 889.597 1686.61 L 890.341 1684.04 z"/>
<path transform="translate(0,0)" fill="rgb(250,252,252)" d="M 391.899 1589.74 C 400.925 1587.96 403.196 1587.06 412.201 1588.13 L 604.001 1588.95 C 622.563 1589.09 641.103 1588.41 659.651 1589.04 C 669.276 1588.55 677.044 1588.65 686.621 1588.86 C 694.935 1587.91 710.64 1587.81 719.027 1588.91 C 726.691 1588.75 735.735 1588.8 743.194 1587.76 C 732.572 1599.85 730.553 1603.85 729.403 1620.45 C 720.746 1618.21 711.915 1615.99 703.309 1614.07 C 689.933 1611.08 656.826 1606.17 645.875 1600.44 C 643.065 1599.49 641.847 1598.74 639.004 1599.51 L 640.083 1603.08 C 637.924 1605.37 638.867 1604.6 635.813 1605.86 C 643.577 1615.09 686.576 1624.16 699.052 1624.62 C 693.561 1631.37 697.047 1638.07 695.835 1647 C 672.439 1638.12 636.678 1624.5 613.034 1618.45 C 578.313 1609.55 523.566 1607.51 489.376 1617.97 C 462.988 1626.05 435.219 1639.82 409.066 1647.96 L 407.795 1630.4 C 418.015 1625.18 471.156 1610.64 483.121 1607.59 L 483.329 1606.38 C 488.524 1603.84 497.752 1604.54 504.068 1603.83 C 504.105 1601.65 503.928 1602.5 501.594 1600 C 501.535 1596.86 501.808 1597.65 504.633 1594.47 C 501.898 1595.42 494.571 1599.35 491.382 1600.83 C 489.242 1600.34 488.456 1600.26 486.291 1600 C 481.868 1604.62 478.828 1602.05 472.821 1603.85 C 461.357 1607.27 450 1609.95 438.219 1612.1 L 439.286 1611.49 L 427.525 1613.91 L 428.793 1613.88 L 421.042 1616.3 L 421.795 1616.35 C 415.391 1618.06 401.36 1622.75 395.539 1622.35 C 389.425 1622.83 363.213 1633.07 355.027 1635.77 C 355.207 1620.11 355.502 1615.34 352.747 1599.86 C 354.199 1598.38 353.564 1599.19 354.652 1597.42 C 351.78 1593.31 346.06 1594.81 343.734 1589.99 L 344.613 1588.92 C 353.44 1588.33 385.155 1587.14 391.899 1589.74 z"/>
<path transform="translate(0,0)" fill="url(#Gradient1)" d="M 355.027 1635.77 C 355.207 1620.11 355.502 1615.34 352.747 1599.86 C 354.199 1598.38 353.564 1599.19 354.652 1597.42 C 351.78 1593.31 346.06 1594.81 343.734 1589.99 L 344.613 1588.92 C 353.44 1588.33 385.155 1587.14 391.899 1589.74 C 395.103 1593.93 402.064 1603.58 405.42 1606.96 L 409.718 1606.51 C 409.185 1609.91 408.668 1614.05 407.872 1617.34 C 405.977 1617.92 404.275 1618.49 402.333 1618.9 L 395.539 1622.35 C 389.425 1622.83 363.213 1633.07 355.027 1635.77 z"/>
<path transform="translate(0,0)" fill="rgb(29,114,181)" d="M 405.42 1606.96 L 409.718 1606.51 C 409.185 1609.91 408.668 1614.05 407.872 1617.34 C 405.977 1617.92 404.275 1618.49 402.333 1618.9 L 405.42 1606.96 z"/>
<path transform="translate(0,0)" fill="rgb(8,58,116)" d="M 384.669 1597.94 C 390.335 1598.55 394.896 1599.68 396.132 1605.96 C 392.32 1610.49 383.256 1610.14 376.905 1610.71 C 372.183 1611.56 369.91 1612.65 366.264 1610.35 L 365.684 1607.39 C 368.572 1602.2 377.931 1601.7 384.669 1597.94 z"/>
<path transform="translate(0,0)" fill="rgb(216,223,232)" d="M 719.027 1588.91 C 726.691 1588.75 735.735 1588.8 743.194 1587.76 C 732.572 1599.85 730.553 1603.85 729.403 1620.45 C 720.746 1618.21 711.915 1615.99 703.309 1614.07 C 689.933 1611.08 656.826 1606.17 645.875 1600.44 L 648.973 1596.3 C 651.569 1598.32 651.677 1597.85 652.157 1600.93 C 655.631 1602.91 695.058 1610.84 701.397 1611.78 L 702.463 1610.94 L 704.17 1607.01 C 707.597 1606.21 708.665 1604.82 711.3 1602.49 C 701.82 1593.58 698.06 1602.52 686.621 1588.86 C 694.935 1587.91 710.64 1587.81 719.027 1588.91 z"/>
<path transform="translate(0,0)" fill="rgb(177,203,228)" d="M 686.621 1588.86 C 694.935 1587.91 710.64 1587.81 719.027 1588.91 C 714.618 1591 708.053 1590.37 703.095 1590.36 C 711.7 1593.26 707.716 1588.73 711.773 1592.57 L 712.571 1597.01 C 715.971 1593.95 716.471 1593.33 720.929 1592.43 C 716.063 1596.48 715.103 1597.44 711.3 1602.49 C 701.82 1593.58 698.06 1602.52 686.621 1588.86 z"/>
<path transform="translate(0,0)" fill="rgb(23,134,232)" d="M 720.929 1592.43 L 722.919 1593.7 C 720.1 1603.62 712.185 1609.08 702.463 1610.94 L 704.17 1607.01 C 707.597 1606.21 708.665 1604.82 711.3 1602.49 C 715.103 1597.44 716.063 1596.48 720.929 1592.43 z"/>
<path transform="translate(0,0)" fill="rgb(216,223,232)" d="M 461.493 1603.46 C 468.131 1601.66 478.661 1600 485.669 1598.68 L 486.291 1600 C 481.868 1604.62 478.828 1602.05 472.821 1603.85 C 461.357 1607.27 450 1609.95 438.219 1612.1 L 439.286 1611.49 L 427.525 1613.91 L 428.793 1613.88 L 421.042 1616.3 L 421.795 1616.35 C 415.391 1618.06 401.36 1622.75 395.539 1622.35 L 402.333 1618.9 C 404.275 1618.49 405.977 1617.92 407.872 1617.34 C 408.668 1614.05 409.185 1609.91 409.718 1606.51 C 412.346 1604.56 415.046 1603.66 418.067 1602.4 C 423.811 1602.02 427.833 1601.72 432.883 1598.98 L 434.638 1600.75 C 442.888 1599.96 454.15 1599 461.493 1603.46 z"/>
<path transform="translate(0,0)" fill="rgb(8,58,116)" d="M 461.493 1603.46 C 468.131 1601.66 478.661 1600 485.669 1598.68 L 486.291 1600 C 481.868 1604.62 478.828 1602.05 472.821 1603.85 C 461.357 1607.27 450 1609.95 438.219 1612.1 L 439.286 1611.49 L 427.525 1613.91 L 428.793 1613.88 L 421.042 1616.3 L 421.795 1616.35 C 415.391 1618.06 401.36 1622.75 395.539 1622.35 L 402.333 1618.9 C 404.275 1618.49 405.977 1617.92 407.872 1617.34 C 427.895 1611.65 440.845 1608.07 461.493 1603.46 z"/>
<path transform="translate(0,0)" fill="rgb(8,58,116)" d="M 635.813 1605.86 C 618.271 1610.95 587.844 1601.31 569.36 1598.89 C 564.937 1598.32 557.845 1598.09 554.338 1597.27 C 557.407 1588.11 608.019 1593.14 617.584 1594.96 C 624.865 1601.66 630.021 1605.64 639.004 1599.51 L 640.083 1603.08 C 637.924 1605.37 638.867 1604.6 635.813 1605.86 z"/>
<path transform="translate(0,0)" fill="rgb(8,69,138)" d="M 507.357 1591.75 C 512.403 1594.79 516.447 1597.4 521.905 1599.71 C 520.827 1601.3 520.108 1602.8 518.622 1603.84 C 506.755 1604.76 494.917 1606.01 483.121 1607.59 L 483.329 1606.38 C 488.524 1603.84 497.752 1604.54 504.068 1603.83 C 504.105 1601.65 503.928 1602.5 501.594 1600 C 501.535 1596.86 501.808 1597.65 504.633 1594.47 C 501.898 1595.42 494.571 1599.35 491.382 1600.83 C 489.242 1600.34 488.456 1600.26 486.291 1600 L 485.669 1598.68 C 493.297 1596.58 499.869 1594.35 507.357 1591.75 z"/>
<path transform="translate(0,0)" fill="rgb(8,69,138)" d="M 391.899 1589.74 C 400.925 1587.96 403.196 1587.06 412.201 1588.13 C 408.047 1588.39 403.895 1588.69 399.747 1589.04 C 405.689 1593.12 409.185 1596.02 416.014 1598.36 L 418.067 1602.4 C 415.046 1603.66 412.346 1604.56 409.718 1606.51 L 405.42 1606.96 C 402.064 1603.58 395.103 1593.93 391.899 1589.74 z"/>
<path transform="translate(0,0)" fill="rgb(141,187,220)" d="M 659.651 1589.04 C 669.276 1588.55 677.044 1588.65 686.621 1588.86 C 698.06 1602.52 701.82 1593.58 711.3 1602.49 C 708.665 1604.82 707.597 1606.21 704.17 1607.01 L 703.032 1605.02 C 700.839 1603.97 697.695 1603.33 695.277 1602.98 C 687.793 1601.9 689.693 1599.08 685.459 1592.79 L 683.796 1592.91 C 673.576 1587.17 669.081 1592.88 659.651 1589.04 z"/>
<path transform="translate(0,0)" fill="rgb(177,203,228)" d="M 683.796 1592.91 L 685.459 1592.79 C 689.693 1599.08 687.793 1601.9 695.277 1602.98 C 697.695 1603.33 700.839 1603.97 703.032 1605.02 L 704.17 1607.01 L 702.463 1610.94 C 690.354 1609.48 688.192 1602.92 683.796 1592.91 z"/>
<path transform="translate(0,0)" fill="rgb(23,134,232)" d="M 416.014 1598.36 C 419.719 1597.98 429.701 1597.03 432.883 1598.98 C 427.833 1601.72 423.811 1602.02 418.067 1602.4 L 416.014 1598.36 z"/>
<path transform="translate(0,0)" fill="rgb(23,134,232)" d="M 521.905 1599.71 C 528.722 1601.84 532.593 1602.41 539.634 1603.52 C 532.858 1603.69 525.333 1604.04 518.622 1603.84 C 520.108 1602.8 520.827 1601.3 521.905 1599.71 z"/>
<path transform="translate(0,0)" fill="rgb(23,134,232)" d="M 550.03 1600.29 C 553.371 1600.55 555.9 1599.82 559.211 1600.81 L 559.389 1602.8 C 556.036 1603.75 552.367 1605.15 549.386 1602.98 L 550.03 1600.29 z"/>
<path transform="translate(0,0)" fill="rgb(250,252,252)" d="M 337.009 1383.81 C 437.428 1385.01 540.057 1383.98 640.639 1383.93 L 707.894 1383.86 C 713.936 1383.85 734.492 1383.42 738.887 1384.51 C 740.81 1387.53 739.996 1388.44 739.879 1392.86 C 709.409 1394.35 672.576 1393.41 641.61 1393.4 L 470.705 1393.39 L 380.508 1393.34 C 371.429 1393.35 344.908 1393.95 338.076 1392.87 C 335.811 1390.16 336.787 1388.25 337.009 1383.81 z"/>
<path transform="translate(0,0)" fill="rgb(254,138,81)" d="M 250.67 1189.69 C 252.245 1191.32 282.461 1270.42 285.373 1278.02 C 275.237 1278.25 264.671 1278.19 254.5 1278.26 C 242.369 1278.26 231.174 1278.27 219.05 1278.92 C 225.667 1254.36 241.59 1215.57 250.67 1189.69 z"/>
<path transform="translate(0,0)" fill="rgb(254,138,81)" d="M 825.565 1190.72 C 825.967 1191.18 826.369 1191.64 826.772 1192.1 C 837.273 1218.65 848.326 1245.27 857.963 1272.12 C 859.036 1275.11 858.473 1275.34 857.627 1277.69 C 853.975 1279.92 834.288 1278.9 828.756 1278.8 L 795.791 1278.82 C 804.218 1250.1 815.933 1219.22 825.565 1190.72 z"/>
<path transform="translate(0,0)" fill="rgb(250,252,252)" d="M 171.369 1589.18 C 220.432 1587.87 275.419 1588.87 324.892 1589.11 C 328.164 1591.4 332.045 1593.61 333.695 1597.1 L 332.881 1598.41 L 329.25 1598.82 L 221.403 1598.99 C 208.1 1599 177.492 1599.76 166.017 1598.12 L 165.502 1596.66 C 167.24 1592.56 167.934 1592.27 171.369 1589.18 z"/>
<path transform="translate(0,0)" fill="rgb(250,252,252)" d="M 763.451 1589.19 C 780.614 1588.59 905.834 1587.45 912.967 1590.63 C 915.501 1591.76 916.808 1592.97 917.821 1595.52 L 916.661 1597.59 C 912.808 1599.77 909.336 1599.04 904.75 1598.85 L 750.756 1598.65 C 754.86 1594.57 758.152 1591.51 763.451 1589.19 z"/>
<path transform="translate(0,0)" fill="rgb(250,252,252)" d="M 722.897 1354.3 C 731.319 1353.19 749.507 1359.39 745.695 1368.28 C 742.402 1370.54 742.057 1370.82 737.87 1370.82 C 695.402 1370.85 652.858 1370.8 610.395 1370.78 L 554.36 1370.74 C 544.575 1370.74 528.728 1371.25 519.709 1369.82 C 520.177 1369.34 521.632 1368.04 522.208 1367.91 C 547.164 1362.15 578.208 1360.65 602.136 1368.71 C 628.995 1360.29 637.245 1364.77 664.207 1366.95 C 675.277 1367.85 694.843 1360.98 707.903 1363.91 C 713.763 1365.23 729.7 1366.33 734.387 1363.9 C 732.931 1360.22 724.854 1359.34 722.897 1354.3 z"/>
<path transform="translate(0,0)" fill="rgb(250,252,252)" d="M 366.333 1354.05 C 380.847 1355.77 396.282 1365.63 410.966 1367.05 C 416.87 1367.63 426.323 1364.22 432.584 1363.98 C 457.408 1363.06 491.431 1363.1 515.687 1369.8 C 505.553 1370.49 496.364 1370.67 486.25 1370.8 C 462.538 1370.54 438.099 1370.02 414.438 1370.47 C 397.628 1370.89 380.813 1371.02 363.999 1370.85 C 359.665 1370.85 338.335 1371.8 336.363 1368.97 L 338.238 1365.45 C 341.029 1363.62 339.591 1363.82 342.482 1364.03 L 342.208 1367.1 C 346.593 1366.45 361.57 1356.9 366.333 1354.05 z"/>
<path transform="translate(0,0)" fill="rgb(250,252,252)" d="M 397.479 1632.96 L 399.454 1632.92 C 401.192 1634.6 401.052 1646.69 401.375 1650.81 C 387.285 1656.01 372.921 1660.99 358.756 1666.03 C 357.234 1666.39 358.187 1666.25 355.866 1666.15 C 354.394 1662.6 354.887 1652.55 354.838 1647.9 C 369.129 1642.67 382.978 1637.56 397.479 1632.96 z"/>
<path transform="translate(0,0)" fill="rgb(250,252,252)" d="M 699.052 1624.62 C 700.497 1624.83 701.047 1624.71 702.176 1625.38 C 711.659 1628.97 719.433 1631.01 729.473 1632.62 C 729.148 1641.86 729.003 1651.1 729.038 1660.34 L 728.381 1660.84 C 722.799 1661.68 721.31 1661.17 716.469 1658.1 C 715.432 1655.96 713.491 1658 712.073 1653.51 C 708.973 1651.95 705.582 1650.62 702.356 1649.29 L 695.835 1647 C 697.047 1638.07 693.561 1631.37 699.052 1624.62 z"/>
<path transform="translate(0,0)" fill="rgb(8,58,116)" d="M 699.052 1624.62 C 700.497 1624.83 701.047 1624.71 702.176 1625.38 C 702.798 1632.34 703.134 1642.36 702.356 1649.29 L 695.835 1647 C 697.047 1638.07 693.561 1631.37 699.052 1624.62 z"/>
<path transform="translate(0,0)" fill="rgb(8,58,116)" d="M 712.073 1653.51 C 717.616 1655.46 723.939 1657.49 729.038 1660.34 L 728.381 1660.84 C 722.799 1661.68 721.31 1661.17 716.469 1658.1 C 715.432 1655.96 713.491 1658 712.073 1653.51 z"/>
<path transform="translate(0,0)" fill="rgb(250,252,252)" d="M 882.175 1255.66 C 884.21 1259.56 890.692 1277.64 892.774 1283 C 890.862 1284.47 885.756 1283.96 882.75 1284 L 872.286 1284.12 C 875.927 1274.65 878.321 1265.18 882.175 1255.66 z"/>
<path transform="translate(0,0)" fill="rgb(250,252,252)" d="M 768.997 1257.52 C 772.286 1260.97 777.967 1278.05 779.163 1282.99 C 776.336 1284.58 774.384 1284.04 770.768 1284.06 C 767.61 1284.29 764.644 1284.99 762.07 1283.48 C 759.832 1278.76 766.76 1264.22 768.997 1257.52 z"/>
<path transform="translate(0,0)" fill="rgb(250,252,252)" d="M 194.199 1256.67 C 196.651 1262.29 201.704 1277.22 203.128 1282.96 C 200.46 1284.52 198.633 1283.97 195.06 1284.08 L 193.649 1284.14 C 190.975 1284.25 187.127 1284.65 185.425 1283.08 C 188.513 1274.33 191.438 1265.53 194.199 1256.67 z"/>
<path transform="translate(0,0)" fill="rgb(250,252,252)" d="M 308.375 1258.73 C 310.412 1261.27 316.096 1279.38 317.232 1283.27 C 314.598 1284.33 309.825 1283.99 306.75 1283.97 C 303.482 1284.04 303.313 1284.47 300.642 1283.09 C 299.321 1278.29 306.153 1264.54 308.375 1258.73 z"/>
<path transform="translate(0,0)" fill="rgb(250,252,252)" d="M 337.923 1341.85 C 341.911 1342.48 344.718 1342.74 348.484 1344.13 L 348.565 1345.24 L 344.344 1347.48 C 341.861 1350.32 342.134 1350.99 339.09 1351.88 C 337.464 1349.51 337.927 1345 337.923 1341.85 z"/>
<path transform="translate(0,0)" fill="rgb(250,252,252)" d="M 742.163 1341.51 C 743.336 1342.21 744.65 1343.35 745.76 1344.23 L 745.91 1345.96 L 744.163 1347.27 L 739.304 1345.97 L 738.794 1344.7 L 742.163 1341.51 z"/>
<path transform="translate(0,0)" fill="rgb(171,172,172)" fill-opacity="0.027451" d="M 711.712 1339.98 L 715.143 1340.14 L 715.123 1341.04 L 709.003 1343.96 C 705.946 1343.73 707.106 1344.4 705.141 1342.56 C 707.1 1340.59 708.948 1340.55 711.712 1339.98 z"/>
<path transform="translate(0,0)" fill="rgb(171,172,172)" d="M 688.56 1348.17 C 693.17 1349.13 693.314 1349.24 697.241 1351.97 C 692.027 1351.74 691.728 1351.93 688.56 1348.17 z"/>
<path transform="translate(0,0)" fill="rgb(8,46,86)" d="M 1492.59 1165.41 C 1502.39 1164.1 1542.58 1163.3 1551.56 1169.88 C 1553.7 1171.46 1553.43 1173.02 1553.48 1175.17 C 1550.72 1181.92 1527.59 1192.94 1520.49 1198.09 C 1369.48 1307.65 1376.37 1525.1 1542.71 1615.84 C 1606.33 1651 1682.26 1656.19 1750.08 1630 C 1773.11 1621.18 1793.02 1608.08 1814.6 1596.52 C 1816.41 1595.76 1819.3 1595.41 1821.13 1596.08 C 1838.62 1602.42 1816.5 1634.47 1811.24 1642.62 C 1784.32 1684.26 1744.19 1717.27 1700.44 1740.04 C 1572.6 1803.97 1431.54 1788.98 1319.93 1698.6 C 1189.85 1593.27 1173.4 1398.56 1282.16 1271.27 C 1335.6 1209.62 1411.23 1171.57 1492.59 1165.41 z"/>
<path transform="translate(0,0)" fill="rgb(254,213,60)" d="M 1510.34 1182.46 C 1512.06 1182.43 1511.93 1182.6 1513.66 1183.14 C 1512.13 1187.44 1496.54 1197.58 1492.02 1201.39 C 1322.6 1344.21 1386.59 1602.14 1599.21 1655.35 C 1670.39 1673.17 1739.82 1659.35 1803.52 1621.87 C 1778.68 1674.04 1713.17 1718.92 1660.32 1740 C 1624.81 1754.2 1591.04 1760.48 1553 1761.84 C 1466.38 1765.12 1381.99 1733.98 1318.27 1675.22 C 1263 1623.92 1230.51 1552.68 1227.99 1477.32 C 1222.36 1313.05 1347.46 1187 1510.34 1182.46 z"/>
<path transform="translate(0,0)" fill="rgb(23,134,232)" d="M 592.143 1741.43 C 620.295 1736.66 654.064 1758.74 682.796 1759.12 C 718.979 1759.6 738.904 1738.65 775.223 1741.72 C 805.48 1744.28 826.459 1759.81 856.462 1759.98 C 870.278 1760.07 887.841 1756.91 900.318 1752.14 C 933.287 1739.04 962.526 1738.57 996.744 1748.93 C 1005.24 1751.5 1038.78 1761.39 1014.41 1776.15 C 1004.27 1782.28 980.845 1773.09 968.763 1770.89 C 959.759 1769.32 950.611 1768.75 941.483 1769.19 C 913.314 1770.71 885.986 1790.94 850.571 1788.71 C 816.421 1786.57 796.721 1769.2 764.496 1769.89 C 735.37 1770.52 711.75 1788.93 681.452 1787.99 C 668.194 1787.58 656.864 1784.98 644.501 1780.24 C 601.261 1763.69 585.453 1767.62 544.102 1782.41 C 482.287 1799.86 468.199 1776.11 411.424 1770.02 C 390.517 1767.77 355.198 1788.11 327.834 1788.94 C 290.754 1790.06 273.433 1774.59 238.683 1769.92 C 199.375 1769.12 165.534 1792.64 125.466 1777.06 C 119.785 1774.85 101.408 1766 109.826 1757.96 C 122.188 1746.14 145.85 1758.88 162.395 1757.2 C 190.258 1754.36 212.786 1739.03 241.228 1741.81 C 275.499 1743.85 296.108 1762.19 330.929 1759.93 C 363.148 1757.84 388.781 1738.72 421.693 1741.84 C 456.465 1745.14 475.647 1761.96 513.767 1760.09 C 544.557 1758.59 563.186 1743.76 592.143 1741.43 z"/>
<path transform="translate(0,0)" fill="rgb(8,58,116)" d="M 397.926 1800.38 C 441.439 1798.69 453.655 1813.65 493.98 1818.41 C 529.29 1822.57 556.286 1802.98 590.505 1800.71 C 629.448 1798.13 659.79 1824.13 699.485 1818.13 C 714.688 1815.64 732.584 1809.96 746.987 1804.92 C 789.098 1790.19 820.235 1815.29 860.576 1818.79 C 874.416 1819.99 891.361 1813.92 905.067 1812.45 C 907.749 1812.17 913.042 1816.28 912.772 1819.07 C 913.757 1831.47 898.012 1834.35 888.816 1836.37 C 861.744 1842.37 838.157 1838.04 812.937 1827.86 C 804.594 1824.49 794.282 1821.89 785.364 1820.46 C 749.02 1815.79 724.419 1839.16 685.896 1840.04 C 651.619 1839.73 626.909 1820.09 596.321 1819.56 C 565.995 1819.02 538.474 1838.67 504.62 1839.82 C 466.587 1841.12 444.76 1820.13 409.307 1819.09 C 379.361 1818.21 357.241 1836.55 326.126 1839.2 C 288.449 1842.41 267.288 1820.31 232.158 1819.93 C 214.238 1820.6 197.843 1833.96 179.732 1831.55 C 175.31 1830.97 172.956 1823.45 176.197 1819.64 C 180.923 1814.07 189.36 1812.81 195.2 1809.89 C 241.979 1786.52 276.969 1819.13 322.784 1818.86 C 346.563 1818.52 369.572 1804.72 397.926 1800.38 z"/>
<path transform="translate(0,0)" fill="rgb(254,107,60)" d="M 1296.84 610.372 C 1305.08 609.753 1315.28 608.065 1321.67 613.348 C 1323.32 616.484 1323.74 616.619 1323.32 620.169 C 1321.92 622.641 1319.71 624.943 1316.8 625.195 C 1289.82 627.515 1254.79 626.597 1229.3 637.665 C 1263.2 632.406 1308.66 634.817 1340.75 646.662 C 1351.35 650.577 1374.49 659.226 1379.16 669.661 C 1378.91 672.818 1379.44 671.39 1377.25 673.978 C 1364.36 677.798 1347.95 667.537 1335.97 664.22 C 1305.95 655.905 1274.9 645.514 1243.88 642.283 C 1249.52 644.781 1255.46 647.064 1261 649.686 C 1313.13 674.367 1351.59 727.711 1378.93 776.993 C 1397.69 814.24 1415.97 867.153 1415.64 909.93 C 1415.61 914.119 1414.56 918.419 1411.33 921.237 L 1409.44 920.806 C 1400.63 911.371 1388.11 854.838 1382.98 838.316 C 1363.64 775.981 1328.85 728.205 1281.87 683.779 C 1274.01 676.339 1225.29 639.169 1223.96 633.418 C 1229.69 621.253 1282.47 612.17 1296.84 610.372 z"/>
<path transform="translate(0,0)" fill="rgb(8,46,86)" d="M 1796.49 1303.95 C 1801.08 1309.4 1808.03 1327.94 1814.23 1335.67 C 1827.15 1351.81 1851.08 1372.16 1871.76 1375.26 C 1830.76 1397.52 1815.35 1415.77 1797.45 1457.62 C 1791.83 1459.08 1785.54 1434.53 1781.28 1428.17 C 1762.55 1400.21 1752.36 1392.66 1723.74 1378.53 C 1764.06 1361.6 1777.44 1343.98 1796.49 1303.95 z"/>
<path transform="translate(0,0)" fill="rgb(254,213,60)" d="M 1796.18 1334.59 C 1797.68 1336.5 1801.68 1343.96 1803.93 1347.13 C 1815.08 1362.86 1822.96 1369.05 1838.61 1379.49 C 1819.17 1391.89 1807.22 1404.7 1796.26 1425.38 L 1796.12 1425.45 C 1793.76 1424.91 1790.53 1417.62 1788.5 1414.59 C 1778.46 1399.61 1768.72 1390.61 1754.63 1379.77 C 1773.94 1369.89 1786.16 1353.14 1796.18 1334.59 z"/>
<path transform="translate(0,0)" fill="rgb(254,107,60)" d="M 1511.57 361.828 C 1530.75 358.243 1548.83 356.995 1568.41 359.009 C 1614.39 364.756 1659.22 382.015 1699.12 405.261 C 1707.23 409.99 1728.07 419.409 1727.62 429.805 C 1725.55 432.71 1725.7 432.503 1722.34 433.761 C 1706.66 432.929 1665.04 408.514 1648.37 402.689 C 1619.54 392.617 1562.3 370.965 1532.69 367.719 L 1534.29 368.499 C 1551.15 376.615 1569.33 381.496 1586.15 389.805 C 1608.71 400.945 1678.22 446.418 1685.61 469.658 C 1686.36 472.01 1686.08 473.543 1685.29 475.811 C 1675.35 484.842 1660.24 466.338 1652.16 459.939 C 1613.89 429.656 1573.13 400.925 1529.25 379.427 C 1522.72 376.226 1516.35 376.026 1509.76 371.708 C 1507.07 367.147 1508.13 365.832 1511.57 361.828 z"/>
<path transform="translate(0,0)" fill="rgb(254,107,60)" d="M 1272.7 274.314 C 1276.55 273.604 1286.46 273.885 1290.59 274.09 C 1339.2 276.507 1387.74 292.681 1428.19 319.776 C 1434.08 323.719 1454.93 336.43 1451.83 343.438 C 1441.3 341.552 1433.68 344.957 1421.66 344.193 C 1376.05 341.298 1331 340.09 1285.36 343.121 C 1276.11 343.736 1263.54 343.893 1259.78 334 C 1262.93 329.605 1266.06 326.776 1271.02 324.469 C 1298.35 311.75 1392.57 323.237 1421.64 333.225 C 1393.38 313.727 1322.25 296.668 1286.78 295.493 C 1271.61 294.99 1249.43 296.297 1232.49 295.899 C 1234.31 292.234 1236.18 288.591 1238.09 284.971 C 1250.02 277.957 1259.21 276.46 1272.7 274.314 z"/>
<path transform="translate(0,0)" fill="rgb(254,107,60)" d="M 1422.84 140.446 C 1451.76 144.786 1470.59 248.417 1471.06 273.832 C 1471.33 288.646 1468.04 307.286 1469.29 320.643 C 1467.66 323.233 1467.59 322.992 1464.76 324.314 C 1460.72 321.585 1457.01 313.399 1454.53 308.807 C 1437.5 277.295 1424.72 254.101 1400.52 227.606 C 1396.27 222.43 1383.42 207.788 1385.26 201.01 C 1390.61 184.801 1400.53 195.702 1407.18 202.314 C 1432.55 227.531 1442.49 254.931 1458.69 285.145 C 1452.28 253.395 1446.94 228.461 1434.3 198.118 C 1429.03 185.436 1418.56 164.293 1417.04 151.036 C 1416.59 147.098 1420.14 143.111 1422.84 140.446 z"/>
<path transform="translate(0,0)" fill="rgb(254,213,60)" d="M 1754.31 469.484 C 1774.86 469.926 1775.81 546.179 1776.9 562.35 C 1780.13 540.532 1787.28 516.692 1797.32 496.546 C 1799.39 492.385 1812.19 480.138 1817.07 487.388 C 1818.52 503.555 1786.92 551.679 1781.42 575.127 L 1781.11 576.505 C 1792.26 559.818 1803.72 542.771 1818.39 529.072 C 1828.09 521.076 1854.63 497.585 1871.35 508.692 C 1872.42 509.404 1872.12 510.559 1872.22 511.96 C 1868.7 519.667 1860.49 520.826 1853.9 525.499 C 1838.44 536.461 1823.55 547.822 1809.17 560.125 C 1801.19 566.947 1786.3 586.085 1777.85 589.884 L 1776.21 589.184 C 1775.66 585.598 1778.23 580.562 1779.5 576.464 C 1775.42 576.89 1777.55 579.034 1771.72 578.159 C 1769.94 576.383 1768.75 573.969 1768.41 571.452 C 1764.24 540.253 1753.75 510.477 1748.07 479.704 C 1747.41 476.138 1751.97 471.927 1754.31 469.484 z"/>
<path transform="translate(0,0)" fill="rgb(254,213,60)" d="M 1567.63 653.363 C 1575.07 654.644 1576.4 660.048 1578.6 666.314 C 1576.68 679.296 1573.12 693.347 1570.36 706.353 C 1566.76 723.977 1563.41 741.652 1560.32 759.372 C 1555.24 788.668 1552.24 819.2 1547.07 848.502 C 1544.15 865.04 1543.18 888.636 1536.33 903.247 C 1533.78 904.763 1533.99 904.775 1531.05 904.698 C 1517.58 893.653 1547.81 710.078 1554.89 684.299 C 1557.4 675.157 1562.51 661.82 1567.63 653.363 z"/>
<path transform="translate(0,0)" fill="rgb(8,46,86)" d="M 1696.69 1200.72 C 1699.76 1203.91 1704.94 1214.54 1707.67 1219.05 C 1719.38 1238.41 1734.69 1246.38 1754.27 1255.26 C 1750.14 1257.67 1743.77 1260.13 1739.18 1262.61 C 1718.74 1273.67 1708.15 1285.81 1698.42 1306.73 L 1697.58 1308.31 C 1693.65 1307.41 1690.9 1296.12 1687.86 1291.57 C 1675 1272.26 1663.22 1265.88 1643.34 1256.16 C 1676.38 1241.08 1679.87 1231.01 1696.69 1200.72 z"/>
<path transform="translate(0,0)" fill="rgb(254,213,60)" d="M 1697.08 1223.64 C 1707.32 1238.92 1713.83 1244.27 1727.37 1256.51 C 1713.06 1265.82 1706.78 1271.94 1696.8 1285.72 L 1695.45 1286.88 C 1693.94 1285.72 1693.93 1285.98 1693.13 1284.45 C 1686.65 1271.99 1679.34 1265.44 1668.78 1256.39 C 1684.54 1243.35 1686.49 1241.72 1697.08 1223.64 z"/>
<path transform="translate(0,0)" fill="rgb(254,213,60)" d="M 1728.56 602.672 C 1721.88 601.797 1715.74 602.395 1709.3 601.771 C 1685.92 599.503 1663.19 600.621 1639.85 601.956 C 1627.59 602.657 1607.21 609.829 1597.17 603.634 C 1595.48 600.779 1595.76 602.284 1596.42 598.949 C 1617.5 570.587 1717.43 583.41 1742.48 602.021 C 1744.1 603.225 1745.67 604.476 1747.21 605.774 C 1737.39 611.068 1727.59 612.623 1717.08 615.821 C 1686.56 625.109 1659.16 641.771 1631.27 656.835 C 1624.42 660.533 1617.69 664.826 1609.67 663.512 C 1599.02 654.684 1627.9 638.098 1633.83 634.263 C 1653.67 621.437 1675.09 614.005 1698.11 609.167 C 1705.17 607.607 1714.3 606.296 1720.95 604.485 C 1723.93 604.747 1728.7 605.522 1731.25 604.546 L 1728.56 602.672 z"/>
<path transform="translate(0,0)" fill="rgb(254,107,60)" d="M 1471.03 382.476 C 1480.06 400.951 1478.97 446.051 1478.96 467.966 C 1479.08 497.336 1478.42 526.705 1476.96 556.039 C 1476.2 571.584 1475.78 589.393 1472.82 604.537 C 1471.55 611.03 1470.08 614.489 1464.6 617.834 C 1447.73 599.919 1457.52 403.728 1471.03 382.476 z"/>
<path transform="translate(0,0)" fill="rgb(254,107,60)" d="M 1398.75 667.447 C 1401.72 668.085 1404.07 669.068 1406.26 671.189 C 1419.83 684.342 1454.78 849.555 1454.68 875.239 C 1454.66 881.578 1454.5 884.771 1449.95 889.268 C 1439.48 881.148 1435.07 850.987 1431.49 837.25 C 1424.22 809.331 1418.65 780.494 1411.96 752.388 C 1406.23 728.317 1398.41 704.72 1393.58 680.464 C 1392.55 675.173 1395.66 671.794 1398.75 667.447 z"/>
<path transform="translate(0,0)" fill="rgb(8,46,86)" d="M 1642.4 1373.4 C 1645.56 1375.6 1647.13 1382.22 1649.05 1386.15 C 1660.54 1409.7 1670.71 1417.94 1693.18 1428.68 C 1666.05 1438.32 1652.04 1455.12 1643.68 1482.61 C 1640.27 1480.41 1635.48 1466.58 1631.57 1460.87 C 1619.92 1443.9 1608.66 1437.88 1590.88 1429.72 C 1619.59 1417.99 1629.71 1399.45 1642.4 1373.4 z"/>
<path transform="translate(0,0)" fill="rgb(254,213,60)" d="M 1643.16 1401.96 C 1652.68 1414.38 1656.68 1419.46 1669.84 1427.83 C 1655.67 1437.42 1652.02 1441.01 1642.89 1455.24 C 1632.67 1441.58 1630.68 1439.88 1616.91 1429.3 C 1628.93 1419.19 1633.55 1414.56 1643.16 1401.96 z"/>
<path transform="translate(0,0)" fill="rgb(254,107,60)" d="M 1456.73 390.917 L 1457.52 392.438 C 1456.01 402.328 1451.02 414.764 1448.03 424.6 C 1441.86 444.959 1434.61 465.65 1429.14 486.189 C 1423.45 507.647 1418.24 529.23 1413.51 550.921 C 1411.87 558.561 1407.38 602.073 1394.87 595.743 C 1384.94 562.12 1392.69 546.437 1399.05 512.761 C 1404.45 484.176 1433.88 404.884 1456.73 390.917 z"/>
<path transform="translate(0,0)" fill="rgb(254,107,60)" d="M 1407.13 350.449 C 1412.32 350.664 1451.37 350.397 1451.81 350.54 L 1451.37 352.309 C 1445.46 356.929 1433.38 356.211 1425.69 358.117 C 1368.83 372.207 1315.65 388.902 1264.52 417.77 C 1256.05 422.894 1239.84 432.765 1230.07 430.627 C 1227.06 427.439 1227.89 423.957 1230.96 421.045 C 1276.66 377.73 1347 355.572 1407.13 350.449 z"/>
<path transform="translate(0,0)" fill="rgb(254,107,60)" d="M 1426.62 368.564 C 1430.45 368.108 1435.48 367.212 1438.49 369.834 C 1436.71 373.51 1427.11 378.279 1423.32 380.164 C 1380.13 401.659 1340.57 428.791 1301.3 456.64 C 1288.81 465.498 1278.71 473.5 1264.28 479.504 C 1262.22 480.101 1260.38 479.848 1258.16 479.817 C 1252.26 475.901 1259.14 467.22 1262.66 463.577 C 1296.97 428.109 1378.18 373 1426.62 368.564 z"/>
<path transform="translate(0,0)" fill="rgb(254,107,60)" d="M 1485.53 375.541 C 1510.41 393.475 1546.42 474.822 1554.41 506.212 C 1559.42 525.946 1567.68 550.635 1557.33 569.565 C 1554.77 572.038 1554.16 572.146 1551.29 570.829 C 1545.53 564.162 1545.15 554.631 1543.15 546.491 C 1532.89 504.77 1517.54 464.753 1500.91 425.207 C 1494.83 410.744 1487.39 396.691 1483.25 381.502 C 1482.42 378.471 1483.81 377.754 1485.53 375.541 z"/>
<path transform="translate(0,0)" fill="rgb(254,213,60)" d="M 1470.29 647.327 C 1480.34 649.538 1481.71 671.602 1482.51 680.555 C 1487.5 736.539 1496.49 793.297 1495.74 849.484 C 1495.68 854.264 1493.08 859.973 1490.17 863.59 C 1487.55 862.995 1487.31 862.531 1485.06 860.96 C 1481.99 855.077 1480.22 838.73 1479.4 831.453 L 1471.08 752.581 C 1467.78 723.424 1463.37 689.664 1464.24 660.188 C 1464.39 655.097 1467.23 651.171 1470.29 647.327 z"/>
<path transform="translate(0,0)" fill="rgb(254,107,60)" d="M 1535.94 348.806 C 1544.8 347.4 1558.97 339.815 1569.08 337.366 C 1613.49 326.611 1661.2 319.5 1703.76 340.936 C 1708.08 343.088 1711.92 347.188 1713.77 351.536 C 1713.31 356.651 1710.78 357.255 1706.65 360.209 C 1655.96 350.945 1616.65 347.787 1564.7 356.248 C 1557.55 356.108 1536.72 357.848 1532.02 353.09 L 1532.29 351.307 L 1535.94 348.806 z"/>
<path transform="translate(0,0)" fill="rgb(254,107,60)" d="M 1176.44 629.967 C 1151.9 629.337 1134.6 631.154 1110.45 635.61 C 1101.93 637.184 1086.33 642.437 1079.34 639.439 C 1075.1 633.07 1084.59 627.983 1089.18 624.913 C 1109.03 611.651 1187.48 612.475 1201.29 631.149 C 1201.68 634.27 1202.01 634.772 1200.95 637.749 C 1183.86 644.486 1160.36 649.376 1140.69 657.297 C 1125.53 663.402 1083.43 685.682 1072.97 686.579 C 1070.18 685.287 1071.41 686.207 1069.76 683.099 C 1068.85 665.113 1129.9 643.733 1146.02 639.114 C 1157.01 635.964 1171.42 634.81 1182.84 632.686 C 1186.39 633.103 1191.61 632.757 1195.17 632.058 C 1191.8 628.928 1181.26 629.857 1176.44 629.967 z"/>
<path transform="translate(0,0)" fill="rgb(254,107,60)" d="M 1298.77 229.33 C 1357.07 230.215 1425.78 268.947 1455.78 319.211 C 1456.74 320.821 1456.26 320.831 1455.5 322.39 C 1452 322.715 1448.73 320.045 1445.54 318.086 C 1436.09 311.981 1426.53 304.211 1417.27 297.863 C 1377.93 270.916 1334.1 256.186 1288.55 243.668 C 1285.63 242.864 1285.06 242.453 1283.49 240.137 C 1284.77 234.313 1293.43 230.382 1298.77 229.33 z"/>
<path transform="translate(0,0)" fill="rgb(254,107,60)" d="M 1607.82 173.826 C 1610.77 174.207 1610.02 174.137 1612.88 175.348 C 1620.58 183.616 1608.66 196.398 1602.47 201.824 C 1568.83 231.331 1542.16 266.412 1518.82 304.433 C 1514.56 311.366 1507.92 322.083 1502.52 328.27 C 1501.32 329.349 1500.06 330.324 1498.8 331.338 L 1497.14 330.975 C 1495.43 326.27 1498.89 317.436 1500.68 312.76 C 1518.38 266.628 1561.62 194.25 1607.82 173.826 z"/>
<path transform="translate(0,0)" fill="rgb(23,134,232)" d="M 372.215 926.392 C 372.47 926.354 372.723 926.302 372.979 926.278 C 388.714 924.851 474.367 935.632 483.248 944.091 C 485.217 945.966 486.021 947.758 485.787 950.478 C 485.589 952.766 484.233 954.361 482.357 955.599 C 472.327 962.216 440.864 956.266 429.367 954.277 C 400.113 949.742 380.439 943.284 349.994 948.748 C 340.708 950.415 322.444 952.651 316.534 943.677 C 314.202 927.483 359.387 927.917 372.215 926.392 z"/>
<path transform="translate(0,0)" fill="rgb(254,107,60)" d="M 1221.07 503.532 C 1225.63 503.668 1225.7 504.02 1228.58 506.375 C 1229.32 508.025 1230.24 509.945 1229.77 511.768 C 1223.1 537.221 1214.6 562.636 1210.28 588.693 C 1214.51 583.945 1220.94 558.493 1230.27 550.563 C 1233.87 549.649 1232.23 549.477 1235.36 550.525 C 1238.42 557.26 1215.92 612.949 1207.41 614.599 C 1202.27 607.879 1196.97 598.476 1192.3 591.129 C 1185.84 580.995 1180.28 573.706 1172.89 564.421 C 1160.85 552.268 1149.99 543.982 1137.47 532.704 C 1135.64 531.053 1134.62 528.947 1134.29 526.476 C 1135.1 523.15 1134.86 523.175 1137.09 520.668 C 1153.3 513.303 1194.79 563.51 1199.6 577.889 C 1202 585.069 1205.05 593.922 1208.24 600.71 C 1210.16 592.825 1204.99 586.538 1204.3 579.372 C 1202.28 558.222 1205.48 518.71 1221.07 503.532 z"/>
<path transform="translate(0,0)" fill="rgb(254,107,60)" d="M 1507.53 352.902 C 1503.71 354.039 1502.54 354.451 1499.35 353.119 C 1498.51 347.631 1509.81 339.53 1514.02 335.796 C 1546.72 306.761 1591.21 286.691 1634.28 280.407 C 1646.96 278.557 1666.4 274.095 1670.55 289.98 C 1669.02 293.549 1665.68 295.156 1661.9 295.936 C 1613.67 305.899 1570.26 318.505 1526.7 342.195 C 1521.75 345.085 1512.41 350.88 1507.53 352.902 z"/>
<path transform="translate(0,0)" fill="rgb(23,134,232)" d="M 567.093 938.424 C 578.715 936.672 665.76 935.81 679.933 942.769 C 680.866 943.113 681.227 946.172 681.168 946.842 C 679.763 962.774 634.643 960.051 624.683 960.074 C 611.093 959.2 597.483 958.678 583.866 958.507 C 561.357 958.186 534.904 961.086 513.359 956.112 C 505.823 947.666 519.161 943.605 525.663 942.602 C 537.781 940.732 555.279 939.431 567.093 938.424 z"/>
<path transform="translate(0,0)" fill="rgb(8,69,138)" d="M 195.24 427.407 C 208.646 433.456 210.811 437.667 219.533 449.58 L 218.694 452.027 L 219.535 452.56 C 219.421 455.323 219.66 456.307 218.325 458.696 L 219.021 459.791 C 214.324 483.565 207.732 489.271 183.798 490.559 C 180.366 487.424 175.826 488.486 171.387 488.714 C 164.234 481.817 156.717 474.921 154.636 464.893 C 152.847 456.291 154.608 447.332 159.519 440.046 C 163.757 433.679 169.783 429.488 177.32 428.175 C 187.93 434.449 186.543 429.223 195.24 427.407 z"/>
<path transform="translate(0,0)" fill="rgb(250,252,252)" d="M 184.021 443.482 C 191.624 442.222 198.807 447.372 200.053 454.978 C 201.299 462.583 196.135 469.756 188.527 470.988 C 180.939 472.217 173.789 467.07 172.546 459.484 C 171.303 451.898 176.437 444.738 184.021 443.482 z"/>
<path transform="translate(0,0)" fill="rgb(254,107,60)" d="M 1446.26 377.882 C 1447.85 378.02 1447 377.771 1448.68 378.996 C 1448.5 385.255 1431.15 404.075 1425.88 409.679 C 1398.83 438.439 1374.51 469.153 1349.46 499.568 C 1344.56 505.51 1338.72 510.115 1332.5 514.619 C 1330 511.494 1326.44 507.263 1328.41 503.086 C 1352.11 452.703 1398 404.834 1446.26 377.882 z"/>
<path transform="translate(0,0)" fill="rgb(254,213,60)" d="M 1621.87 745.637 C 1626.08 746.094 1628.67 747.444 1630.1 751.578 C 1629.81 760.222 1609.92 802.608 1605.62 813.331 C 1600.3 826.753 1595.44 840.35 1591.05 854.099 C 1587.33 865.64 1575.15 917.35 1572.07 922.71 C 1567.12 923.797 1564.35 917.769 1564.25 913.675 C 1563.29 873.121 1578.73 830.505 1594.03 793.389 C 1600.58 777.525 1609.29 756.221 1621.87 745.637 z"/>
<path transform="translate(0,0)" fill="rgb(254,107,60)" d="M 1510.48 382.459 C 1511.65 382.685 1512.81 382.987 1513.93 383.364 C 1551.24 395.43 1598.7 454.166 1615.82 489.277 C 1620.52 498.91 1623.83 506.354 1620.31 516.702 L 1618.48 517.917 C 1611.44 518.859 1607.31 513.709 1603.74 508.127 C 1580.13 471.242 1556.29 434.778 1526.01 402.882 C 1521.09 397.697 1512.92 388.814 1510.48 382.459 z"/>
<path transform="translate(0,0)" fill="rgb(23,134,232)" d="M 437.75 903.389 C 446.098 902.666 467.615 902.06 475.897 902.733 C 489.848 903.867 579.156 899.576 584.44 909.471 C 583.974 919.561 574.259 919.735 566.249 919.982 C 554.562 920.151 542.853 921.547 531.145 921.864 C 516.01 922.273 430.162 922.667 420.886 916.636 C 418.803 915.282 418.804 914.739 418.225 912.46 C 421.804 904.832 430.57 904.062 437.75 903.389 z"/>
<path transform="translate(0,0)" fill="rgb(254,213,60)" d="M 1789.35 615.611 C 1827.62 620.557 1869.39 672.835 1888.07 704.486 C 1894.64 715.608 1903.4 731.303 1898.44 744.287 L 1894.95 745.734 C 1888.94 744.418 1879.28 725.473 1874.94 718.389 C 1857.78 690.369 1838.51 667.974 1816.2 644.133 C 1806.27 633.527 1798.67 627.623 1789.35 615.611 z"/>
<path transform="translate(0,0)" fill="rgb(254,213,60)" d="M 1803.11 605.5 C 1845.17 604.144 1891.61 633.381 1919.79 662.737 C 1925.05 668.21 1934.03 680.916 1931.63 688.534 L 1929.32 689.731 C 1925.17 689.881 1923.21 688.183 1919.38 686.047 C 1885.37 652.562 1832.97 617.436 1784.56 609.888 C 1782.36 609.544 1783.68 610.191 1781.71 608.572 L 1782.52 607.193 C 1786.95 605.67 1797.58 605.81 1803.11 605.5 z"/>
<path transform="translate(0,0)" fill="rgb(23,134,232)" d="M 256.635 900.374 C 268.833 898.405 335.683 897.78 341.925 908.666 C 340.366 922.192 302.237 920.888 292.046 921.085 C 275.379 920.71 222.524 925.179 211.522 919.514 C 209.01 918.221 206.596 916 205.839 913.218 C 205.385 911.548 206.188 910.841 206.904 909.392 C 215.735 902.613 243.807 902.035 256.635 900.374 z"/>
<path transform="translate(0,0)" fill="rgb(23,134,232)" d="M 712.363 900.573 C 717.339 900.198 722.328 900.02 727.318 900.041 C 740.799 900.123 782.858 900.677 791.757 909.705 C 792.942 913.498 792.964 911.671 791.798 915.382 C 780.901 923.815 747.554 920.261 731.241 921.563 C 717.553 922.057 654.701 925.265 651.736 911.121 C 659.32 902.49 699.424 901.482 712.363 900.573 z"/>
<path transform="translate(0,0)" fill="rgb(254,107,60)" d="M 1528.85 182.048 C 1537.94 183.631 1541.25 188.441 1537.48 196.94 C 1523.52 228.451 1507.09 258.093 1497.64 291.635 C 1495.11 300.602 1490.85 312.418 1486.09 320.234 C 1483.89 323.596 1484.32 324.285 1481.35 325.247 C 1478.47 320.398 1483.66 294.908 1484.46 288.285 C 1487.96 259.403 1504.51 199.638 1528.85 182.048 z"/>
<path transform="translate(0,0)" fill="rgb(254,213,60)" d="M 1742.64 616.128 L 1745.06 616.171 L 1745.97 617.45 C 1744.53 621.071 1711.67 647.488 1705.84 652.223 C 1681.26 672.175 1655.47 703.632 1628.31 719.242 C 1624.71 717.254 1625.91 718.623 1624.12 715.458 C 1624.06 710.624 1625.88 705.901 1628.61 702.046 C 1650.32 671.421 1706.04 623.639 1742.64 616.128 z"/>
<path transform="translate(0,0)" fill="rgb(254,213,60)" d="M 1776.69 621.408 C 1797.8 630.093 1839.63 737.774 1827.96 761.92 C 1826.1 763.556 1825.23 764.084 1823.13 765.434 L 1820.89 764.848 C 1816.33 759.124 1777.98 634.28 1776.69 621.408 z"/>
<path transform="translate(0,0)" fill="rgb(254,213,60)" d="M 1766.27 621.326 C 1767.12 622.012 1767.64 622.53 1768.12 623.57 C 1774.82 638.165 1765.16 752.609 1757.77 768.955 C 1755.67 773.611 1753.43 775.948 1748.68 777.755 C 1736.08 762.14 1756.01 643.11 1766.27 621.326 z"/>
<path transform="translate(0,0)" fill="rgb(23,134,232)" d="M 935.057 1698.64 C 962.451 1693.58 995.544 1702.53 1019.92 1715.16 C 1025.44 1718.03 1025.69 1726.81 1021.91 1729.36 C 1007.71 1738.92 980.165 1726.44 964.498 1724.98 C 953.01 1723.91 947.612 1725.08 936.723 1723.57 C 932.622 1722.67 930.516 1719.13 926.391 1718.03 L 925.951 1716.23 L 926.872 1715.82 C 928.525 1716.5 927.614 1716.34 929.629 1716.12 C 936.584 1708.76 932.405 1711.27 934.844 1699.63 L 935.057 1698.64 z"/>
<path transform="translate(0,0)" fill="rgb(254,213,60)" d="M 1898.88 545.497 C 1908.62 545.825 1927.4 546.521 1929.64 558.56 C 1925.36 565.435 1916.92 563.383 1908.56 562.93 C 1875 561.112 1842.3 572.015 1811.3 583.664 C 1803.87 586.891 1795.93 591.542 1788.35 593.868 C 1785.32 590.022 1787.02 586.533 1790.57 583.549 C 1811.68 565.765 1840.71 553.772 1867.42 547.655 C 1876.16 545.654 1889.9 545.685 1898.88 545.497 z"/>
<path transform="translate(0,0)" fill="rgb(254,107,60)" d="M 1089.1 563.393 C 1121.78 561.44 1157.57 582.325 1184.18 599.587 C 1177.32 592.198 1163.65 580.582 1162.88 570.658 L 1164.06 569.502 C 1175.21 571.827 1184.85 587.606 1190.82 596.644 C 1193.68 600.341 1205.54 614.493 1203.41 618.67 C 1198.69 617.539 1194.05 615.23 1189.65 613.185 C 1161.55 600.116 1133.28 586.64 1102.37 581.802 C 1094.76 580.611 1085.44 579.809 1078.61 576.562 C 1077.78 576.17 1078.02 574.586 1077.98 573.759 C 1080.38 568.478 1084.09 566.18 1089.1 563.393 z"/>
<path transform="translate(0,0)" fill="rgb(254,213,60)" d="M 1857.56 582.507 C 1879.1 582.479 1893.68 583.158 1913.37 593.279 C 1920.93 597.166 1927.97 599.356 1930.95 607.963 L 1929.92 609.926 C 1918.59 615.005 1887.44 601.567 1867.77 600.854 C 1851.26 598.52 1828.08 599.371 1811.44 600.528 C 1802.97 601.117 1793.37 603.585 1784.99 603.245 L 1783.76 601.795 C 1788.67 591.031 1845.3 582.737 1857.56 582.507 z"/>
<path transform="translate(0,0)" fill="rgb(254,107,60)" d="M 1610.44 225.803 C 1616.32 230.505 1613.28 241.605 1608.21 246.169 C 1601.34 253.143 1590.82 257.791 1583.86 264.498 C 1560.83 286.66 1534.1 306.83 1510.83 328.275 C 1510.23 328.203 1509.63 328.13 1509.03 328.058 C 1509.46 323.221 1517.65 310.931 1520.48 306.685 C 1542.91 272.351 1573.92 244.47 1610.44 225.803 z"/>
<path transform="translate(0,0)" fill="rgb(254,107,60)" d="M 1216.98 645.551 C 1242.74 654.341 1297.72 737.276 1288.28 767.203 C 1286.21 767.265 1281 766.582 1279.95 765.498 C 1275.87 761.304 1265.82 739.366 1264.01 734.84 C 1257.75 719.23 1218.58 657.22 1216.98 645.551 z"/>
<path transform="translate(0,0)" fill="rgb(254,107,60)" d="M 1200.27 648.661 C 1201.98 649.919 1201.21 649.191 1202.16 651.429 C 1201.24 657.734 1193.62 676.466 1191.09 683.84 C 1185.51 700.506 1180.35 717.311 1175.64 734.241 C 1172.34 746.319 1166.32 784.31 1163.31 790.199 C 1159.73 791.086 1160.18 790.43 1155.91 788.694 C 1137.56 764.842 1179.19 666.886 1200.27 648.661 z"/>
<path transform="translate(0,0)" fill="rgb(254,107,60)" d="M 1279.3 792.422 C 1293.13 794.663 1287.57 803.477 1288.04 812.284 C 1288.3 817.346 1310.19 823.496 1314.9 826.002 C 1328.03 832.992 1344.05 854.523 1336.13 869.174 L 1334.62 869.572 L 1329.3 865.308 C 1313.7 850.95 1301.32 843.786 1283.23 833.437 C 1279.4 831.245 1267.49 821.621 1263.52 818.48 C 1260.05 803.916 1263.55 794.55 1279.3 792.422 z"/>
<path transform="translate(0,0)" fill="rgb(254,213,60)" d="M 1750.21 630.642 C 1751.49 630.956 1750.75 630.651 1752.19 631.984 C 1752.25 640.517 1713.05 741.179 1705.61 749.133 C 1702.42 750.152 1704.17 750.046 1700.12 747.967 C 1698.23 745.192 1695.58 742.165 1693.4 739.525 C 1701.35 710.291 1726.99 649.087 1750.21 630.642 z"/>
<path transform="translate(0,0)" fill="rgb(254,213,60)" d="M 1638.86 538.939 C 1671.58 538.185 1695.81 551.869 1722.55 569.154 C 1728.85 573.223 1748.49 589.344 1747.83 596.835 C 1744.57 597.786 1744.32 596.843 1740.26 595.294 C 1719.24 580.816 1692.46 569.573 1668.01 561.991 C 1652.76 557.262 1638.67 557.75 1625.23 549.012 C 1630.94 543.766 1632.39 542.772 1638.86 538.939 z"/>
<path transform="translate(0,0)" fill="rgb(254,213,60)" d="M 1699.54 503.498 C 1720.33 508.428 1732.91 545.324 1747.99 559.702 C 1743.44 550.205 1733.71 534.456 1732.67 524.94 C 1734.21 520.994 1733.59 520.825 1736.41 518.476 L 1738.28 519.035 C 1745.16 525.164 1749.71 538.199 1752.6 546.752 C 1754.54 551.231 1759.73 570.093 1761.62 576.272 C 1759.27 579.723 1758.76 580.872 1755.53 583.36 C 1750.23 581.611 1710.64 532.291 1702.24 524.839 C 1696.47 519.716 1693.99 510.927 1699.54 503.498 z"/>
<path transform="translate(0,0)" fill="rgb(254,107,60)" d="M 1190.5 643.623 L 1191.87 645.101 C 1191.38 654.117 1160.24 683.805 1153.08 692.11 C 1141.33 705.749 1128.05 721.235 1115.05 733.879 C 1112.3 736.549 1108.05 737.226 1104.41 737.857 C 1096.88 718.718 1147.15 674.561 1160.16 664.2 C 1168.83 657.29 1180.67 652.258 1189.48 644.53 L 1190.5 643.623 z"/>
<path transform="translate(0,0)" fill="rgb(254,107,60)" d="M 1310.67 559.146 C 1315.57 558.553 1315.85 558.211 1319.37 561.249 C 1321.77 566.935 1319.3 574.167 1314.14 576.627 C 1283.8 591.085 1255.93 607.747 1227.09 624.787 C 1225.76 625.699 1224.17 626.581 1222.76 627.415 L 1221.23 626.902 L 1221.2 624.602 C 1232.78 599.637 1285.26 569.304 1310.67 559.146 z"/>
<path transform="translate(0,0)" fill="rgb(254,107,60)" d="M 1672.48 193.291 C 1678 195.158 1681.21 201.132 1683.73 206.088 C 1688.85 206.722 1694.29 207.839 1699.4 208.772 C 1697.14 216.713 1697.67 219.022 1696.9 227.096 C 1694 231.199 1689.76 230.955 1688.71 232.359 C 1687.28 234.27 1685.47 249.481 1684.54 253.616 C 1682.05 251.335 1679.41 248.171 1677.12 245.581 C 1675.81 244.276 1672.84 239.31 1671.67 237.463 C 1662.85 238.338 1660.61 239.662 1652.89 243.573 C 1655.2 238.07 1657.54 232.587 1659.94 227.123 C 1656.97 222.003 1651.38 215.301 1653.41 209.724 C 1656.54 207.194 1661.44 207.514 1665.68 207.23 C 1667.88 202.258 1670 198.084 1672.48 193.291 z"/>
<path transform="translate(0,0)" fill="rgb(254,107,60)" d="M 1206.59 652.206 C 1219.25 659.057 1222.77 754.812 1214.92 769.465 L 1211.01 770.039 C 1200.08 765.161 1201.77 665.145 1206.59 652.206 z"/>
<path transform="translate(0,0)" fill="rgb(254,213,60)" d="M 1793.07 347.757 C 1795.04 348.753 1798.19 355.983 1800.59 359.251 C 1805.85 362.515 1811.58 360.647 1817.63 359.546 C 1814.58 364.82 1811.61 370.142 1808.72 375.509 C 1811.47 378.86 1815.89 382.633 1814.79 386.836 C 1811.43 388.742 1806.73 388.574 1802.73 388.831 L 1792.55 397.859 C 1790.16 399.476 1790.29 399.411 1787.51 400.182 L 1785.61 398.878 C 1783.12 390.951 1782.04 388.18 1773.49 386.356 L 1770.02 385.589 L 1768.52 385.258 L 1767.92 383.501 C 1770.26 379.19 1774.21 376.136 1777.9 372.756 C 1775.86 368.317 1775.43 367.563 1774.52 362.864 C 1777.21 353.328 1782.72 361.579 1792.18 348.958 L 1793.07 347.757 z"/>
<path transform="translate(0,0)" fill="rgb(254,213,60)" d="M 1656.62 817.661 C 1660.47 818.727 1662.63 820.812 1663.56 824.706 C 1661.21 837.06 1627.93 887.919 1618.26 897.305 L 1616.55 897.719 C 1613.51 896.178 1614.77 897.273 1612.96 894.006 C 1611.59 876.555 1637.53 836.683 1648.77 822.859 C 1650.04 821.297 1654.67 818.698 1656.62 817.661 z"/>
<path transform="translate(0,0)" fill="rgb(254,107,60)" d="M 1265.36 537.554 C 1270.01 538.212 1273.08 539.523 1274.85 544.208 C 1274.91 546.721 1274.06 548.858 1272.55 550.855 C 1255.33 573.702 1237.18 595.483 1220.74 618.97 C 1219.38 621.574 1220.36 620.597 1217.56 621.866 L 1215.55 621.021 L 1214.91 618.971 C 1220.71 594.802 1245.46 553.333 1265.36 537.554 z"/>
<path transform="translate(0,0)" fill="rgb(254,107,60)" d="M 1185.29 311.149 C 1190.89 312.262 1193.19 316.193 1196.92 320.575 C 1202.81 316.628 1209.43 310.032 1215.96 314.56 C 1217.54 320.715 1212.04 324.065 1209.66 329.501 C 1207.38 334.726 1213.71 339.548 1215.42 345.972 C 1214.08 349.454 1214.47 348.383 1210.99 350.975 C 1203.99 352.611 1199.35 350.588 1196.16 351.769 C 1194.87 354.569 1194.19 356.992 1191.72 358.674 L 1189.84 357.59 C 1187.51 353.895 1187.91 350.015 1187.71 345.481 C 1181.42 344.831 1177.51 345.382 1173.5 340.868 C 1172.51 335.329 1182.01 318.749 1185.29 311.149 z"/>
<path transform="translate(0,0)" fill="rgb(254,107,60)" d="M 1332.15 162.959 C 1338.09 167.767 1338.18 172.038 1339.65 179.312 C 1344.89 182.983 1350.06 186.759 1355.15 190.637 C 1348.67 196.769 1343.89 209.191 1336.9 208.778 C 1332.92 205.63 1332.14 203.985 1327.08 205.135 C 1323.66 207.769 1320.05 211.928 1316.05 209.262 C 1314.59 205.084 1315.85 200.5 1316.55 195.929 C 1312 190.625 1306.92 182.113 1303.02 176.007 L 1322.94 175.63 C 1326.05 171.432 1329.12 167.208 1332.15 162.959 z"/>
<path transform="translate(0,0)" fill="rgb(23,134,232)" d="M 150.001 1733.95 C 138.085 1727.94 105.747 1723.04 103.138 1715.83 C 94.1082 1690.89 145.01 1702.6 150.913 1704.19 C 151.21 1716.4 150.731 1722.13 150.001 1733.95 z"/>
<path transform="translate(0,0)" fill="rgb(254,107,60)" d="M 1478.78 161.8 C 1502.14 160.976 1489.23 198.79 1483.32 210.498 C 1481.23 210.711 1482.33 210.818 1480.04 209.929 C 1475.58 202.555 1472.36 181.371 1472.6 172.28 C 1472.73 167.275 1475.29 164.941 1478.78 161.8 z"/>
<path transform="translate(0,0)" fill="rgb(254,107,60)" d="M 1700.46 279.996 C 1723.07 278.622 1727.19 292.78 1710.91 307.714 C 1689.3 315.585 1689.28 291.8 1700.46 279.996 z"/>
<path transform="translate(0,0)" fill="rgb(254,213,60)" d="M 1707.95 777.906 C 1726.19 779.241 1723.8 800.902 1709.2 810.288 C 1690.18 809.583 1691.33 782.49 1707.95 777.906 z"/>
<path transform="translate(0,0)" fill="rgb(255,165,46)" d="M 1517.37 607.903 C 1537.24 612.756 1534.52 632.133 1519.83 636.646 C 1503.63 634.233 1498.98 614.007 1517.37 607.903 z"/>
<path transform="translate(0,0)" fill="rgb(254,107,60)" d="M 1355.31 545.781 C 1372.07 549.736 1376.75 566.138 1360.88 573.706 L 1360.33 573.609 C 1342.1 570.549 1340.66 556.472 1355.31 545.781 z"/>
<path transform="translate(0,0)" fill="rgb(254,107,60)" d="M 1203.77 784.148 C 1222.31 782.875 1226.38 795.596 1214.14 808.51 C 1198.69 810.919 1192.55 796.406 1203.77 784.148 z"/>
<path transform="translate(0,0)" fill="rgb(254,213,60)" d="M 1518.5 690.604 C 1532.81 698.629 1526.86 717.503 1519.07 728.119 L 1517.01 728.051 C 1509.07 719.131 1508.31 698.499 1518.5 690.604 z"/>
<path transform="translate(0,0)" fill="rgb(177,87,51)" fill-opacity="0.0313725" d="M 1507.53 352.902 C 1512.41 350.88 1521.75 345.085 1526.7 342.195 C 1530.43 345.783 1531.04 343.592 1535.94 348.806 L 1532.29 351.307 L 1532.02 353.09 C 1536.72 357.848 1557.55 356.108 1564.7 356.248 L 1568.41 359.009 C 1548.83 356.995 1530.75 358.243 1511.57 361.828 C 1510.06 361.675 1508.59 361.437 1507.09 361.217 C 1505.58 357.949 1506.56 357.399 1507.53 352.902 z M 1520.05 356.929 C 1520.08 353.666 1519.87 353.787 1521.73 351.17 L 1525.81 350.22 L 1526.28 349.44 L 1523.4 347.102 L 1516.7 350.966 L 1516.73 351.362 L 1518.5 350.01 L 1517.22 353.313 L 1518.37 354.747 C 1518.93 355.474 1519.49 356.202 1520.05 356.929 z"/>
<path transform="translate(0,0)" fill="rgb(254,213,60)" d="M 1672.86 712.628 C 1686.4 720.03 1673.75 741.941 1665.96 749.273 C 1650.23 745.851 1666.7 719.012 1672.86 712.628 z"/>
<path transform="translate(0,0)" fill="rgb(254,107,60)" d="M 1504.86 532.648 C 1521.55 537.113 1516.38 556.927 1510.05 568.052 C 1506.81 568.985 1508.54 568.816 1504.65 567.522 C 1498.78 562.189 1499.36 539.19 1504.86 532.648 z"/>
<path transform="translate(0,0)" fill="rgb(254,107,60)" d="M 1333.97 775.333 L 1335.25 776.125 C 1344.11 781.535 1358.26 799.46 1349.2 809.282 C 1340.98 807.042 1333.55 792.584 1331.78 784.811 C 1330.66 779.869 1331.58 779.212 1333.97 775.333 z"/>
<path transform="translate(0,0)" fill="rgb(254,107,60)" d="M 1402.32 611.525 C 1407.99 609.507 1414.23 612.482 1416.24 618.164 C 1418.25 623.847 1415.26 630.079 1409.57 632.075 C 1403.9 634.066 1397.69 631.089 1395.69 625.422 C 1393.69 619.755 1396.65 613.538 1402.32 611.525 z"/>
<path transform="translate(0,0)" fill="rgb(254,107,60)" d="M 1240.65 361.858 C 1257.51 361.961 1259.44 373.623 1247.09 384.138 C 1231.09 387.823 1231.46 370.641 1240.65 361.858 z"/>
<path transform="translate(0,0)" fill="rgb(254,107,60)" d="M 1344.72 615.107 C 1359.57 616.467 1364.14 626.328 1349.09 632.054 C 1343.37 632.322 1341.54 632.786 1337.24 628.508 C 1334.89 620.97 1338.95 618.853 1344.72 615.107 z"/>
<path transform="translate(0,0)" fill="rgb(254,107,60)" d="M 1199.99 450.71 C 1213.83 452.605 1216.09 462.323 1207.33 472.4 C 1191.01 471.353 1193.3 461.652 1199.99 450.71 z"/>
<path transform="translate(0,0)" fill="rgb(254,107,60)" d="M 1236.78 733.279 C 1248 737.195 1249.93 749.889 1246.88 760.069 C 1234.61 760.793 1233.19 741.778 1236.78 733.279 z"/>
<path transform="translate(0,0)" fill="rgb(254,138,81)" fill-opacity="0.0196078" d="M 1176.44 629.967 C 1181.26 629.857 1191.8 628.928 1195.17 632.058 C 1191.61 632.757 1186.39 633.103 1182.84 632.686 C 1180.97 631.551 1178.54 630.773 1176.44 629.967 z"/>
<path transform="translate(0,0)" fill="rgb(254,213,60)" fill-opacity="0.145098" d="M 1728.56 602.672 L 1731.25 604.546 C 1728.7 605.522 1723.93 604.747 1720.95 604.485 L 1728.56 602.672 z"/>
</svg>